<svg width="27" height="26" viewBox="0 0 27 26" fill="none" xmlns="http://www.w3.org/2000/svg">
<path d="M18.4973 10.1582C15.1095 9.03396 12.466 6.37533 11.3266 3.00268L10.9924 2L10.6582 3.00268C9.53396 6.39052 6.87534 9.03396 3.50268 10.1582L2.5 10.4924L3.50268 10.8266C6.89053 11.9508 9.53396 14.6095 10.6582 17.9973L10.9924 19L11.3266 17.9973C12.4509 14.6095 15.1095 11.966 18.4973 10.8266L19.5 10.4924L18.4973 10.1582Z" fill="#D7FF50"/>
<path d="M23.9102 18.7989C21.9173 18.1376 20.3624 16.5737 19.6921 14.5898L19.4955 14L19.2989 14.5898C18.6376 16.5827 17.0737 18.1376 15.0898 18.7989L14.5 18.9955L15.0898 19.1921C17.0827 19.8534 18.6376 21.4173 19.2989 23.4102L19.4955 24L19.6921 23.4102C20.3534 21.4173 21.9173 19.8624 23.9102 19.1921L24.5 18.9955L23.9102 18.7989Z" fill="#D7FF50"/>
</svg>
