<svg width="24" height="24" viewBox="0 0 24 24" fill="none" xmlns="http://www.w3.org/2000/svg">
<path d="M11.9879 2.46892V1.46892H11.9878L11.9879 2.46892ZM4.13594 14.5323L5.00233 15.0316L4.13594 14.5323ZM3.28789 16.0036L2.4215 15.5042L2.4215 15.5042L3.28789 16.0036ZM20.7082 15.9957L19.8454 16.5012V16.5012L20.7082 15.9957ZM19.8573 14.5433L20.7201 14.0378L19.8573 14.5433ZM11.9885 2.46892L11.9886 1.46892L11.9885 2.46892ZM5.76693 9.95067C5.76693 8.4141 6.15148 6.78192 7.08838 5.55854C7.99186 4.37881 9.49062 3.46906 11.988 3.46892L11.9878 1.46892C8.93061 1.46909 6.81889 2.62104 5.50053 4.34251C4.21559 6.02034 3.76693 8.12889 3.76693 9.95067H5.76693ZM5.76693 12.1746V9.95067H3.76693V12.1746H5.76693ZM5.00233 15.0316C5.50319 14.1627 5.76693 13.1778 5.76693 12.1746H3.76693C3.76693 12.827 3.59547 13.4674 3.26955 14.0329L5.00233 15.0316ZM4.15427 16.503L5.00233 15.0316L3.26955 14.0329L2.4215 15.5042L4.15427 16.503ZM4.40171 16.9312C4.18195 16.9312 4.04453 16.6934 4.15428 16.503L2.4215 15.5042C1.54325 17.028 2.643 18.9312 4.40171 18.9312V16.9312ZM11.9879 16.9312H4.40171V18.9312H11.9879V16.9312ZM11.9879 18.9312H11.9885V16.9312H11.9879V18.9312ZM11.9885 18.9312H19.599V16.9312H11.9885V18.9312ZM19.599 18.9312C21.3649 18.9312 22.4637 17.0139 21.571 15.4903L19.8454 16.5012C19.9569 16.6916 19.8196 16.9312 19.599 16.9312V18.9312ZM21.571 15.4903L20.7201 14.0378L18.9944 15.0487L19.8454 16.5012L21.571 15.4903ZM20.7201 14.0378C20.3856 13.4669 20.2095 12.8181 20.2095 12.1568H18.2095C18.2095 13.1738 18.4805 14.1715 18.9944 15.0487L20.7201 14.0378ZM20.2095 12.1568V9.95067H18.2095V12.1568H20.2095ZM20.2095 9.95067C20.2095 8.12889 19.7608 6.02034 18.4759 4.34251C17.1575 2.62104 15.0458 1.46909 11.9886 1.46892L11.9885 3.46892C14.4858 3.46906 15.9846 4.37881 16.888 5.55854C17.8249 6.78192 18.2095 8.4141 18.2095 9.95067H20.2095ZM11.9886 1.46892C11.9883 1.46892 11.988 1.46892 11.9879 1.46892V3.46892C11.9882 3.46892 11.9883 3.46892 11.9885 3.46892L11.9886 1.46892Z" fill="#E4E6E1"/>
<path d="M15.7493 17.9313H8.25C8.25 19.1313 8.99993 21.5313 11.9997 21.5313C14.9994 21.5313 15.7493 19.1313 15.7493 17.9313Z" fill="black" stroke="#E4E6E1" stroke-width="1.8"/>
</svg>
