<svg width="28" height="15" viewBox="0 0 28 15" fill="none" xmlns="http://www.w3.org/2000/svg">
<path d="M10.846 0.951111H12.766V11.0844H10.846V5.82222H8.62382V4.06222H10.846V0.951111ZM4.97937 6.35556C4.49345 7.18519 3.87715 7.85481 3.13049 8.36444C2.38382 8.86222 1.55419 9.14667 0.641597 9.21778V7.38667C1.61345 7.2563 2.4016 6.78815 3.00604 5.98222C3.61049 5.1763 3.96012 4.16889 4.05493 2.96H0.801597V1.21778H9.08604V2.96H5.99271C5.98086 3.50519 5.89197 4.09185 5.72604 4.72L9.53049 7.65333L8.44604 9.11111L4.97937 6.35556ZM12.9972 14.4978H1.49493V9.98222H3.45049V12.6844H12.9972V14.4978ZM18.6842 4.61333C18.6605 5.86963 18.6012 6.83556 18.5064 7.51111L21.5286 12.7911L20.0353 13.7156L17.9731 10.0356C17.2856 12.4059 16.1242 13.68 14.4886 13.8578V11.92C15.2353 11.7778 15.8101 11.0607 16.2131 9.76889C16.616 8.46519 16.8294 6.74667 16.8531 4.61333H14.6664V2.78222H16.8531V0.915555H18.6842V2.78222H20.8708V4.61333H18.6842ZM27.1108 14.6044H25.2975V0.951111H27.1108V14.6044ZM23.7864 1.02222V14.3733H21.9731V8.25778H20.3197V6.35556H21.9731V1.02222H23.7864Z" fill="#F2F2F2"/>
</svg>
