<svg width="25" height="24" viewBox="0 0 25 24" fill="none" xmlns="http://www.w3.org/2000/svg">
<path d="M12.8441 13.41L17.4951 9.18992C17.6533 9.04638 17.8379 8.97691 18.0488 8.9815C18.2598 8.98609 18.4443 9.06035 18.6025 9.20428C18.7607 9.3482 18.8398 9.51566 18.8398 9.70667C18.8398 9.89767 18.7607 10.0651 18.6025 10.2091L13.7458 14.6301C13.6193 14.7449 13.4769 14.8311 13.3187 14.8885C13.1605 14.9459 13.0023 14.9746 12.8441 14.9746C12.6859 14.9746 12.5277 14.9459 12.3695 14.8885C12.2113 14.8311 12.0689 14.7449 11.9423 14.6301L7.06979 10.2091C6.91159 10.0655 6.83502 9.89557 6.84008 9.6992C6.84514 9.50284 6.92698 9.33308 7.08561 9.18992C7.24423 9.04676 7.42879 8.97499 7.6393 8.97461C7.84982 8.97423 8.03438 9.046 8.193 9.18992L12.8441 13.41Z" fill="#E4E6E1"/>
</svg>
