<svg width="25" height="24" viewBox="0 0 25 24" fill="none" xmlns="http://www.w3.org/2000/svg">
<g id="material-symbols:arrow-back-ios-rounded">
<path id="Vector" d="M10.1619 12.0055L16.2881 18.1317C16.4964 18.3401 16.5973 18.5832 16.5906 18.861C16.584 19.1388 16.4762 19.3819 16.2672 19.5903C16.0583 19.7987 15.8152 19.9029 15.5379 19.9029C15.2606 19.9029 15.0175 19.7987 14.8086 19.5903L8.39072 13.1933C8.22402 13.0266 8.099 12.839 8.01565 12.6307C7.9323 12.4223 7.89062 12.2139 7.89062 12.0055C7.89063 11.7972 7.9323 11.5888 8.01565 11.3804C8.099 11.172 8.22402 10.9845 8.39072 10.8178L14.8086 4.39991C15.017 4.19154 15.2637 4.09069 15.5488 4.09736C15.8338 4.10402 16.0802 4.21182 16.2881 4.42075C16.4959 4.62968 16.6001 4.87278 16.6006 5.15006C16.6012 5.42733 16.497 5.67043 16.2881 5.87936L10.1619 12.0055Z" fill="#F2F2F2"/>
</g>
</svg>
