<svg width="25" height="25" viewBox="0 0 25 25" fill="none" xmlns="http://www.w3.org/2000/svg">
<g id="material-symbols:arrow-back-ios-rounded">
<path id="Vector" d="M10.2303 12.8592L16.3565 18.9853C16.5649 19.1937 16.6657 19.4368 16.659 19.7146C16.6524 19.9925 16.5446 20.2356 16.3356 20.444C16.1267 20.6523 15.8836 20.7565 15.6063 20.7565C15.3291 20.7565 15.086 20.6523 14.877 20.444L8.45914 14.0469C8.29244 13.8802 8.16742 13.6927 8.08407 13.4843C8.00072 13.2759 7.95905 13.0675 7.95905 12.8592C7.95905 12.6508 8.00072 12.4424 8.08407 12.2341C8.16742 12.0257 8.29244 11.8381 8.45914 11.6714L14.877 5.25355C15.0854 5.04518 15.3321 4.94433 15.6172 4.95099C15.9022 4.95766 16.1487 5.06546 16.3565 5.27439C16.5643 5.48332 16.6685 5.72642 16.669 6.00369C16.6696 6.28097 16.5654 6.52407 16.3565 6.733L10.2303 12.8592Z" fill="#F2F2F2"/>
</g>
</svg>
