<svg width="25" height="25" viewBox="0 0 25 25" fill="none" xmlns="http://www.w3.org/2000/svg">
<path d="M12.1325 11.1818L7.48142 15.4019C7.32322 15.5454 7.13865 15.6149 6.92772 15.6103C6.71678 15.6057 6.53222 15.5314 6.37402 15.3875C6.21582 15.2436 6.13672 15.0761 6.13672 14.8851C6.13672 14.6941 6.21582 14.5267 6.37402 14.3827L11.2307 9.96168C11.3573 9.84685 11.4997 9.76073 11.6579 9.70331C11.8161 9.6459 11.9743 9.61719 12.1325 9.61719C12.2907 9.61719 12.4489 9.6459 12.6071 9.70331C12.7653 9.76073 12.9077 9.84685 13.0342 9.96168L17.9068 14.3827C18.065 14.5263 18.1415 14.6962 18.1365 14.8926C18.1314 15.089 18.0496 15.2587 17.891 15.4019C17.7323 15.545 17.5478 15.6168 17.3373 15.6172C17.1267 15.6176 16.9422 15.5458 16.7836 15.4019L12.1325 11.1818Z" fill="#E4E6E1"/>
</svg>
