<svg width="23" height="20" viewBox="0 0 23 20" fill="none" xmlns="http://www.w3.org/2000/svg">
<g id="Group 625969">
<path id="Vector 326 (Stroke)" d="M6.78037 2.85446C7.27495 2.1126 8.10757 1.66699 8.99918 1.66699H14.0008C14.8924 1.66699 15.7251 2.1126 16.2196 2.85446L17.5183 4.80241C17.6007 4.92606 17.7395 5.00033 17.8881 5.00033H18.8333C20.3061 5.00033 21.5 6.19423 21.5 7.66699V15.667C21.5 17.1398 20.3061 18.3337 18.8333 18.3337H4.16667C2.69391 18.3337 1.5 17.1398 1.5 15.667V7.66699C1.5 6.19423 2.69391 5.00033 4.16667 5.00033H5.11194C5.26054 5.00033 5.39931 4.92606 5.48174 4.80241L6.78037 2.85446Z" stroke="#A9ABA6" stroke-width="2"/>
<circle id="Ellipse 905" cx="11.5001" cy="10.8092" r="3.26053" stroke="#A9ABA6" stroke-width="1.9"/>
</g>
</svg>
