<svg width="17" height="16" viewBox="0 0 17 16" fill="none" xmlns="http://www.w3.org/2000/svg">
<path id="Union" fill-rule="evenodd" clip-rule="evenodd" d="M15.1523 15.7071C15.5428 16.0976 16.176 16.0976 16.5665 15.7071C16.957 15.3166 16.957 14.6834 16.5665 14.2929L10.2736 8L16.5665 1.70711C16.957 1.31658 16.957 0.683417 16.5665 0.292893C16.176 -0.0976315 15.5428 -0.0976316 15.1523 0.292893L8.85938 6.58579L2.56648 0.292892C2.17596 -0.0976327 1.54279 -0.0976328 1.15227 0.292892C0.761745 0.683416 0.761745 1.31658 1.15227 1.70711L7.44516 8L1.15227 14.2929C0.761744 14.6834 0.761744 15.3166 1.15227 15.7071C1.54279 16.0976 2.17596 16.0976 2.56648 15.7071L8.85938 9.41421L15.1523 15.7071Z" fill="#464844"/>
</svg>
