<svg width="20" height="20" viewBox="0 0 20 20" fill="none" xmlns="http://www.w3.org/2000/svg">
<g id="iconamoon:close-light">
<g id="Group 625950">
<path id="Vector" d="M17.2295 11.2126L17.2295 14.4385C17.2295 14.8662 17.0596 15.2765 16.7571 15.5789C16.4546 15.8814 16.0444 16.0514 15.6166 16.0514L4.32627 16.0514C3.8985 16.0514 3.48825 15.8814 3.18577 15.5789C2.8833 15.2765 2.71336 14.8662 2.71336 14.4385L2.71336 11.2126" stroke="#F2F2F2" stroke-width="2.04839" stroke-linecap="round" stroke-linejoin="round"/>
<path id="Vector_2" d="M9.70944 11.3443L9.78608 11.2024C9.70656 11.1594 8.69214 10.6056 7.69978 9.73149C6.69922 8.85015 5.76388 7.6805 5.76383 6.40875C5.76459 5.80004 6.00674 5.21648 6.43716 4.78606C6.86759 4.35563 7.45115 4.11349 8.05985 4.11273C8.38932 4.11275 8.71044 4.24829 9.01099 4.45487C9.31108 4.66114 9.57945 4.93054 9.80058 5.18004L9.92129 5.31624L10.042 5.18004C10.2631 4.93054 10.5315 4.66114 10.8316 4.45487C11.1321 4.24829 11.4533 4.11275 11.7827 4.11273C12.3914 4.11349 12.975 4.35563 13.4054 4.78606C13.8359 5.2165 14.078 5.8001 14.0787 6.40885C14.0786 7.68056 13.1433 8.85017 12.1428 9.73149C11.1504 10.6056 10.136 11.1594 10.0565 11.2024L10.1331 11.3443M9.70944 11.3443L9.78592 11.2023C9.82752 11.2247 9.87403 11.2364 9.92129 11.2364C9.96854 11.2364 10.015 11.2247 10.0566 11.2023L10.1331 11.3443M9.70944 11.3443C9.77455 11.3794 9.84734 11.3977 9.92129 11.3977C9.99523 11.3977 10.068 11.3794 10.1331 11.3443M9.70944 11.3443C9.54191 11.2538 5.60254 9.10191 5.60254 6.40865C5.60333 5.7572 5.86247 5.13265 6.32311 4.67201C6.78376 4.21136 7.4083 3.95222 8.05976 3.95143L14.24 6.40865C14.24 9.10191 10.3007 11.2538 10.1331 11.3443" fill="#F2F2F2" stroke="#F2F2F2" stroke-width="0.322581"/>
</g>
</g>
</svg>
