<svg width="27" height="26" viewBox="0 0 27 26" fill="none" xmlns="http://www.w3.org/2000/svg">
<g id="crown 1">
<g id="Group 2608361">
<g id="Group 2608359">
<path id="Vector" d="M22.0939 18.6001L21.7031 20.38C21.6231 20.7432 21.3153 21 20.9603 21H5.72255C5.36751 21 5.05971 20.7432 4.97971 20.38L4.58887 18.6001H22.0939Z" fill="#D7FF50"/>
<path id="Vector_2" d="M23.9889 9.98044L22.4461 17H4.23707L2.69425 9.98044C2.62644 9.67086 2.7392 9.34768 2.98224 9.15809C3.22605 8.9685 3.55289 8.9485 3.81498 9.10609L8.53029 11.9355L12.7069 5.35752C12.8433 5.14313 13.0688 5.01034 13.3134 5.00074C13.5603 4.98954 13.7926 5.10633 13.9427 5.30952L18.8409 11.9219L22.8233 9.13489C23.0831 8.9541 23.4221 8.9557 23.6789 9.14209C23.9364 9.32848 24.0583 9.66126 23.9889 9.98044Z" fill="#D7FF50"/>
</g>
</g>
</g>
</svg>
