<svg width="8" height="8" viewBox="0 0 8 8" fill="none" xmlns="http://www.w3.org/2000/svg">
<path id="Union" fill-rule="evenodd" clip-rule="evenodd" d="M1.23439 0.567579C1.01099 0.344173 0.648773 0.344173 0.425367 0.567579C0.201961 0.790986 0.201961 1.1532 0.425367 1.37661L3.04879 4.00003L0.425453 6.62337C0.202047 6.84677 0.202047 7.20899 0.425453 7.43239C0.648859 7.6558 1.01107 7.6558 1.23448 7.43239L3.85781 4.80906L6.48115 7.43239C6.70455 7.6558 7.06677 7.6558 7.29017 7.43239C7.51358 7.20899 7.51358 6.84677 7.29017 6.62337L4.66684 4.00003L7.29026 1.37661C7.51366 1.1532 7.51366 0.790986 7.29026 0.567579C7.06685 0.344173 6.70464 0.344173 6.48123 0.56758L3.85781 3.191L1.23439 0.567579Z" fill="#0B0B0B"/>
</svg>
