<svg width="8" height="8" viewBox="0 0 8 8" fill="none" xmlns="http://www.w3.org/2000/svg">
<path id="Union" fill-rule="evenodd" clip-rule="evenodd" d="M1.37697 0.567579C1.15356 0.344173 0.791351 0.344173 0.567945 0.567579C0.344539 0.790986 0.344539 1.1532 0.567945 1.37661L3.19137 4.00003L0.568032 6.62337C0.344625 6.84677 0.344625 7.20899 0.568032 7.43239C0.791438 7.6558 1.15365 7.6558 1.37706 7.43239L4.00039 4.80906L6.62372 7.43239C6.84713 7.6558 7.20934 7.6558 7.43275 7.43239C7.65616 7.20899 7.65616 6.84677 7.43275 6.62337L4.80942 4.00003L7.43284 1.37661C7.65624 1.1532 7.65624 0.790986 7.43284 0.567579C7.20943 0.344173 6.84722 0.344173 6.62381 0.56758L4.00039 3.191L1.37697 0.567579Z" fill="#464844"/>
</svg>
