<svg width="145" height="25" viewBox="0 0 145 25" fill="none" xmlns="http://www.w3.org/2000/svg">
<rect width="24" height="24" transform="translate(0 0.384766)" fill="#0B0B0B"/>
<path d="M22.0674 13.5752C22.3715 13.54 22.6162 13.2957 22.6335 12.983C22.6444 12.7849 22.65 12.5855 22.65 12.3848C22.65 6.50293 17.8818 1.73477 12 1.73477C6.11817 1.73477 1.35 6.50293 1.35 12.3848C1.35 18.2666 6.11817 23.0348 12 23.0348C15.1243 23.0348 17.9345 21.6893 19.8824 19.5466C20.0896 19.3187 20.0018 18.9637 19.7274 18.8441L10.8381 14.9671C10.823 14.9605 10.8165 14.9523 10.8129 14.9454C10.8087 14.9372 10.8066 14.9259 10.8084 14.9135C10.8103 14.901 10.8156 14.8909 10.822 14.8842C10.8275 14.8786 10.8362 14.8727 10.8525 14.8708L22.0674 13.5752Z" fill="#C1FF12" stroke="#85B300" stroke-width="0.3"/>
<circle cx="9.70243" cy="10.0699" r="3.77819" transform="rotate(-5 9.70243 10.0699)" fill="white" stroke="#85B300" stroke-width="0.299376"/>
<circle cx="10.5636" cy="10.4146" r="2.05628" transform="rotate(-5 10.5636 10.4146)" fill="#202020" stroke="#85B300" stroke-width="0.120877"/>
<circle cx="17.2571" cy="8.85607" r="3.77819" transform="rotate(-5 17.2571 8.85607)" fill="white" stroke="#85B300" stroke-width="0.299376"/>
<circle cx="18.2022" cy="9.19369" r="2.05628" transform="rotate(-5 18.2022 9.19369)" fill="#202020" stroke="#85B300" stroke-width="0.120877"/>
<rect width="24" height="24" transform="translate(26 0.384766)" fill="#0B0B0B"/>
<path d="M36.4784 21.8359C36.899 22.2204 37.5434 22.2204 37.964 21.8359C38.0381 21.7681 37.9902 21.6446 37.8897 21.6446C37.7892 21.6446 36.5527 21.6446 36.5527 21.6446C36.5527 21.6446 36.5527 21.6446 36.5527 21.6446C36.4522 21.6446 36.4043 21.7681 36.4784 21.8359Z" fill="#0B0B0B"/>
<mask id="path-7-inside-1_5724_5862" fill="white">
<path d="M48.499 12.385C48.499 18.184 43.798 22.885 37.999 22.885C32.2 22.885 27.499 18.184 27.499 12.385C27.499 6.58602 32.2 1.88501 37.999 1.88501C43.798 1.88501 48.499 6.58602 48.499 12.385Z"/>
</mask>
<path d="M48.499 12.385C48.499 18.184 43.798 22.885 37.999 22.885C32.2 22.885 27.499 18.184 27.499 12.385C27.499 6.58602 32.2 1.88501 37.999 1.88501C43.798 1.88501 48.499 6.58602 48.499 12.385Z" fill="#8313FF"/>
<path d="M48.199 12.385C48.199 18.0183 43.6323 22.585 37.999 22.585V23.185C43.9637 23.185 48.799 18.3497 48.799 12.385H48.199ZM37.999 22.585C32.3657 22.585 27.799 18.0183 27.799 12.385H27.199C27.199 18.3497 32.0343 23.185 37.999 23.185V22.585ZM27.799 12.385C27.799 6.7517 32.3657 2.18501 37.999 2.18501V1.58501C32.0343 1.58501 27.199 6.42033 27.199 12.385H27.799ZM37.999 2.18501C43.6323 2.18501 48.199 6.7517 48.199 12.385H48.799C48.799 6.42033 43.9637 1.58501 37.999 1.58501V2.18501Z" fill="#5817A1" mask="url(#path-7-inside-1_5724_5862)"/>
<circle cx="35.7425" cy="10.0511" r="3.78606" fill="white" stroke="#5817A1" stroke-width="0.3"/>
<circle cx="43.3128" cy="10.0511" r="3.78606" fill="white" stroke="#5817A1" stroke-width="0.3"/>
<circle cx="36.5723" cy="10.4709" r="1.93944" fill="#202020" stroke="#5817A1" stroke-width="0.121129"/>
<circle cx="44.2256" cy="10.4709" r="1.93944" fill="#202020" stroke="#5817A1" stroke-width="0.121129"/>
<rect width="24" height="24" transform="translate(52 0.384766)" fill="#0B0B0B"/>
<path d="M62.4568 21.7918C62.8765 22.1755 63.5196 22.1755 63.9393 21.7918C64.0133 21.7242 63.9655 21.6009 63.8652 21.6009C63.7649 21.6009 62.531 21.6009 62.531 21.6009C62.531 21.6009 62.531 21.6009 62.531 21.6009C62.4307 21.6009 62.3829 21.7242 62.4568 21.7918Z" fill="#0B0B0B"/>
<mask id="path-14-inside-2_5724_5862" fill="white">
<path d="M74.4524 12.36C74.4524 18.1469 69.7612 22.8382 63.9743 22.8382C58.1873 22.8382 53.4961 18.1469 53.4961 12.36C53.4961 6.57307 58.1873 1.88184 63.9743 1.88184C69.7612 1.88184 74.4524 6.57307 74.4524 12.36Z"/>
</mask>
<path d="M74.4524 12.36C74.4524 18.1469 69.7612 22.8382 63.9743 22.8382C58.1873 22.8382 53.4961 18.1469 53.4961 12.36C53.4961 6.57307 58.1873 1.88184 63.9743 1.88184C69.7612 1.88184 74.4524 6.57307 74.4524 12.36Z" fill="#C1FF12"/>
<path d="M74.1531 12.36C74.1531 17.9816 69.5959 22.5388 63.9743 22.5388V23.1375C69.9265 23.1375 74.7518 18.3123 74.7518 12.36H74.1531ZM63.9743 22.5388C58.3527 22.5388 53.7955 17.9816 53.7955 12.36H53.1967C53.1967 18.3123 58.022 23.1375 63.9743 23.1375V22.5388ZM53.7955 12.36C53.7955 6.73841 58.3527 2.18121 63.9743 2.18121V1.58246C58.022 1.58246 53.1967 6.40773 53.1967 12.36H53.7955ZM63.9743 2.18121C69.5959 2.18121 74.1531 6.73841 74.1531 12.36H74.7518C74.7518 6.40773 69.9265 1.58246 63.9743 1.58246V2.18121Z" fill="#85B300" mask="url(#path-14-inside-2_5724_5862)"/>
<circle cx="61.7223" cy="10.0316" r="3.77819" fill="white" stroke="#85B300" stroke-width="0.299376"/>
<circle cx="69.2769" cy="10.0316" r="3.77819" fill="white" stroke="#85B300" stroke-width="0.299376"/>
<circle cx="60.5505" cy="10.4499" r="1.9354" fill="#202020" stroke="#85B300" stroke-width="0.120877"/>
<circle cx="68.1892" cy="10.4499" r="1.9354" fill="#202020" stroke="#85B300" stroke-width="0.120877"/>
<rect width="15" height="23.9501" transform="translate(78 0.409668)" fill="#0B0B0B"/>
<path d="M88.4568 21.8167C88.8765 22.2004 89.5196 22.2004 89.9393 21.8167C90.0133 21.7491 89.9655 21.6258 89.8652 21.6258C89.7649 21.6258 88.531 21.6258 88.531 21.6258C88.531 21.6258 88.531 21.6258 88.531 21.6258C88.4307 21.6258 88.3829 21.7491 88.4568 21.8167Z" fill="#0B0B0B"/>
<rect width="24" height="24" transform="translate(95 0.384766)" fill="#0B0B0B"/>
<path d="M117.067 13.5752C117.372 13.54 117.616 13.2957 117.633 12.983C117.644 12.7849 117.65 12.5855 117.65 12.3848C117.65 6.50293 112.882 1.73477 107 1.73477C101.118 1.73477 96.35 6.50293 96.35 12.3848C96.35 18.2666 101.118 23.0348 107 23.0348C110.124 23.0348 112.934 21.6893 114.882 19.5466C115.09 19.3187 115.002 18.9637 114.727 18.8441L105.838 14.9671C105.823 14.9605 105.816 14.9523 105.813 14.9454C105.809 14.9372 105.807 14.9259 105.808 14.9135C105.81 14.901 105.816 14.8909 105.822 14.8842C105.827 14.8786 105.836 14.8727 105.853 14.8708L117.067 13.5752Z" fill="#8313FF" stroke="#5817A1" stroke-width="0.3"/>
<circle cx="104.702" cy="10.0699" r="3.77819" transform="rotate(-5 104.702 10.0699)" fill="white" stroke="#5817A1" stroke-width="0.299376"/>
<circle cx="105.564" cy="10.4146" r="1.99584" transform="rotate(-5 105.564 10.4146)" fill="#202020"/>
<circle cx="112.257" cy="8.85607" r="3.77819" transform="rotate(-5 112.257 8.85607)" fill="white" stroke="#5817A1" stroke-width="0.299376"/>
<circle cx="113.202" cy="9.19369" r="1.99584" transform="rotate(-5 113.202 9.19369)" fill="#202020"/>
<rect width="24" height="24" transform="translate(121 0.384766)" fill="#0B0B0B"/>
<path d="M131.457 21.7918C131.877 22.1755 132.52 22.1755 132.939 21.7918C133.013 21.7242 132.965 21.6009 132.865 21.6009C132.765 21.6009 131.531 21.6009 131.531 21.6009C131.531 21.6009 131.531 21.6009 131.531 21.6009C131.431 21.6009 131.383 21.7242 131.457 21.7918Z" fill="#0B0B0B"/>
<mask id="path-27-inside-3_5724_5862" fill="white">
<path d="M143.452 12.36C143.452 18.1469 138.761 22.8382 132.974 22.8382C127.187 22.8382 122.496 18.1469 122.496 12.36C122.496 6.57307 127.187 1.88184 132.974 1.88184C138.761 1.88184 143.452 6.57307 143.452 12.36Z"/>
</mask>
<path d="M143.452 12.36C143.452 18.1469 138.761 22.8382 132.974 22.8382C127.187 22.8382 122.496 18.1469 122.496 12.36C122.496 6.57307 127.187 1.88184 132.974 1.88184C138.761 1.88184 143.452 6.57307 143.452 12.36Z" fill="#C1FF12"/>
<path d="M143.153 12.36C143.153 17.9816 138.596 22.5388 132.974 22.5388V23.1375C138.927 23.1375 143.752 18.3123 143.752 12.36H143.153ZM132.974 22.5388C127.353 22.5388 122.795 17.9816 122.795 12.36H122.197C122.197 18.3123 127.022 23.1375 132.974 23.1375V22.5388ZM122.795 12.36C122.795 6.73841 127.353 2.18121 132.974 2.18121V1.58246C127.022 1.58246 122.197 6.40773 122.197 12.36H122.795ZM132.974 2.18121C138.596 2.18121 143.153 6.73841 143.153 12.36H143.752C143.752 6.40773 138.927 1.58246 132.974 1.58246V2.18121Z" fill="#85B300" mask="url(#path-27-inside-3_5724_5862)"/>
<circle cx="130.722" cy="10.0316" r="3.77819" fill="white" stroke="#85B300" stroke-width="0.299376"/>
<circle cx="138.277" cy="10.0316" r="3.77819" fill="white" stroke="#85B300" stroke-width="0.299376"/>
<circle cx="131.551" cy="9.44994" r="1.9354" fill="#202020" stroke="#85B300" stroke-width="0.120877"/>
<circle cx="139.189" cy="9.44994" r="1.9354" fill="#202020" stroke="#85B300" stroke-width="0.120877"/>
</svg>
