<svg width="24" height="24" viewBox="0 0 24 24" fill="none" xmlns="http://www.w3.org/2000/svg">
<rect width="24" height="24" fill="#0B0B0B"/>
<path d="M22.5955 12.843C22.6174 12.5648 22.6285 12.2837 22.6285 12C22.6285 6.13042 17.8702 1.37216 12.0006 1.37216C6.13103 1.37216 1.37277 6.13042 1.37277 12C1.37277 17.8696 6.13103 22.6279 12.0006 22.6279C15.1673 22.6279 18.0106 21.2428 19.9574 19.0458C20.1154 18.8675 20.0479 18.5924 19.8348 18.4994L10.8412 14.577C10.8261 14.5704 10.8196 14.5623 10.816 14.5553C10.8118 14.5471 10.8097 14.5359 10.8115 14.5235C10.8134 14.511 10.8187 14.5009 10.8251 14.4943C10.8305 14.4887 10.8392 14.4828 10.8555 14.4809L22.2886 13.16C22.4521 13.1411 22.5824 13.0099 22.5955 12.843Z" fill="#C1FF12" stroke="#9CD100" stroke-width="0.299376"/>
<circle cx="9.70328" cy="9.68517" r="3.77819" transform="rotate(-5 9.70328 9.68517)" fill="white" stroke="#9CD100" stroke-width="0.299376"/>
<circle cx="10.5649" cy="10.03" r="2.05628" transform="rotate(-5 10.5649 10.03)" fill="#202020" stroke="#9CD100" stroke-width="0.120877"/>
<circle cx="17.2574" cy="8.4713" r="3.77819" transform="rotate(-5 17.2574 8.4713)" fill="white" stroke="#9CD100" stroke-width="0.299376"/>
<circle cx="18.2027" cy="8.8088" r="2.05628" transform="rotate(-5 18.2027 8.8088)" fill="#202020" stroke="#9CD100" stroke-width="0.120877"/>
</svg>
