<svg width="24" height="24" viewBox="0 0 24 24" fill="none" xmlns="http://www.w3.org/2000/svg">
<rect width="23.9501" height="23.9501" fill="#0B0B0B"/>
<path d="M10.4565 21.4069C10.8762 21.7906 11.5193 21.7906 11.939 21.4069C12.013 21.3393 11.9652 21.216 11.8649 21.216C11.7646 21.216 10.5307 21.216 10.5307 21.216C10.5307 21.216 10.5307 21.216 10.5307 21.216C10.4304 21.216 10.3825 21.3393 10.4565 21.4069Z" fill="#0B0B0B"/>
<mask id="path-2-inside-1_4406_11596" fill="white">
<path d="M22.4535 11.9752C22.4535 17.7622 17.7622 22.4534 11.9753 22.4534C6.18837 22.4534 1.49713 17.7622 1.49713 11.9752C1.49713 6.18831 6.18837 1.49707 11.9753 1.49707C17.7622 1.49707 22.4535 6.18831 22.4535 11.9752Z"/>
</mask>
<path d="M22.4535 11.9752C22.4535 17.7622 17.7622 22.4534 11.9753 22.4534C6.18837 22.4534 1.49713 17.7622 1.49713 11.9752C1.49713 6.18831 6.18837 1.49707 11.9753 1.49707C17.7622 1.49707 22.4535 6.18831 22.4535 11.9752Z" fill="#6D6D6D"/>
<path d="M22.1541 11.9752C22.1541 17.5968 17.5969 22.154 11.9753 22.154V22.7528C17.9276 22.7528 22.7528 17.9275 22.7528 11.9752H22.1541ZM11.9753 22.154C6.35371 22.154 1.79651 17.5968 1.79651 11.9752H1.19776C1.19776 17.9275 6.02303 22.7528 11.9753 22.7528V22.154ZM1.79651 11.9752C1.79651 6.35365 6.35371 1.79645 11.9753 1.79645V1.19769C6.02303 1.19769 1.19776 6.02296 1.19776 11.9752H1.79651ZM11.9753 1.79645C17.5969 1.79645 22.1541 6.35365 22.1541 11.9752H22.7528C22.7528 6.02296 17.9276 1.19769 11.9753 1.19769V1.79645Z" fill="#5D5D5D" mask="url(#path-2-inside-1_4406_11596)"/>
<circle cx="9.72372" cy="9.64694" r="3.77819" fill="white" stroke="#5D5D5D" stroke-width="0.299376"/>
<circle cx="17.2783" cy="9.64694" r="3.77819" fill="white" stroke="#5D5D5D" stroke-width="0.299376"/>
<circle cx="10.5518" cy="10.0657" r="1.9354" fill="#202020" stroke="#5D5D5D" stroke-width="0.120877"/>
<circle cx="18.1901" cy="10.0657" r="1.9354" fill="#202020" stroke="#5D5D5D" stroke-width="0.120877"/>
</svg>
