<svg width="147" height="26" viewBox="0 0 147 26" fill="none" xmlns="http://www.w3.org/2000/svg">
<path d="M11.5117 23.2391C11.9673 23.6556 12.6654 23.6556 13.121 23.2391C13.2014 23.1657 13.1494 23.0318 13.0406 23.0318C12.9317 23.0318 11.5922 23.0318 11.5922 23.0318C11.5922 23.0318 11.5922 23.0318 11.5922 23.0318C11.4833 23.0318 11.4314 23.1657 11.5117 23.2391Z" fill="#0B0B0B"/>
<mask id="path-2-inside-1_6600_14264" fill="white">
<path d="M24.5342 13.0002C24.5342 19.2825 19.4414 24.3752 13.1592 24.3752C6.87694 24.3752 1.78418 19.2825 1.78418 13.0002C1.78418 6.71801 6.87694 1.62524 13.1592 1.62524C19.4414 1.62524 24.5342 6.71801 24.5342 13.0002Z"/>
</mask>
<path d="M24.5342 13.0002C24.5342 19.2825 19.4414 24.3752 13.1592 24.3752C6.87694 24.3752 1.78418 19.2825 1.78418 13.0002C1.78418 6.71801 6.87694 1.62524 13.1592 1.62524C19.4414 1.62524 24.5342 6.71801 24.5342 13.0002Z" fill="#C1FF12"/>
<path d="M24.2904 13.0002C24.2904 19.1479 19.3068 24.1315 13.1592 24.1315V24.619C19.576 24.619 24.7779 19.4171 24.7779 13.0002H24.2904ZM13.1592 24.1315C7.01156 24.1315 2.02793 19.1479 2.02793 13.0002H1.54043C1.54043 19.4171 6.74232 24.619 13.1592 24.619V24.1315ZM2.02793 13.0002C2.02793 6.85262 7.01156 1.86899 13.1592 1.86899V1.38149C6.74232 1.38149 1.54043 6.58339 1.54043 13.0002H2.02793ZM13.1592 1.86899C19.3068 1.86899 24.2904 6.85262 24.2904 13.0002H24.7779C24.7779 6.58339 19.576 1.38149 13.1592 1.38149V1.86899Z" fill="#7FB800" mask="url(#path-2-inside-1_6600_14264)"/>
<circle cx="10.7154" cy="10.4725" r="3.93907" fill="white" stroke="#7FB800" stroke-opacity="0.8" stroke-width="0.24375"/>
<circle cx="18.9166" cy="10.4725" r="3.93907" fill="white" stroke="#7FB800" stroke-opacity="0.8" stroke-width="0.24375"/>
<circle cx="11.6139" cy="10.9269" r="2.16667" fill="#202020"/>
<circle cx="19.9059" cy="10.9269" r="2.16667" fill="#202020"/>
<path d="M37.5117 23.2391C37.9673 23.6556 38.6654 23.6556 39.121 23.2391C39.2014 23.1657 39.1494 23.0318 39.0406 23.0318C38.9317 23.0318 37.5922 23.0318 37.5922 23.0318C37.5922 23.0318 37.5922 23.0318 37.5922 23.0318C37.4833 23.0318 37.4314 23.1657 37.5117 23.2391Z" fill="#0B0B0B"/>
<path d="M50.5342 13.0002C50.5342 19.2825 45.4414 24.3752 39.1592 24.3752C32.8769 24.3752 27.7842 19.2825 27.7842 13.0002C27.7842 6.71801 32.8769 1.62524 39.1592 1.62524C45.4414 1.62524 50.5342 6.71801 50.5342 13.0002Z" fill="#A54DFF"/>
<circle cx="36.7154" cy="10.4725" r="3.93907" fill="white"/>
<circle cx="44.9166" cy="10.4725" r="3.93907" fill="white"/>
<circle cx="37.6139" cy="10.9269" r="2.16667" fill="#202020"/>
<circle cx="45.9059" cy="10.9269" r="2.16667" fill="#202020"/>
<path d="M63.5117 23.2391C63.9673 23.6556 64.6654 23.6556 65.121 23.2391C65.2014 23.1657 65.1494 23.0318 65.0406 23.0318C64.9317 23.0318 63.5922 23.0318 63.5922 23.0318C63.5922 23.0318 63.5922 23.0318 63.5922 23.0318C63.4833 23.0318 63.4314 23.1657 63.5117 23.2391Z" fill="#0B0B0B"/>
<path d="M76.5342 13.0002C76.5342 19.2825 71.4414 24.3752 65.1592 24.3752C58.8769 24.3752 53.7842 19.2825 53.7842 13.0002C53.7842 6.71801 58.8769 1.62524 65.1592 1.62524C71.4414 1.62524 76.5342 6.71801 76.5342 13.0002Z" fill="#59CFCC"/>
<circle cx="62.7149" cy="10.4727" r="4.01669" fill="white" stroke="#59CFCC" stroke-width="0.221396"/>
<circle cx="70.9161" cy="10.4727" r="4.01669" fill="white" stroke="#59CFCC" stroke-width="0.221396"/>
<circle cx="61.443" cy="10.9267" r="2.16667" fill="#202020"/>
<circle cx="69.735" cy="10.9267" r="2.16667" fill="#202020"/>
<path d="M131.762 23.2391C132.217 23.6556 132.915 23.6556 133.371 23.2391C133.451 23.1657 133.399 23.0318 133.291 23.0318C133.182 23.0318 131.842 23.0318 131.842 23.0318C131.842 23.0318 131.842 23.0318 131.842 23.0318C131.733 23.0318 131.681 23.1657 131.762 23.2391Z" fill="#0B0B0B"/>
<path d="M144.785 13.0002C144.785 19.2825 139.692 24.3752 133.41 24.3752C127.128 24.3752 122.035 19.2825 122.035 13.0002C122.035 6.71801 127.128 1.62524 133.41 1.62524C139.692 1.62524 144.785 6.71801 144.785 13.0002Z" fill="#8A8C87"/>
<circle cx="130.965" cy="10.4725" r="3.93907" fill="white"/>
<circle cx="139.167" cy="10.4725" r="3.93907" fill="white"/>
<circle cx="131.865" cy="10.9269" r="2.16667" fill="#202020"/>
<circle cx="140.157" cy="10.9269" r="2.16667" fill="#202020"/>
<path d="M118.785 13C118.785 19.2822 113.692 24.375 107.41 24.375C101.128 24.375 96.0352 19.2822 96.0352 13C96.0352 6.71776 101.128 1.625 107.41 1.625C113.692 1.625 118.785 6.71776 118.785 13Z" fill="#FB52C2"/>
<circle cx="104.965" cy="10.4713" r="3.93907" fill="white"/>
<circle cx="113.167" cy="10.4713" r="3.93907" fill="white"/>
<circle cx="105.864" cy="9.84318" r="2.16667" fill="#202020"/>
<circle cx="114.158" cy="9.84318" r="2.16667" fill="#202020"/>
</svg>
