<svg width="14" height="12" viewBox="0 0 14 12" fill="none" xmlns="http://www.w3.org/2000/svg">
<path fill-rule="evenodd" clip-rule="evenodd" d="M0.539872 0.470275C0.669387 0.183968 0.954523 0 1.26876 0H12.4687C12.783 0 13.0681 0.183968 13.1976 0.470275C13.3271 0.756581 13.277 1.0922 13.0696 1.3282L9.26875 5.65164V9.89998C9.26875 10.2255 9.07146 10.5186 8.76985 10.6412L5.56986 11.9411C5.32321 12.0413 5.04288 12.0123 4.82203 11.8636C4.60119 11.715 4.46876 11.4662 4.46876 11.2V5.65164L0.66793 1.3282C0.460452 1.0922 0.410357 0.756581 0.539872 0.470275ZM3.03724 1.6L5.86959 4.82179C5.99795 4.9678 6.06875 5.15557 6.06875 5.34999V10.0115L7.66875 9.36149V5.34999C7.66875 5.15557 7.73955 4.9678 7.86792 4.82179L10.7003 1.6H3.03724Z" fill="#BFFF00"/>
</svg>
