<svg width="14" height="12" viewBox="0 0 14 12" fill="none" xmlns="http://www.w3.org/2000/svg">
<path id="Vector 210 (Stroke)" fill-rule="evenodd" clip-rule="evenodd" d="M1.03792 0.470275C1.16743 0.183968 1.45257 0 1.76681 0H12.9668C13.281 0 13.5662 0.183968 13.6957 0.470275C13.8252 0.756581 13.7751 1.0922 13.5676 1.3282L9.76679 5.65164V9.89998C9.76679 10.2255 9.56951 10.5186 9.26789 10.6412L6.0679 11.9411C5.82126 12.0413 5.54093 12.0123 5.32008 11.8636C5.09923 11.715 4.9668 11.4662 4.9668 11.2V5.65164L1.16598 1.3282C0.958499 1.0922 0.908404 0.756581 1.03792 0.470275ZM3.53529 1.6L6.36763 4.82179C6.496 4.9678 6.5668 5.15557 6.5668 5.34999V10.0115L8.1668 9.36149V5.34999C8.1668 5.15557 8.2376 4.9678 8.36596 4.82179L11.1983 1.6H3.53529Z" fill="#F2F2F2"/>
</svg>
