<svg width="25" height="24" viewBox="0 0 25 24" fill="none" xmlns="http://www.w3.org/2000/svg">
<path fill-rule="evenodd" clip-rule="evenodd" d="M4.88889 11.0001C4.88889 7.34885 7.84878 4.38895 11.5 4.38895C15.1512 4.38895 18.1111 7.34885 18.1111 11.0001C18.1111 14.6513 15.1512 17.6112 11.5 17.6112C7.84878 17.6112 4.88889 14.6513 4.88889 11.0001ZM11.5 2.50006C6.80558 2.50006 3 6.30564 3 11.0001C3 15.6945 6.80558 19.5001 11.5 19.5001C13.4868 19.5001 15.3144 18.8184 16.7616 17.6762L20.2927 21.2072C20.6832 21.5978 21.3164 21.5978 21.7069 21.2072C22.0974 20.8167 22.0974 20.1836 21.7069 19.793L18.1759 16.262C19.3183 14.8147 20 12.987 20 11.0001C20 6.30564 16.1944 2.50006 11.5 2.50006Z" fill="#E4E6E1"/>
</svg>
