<svg width="14" height="14" viewBox="0 0 14 14" fill="none" xmlns="http://www.w3.org/2000/svg">
<path id="Union" fill-rule="evenodd" clip-rule="evenodd" d="M10.8794 6.4238C10.8794 8.88511 8.88414 10.8804 6.42283 10.8804C3.96152 10.8804 1.96623 8.88511 1.96623 6.4238C1.96623 3.96249 3.96152 1.96721 6.42283 1.96721C8.88414 1.96721 10.8794 3.96249 10.8794 6.4238ZM10.1594 11.4209C9.1178 12.201 7.82427 12.663 6.42283 12.663C2.97699 12.663 0.183594 9.86964 0.183594 6.4238C0.183594 2.97797 2.97699 0.18457 6.42283 0.18457C9.86866 0.18457 12.6621 2.97797 12.6621 6.4238C12.6621 7.82526 12.2 9.1188 11.4199 10.1604L13.5534 12.2939C13.9015 12.642 13.9015 13.2063 13.5534 13.5544C13.2053 13.9025 12.641 13.9025 12.2929 13.5544L10.1594 11.4209Z" fill="#8A8C87"/>
</svg>
