<svg width="214" height="13" viewBox="0 0 214 13" fill="none" xmlns="http://www.w3.org/2000/svg">
<path d="M12.3844 8.36H0.935556V6.64889H5.66444V5.74667C4.39926 5.65333 3.38815 5.3837 2.63111 4.93778C1.87407 4.49185 1.49556 3.88 1.49556 3.10222C1.49556 2.22074 1.97259 1.55185 2.92667 1.09556C3.88074 0.639259 5.12519 0.411111 6.66 0.411111C8.19481 0.411111 9.43926 0.639259 10.3933 1.09556C11.3474 1.55185 11.8244 2.22074 11.8244 3.10222C11.8244 3.88 11.4407 4.49185 10.6733 4.93778C9.9163 5.3837 8.90519 5.65333 7.64 5.74667V6.64889H12.3844V8.36ZM3.58 3.10222C3.58 3.44444 3.86 3.70889 4.42 3.89556C4.99037 4.07185 5.73704 4.16 6.66 4.16C7.58296 4.16 8.32444 4.07185 8.88444 3.89556C9.44444 3.70889 9.72444 3.44444 9.72444 3.10222C9.72444 2.76 9.43926 2.49556 8.86889 2.30889C8.30889 2.12222 7.57259 2.02889 6.66 2.02889C5.74741 2.02889 5.00593 2.12222 4.43556 2.30889C3.86519 2.49556 3.58 2.76 3.58 3.10222ZM11.84 10.74V12.4822H1.63556V9.01333H3.64222V10.74H11.84ZM22.1517 12.5289V0.582222H24.1272V12.5289H22.1517ZM15.7895 2.79111V10.04H18.4961C19.0354 10.04 19.5695 9.98815 20.0984 9.88444C20.6376 9.78074 21.0835 9.64593 21.4361 9.48V11.3467C21.0939 11.523 20.6428 11.663 20.0828 11.7667C19.5332 11.8704 18.9784 11.9222 18.4184 11.9222H13.8139V0.908888H20.5339V2.79111H15.7895ZM36.7567 12.5289H34.9212V0.582222H36.7567V12.5289ZM33.9256 0.628889V12.3267H32.0901V7.24H31.0789C31.0167 8.90963 30.7575 10.1333 30.3012 10.9111C29.8449 11.6785 29.1967 12.0622 28.3567 12.0622C27.4441 12.0622 26.7597 11.6163 26.3034 10.7244C25.8471 9.82222 25.6189 8.38593 25.6189 6.41556C25.6189 4.45556 25.8471 3.02444 26.3034 2.12222C26.7597 1.22 27.4441 0.768888 28.3567 0.768888C29.1656 0.768888 29.7982 1.13185 30.2545 1.85778C30.7108 2.57333 30.9804 3.7037 31.0634 5.24889H32.0901V0.628889H33.9256ZM28.3567 10.1956C28.6678 10.1956 28.896 9.89481 29.0412 9.29333C29.1863 8.68148 29.2589 7.72222 29.2589 6.41556C29.2589 5.10889 29.1863 4.15481 29.0412 3.55333C28.896 2.94148 28.6678 2.63556 28.3567 2.63556C28.0352 2.63556 27.8019 2.94148 27.6567 3.55333C27.5115 4.15481 27.4389 5.10889 27.4389 6.41556C27.4389 7.72222 27.5115 8.68148 27.6567 9.29333C27.8019 9.89481 28.0352 10.1956 28.3567 10.1956ZM48.8262 12.5289H46.8662V6.50889H44.3151V4.58H46.8662V0.582222H48.8262V12.5289ZM42.9306 0.893333C42.9306 2.46963 42.8269 3.92667 42.6195 5.26444L45.9951 10.8022L44.2995 11.9222L41.9506 7.84667C41.5151 9.13259 40.9499 10.1281 40.2551 10.8333C39.5706 11.5281 38.7929 11.8911 37.9217 11.9222V9.77556C38.5336 9.69259 39.0625 9.26222 39.5084 8.48444C39.9647 7.6963 40.3173 6.6437 40.5662 5.32667C40.8151 3.99926 40.9395 2.50074 40.9395 0.831111L42.9306 0.893333ZM64.2207 12.5289H62.2607V7.05333H58.5274V5.10889H62.2607V0.582222H64.2207V12.5289ZM58.1696 10.0711C58.7089 10.0711 59.2429 10.0244 59.7718 9.93111C60.3111 9.82741 60.757 9.69259 61.1096 9.52667V11.3778C60.7778 11.5541 60.3266 11.6889 59.7563 11.7822C59.1859 11.8756 58.6104 11.9222 58.0296 11.9222H53.7829V0.908888H60.4096V2.77556H55.7896V10.0711H58.1696ZM80.6419 4.64222H79.2264V6.50889H77.2664V0.582222H79.2264V2.63556H80.6419V4.64222ZM68.9753 6.47778V0.768888H75.8197V6.47778H68.9753ZM70.9353 2.46444V4.78222H73.8753V2.46444H70.9353ZM79.7241 7.67556V9.07556H73.6575V7.67556H75.7419V6.88222H77.6553V7.67556H79.7241ZM73.6886 10.8644V12.4822H69.333V7.41111H71.2619V10.8644H73.6886ZM76.7064 9.41778C77.5153 9.41778 78.1634 9.55778 78.6508 9.83778C79.1382 10.1178 79.3819 10.5274 79.3819 11.0667C79.3819 11.6059 79.1382 12.0156 78.6508 12.2956C78.1634 12.5756 77.5153 12.7156 76.7064 12.7156C75.8975 12.7156 75.2493 12.5756 74.7619 12.2956C74.2745 12.0156 74.0308 11.6059 74.0308 11.0667C74.0308 10.5274 74.2745 10.1178 74.7619 9.83778C75.2493 9.55778 75.8975 9.41778 76.7064 9.41778ZM76.7064 11.4867C77.0175 11.4867 77.2664 11.4504 77.453 11.3778C77.6397 11.3052 77.733 11.2015 77.733 11.0667C77.733 10.9319 77.6397 10.8281 77.453 10.7556C77.2664 10.683 77.0175 10.6467 76.7064 10.6467C76.3953 10.6467 76.1464 10.683 75.9597 10.7556C75.773 10.8281 75.6797 10.9319 75.6797 11.0667C75.6797 11.2015 75.773 11.3052 75.9597 11.3778C76.1464 11.4504 76.3953 11.4867 76.7064 11.4867ZM86.7225 0.411111C88.2469 0.411111 89.4862 0.644444 90.4403 1.11111C91.4047 1.57778 91.8869 2.25185 91.8869 3.13333C91.8869 4.00444 91.4047 4.67333 90.4403 5.14C89.4862 5.5963 88.2469 5.82444 86.7225 5.82444C85.1877 5.82444 83.9432 5.5963 82.9892 5.14C82.0351 4.67333 81.5581 4.00444 81.5581 3.13333C81.5581 2.25185 82.0351 1.57778 82.9892 1.11111C83.9432 0.644444 85.1877 0.411111 86.7225 0.411111ZM86.7225 2.02889C85.8099 2.02889 85.0684 2.12741 84.4981 2.32444C83.9277 2.52148 83.6425 2.79111 83.6425 3.13333C83.6425 3.46519 83.9277 3.72963 84.4981 3.92667C85.0684 4.11333 85.8099 4.20667 86.7225 4.20667C87.6351 4.20667 88.3714 4.11333 88.9314 3.92667C89.5018 3.72963 89.7869 3.46519 89.7869 3.13333C89.7869 2.79111 89.5018 2.52148 88.9314 2.32444C88.361 2.12741 87.6247 2.02889 86.7225 2.02889ZM80.9981 8.25111V6.54H92.4469V8.25111H80.9981ZM91.9025 10.74V12.4822H81.6981V8.99778H83.7047V10.74H91.9025ZM97.1237 5.20222V3.53778H105.15V2.30889H97.1237V0.613333H107.11V6.05778H105.15V5.20222H97.1237ZM107.841 8.36H96.3926V6.64889H100.344V5.17111H102.335V6.64889H107.841V8.36ZM107.297 10.7711V12.4822H97.0926V9.09111H99.0993V10.7711H107.297ZM118.06 9.62V0.582222H119.895V9.62H118.06ZM114.187 5.07778V3.19556H115.229V0.628889H117.064V9.41778H115.229V5.07778H114.187ZM114.544 7.76889C114.244 7.9037 113.829 8.01259 113.3 8.09556C112.781 8.16815 112.232 8.20444 111.651 8.20444H108.96V0.768888H113.938V2.44889H110.795V3.64667H113.642V5.24889H110.795V6.50889H111.791C112.341 6.50889 112.859 6.47778 113.347 6.41556C113.834 6.34296 114.233 6.23926 114.544 6.10444V7.76889ZM120.082 12.4822H109.598V8.88889H111.62V10.6311H120.082V12.4822ZM126.676 6.15111C126.074 6.87704 125.312 7.44741 124.389 7.86222C123.466 8.27704 122.46 8.49481 121.372 8.51556V6.61778C122.409 6.58667 123.326 6.30148 124.125 5.76222C124.923 5.22296 125.447 4.51259 125.696 3.63111H121.62V1.73333H125.727V0.426666H127.734V1.73333H131.872V3.63111H127.843C127.77 4.00444 127.682 4.32074 127.578 4.58L132.292 6.86667L131.436 8.57778L126.676 6.15111ZM132.478 12.0622H121.029V10.1489H132.478V12.0622ZM136.008 3.52222V4.09778H144.19V5.32667H134.094V2.41778H142.168V1.85778H134.063V0.628889H144.065V3.52222H136.008ZM133.348 7.25556V5.87111H144.797V7.25556H133.348ZM135.961 10.6933V11.2533H144.237V12.4822H134.063V9.58889H142.199V9.02889H134.032V7.81556H144.097V10.6933H135.961ZM152.538 5.45111C152.102 6.01111 151.568 6.46222 150.936 6.80444C150.313 7.14667 149.629 7.33852 148.882 7.38V5.62222C149.577 5.54963 150.158 5.29037 150.624 4.84444C151.101 4.39852 151.423 3.85407 151.589 3.21111H149.007V1.51556H151.667V0.364444H153.658V1.51556H156.302V3.21111H153.627C153.596 3.37704 153.528 3.62593 153.424 3.95778L156.567 5.71556L155.696 7.27111L152.538 5.45111ZM160.704 4.89111H159.289V7.47333H157.329V0.582222H159.289V2.88444H160.704V4.89111ZM155.602 9.55778C155.561 9.69259 155.498 9.83259 155.416 9.97778L159.662 10.9889L159.242 12.6378L154.218 11.2689C153.616 11.6837 152.885 11.9896 152.024 12.1867C151.174 12.3837 150.267 12.4822 149.302 12.4822V10.8022C150.204 10.8022 151.018 10.6933 151.744 10.4756C152.481 10.2578 153.015 9.95185 153.347 9.55778H149.411V7.97111H159.336V9.55778H155.602ZM171.607 7.08444V12.5289H169.647V0.582222H171.607V5.09333H173.023V7.08444H171.607ZM164.809 0.768888C165.888 0.768888 166.733 1.24074 167.345 2.18444C167.967 3.11778 168.278 4.52815 168.278 6.41556C168.278 8.30296 167.967 9.71852 167.345 10.6622C166.733 11.5956 165.888 12.0622 164.809 12.0622C163.731 12.0622 162.881 11.5956 162.258 10.6622C161.636 9.71852 161.325 8.30296 161.325 6.41556C161.325 4.52815 161.636 3.11778 162.258 2.18444C162.881 1.24074 163.731 0.768888 164.809 0.768888ZM164.809 10.18C165.276 10.18 165.644 9.88444 165.914 9.29333C166.184 8.70222 166.318 7.74296 166.318 6.41556C166.318 5.09852 166.184 4.14444 165.914 3.55333C165.644 2.95185 165.276 2.65111 164.809 2.65111C164.332 2.65111 163.954 2.95185 163.674 3.55333C163.404 4.14444 163.269 5.09852 163.269 6.41556C163.269 8.92519 163.783 10.18 164.809 10.18ZM184.828 12.0622H173.379V10.1333H178.108V8.04889H174.032V0.877778H175.977V2.58889H182.23V0.877778H184.159V8.04889H180.099V10.1333H184.828V12.0622ZM182.23 6.19778V4.42444H175.977V6.19778H182.23ZM196.882 12.5289H195.031V0.582222H196.882V12.5289ZM193.942 0.628889V12.3267H192.091V6.33778H190.675V4.37778H192.091V0.628889H193.942ZM189.726 0.893333C189.726 2.79111 189.638 4.39333 189.462 5.7L192.091 10.9733L190.473 11.7978L188.871 8.51556C188.197 10.6311 187.149 11.7667 185.728 11.9222V9.82222C186.434 9.66667 186.962 8.80074 187.315 7.22444C187.678 5.64815 187.859 3.51704 187.859 0.831111L189.726 0.893333ZM209.465 12.0622H198.016V10.1644H200.349V7.36444C199.758 7.03259 199.302 6.61259 198.98 6.10444C198.659 5.5963 198.498 5.02593 198.498 4.39333C198.498 3.65704 198.716 3.00889 199.151 2.44889C199.587 1.87852 200.199 1.43778 200.987 1.12667C201.785 0.815555 202.703 0.66 203.74 0.66C204.777 0.66 205.69 0.815555 206.478 1.12667C207.276 1.43778 207.893 1.87852 208.329 2.44889C208.765 3.00889 208.982 3.65704 208.982 4.39333C208.982 5.0363 208.822 5.61185 208.5 6.12C208.179 6.61778 207.717 7.03259 207.116 7.36444V10.1644H209.465V12.0622ZM203.74 2.51111C202.796 2.51111 202.029 2.68741 201.438 3.04C200.857 3.38222 200.567 3.83333 200.567 4.39333C200.567 4.9637 200.857 5.42519 201.438 5.77778C202.029 6.12 202.796 6.29111 203.74 6.29111C204.684 6.29111 205.446 6.12 206.027 5.77778C206.618 5.42519 206.913 4.9637 206.913 4.39333C206.913 3.83333 206.618 3.38222 206.027 3.04C205.446 2.68741 204.684 2.51111 203.74 2.51111ZM205.156 10.1644V8.03333C204.751 8.10593 204.279 8.14222 203.74 8.14222C203.201 8.14222 202.729 8.10593 202.325 8.03333V10.1644H205.156ZM213.352 1.11111L212.947 8.34444H211.252L210.847 1.11111H213.352ZM212.092 12.1089C211.718 12.1089 211.402 11.9896 211.143 11.7511C210.894 11.5022 210.77 11.2015 210.77 10.8489C210.77 10.4859 210.894 10.1904 211.143 9.96222C211.392 9.7237 211.708 9.60444 212.092 9.60444C212.475 9.60444 212.792 9.7237 213.041 9.96222C213.3 10.1904 213.43 10.4859 213.43 10.8489C213.43 11.2015 213.3 11.5022 213.041 11.7511C212.792 11.9896 212.475 12.1089 212.092 12.1089Z" fill="white"/>
</svg>
