<svg width="17" height="17" viewBox="0 0 17 17" fill="none" xmlns="http://www.w3.org/2000/svg">
<g id="Frame 2608438">
<g id="Group 2608361">
<path id="Subtract" fill-rule="evenodd" clip-rule="evenodd" d="M13.8648 13.486C13.8648 13.0871 14.0425 12.7075 14.3184 12.3905C15.3261 11.2331 15.9249 9.78539 15.9249 8.21462C15.9249 4.41887 12.4282 1.3418 8.11479 1.3418C3.80139 1.3418 0.304688 4.41887 0.304688 8.21462C0.304688 9.77477 0.895443 11.2135 1.89083 12.3671C2.16336 12.6829 2.33871 13.0602 2.33871 13.4565C2.33871 14.4219 2.89713 15.8418 4.15318 15.8418H8.10176H12.0503C13.2824 15.8418 13.8648 14.4433 13.8648 13.486ZM6.36561 8.35224C6.36561 9.32017 5.5256 10.1049 4.48944 10.1049C3.45329 10.1049 2.61328 9.32017 2.61328 8.35224C2.61328 7.3843 3.45329 6.59961 4.48944 6.59961C5.5256 6.59961 6.36561 7.3843 6.36561 8.35224ZM13.6176 8.35224C13.6176 9.32017 12.7776 10.1049 11.7414 10.1049C10.7052 10.1049 9.86523 9.32017 9.86523 8.35224C9.86523 7.3843 10.7052 6.59961 11.7414 6.59961C12.7776 6.59961 13.6176 7.3843 13.6176 8.35224ZM7.44601 10.029C7.74346 9.56845 8.48861 9.56845 8.7861 10.029L9.32498 10.8633C9.62196 11.3231 9.24989 11.8973 8.65491 11.8973H7.5772C6.98222 11.8973 6.61011 11.3231 6.90714 10.8633L7.44601 10.029Z" fill="#F2F2F2"/>
</g>
</g>
</svg>
