<svg width="50" height="26" viewBox="0 0 50 26" fill="none" xmlns="http://www.w3.org/2000/svg">
<path d="M15.0105 10.2889H13.3038V13.4889H11.3838V5.95111H13.3038V8.35111H15.0105V10.2889ZM5.94382 10.68C5.45789 11.4148 4.83567 12.0133 4.07715 12.4756C3.31863 12.9378 2.47715 13.2044 1.55271 13.2756V11.4978C2.50086 11.3793 3.27715 10.9941 3.8816 10.3422C4.49789 9.67852 4.85938 8.87259 4.96604 7.92444H1.73049V6.21778H10.0149V7.92444H6.90382C6.89197 8.2563 6.82678 8.66518 6.70826 9.15111L10.4416 11.48L9.49938 12.9911L5.94382 10.68ZM7.79271 13.8267C9.51123 13.8267 10.886 14.0637 11.9172 14.5378C12.9483 15 13.4638 15.7348 13.4638 16.7422C13.4638 17.7615 12.9483 18.5081 11.9172 18.9822C10.886 19.4444 9.51123 19.6756 7.79271 19.6756C6.07419 19.6756 4.69937 19.4444 3.66826 18.9822C2.63715 18.5081 2.1216 17.7615 2.1216 16.7422C2.1216 15.7348 2.63715 15 3.66826 14.5378C4.71123 14.0637 6.08604 13.8267 7.79271 13.8267ZM7.79271 18.0222C8.87123 18.0222 9.74234 17.9156 10.406 17.7022C11.0697 17.4889 11.4016 17.1689 11.4016 16.7422C11.4016 16.3156 11.0697 16.0015 10.406 15.8C9.74234 15.5867 8.87123 15.48 7.79271 15.48C6.71419 15.48 5.84308 15.5867 5.17938 15.8C4.51567 16.0015 4.18382 16.3156 4.18382 16.7422C4.18382 17.1689 4.51567 17.4889 5.17938 17.7022C5.84308 17.9156 6.71419 18.0222 7.79271 18.0222ZM18.1731 11.6578V13.4711H27.8619V15.2667H16.2708V9.93333H25.7997V8.15556H16.2708V6.37778H27.7019V11.6578H18.1731ZM15.4531 19.0178V17.1689H28.4842V19.0178H15.4531Z" fill="#F2F2F2"/>
<path fill-rule="evenodd" clip-rule="evenodd" d="M47.607 17.8942C47.607 17.4953 47.7847 17.1157 48.0606 16.7987C49.0683 15.6413 49.6671 14.1936 49.6671 12.6228C49.6671 8.82708 46.1704 5.75 41.857 5.75C37.5436 5.75 34.0469 8.82708 34.0469 12.6228C34.0469 14.183 34.6376 15.6217 35.633 16.7753C35.9055 17.0911 36.0809 17.4684 36.0809 17.8647C36.0809 18.8301 36.6393 20.25 37.8954 20.25H41.844H45.7925C47.0246 20.25 47.607 18.8515 47.607 17.8942ZM40.1078 12.7604C40.1078 13.7284 39.2678 14.5131 38.2316 14.5131C37.1955 14.5131 36.3555 13.7284 36.3555 12.7604C36.3555 11.7925 37.1955 11.0078 38.2316 11.0078C39.2678 11.0078 40.1078 11.7925 40.1078 12.7604ZM47.3597 12.7604C47.3597 13.7284 46.5197 14.5131 45.4836 14.5131C44.4474 14.5131 43.6074 13.7284 43.6074 12.7604C43.6074 11.7925 44.4474 11.0078 45.4836 11.0078C46.5197 11.0078 47.3597 11.7925 47.3597 12.7604ZM41.1882 14.4372C41.4856 13.9767 42.2308 13.9767 42.5283 14.4372L43.0672 15.2715C43.3641 15.7313 42.9921 16.3055 42.3971 16.3055H41.3194C40.7244 16.3055 40.3523 15.7313 40.6493 15.2715L41.1882 14.4372Z" fill="#F2F2F2"/>
</svg>
