<svg width="21" height="21" viewBox="0 0 21 21" fill="none" xmlns="http://www.w3.org/2000/svg">
<path d="M10.7174 6.72185L10.814 6.8308L10.9105 6.72185C11.272 6.31398 11.7152 5.86829 12.2144 5.52517C12.714 5.1818 13.2606 4.94733 13.8311 4.94731C14.8528 4.94857 15.8323 5.355 16.5548 6.07746C17.2773 6.79993 17.6837 7.77946 17.6849 8.8012C17.6849 10.9239 16.1282 12.8539 14.5022 14.2862C12.8832 15.7123 11.2294 16.6154 11.0961 16.6874C11.0094 16.7341 10.9125 16.7585 10.814 16.7585C10.7155 16.7585 10.6185 16.7341 10.5318 16.6874C10.3985 16.6154 8.74471 15.7123 7.12574 14.2862C5.49971 12.8539 3.94304 10.9239 3.943 8.80112C3.94425 7.77942 4.35068 6.79991 5.07314 6.07746C5.79559 5.355 6.77509 4.94857 7.7968 4.94731C8.36735 4.94733 8.91396 5.1818 9.41352 5.52517C9.9127 5.86829 10.3559 6.31398 10.7174 6.72185Z" fill="#6C6E68" stroke="#6C6E68" stroke-width="0.258061"/>
</svg>
