<svg width="24" height="24" viewBox="0 0 24 24" fill="none" xmlns="http://www.w3.org/2000/svg">
<path fill-rule="evenodd" clip-rule="evenodd" d="M12 22C17.5228 22 22 17.5228 22 12C22 6.47715 17.5228 2 12 2C6.47715 2 2 6.47715 2 12C2 17.5228 6.47715 22 12 22ZM13.6001 7.39598C13.6001 8.27964 12.8837 8.99598 12.0001 8.99598C11.1164 8.99598 10.4001 8.27964 10.4001 7.39598C10.4001 6.51232 11.1164 5.79598 12.0001 5.79598C12.8837 5.79598 13.6001 6.51232 13.6001 7.39598ZM11.949 11.0436C12.5276 11.0436 12.9966 11.5126 12.9966 12.0912V17.3293C12.9966 17.9079 12.5276 18.3769 11.949 18.3769C11.3704 18.3769 10.9014 17.9079 10.9014 17.3293V12.0912C10.9014 11.5126 11.3704 11.0436 11.949 11.0436Z" fill="#E4E6E1"/>
</svg>
