<svg width="97" height="117" viewBox="0 0 97 117" fill="none" xmlns="http://www.w3.org/2000/svg">
<path d="M96.5054 47.6462C96.5054 73.8105 75.015 95.0209 48.5054 95.0209C21.9957 95.0209 0.505371 73.8105 0.505371 47.6462C0.505371 21.4819 21.9957 0.271484 48.5054 0.271484C75.015 0.271484 96.5054 21.4819 96.5054 47.6462Z" fill="#00E6DF"/>
<path d="M2.20783 111.645C1.57599 112.268 0.505371 111.821 0.505371 110.933V47.6462H96.5054V80.4856V110.998C96.5054 111.877 95.4545 112.328 94.8173 111.724L81.2617 98.8687C80.8348 98.4639 80.1524 98.5132 79.7882 98.9753L66.9272 115.294C66.5316 115.796 65.7732 115.803 65.3682 115.309L50.6953 97.3971C50.3049 96.9205 49.5805 96.9069 49.1725 97.3686L33.2029 115.437C32.8089 115.882 32.1153 115.888 31.7145 115.448L16.6175 98.8837C16.235 98.464 15.5801 98.4466 15.176 98.8456L2.20783 111.645Z" fill="#00E6DF"/>
<ellipse cx="32.4878" cy="49.3242" rx="14.6821" ry="16.6758" fill="#FCFCFC"/>
<ellipse cx="65.2798" cy="49.3242" rx="14.6821" ry="16.6758" fill="#FCFCFC"/>
<ellipse cx="25.6729" cy="51.3247" rx="6.81494" ry="8.20264" fill="black"/>
<ellipse cx="59.7388" cy="51.3247" rx="6.81494" ry="8.20264" fill="black"/>
</svg>
