<svg width="96" height="116" viewBox="0 0 96 116" fill="none" xmlns="http://www.w3.org/2000/svg">
<path d="M96 47.3747C96 73.539 74.5097 94.7494 48 94.7494C21.4903 94.7494 0 73.539 0 47.3747C0 21.2104 21.4903 0 48 0C74.5097 0 96 21.2104 96 47.3747Z" fill="#00E6DF"/>
<path d="M1.70246 111.373C1.07062 111.997 0 111.549 0 110.662V47.3747H96V80.2141V110.727C96 111.605 94.9491 112.057 94.3119 111.453L80.7564 98.5972C80.3295 98.1924 79.647 98.2417 79.2828 98.7038L66.4218 115.023C66.0263 115.524 65.2678 115.532 64.8628 115.037L50.1899 97.1256C49.7995 96.649 49.0751 96.6354 48.6671 97.0971L32.6975 115.165C32.3035 115.611 31.6099 115.616 31.2091 115.177L16.1121 98.6122C15.7296 98.1925 15.0748 98.1752 14.6706 98.5741L1.70246 111.373Z" fill="#00E6DF"/>
<ellipse cx="31.9824" cy="49.0527" rx="14.6821" ry="16.6758" fill="#FCFCFC"/>
<ellipse cx="64.7744" cy="49.0527" rx="14.6821" ry="16.6758" fill="#FCFCFC"/>
<ellipse cx="25.1675" cy="51.0532" rx="6.81494" ry="8.20264" fill="black"/>
<ellipse cx="59.2334" cy="51.0532" rx="6.81494" ry="8.20264" fill="black"/>
</svg>
