<svg width="24" height="24" viewBox="0 0 24 24" fill="none" xmlns="http://www.w3.org/2000/svg">
<path d="M12 5.37294C13.1455 4.08044 14.8363 2.51611 16.7414 2.51611C18.4007 2.51812 19.9914 3.17815 21.1647 4.35144C22.338 5.52472 22.998 7.11546 23 8.77473C23 15.6346 12.9663 21.1156 12.5396 21.346C12.3737 21.4353 12.1883 21.4821 12 21.4821C11.8117 21.4821 11.6263 21.4353 11.4604 21.346C11.0337 21.1156 1 15.6346 1 8.77473C1.00201 7.11546 1.66204 5.52472 2.83532 4.35144C4.00861 3.17815 5.59935 2.51812 7.25862 2.51611C9.16371 2.51611 10.8545 4.08044 12 5.37294Z" fill="#BFFF00"/>
</svg>
