<svg width="15" height="15" viewBox="0 0 15 15" fill="none" xmlns="http://www.w3.org/2000/svg">
<path id="Ellipse 320 (Stroke)" fill-rule="evenodd" clip-rule="evenodd" d="M7.08838 2.6405C4.32696 2.6405 2.08838 4.87908 2.08838 7.6405C2.08838 10.4019 4.32696 12.6405 7.08838 12.6405C7.64066 12.6405 8.08838 13.0882 8.08838 13.6405C8.08838 14.1928 7.64066 14.6405 7.08838 14.6405C3.22239 14.6405 0.0883789 11.5065 0.0883789 7.6405C0.0883789 3.77451 3.22239 0.640503 7.08838 0.640503C10.9544 0.640503 14.0884 3.77451 14.0884 7.6405C14.0884 8.95857 13.7231 10.1944 13.0878 11.2488C12.8027 11.7219 12.1882 11.8743 11.7151 11.5892C11.2421 11.3042 11.0897 10.6897 11.3747 10.2166C11.8276 9.46499 12.0884 8.58473 12.0884 7.6405C12.0884 4.87908 9.8498 2.6405 7.08838 2.6405Z" fill="#BFFF00"/>
</svg>
