<svg width="105" height="39" viewBox="0 0 105 39" fill="none" xmlns="http://www.w3.org/2000/svg">
<path d="M38.9756 19.1465C38.9756 29.6399 30.469 38.1465 19.9756 38.1465C9.48218 38.1465 0.975586 29.6399 0.975586 19.1465C0.975586 8.65307 9.48218 0.146484 19.9756 0.146484C30.469 0.146484 38.9756 8.65307 38.9756 19.1465Z" fill="#A54DFF"/>
<circle cx="15.893" cy="14.9246" r="6.57954" fill="white"/>
<circle cx="29.5918" cy="14.9246" r="6.57954" fill="white"/>
<circle cx="17.3944" cy="15.684" r="3.61905" fill="#202020"/>
<circle cx="31.245" cy="15.684" r="3.61905" fill="#202020"/>
<path d="M59.3575 25.4657C59.3575 23.5186 58.9779 22.0666 58.2189 21.1095C57.4599 20.1525 56.2553 19.674 54.6053 19.674C53.8132 19.707 53.0707 19.9545 52.3777 20.4165C51.6847 20.8455 51.1401 21.489 50.7441 22.3471C50.3811 23.2051 50.2161 24.2447 50.2491 25.4657V36.3977C50.2491 37.2496 49.5585 37.9402 48.7066 37.9402H44.2673C43.4154 37.9402 42.7248 37.2496 42.7248 36.3977V14.8802C42.7248 14.0283 43.4154 13.3377 44.2673 13.3377H48.7066C49.5585 13.3377 50.2491 14.0283 50.2491 14.8802V18.2264C50.2491 18.4601 50.0312 18.6327 49.8038 18.5792C49.5928 18.5295 49.4717 18.3065 49.5557 18.1068C50.1329 16.7346 51.0571 15.6399 52.3282 14.8228C53.7472 13.9317 55.1993 13.4862 56.6844 13.4862C58.1034 13.4862 59.572 13.8162 61.09 14.4763C62.6411 15.1363 63.9941 16.3573 65.1492 18.1394C66.3042 19.9215 66.8818 22.3636 66.8818 25.4657V36.3977C66.8818 37.2496 66.1912 37.9402 65.3393 37.9402H60.8999C60.048 37.9402 59.3575 37.2496 59.3575 36.3977V25.4657Z" fill="white"/>
<path fill-rule="evenodd" clip-rule="evenodd" d="M42.5186 14.6739C42.5186 13.8221 43.2091 13.1315 44.061 13.1315H48.9129C49.7648 13.1315 50.4554 13.8221 50.4554 14.6739V16.2063C50.9447 15.6087 51.5319 15.0895 52.2166 14.6493L52.2185 14.6481C53.6661 13.7392 55.1557 13.28 56.6844 13.28C58.1358 13.28 59.6321 13.6176 61.1716 14.2868C62.7689 14.9667 64.1509 16.2199 65.3223 18.0272C66.5068 19.8548 67.088 22.3411 67.088 25.4657V36.604C67.088 37.4559 66.3974 38.1464 65.5455 38.1464H60.6937C59.8418 38.1464 59.1512 37.4559 59.1512 36.604V25.4657C59.1512 23.5394 58.7747 22.1422 58.0573 21.2377C57.3507 20.3467 56.218 19.8811 54.6096 19.8802C53.8589 19.9123 53.1541 20.1468 52.4921 20.5881L52.4892 20.59L52.4863 20.5919C51.8336 20.9959 51.3145 21.6047 50.9328 22.4305C50.5852 23.2538 50.4229 24.2613 50.4553 25.4601L50.4554 25.4657L50.4554 36.604C50.4554 37.4559 49.7648 38.1464 48.9129 38.1464H44.061C43.2091 38.1464 42.5186 37.4559 42.5186 36.604V14.6739ZM50.0429 16.2953C50.0429 16.6004 49.9484 16.8964 49.7955 17.1604C49.5685 17.5526 49.3745 17.9711 49.2136 18.4158C49.1716 18.5318 49.2402 18.6584 49.3603 18.6867L49.7565 18.7799C50.1134 18.8639 50.4554 18.5931 50.4554 18.2264V17.2988C50.4554 17.0329 50.5338 16.771 50.6985 16.5623C51.1752 15.9581 51.7551 15.4365 52.4389 14.9968C53.8291 14.1241 55.2433 13.6925 56.6844 13.6925C58.0708 13.6925 59.5114 14.0148 61.0078 14.6654L61.0093 14.6661C62.5137 15.3063 63.8376 16.4951 64.9761 18.2516C66.1017 19.9882 66.6755 22.3861 66.6755 25.4657V36.1915C66.6755 37.0433 65.9849 37.7339 65.133 37.7339H61.1062C60.2543 37.7339 59.5637 37.0433 59.5637 36.1915V25.4657C59.5637 23.4979 59.1812 21.9909 58.3805 20.9814C57.5697 19.9591 56.2947 19.4677 54.6053 19.4677H54.601L54.5967 19.4679C53.766 19.5025 52.9881 19.7623 52.2661 20.243C51.5349 20.6965 50.9665 21.3731 50.5569 22.2606L50.5555 22.2637L50.5542 22.2667C50.1769 23.1583 50.0096 24.228 50.0429 25.4687V36.1915C50.0429 37.0433 49.3523 37.7339 48.5004 37.7339H44.4735C43.6217 37.7339 42.9311 37.0433 42.9311 36.1915V15.0865C42.9311 14.2346 43.6217 13.544 44.4735 13.544H48.5004C49.3523 13.544 50.0429 14.2346 50.0429 15.0865V16.2953ZM49.7606 18.1519C49.8275 17.995 50.0429 18.0457 50.0429 18.2163V18.231C50.0429 18.3293 49.9512 18.4019 49.8555 18.3794C49.7649 18.3581 49.7143 18.2614 49.7505 18.1757C49.7538 18.1677 49.7572 18.1598 49.7606 18.1519Z" fill="white"/>
<path d="M83.6122 31.6122C86.1155 31.6122 88.279 31.1172 90.1029 30.1272C91.9624 29.1371 93.3929 27.7181 94.3942 25.87C95.3955 24.0219 95.8962 21.8604 95.8962 19.3853C95.8962 16.9102 95.3955 14.7486 94.3942 12.9005C93.3929 11.0524 91.9624 9.63338 90.1029 8.64334C88.279 7.6533 86.1155 7.15828 83.6122 7.15828L81.0744 7.1843C79.8059 7.1973 78.7844 8.22932 78.7844 9.49789V29.2726C78.7844 30.5412 79.8059 31.5732 81.0744 31.5862L83.6122 31.6122ZM83.7731 0.624023C87.7069 0.624023 91.2115 1.41605 94.2869 3.00011C97.3624 4.58418 99.7584 6.81176 101.475 9.68288C103.191 12.521 104.05 15.7551 104.05 19.3853C104.05 23.0154 103.191 26.266 101.475 29.1371C99.7584 31.9752 97.3624 34.1863 94.2869 35.7704C91.2115 37.3545 87.7069 38.1465 83.7731 38.1465H72.9446C71.6667 38.1465 70.6309 37.1106 70.6309 35.8328V2.93774C70.6309 1.65991 71.6667 0.624023 72.9446 0.624023H83.7731Z" fill="#BFFF00"/>
</svg>
