<svg width="75" height="24" viewBox="0 0 75 24" fill="none" xmlns="http://www.w3.org/2000/svg">
<g clip-path="url(#clip0_6575_10029)">
<path d="M40.3997 1.98724L45.883 2.01688C48.7482 2.01688 51.2675 3.05423 53.4411 5.12892C55.6147 7.18385 56.7015 9.72288 56.7015 12.746C56.7015 15.7494 55.6345 18.3279 53.5004 20.4816C51.3861 22.6354 48.8173 23.7122 45.7941 23.7122H40.37C39.1647 23.7122 38.4138 23.4653 38.1174 22.9713C37.8803 22.5563 37.7617 21.9241 37.7617 21.0744V4.59543C37.7617 4.12121 37.7716 3.77543 37.7914 3.55808C37.8309 3.34073 37.9297 3.08387 38.0878 2.78748C38.3644 2.25399 39.135 1.98724 40.3997 1.98724ZM45.883 18.4662C47.3057 18.4662 48.5901 17.9426 49.7362 16.8954C50.8822 15.8284 51.4553 14.4947 51.4553 12.8942C51.4553 11.2937 50.8921 9.95999 49.7658 8.89301C48.6593 7.80626 47.3551 7.26289 45.8534 7.26289H43.0079V18.4662H45.883Z" fill="#BFFF00"/>
<path d="M30.5006 12.0266C31.9826 12.0266 33.2127 12.5971 34.1908 13.7382C35.1837 14.8644 35.6802 16.2426 35.6802 17.8727V21.785C35.6802 22.1259 35.6654 22.3852 35.6357 22.563C35.6209 22.726 35.5616 22.9113 35.4579 23.1187C35.2504 23.5189 34.6724 23.7189 33.7239 23.7189C32.6717 23.7189 32.0641 23.4448 31.9011 22.8965C31.8122 22.6445 31.7677 22.2666 31.7677 21.7628V17.8505C31.7677 17.2429 31.5899 16.7687 31.2342 16.4279C30.8934 16.087 30.4265 15.9166 29.8337 15.9166C29.2558 15.9166 28.7815 16.0944 28.411 16.4501C28.0554 16.8058 27.8775 17.2726 27.8775 17.8505V21.785C27.8775 22.1259 27.8627 22.3852 27.8331 22.563C27.8182 22.726 27.7515 22.9113 27.633 23.1187C27.4403 23.5189 26.8698 23.7189 25.9213 23.7189C24.9876 23.7189 24.4171 23.5189 24.2096 23.1187C24.1059 22.8965 24.0392 22.7038 24.0095 22.5408C23.9947 22.363 23.9873 22.1036 23.9873 21.7628V13.8938C23.9873 13.5678 23.9947 13.3232 24.0095 13.1602C24.0392 12.9824 24.1133 12.7897 24.2318 12.5823C24.4393 12.2118 25.0099 12.0266 25.9435 12.0266C26.8475 12.0266 27.4033 12.197 27.6108 12.5378C27.759 12.7897 27.8331 13.0935 27.8331 13.4492C27.8923 13.3455 28.0257 13.1973 28.2332 13.0046C28.4407 12.812 28.6407 12.6564 28.8334 12.5378C29.3373 12.197 29.893 12.0266 30.5006 12.0266Z" fill="#BFFF00"/>
<path d="M11.4991 1.74951C14.4235 1.74951 16.9626 2.80662 19.1165 4.92083C21.2703 7.03504 22.3472 9.66298 22.3472 12.8047C22.3472 15.9266 21.3197 18.594 19.2647 20.807C17.2096 23.0003 14.6804 24.0969 11.6769 24.0969C8.6734 24.0969 6.11451 23.0102 4.00021 20.8367C1.90567 18.6632 0.858398 16.0748 0.858398 13.0714C0.858398 11.4314 1.1548 9.90009 1.74759 8.47744C2.34038 7.03504 3.13078 5.82974 4.11877 4.86155C5.10676 3.89336 6.24295 3.13264 7.52733 2.57939C8.81172 2.02614 10.1356 1.74951 11.4991 1.74951ZM6.10463 12.9232C6.10463 14.6818 6.66778 16.1143 7.79409 17.2208C8.94016 18.3075 10.2147 18.8509 11.6176 18.8509C13.0206 18.8509 14.2852 18.3174 15.4115 17.2504C16.5378 16.1834 17.101 14.7509 17.101 12.9529C17.101 11.1548 16.5279 9.71238 15.3819 8.62563C14.2555 7.53889 12.9909 6.99552 11.588 6.99552C10.185 6.99552 8.9204 7.54877 7.79409 8.65527C6.66778 9.74202 6.10463 11.1647 6.10463 12.9232Z" fill="#BFFF00"/>
<path d="M73.3732 16.7215C73.381 16.581 73.3849 16.4394 73.3849 16.2969C73.3849 12.1051 69.9868 8.70694 65.7949 8.70694C61.6031 8.70694 58.2049 12.1051 58.2049 16.2969C58.2049 20.4888 61.6031 23.8869 65.7949 23.8869C67.9799 23.8869 69.9494 22.9635 71.3341 21.4859C71.5163 21.2915 71.4404 20.9843 71.2029 20.8808L64.9582 18.1572C64.9084 18.1355 64.9194 18.0619 64.9733 18.0557L72.9822 17.1304C73.1926 17.1061 73.3613 16.9372 73.3732 16.7215Z" fill="#8313FF" stroke="#8313FF" stroke-width="0.18"/>
<circle cx="64.1506" cy="14.6402" r="2.59719" transform="rotate(-5 64.1506 14.6402)" fill="white"/>
<circle cx="64.7674" cy="14.887" r="1.42857" transform="rotate(-5 64.7674 14.887)" fill="#202020"/>
<circle cx="69.5578" cy="13.7713" r="2.59719" transform="rotate(-5 69.5578 13.7713)" fill="white"/>
<circle cx="70.2342" cy="14.0129" r="1.42857" transform="rotate(-5 70.2342 14.0129)" fill="#202020"/>
</g>
<defs>
<clipPath id="clip0_6575_10029">
<rect width="73.8462" height="24" fill="white" transform="translate(0.5)"/>
</clipPath>
</defs>
</svg>
