<svg width="60" height="22" viewBox="0 0 60 22" fill="none" xmlns="http://www.w3.org/2000/svg">
<rect width="59.6745" height="22" fill="#0B0B0B"/>
<path d="M22 11C22 17.0751 17.0751 22 11 22C4.92487 22 0 17.0751 0 11C0 4.92487 4.92487 0 11 0C17.0751 0 22 4.92487 22 11Z" fill="#A54DFF"/>
<circle cx="8.63636" cy="8.55579" r="3.80921" fill="white"/>
<circle cx="16.568" cy="8.55579" r="3.80921" fill="white"/>
<circle cx="9.50539" cy="8.99538" r="2.09524" fill="#202020"/>
<circle cx="17.5239" cy="8.99538" r="2.09524" fill="#202020"/>
<path d="M33.7996 14.6585C33.7996 13.5313 33.5799 12.6906 33.1405 12.1365C32.701 11.5824 32.0037 11.3054 31.0484 11.3054C30.5898 11.3245 30.1599 11.4678 29.7587 11.7353C29.3575 11.9837 29.0422 12.3562 28.813 12.853C28.6028 13.3497 28.5073 13.9516 28.5264 14.6585V20.9876C28.5264 21.4808 28.1265 21.8806 27.6334 21.8806H25.0632C24.57 21.8806 24.1702 21.4808 24.1702 20.9876V8.53006C24.1702 8.03687 24.57 7.63705 25.0632 7.63705H27.6334C28.1265 7.63705 28.5264 8.03687 28.5264 8.53006V10.4674C28.5264 10.6026 28.4002 10.7025 28.2685 10.6716V10.6716C28.1464 10.6428 28.0763 10.5137 28.1249 10.3981C28.4591 9.60364 28.9942 8.96989 29.73 8.49682C30.5516 7.98096 31.3923 7.72303 32.252 7.72303C33.0736 7.72303 33.9238 7.91409 34.8027 8.29621C35.7007 8.67833 36.484 9.38525 37.1527 10.417C37.8214 11.4487 38.1558 12.8625 38.1558 14.6585V20.9876C38.1558 21.4808 37.756 21.8806 37.2628 21.8806H34.6926C34.1994 21.8806 33.7996 21.4808 33.7996 20.9876V14.6585Z" fill="white"/>
<path fill-rule="evenodd" clip-rule="evenodd" d="M24.0508 8.41065C24.0508 7.91745 24.4506 7.51764 24.9438 7.51764H27.7528C28.246 7.51764 28.6458 7.91746 28.6458 8.41065V9.2978C28.9291 8.95182 29.269 8.65122 29.6655 8.39637L29.6665 8.39569C30.5046 7.86946 31.367 7.60362 32.252 7.60362C33.0924 7.60362 33.9586 7.79907 34.8499 8.18653C35.7747 8.58017 36.5748 9.3057 37.2529 10.352C37.9387 11.4101 38.2752 12.8495 38.2752 14.6585V21.107C38.2752 21.6002 37.8754 22 37.3822 22H34.5732C34.08 22 33.6802 21.6002 33.6802 21.107V14.6585C33.6802 13.5433 33.4622 12.7344 33.0469 12.2107C32.6378 11.6949 31.982 11.4253 31.0509 11.4248C30.6162 11.4434 30.2082 11.5791 29.8249 11.8346L29.8233 11.8358L29.8216 11.8368C29.4437 12.0707 29.1432 12.4232 28.9222 12.9013C28.7209 13.3779 28.627 13.9612 28.6457 14.6553L28.6458 14.6585L28.6458 21.107C28.6458 21.6002 28.246 22 27.7528 22H24.9438C24.4506 22 24.0508 21.6002 24.0508 21.107V8.41065ZM28.407 9.3493C28.407 9.52595 28.3523 9.69733 28.2638 9.8502C28.1323 10.0773 28.02 10.3195 27.9269 10.577V10.577C27.9026 10.6441 27.9423 10.7175 28.0118 10.7338L28.2412 10.7878C28.4478 10.8364 28.6458 10.6796 28.6458 10.4674V9.93032C28.6458 9.77637 28.6912 9.62476 28.7865 9.5039C29.0625 9.1541 29.3983 8.85214 29.7941 8.59759C30.599 8.09234 31.4177 7.84244 32.252 7.84244C33.0547 7.84244 33.8887 8.02905 34.7551 8.40572L34.7559 8.40609C35.6269 8.77673 36.3934 9.46498 37.0525 10.4819C37.7042 11.4873 38.0364 12.8756 38.0364 14.6585V20.8682C38.0364 21.3614 37.6366 21.7612 37.1434 21.7612H34.812C34.3188 21.7612 33.919 21.3614 33.919 20.8682V14.6585C33.919 13.5193 33.6976 12.6468 33.234 12.0623C32.7646 11.4705 32.0264 11.186 31.0484 11.186H31.0459L31.0434 11.1861C30.5625 11.2061 30.1121 11.3566 29.6941 11.6348C29.2708 11.8974 28.9417 12.2891 28.7045 12.803L28.7037 12.8047L28.703 12.8065C28.4846 13.3227 28.3877 13.942 28.407 14.6602V20.8682C28.407 21.3614 28.0071 21.7612 27.5139 21.7612H25.1826C24.6894 21.7612 24.2896 21.3614 24.2896 20.8682V8.64948C24.2896 8.15628 24.6894 7.75646 25.1826 7.75646H27.5139C28.0071 7.75646 28.407 8.15628 28.407 8.64948V9.3493ZM28.2435 10.4242C28.2823 10.3333 28.407 10.3627 28.407 10.4615V10.47C28.407 10.5269 28.3539 10.569 28.2985 10.5559V10.5559C28.246 10.5436 28.2167 10.4876 28.2377 10.438C28.2396 10.4334 28.2416 10.4288 28.2435 10.4242Z" fill="white"/>
<path d="M47.8427 18.217C49.2919 18.217 50.5445 17.9304 51.6004 17.3573C52.677 16.7841 53.5052 15.9625 54.0849 14.8926C54.6646 13.8227 54.9544 12.5712 54.9544 11.1383C54.9544 9.7053 54.6646 8.45386 54.0849 7.38392C53.5052 6.31399 52.677 5.49243 51.6004 4.91925C50.5445 4.34607 49.2919 4.05948 47.8427 4.05948L46.3734 4.07454C45.639 4.08207 45.0476 4.67955 45.0476 5.41399V16.8625C45.0476 17.597 45.639 18.1944 46.3734 18.202L47.8427 18.217ZM47.9358 0.276489C50.2133 0.276489 52.2422 0.735033 54.0228 1.65212C55.8033 2.56921 57.1905 3.85887 58.1842 5.52109C59.178 7.16421 59.6749 9.03659 59.6749 11.1383C59.6749 13.2399 59.178 15.1219 58.1842 16.7841C57.1905 18.4272 55.8033 19.7073 54.0228 20.6244C52.2422 21.5415 50.2133 22 47.9358 22H41.6667C40.9269 22 40.3271 21.4003 40.3271 20.6605V1.61601C40.3271 0.876214 40.9269 0.276489 41.6667 0.276489H47.9358Z" fill="#BFFF00"/>
</svg>
