<svg width="21" height="21" viewBox="0 0 21 21" fill="none" xmlns="http://www.w3.org/2000/svg">
<g id="message-circle">
<path id="Union" fill-rule="evenodd" clip-rule="evenodd" d="M6.08353 17.2702C6.05143 17.2827 6.02597 17.2921 6.0088 17.2975L4.0894 17.9189C3.71965 18.0386 3.36479 17.6999 3.4671 17.325L4.46357 13.6733C4.06681 12.809 3.86193 11.8679 3.86428 10.915L3.86428 10.9141L4.36784 10.9154L4.53688 13.4046M4.53686 13.4047L4.36775 10.9161L3.86428 10.9159L3.86428 10.915C3.86493 9.67972 4.2094 8.46896 4.85914 7.41832C5.50904 6.36742 6.43869 5.51821 7.54396 4.96581C7.55452 4.96054 7.56519 4.95549 7.57597 4.95068C8.91637 4.35205 10.0278 4.31184 11.3577 4.35715C12.3299 4.39027 13.1323 4.51984 13.8481 4.80782C14.5725 5.09928 15.1552 5.53158 15.7172 6.09353C16.8392 7.21556 17.7526 8.79868 17.7576 10.7089C17.7602 11.7158 17.53 12.9466 17.0525 13.8928C16.5112 14.9752 15.8578 15.7692 14.7879 16.4308C14.2267 16.7778 13.4481 17.0573 12.7038 17.2496C11.9546 17.4432 11.1536 17.5706 10.5204 17.571L10.5192 16.8611L10.5191 16.8611L10.5193 17.571H10.5204C9.95102 17.5723 9.28797 17.4312 8.69501 17.2549C8.23352 17.1176 7.77603 16.9474 7.38362 16.7725L6.09382 17.2956L6.08353 17.2702" fill="#6C6E68"/>
</g>
</svg>
