<svg width="20" height="21" viewBox="0 0 20 21" fill="none" xmlns="http://www.w3.org/2000/svg">
<g id="message-circle">
<path id="Union" fill-rule="evenodd" clip-rule="evenodd" d="M5.67926 16.7427C5.64858 16.7547 5.62424 16.7637 5.60783 16.7689L3.77306 17.3628C3.41961 17.4773 3.0804 17.1535 3.17819 16.7951L4.13073 13.3044C3.75147 12.4782 3.55562 11.5787 3.55787 10.6678C3.55848 9.48693 3.88777 8.32956 4.50886 7.32524C5.1301 6.32067 6.01876 5.50891 7.0753 4.98087C7.08539 4.97582 7.09559 4.971 7.10589 4.9664C8.38719 4.39417 9.4496 4.35573 10.7208 4.39904C11.6502 4.4307 12.4173 4.55455 13.1015 4.82984C13.7939 5.10845 14.3509 5.52169 14.8881 6.05886C15.9607 7.13142 16.8338 8.64474 16.8386 10.4707C16.8411 11.4332 16.621 12.6098 16.1646 13.5142C15.6472 14.5489 15.0225 15.3079 13.9999 15.9403C13.4634 16.2721 12.7191 16.5392 12.0076 16.723C11.2915 16.9081 10.5258 17.0299 9.92053 17.0303L9.91935 16.3517L9.91922 16.3516L9.91948 17.0303H9.92053C9.37623 17.0316 8.74241 16.8966 8.17559 16.7281C7.73446 16.5969 7.29713 16.4342 6.92203 16.267L5.6891 16.767L5.67926 16.7427ZM3.55787 10.6678L3.55787 10.6686L4.03913 10.6688L4.03922 10.6682L3.55787 10.6669L3.55787 10.6678Z" fill="#6C6E68"/>
</g>
</svg>
