<svg width="24" height="24" viewBox="0 0 24 24" fill="none" xmlns="http://www.w3.org/2000/svg">
<g id="paperclip">
<path id="Vector" d="M20.8799 11.7256L12.7594 19.8462C11.7004 20.9051 10.2642 21.5 8.76665 21.5C7.2691 21.5 5.83288 20.9051 4.77395 19.8462C3.71502 18.7872 3.12012 17.351 3.12012 15.8535C3.12012 14.3559 3.71502 12.9197 4.77395 11.8608L12.8895 3.73582C13.6303 2.99506 14.6768 2.5 15.6752 2.5C16.6736 2.5 17.6311 2.8966 18.337 3.60255C19.043 4.30851 19.4396 5.26599 19.4396 6.26436C19.4396 7.26273 18.9849 8.28762 18.2131 9.05943L10.0881 17.1844C9.73517 17.5373 9.25643 17.7356 8.75725 17.7356C8.25806 17.7356 7.77932 17.5373 7.42635 17.1844C7.07337 16.8314 6.87507 16.3526 6.87507 15.8535C6.87507 15.3543 7.07337 14.8755 7.42635 14.5226L14.1928 7.75612" stroke="#A9ABA6" stroke-width="2" stroke-linecap="round" stroke-linejoin="round"/>
</g>
</svg>
