<svg width="49" height="48" viewBox="0 0 49 48" fill="none" xmlns="http://www.w3.org/2000/svg">
<path d="M48.5 24C48.5 37.2548 37.7548 48 24.5 48C11.2452 48 0.5 37.2548 0.5 24C0.5 10.7452 11.2452 0 24.5 0C37.7548 0 48.5 10.7452 48.5 24Z" fill="url(#paint0_radial_5876_5632)"/>
<path d="M28.0385 31.3076C28.0385 36.8305 23.5613 41.3076 18.0385 41.3076C12.5156 41.3076 8.03845 36.8305 8.03845 31.3076C8.03845 25.7848 12.5156 21.3076 18.0385 21.3076C23.5613 21.3076 28.0385 25.7848 28.0385 31.3076Z" fill="#0B0B0B"/>
<path d="M28.0385 31.3076C28.0385 36.8305 23.5613 41.3076 18.0385 41.3076C12.5156 41.3076 8.03845 36.8305 8.03845 31.3076C8.03845 25.7848 12.5156 21.3076 18.0385 21.3076C23.5613 21.3076 28.0385 25.7848 28.0385 31.3076Z" fill="url(#paint1_linear_5876_5632)" fill-opacity="0.3"/>
<path d="M41.7258 18.9108C43.348 17.2887 43.348 14.6586 41.7258 13.0364C40.1036 11.4142 37.4736 11.4142 35.8514 13.0364L19.1509 29.7369C18.7621 30.1257 18.4974 30.6213 18.3905 31.1608L17.2636 36.8477C17.1869 37.2346 17.5276 37.5753 17.9145 37.4987L23.6014 36.3717C24.1409 36.2648 24.6365 36.0002 25.0254 35.6113L41.7258 18.9108Z" fill="#D9D9D9"/>
<path d="M41.7258 18.9108C43.348 17.2887 43.348 14.6586 41.7258 13.0364C40.1036 11.4142 37.4736 11.4142 35.8514 13.0364L19.1509 29.7369C18.7621 30.1257 18.4974 30.6213 18.3905 31.1608L17.2636 36.8477C17.1869 37.2346 17.5276 37.5753 17.9145 37.4987L23.6014 36.3717C24.1409 36.2648 24.6365 36.0002 25.0254 35.6113L41.7258 18.9108Z" fill="url(#paint2_linear_5876_5632)"/>
<defs>
<radialGradient id="paint0_radial_5876_5632" cx="0" cy="0" r="1" gradientUnits="userSpaceOnUse" gradientTransform="translate(24.5 25.8462) rotate(90) scale(22.1538)">
<stop stop-color="#C2C4C0"/>
<stop offset="0.205" stop-color="#D7D9D5"/>
<stop offset="0.44" stop-color="#E8EAE6"/>
<stop offset="0.555" stop-color="#F2F2F2"/>
<stop offset="1" stop-color="white"/>
</radialGradient>
<linearGradient id="paint1_linear_5876_5632" x1="18.0385" y1="20.1017" x2="18.0385" y2="41.3076" gradientUnits="userSpaceOnUse">
<stop stop-color="white" stop-opacity="0"/>
<stop offset="0.02" stop-color="white"/>
<stop offset="0.155" stop-color="white" stop-opacity="0.541667"/>
<stop offset="0.5" stop-color="white" stop-opacity="0"/>
</linearGradient>
<linearGradient id="paint2_linear_5876_5632" x1="37.5668" y1="12.2549" x2="45.831" y2="24.5823" gradientUnits="userSpaceOnUse">
<stop stop-color="#BA76FF"/>
<stop offset="0.37" stop-color="#922DFF"/>
<stop offset="0.7" stop-color="#7F27DE"/>
</linearGradient>
</defs>
</svg>
