<svg width="64" height="14" viewBox="0 0 64 14" fill="none" xmlns="http://www.w3.org/2000/svg">
<path d="M4.46444 6.65111C4.02889 7.26296 3.48444 7.75556 2.83111 8.12889C2.17778 8.49185 1.45185 8.69407 0.653333 8.73556V6.88444C1.36889 6.81185 1.96519 6.52148 2.44222 6.01333C2.91926 5.50518 3.22519 4.86741 3.36 4.1H0.886667V2.23333H3.40667V0.926666H5.39778V2.23333H7.91778V4.1H5.38222C5.35111 4.47333 5.29407 4.78444 5.21111 5.03333L8.43111 7.21111L7.35778 8.72L4.46444 6.65111ZM11.3244 13.0289H9.36444V1.08222H11.3244V13.0289ZM5.44444 10.5244C6.08741 10.5244 6.68889 10.4881 7.24889 10.4156C7.81926 10.3326 8.28074 10.2081 8.63333 10.0422V11.94C7.92815 12.2615 6.86 12.4222 5.42889 12.4222H0.435556V10.5244H3.36V8.51778H5.30444V10.5244H5.44444ZM21.4806 5.65556V2.88667H13.4072V1.12889H23.4717V5.65556H21.4806ZM12.7539 8.02V6.24667H24.2028V8.02H12.7539ZM23.6584 11.24V12.9822H13.4539V9H15.4606V11.24H23.6584ZM39.084 7.55333H37.124V5.31333H34.3707C33.8522 6.02889 33.0796 6.56296 32.0529 6.91556C31.0366 7.25778 29.8336 7.42889 28.444 7.42889V5.67111C29.8855 5.65037 31.0262 5.42741 31.8662 5.00222C32.7166 4.56667 33.1418 3.97037 33.1418 3.21333V2.99556H28.444V1.26889H35.1484V2.79333C35.1484 3.02148 35.1329 3.22889 35.1018 3.41556H37.124V1.08222H39.084V7.55333ZM39.084 8.05111V12.9822H29.0662V8.05111H39.084ZM37.124 11.2711V9.76222H31.0418V11.2711H37.124ZM51.6513 8.42444H49.8157V5.45333H48.5246V8.3H46.689V1.12889H48.5246V3.50889H49.8157V1.08222H51.6513V8.42444ZM43.5624 5.88889C42.8053 7.33037 41.7631 8.10296 40.4357 8.20667V6.29333C41.1201 6.16889 41.6594 5.65556 42.0535 4.75333C42.4475 3.84074 42.6446 2.65333 42.6446 1.19111L44.5112 1.25333C44.5112 2.25926 44.4179 3.17704 44.2313 4.00667L46.7513 6.83778L45.4601 8.06667L43.5624 5.88889ZM51.6513 8.90667V13.1222H49.7224V10.6644H41.3068V8.90667H51.6513ZM63.7207 13.0289H61.7607V7.66222H60.0496C59.9666 9.30074 59.6192 10.5296 59.0074 11.3489C58.4059 12.1578 57.6022 12.5622 56.5963 12.5622C55.5178 12.5622 54.6674 12.0956 54.0452 11.1622C53.4229 10.2185 53.1118 8.80296 53.1118 6.91556C53.1118 5.02815 53.4229 3.61778 54.0452 2.68444C54.6674 1.74074 55.5178 1.26889 56.5963 1.26889C57.5504 1.26889 58.3281 1.64222 58.9296 2.38889C59.5311 3.12518 59.8992 4.24 60.0341 5.73333H61.7607V1.08222H63.7207V13.0289ZM56.5963 10.68C57.0629 10.68 57.4311 10.3844 57.7007 9.79333C57.9807 9.20222 58.1207 8.24296 58.1207 6.91556C58.1207 5.59852 57.9807 4.64444 57.7007 4.05333C57.4311 3.45185 57.0629 3.15111 56.5963 3.15111C56.1192 3.15111 55.7407 3.45185 55.4607 4.05333C55.1911 4.64444 55.0563 5.59852 55.0563 6.91556C55.0563 9.42519 55.5696 10.68 56.5963 10.68Z" fill="white"/>
</svg>
