<svg width="20" height="20" viewBox="0 0 20 20" fill="none" xmlns="http://www.w3.org/2000/svg">
<path id="Union" fill-rule="evenodd" clip-rule="evenodd" d="M2.38889 9C2.38889 5.34878 5.34878 2.38889 9 2.38889C12.6512 2.38889 15.6111 5.34878 15.6111 9C15.6111 12.6512 12.6512 15.6111 9 15.6111C5.34878 15.6111 2.38889 12.6512 2.38889 9ZM9 0.5C4.30558 0.5 0.5 4.30558 0.5 9C0.5 13.6944 4.30558 17.5 9 17.5C10.9868 17.5 12.8144 16.8184 14.2616 15.6762L17.7927 19.2072C18.1832 19.5977 18.8164 19.5977 19.2069 19.2072C19.5974 18.8167 19.5974 18.1835 19.2069 17.793L15.6759 14.262C16.8183 12.8146 17.5 10.9869 17.5 9C17.5 4.30558 13.6944 0.5 9 0.5Z" fill="#A9ABA6"/>
</svg>
