<svg width="24" height="24" viewBox="0 0 24 24" fill="none" xmlns="http://www.w3.org/2000/svg">
<path fill-rule="evenodd" clip-rule="evenodd" d="M17.0001 12C17.0001 14.7594 14.7779 17.0261 12.0001 17.0261C9.22237 17.0261 7.00013 14.7594 7.00013 12C7.00013 9.24051 9.22237 6.97381 12.0001 6.97381C14.7779 6.97381 17.0001 9.24051 17.0001 12ZM12.0001 15.0261C13.657 15.0261 15.0001 13.6713 15.0001 12C15.0001 10.3287 13.657 8.97381 12.0001 8.97381C10.3433 8.97381 9.00013 10.3287 9.00013 12C9.00013 13.6713 10.3433 15.0261 12.0001 15.0261ZM8.94719 1.70356C9.07326 1.34212 9.41417 1.09998 9.79697 1.09998H14.203C14.5858 1.09998 14.9267 1.34212 15.0528 1.70356L15.8245 3.91596C15.9083 4.15617 16.0818 4.35317 16.3016 4.48117C16.3041 4.48262 16.3066 4.48406 16.3091 4.48551C16.531 4.61504 16.7909 4.66865 17.0434 4.6209L19.3167 4.19113C19.6936 4.11986 20.0744 4.29541 20.265 4.62839L22.468 8.4774C22.6564 8.80654 22.6182 9.21847 22.3726 9.50741L20.8563 11.2909C20.6923 11.4838 20.6101 11.7317 20.6105 11.9849C20.6105 11.9899 20.6105 11.995 20.6105 12C20.6105 12.005 20.6105 12.01 20.6105 12.015C20.6101 12.2682 20.6923 12.5161 20.8563 12.709L22.3726 14.4925C22.6183 14.7815 22.6564 15.1934 22.468 15.5226L20.265 19.3716C20.0744 19.7045 19.6937 19.8801 19.3167 19.8088L17.0435 19.379C16.7909 19.3313 16.5311 19.3849 16.3091 19.5144C16.3066 19.5159 16.3041 19.5173 16.3016 19.5188C16.0818 19.6468 15.9083 19.8438 15.8245 20.084L15.0528 22.2964C14.9267 22.6578 14.5858 22.9 14.203 22.9H9.79697C9.41417 22.9 9.07326 22.6578 8.94719 22.2964L8.17547 20.084C8.09168 19.8437 7.91818 19.6467 7.69833 19.5187C7.69586 19.5173 7.69338 19.5159 7.69091 19.5144C7.46894 19.3849 7.20906 19.3313 6.95653 19.379L4.68329 19.8088C4.30631 19.8801 3.92558 19.7045 3.735 19.3715L1.53199 15.5225C1.3436 15.1934 1.38176 14.7815 1.6274 14.4925L3.14368 12.709C3.30768 12.5161 3.38991 12.2682 3.38949 12.015C3.38948 12.01 3.38948 12.005 3.38948 12C3.38948 11.995 3.38948 11.9899 3.38949 11.9849C3.38992 11.7317 3.30768 11.4838 3.14368 11.2909L1.62748 9.50743C1.38183 9.21849 1.34367 8.80656 1.53206 8.47741L3.73507 4.62841C3.92566 4.29543 4.30638 4.11988 4.68337 4.19115L6.95655 4.62091C7.20907 4.66866 7.46896 4.61505 7.69093 4.48552C7.6934 4.48408 7.69586 4.48264 7.69833 4.4812C7.91818 4.3532 8.09168 4.1562 8.17547 3.916L8.94719 1.70356ZM11.1465 2.89998C10.7212 2.89998 10.3424 3.16902 10.2023 3.57063L9.62342 5.23019C9.54335 5.45976 9.37379 5.64716 9.15336 5.74975C8.77273 5.92688 8.41077 6.13858 8.07148 6.38101C7.87171 6.52374 7.62231 6.57867 7.38106 6.53306L5.67871 6.21121C5.25983 6.13202 4.83681 6.32708 4.62505 6.69706L3.75705 8.21359C3.54772 8.57931 3.59012 9.03701 3.86306 9.35806L5.00715 10.7038C5.16359 10.8878 5.23951 11.127 5.21783 11.3675C5.19908 11.5756 5.18948 11.7865 5.18948 12C5.18948 12.2134 5.19908 12.4243 5.21782 12.6324C5.2395 12.8729 5.16358 13.1121 5.00715 13.2961L3.86299 14.6419C3.59005 14.9629 3.54765 15.4206 3.75697 15.7864L4.62497 17.3029C4.83673 17.6729 5.25976 17.8679 5.67863 17.7887L7.38105 17.4669C7.62229 17.4213 7.8717 17.4762 8.07146 17.6189C8.41076 17.8614 8.77272 18.0731 9.15336 18.2502C9.37379 18.3528 9.54335 18.5402 9.62342 18.7698L10.2023 20.4293C10.3424 20.8309 10.7212 21.1 11.1465 21.1H12.8535C13.2788 21.1 13.6576 20.8309 13.7977 20.4293L14.3765 18.7698C14.4566 18.5402 14.6262 18.3528 14.8466 18.2502C15.2273 18.0731 15.5892 17.8614 15.9285 17.6189C16.1283 17.4762 16.3777 17.4213 16.619 17.4669L18.3214 17.7888C18.7403 17.8679 19.1633 17.6729 19.3751 17.3029L20.2431 15.7864C20.4524 15.4207 20.41 14.963 20.137 14.6419L18.9929 13.2961C18.8364 13.1121 18.7605 12.8729 18.7822 12.6324C18.8009 12.4243 18.8105 12.2134 18.8105 12C18.8105 11.7865 18.8009 11.5756 18.7822 11.3675C18.7605 11.127 18.8364 10.8878 18.9929 10.7038L20.137 9.35804C20.4099 9.03699 20.4523 8.5793 20.243 8.21357L19.375 6.69704C19.1632 6.32706 18.7402 6.132 18.3213 6.2112L16.6189 6.53305C16.3777 6.57866 16.1283 6.52373 15.9285 6.381C15.5892 6.13857 15.2273 5.92686 14.8466 5.74972C14.6262 5.64714 14.4566 5.45973 14.3765 5.23016L13.7977 3.57063C13.6576 3.16902 13.2788 2.89998 12.8535 2.89998H11.1465Z" fill="#E4E6E1"/>
</svg>
