<svg width="25" height="24" viewBox="0 0 25 24" fill="none" xmlns="http://www.w3.org/2000/svg">
<path fill-rule="evenodd" clip-rule="evenodd" d="M6.5 16.452C6.5 16.7671 6.68717 17.0225 6.91805 17.0225H9.50452C9.7354 17.0225 9.92257 16.7671 9.92257 16.452C9.92257 16.137 9.7354 15.8816 9.50452 15.8816H6.91805C6.68717 15.8816 6.5 16.137 6.5 16.452Z" fill="white"/>
<path fill-rule="evenodd" clip-rule="evenodd" d="M6.5 11.5111C6.5 11.8262 6.75539 12.0815 7.07043 12.0815H11.4819C11.797 12.0815 12.0524 11.8262 12.0524 11.5111C12.0524 11.1961 11.797 10.9407 11.4819 10.9407H7.07043C6.75539 10.9407 6.5 11.1961 6.5 11.5111Z" fill="white"/>
<path fill-rule="evenodd" clip-rule="evenodd" d="M6.5 6.5702C6.5 6.88524 6.75539 7.14062 7.07043 7.14062H13.2465C13.5616 7.14062 13.817 6.88524 13.817 6.5702C13.817 6.25516 13.5616 5.99977 13.2465 5.99977H7.07043C6.75539 5.99977 6.5 6.25516 6.5 6.5702Z" fill="white"/>
<path fill-rule="evenodd" clip-rule="evenodd" d="M16.2975 6.65793C16.2975 6.29456 16.5885 6 16.9475 6C17.3065 6 17.5975 6.29456 17.5975 6.65793V15.8681L19.4684 13.9744C19.7222 13.7175 20.1338 13.7175 20.3876 13.9744C20.6415 14.2313 20.6415 14.6479 20.3876 14.9049L17.6001 17.7264C17.2397 18.0912 16.6553 18.0912 16.2949 17.7264L13.5074 14.9049C13.2536 14.6479 13.2536 14.2313 13.5074 13.9744C13.7612 13.7175 14.1728 13.7175 14.4266 13.9744L16.2975 15.8681V6.65793Z" fill="#F2F2F2"/>
</svg>
