<svg width="41" height="16" viewBox="0 0 41 16" fill="none" xmlns="http://www.w3.org/2000/svg">
<path d="M8.24702 0.986666C9.65739 0.986666 10.9122 1.27704 12.0115 1.85778C13.1211 2.43852 13.9818 3.24741 14.5937 4.28444C15.2159 5.32148 15.527 6.49333 15.527 7.8C15.527 8.69185 15.4078 9.46444 15.1692 10.1178C14.9307 10.7607 14.5937 11.2533 14.1581 11.5956C13.7226 11.9274 13.2196 12.0933 12.6492 12.0933C12.1722 12.0933 11.7729 11.9844 11.4515 11.7667C11.13 11.5489 10.907 11.2378 10.7826 10.8333L10.7204 10.4289C10.4404 10.9578 10.0463 11.3674 9.53813 11.6578C9.04036 11.9481 8.45962 12.0933 7.79591 12.0933C7.1011 12.0933 6.47369 11.9274 5.91369 11.5956C5.35369 11.2533 4.90776 10.7815 4.57591 10.18C4.25443 9.56815 4.09369 8.87852 4.09369 8.11111C4.09369 7.3437 4.25443 6.65926 4.57591 6.05778C4.90776 5.4563 5.35369 4.98963 5.91369 4.65778C6.47369 4.31556 7.1011 4.14444 7.79591 4.14444C8.39739 4.14444 8.93147 4.26889 9.39813 4.51778C9.87517 4.76667 10.2589 5.12444 10.5492 5.59111V4.23778H12.1204V9.71333C12.1204 10.4393 12.4055 10.8022 12.9759 10.8022C13.4011 10.8022 13.7329 10.5481 13.9715 10.04C14.21 9.53185 14.3292 8.79556 14.3292 7.83111C14.3292 6.71111 14.07 5.72074 13.5515 4.86C13.0433 3.98889 12.3278 3.31481 11.4048 2.83778C10.4922 2.35037 9.43962 2.10667 8.24702 2.10667C7.05443 2.10667 5.99665 2.36074 5.07369 2.86889C4.15073 3.37704 3.42999 4.08222 2.91147 4.98444C2.40332 5.88667 2.14924 6.90815 2.14924 8.04889C2.14924 9.21037 2.39813 10.2422 2.89591 11.1444C3.40406 12.0467 4.11443 12.7519 5.02702 13.26C5.94999 13.7681 7.00258 14.0222 8.1848 14.0222C8.69295 14.0222 9.21147 13.9652 9.74036 13.8511C10.2692 13.737 10.7618 13.5659 11.2181 13.3378L11.607 14.4267C11.1507 14.6652 10.6115 14.8467 9.98925 14.9711C9.37739 15.0956 8.77591 15.1578 8.1848 15.1578C6.74332 15.1578 5.46776 14.8519 4.35813 14.24C3.2485 13.6385 2.38258 12.7985 1.76036 11.72C1.1485 10.6415 0.842578 9.41778 0.842578 8.04889C0.842578 6.69037 1.15369 5.47704 1.77591 4.40889C2.39813 3.34074 3.26924 2.50593 4.38924 1.90444C5.50924 1.29259 6.79517 0.986666 8.24702 0.986666ZM8.12258 10.74C8.83813 10.74 9.42406 10.5015 9.88036 10.0244C10.3367 9.54741 10.5648 8.90963 10.5648 8.11111C10.5648 7.31259 10.3367 6.68 9.88036 6.21333C9.42406 5.7363 8.83813 5.49778 8.12258 5.49778C7.40702 5.49778 6.8211 5.7363 6.3648 6.21333C5.91887 6.69037 5.69591 7.32296 5.69591 8.11111C5.69591 8.89926 5.91887 9.53704 6.3648 10.0244C6.8211 10.5015 7.40702 10.74 8.12258 10.74ZM27.7474 12.5289H26.1763V0.582222H27.7474V12.5289ZM24.994 0.644444V12.3267H23.4385V9.26222H21.8829C21.6859 10.2059 21.3851 10.9059 20.9807 11.3622C20.5763 11.8081 20.0577 12.0311 19.4251 12.0311C18.5437 12.0311 17.88 11.58 17.434 10.6778C16.9881 9.77556 16.7651 8.35481 16.7651 6.41556C16.7651 4.4763 16.9881 3.05556 17.434 2.15333C17.88 1.25111 18.5437 0.8 19.4251 0.8C20.6074 0.8 21.3955 1.59333 21.7896 3.18H23.4385V0.644444H24.994ZM19.4251 10.4289C19.8089 10.4289 20.0889 10.1074 20.2651 9.46444C20.4518 8.81111 20.5451 7.79481 20.5451 6.41556C20.5451 5.0363 20.4518 4.02518 20.2651 3.38222C20.0889 2.72889 19.8089 2.40222 19.4251 2.40222C19.0414 2.40222 18.7614 2.72889 18.5851 3.38222C18.4192 4.02518 18.3363 5.0363 18.3363 6.41556C18.3363 7.79481 18.4192 8.81111 18.5851 9.46444C18.7614 10.1074 19.0414 10.4289 19.4251 10.4289ZM23.4385 4.81333H22.0385C22.0903 5.35259 22.1163 5.88667 22.1163 6.41556C22.1163 6.85111 22.1007 7.25556 22.0696 7.62889H23.4385V4.81333ZM39.7702 3.46V4.84444H29.768V0.551111H31.448V3.46H39.7702ZM28.9902 7.24V5.85556H40.3924V7.24H28.9902ZM34.6991 8.09556C36.2442 8.09556 37.4731 8.27704 38.3857 8.64C39.3087 8.99259 39.7702 9.56296 39.7702 10.3511C39.7702 11.1393 39.3087 11.7096 38.3857 12.0622C37.4731 12.4252 36.2442 12.6067 34.6991 12.6067C33.1539 12.6067 31.9198 12.4252 30.9968 12.0622C30.0842 11.7096 29.628 11.1393 29.628 10.3511C29.628 9.56296 30.0842 8.99259 30.9968 8.64C31.9198 8.27704 33.1539 8.09556 34.6991 8.09556ZM34.6991 9.44889C33.7242 9.44889 32.9309 9.52148 32.3191 9.66667C31.7072 9.81185 31.4013 10.04 31.4013 10.3511C31.4013 10.6622 31.7072 10.8904 32.3191 11.0356C32.9309 11.1807 33.7242 11.2533 34.6991 11.2533C35.6635 11.2533 36.4517 11.1807 37.0635 11.0356C37.6754 10.8904 37.9813 10.6622 37.9813 10.3511C37.9813 10.04 37.6754 9.81185 37.0635 9.66667C36.4517 9.52148 35.6635 9.44889 34.6991 9.44889Z" fill="#0B0B0B"/>
</svg>
