<svg width="36" height="13" viewBox="0 0 36 13" fill="none" xmlns="http://www.w3.org/2000/svg">
<path d="M7.67615 8.18301H9.79171V9.45856H7.5206L7.17837 12.1808H5.85615L6.19837 9.45856H3.47615L3.13393 12.1808H1.82726L2.16948 9.45856H0.053928V8.18301H2.32504L2.68282 5.28968H0.567261V4.01412H2.83837L3.18059 1.2919H4.48726L4.14504 4.01412H6.86726L7.20948 1.2919H8.51615L8.18948 4.01412H10.2895L10.305 5.28968H8.03393L7.67615 8.18301ZM3.98948 5.28968L3.63171 8.18301H6.35393L6.71171 5.28968H3.98948ZM20.3271 3.17412H18.6782L18.5849 1.64967H20.3271V0.763008H21.9916V7.35856H20.3271V6.14523H18.5849L18.6782 4.62079H20.3271V3.17412ZM18.3049 3.92079C18.3049 4.53264 18.1597 5.0719 17.8694 5.53856C17.579 6.00523 17.1642 6.36819 16.6249 6.62745C16.096 6.88671 15.4738 7.01634 14.7582 7.01634C14.0531 7.01634 13.4308 6.88671 12.8916 6.62745C12.3523 6.36819 11.9375 6.00523 11.6471 5.53856C11.3568 5.0719 11.2116 4.53264 11.2116 3.92079C11.2116 3.30893 11.3568 2.77486 11.6471 2.31856C11.9375 1.8519 12.3523 1.48893 12.8916 1.22967C13.4308 0.970416 14.0531 0.840786 14.7582 0.840786C15.4738 0.840786 16.096 0.970416 16.6249 1.22967C17.1642 1.48893 17.579 1.8519 17.8694 2.31856C18.1597 2.77486 18.3049 3.30893 18.3049 3.92079ZM12.8916 3.92079C12.8916 4.42893 13.0575 4.82819 13.3894 5.11856C13.7316 5.39856 14.1879 5.53856 14.7582 5.53856C15.3286 5.53856 15.7797 5.39856 16.1116 5.11856C16.4538 4.82819 16.6249 4.42893 16.6249 3.92079C16.6249 3.42301 16.4538 3.02893 16.1116 2.73856C15.7797 2.44819 15.3286 2.30301 14.7582 2.30301C14.1879 2.30301 13.7316 2.44819 13.3894 2.73856C13.0575 3.02893 12.8916 3.42301 12.8916 3.92079ZM17.1382 7.65412C18.6212 7.65412 19.8138 7.86153 20.716 8.27634C21.6286 8.69116 22.0849 9.33412 22.0849 10.2052C22.0849 11.0867 21.6286 11.7349 20.716 12.1497C19.8138 12.5645 18.6212 12.7719 17.1382 12.7719C15.6449 12.7719 14.4419 12.5645 13.5294 12.1497C12.6271 11.7349 12.176 11.0867 12.176 10.2052C12.176 9.33412 12.6271 8.69116 13.5294 8.27634C14.4419 7.86153 15.6449 7.65412 17.1382 7.65412ZM17.1382 11.3252C18.0819 11.3252 18.839 11.2319 19.4094 11.0452C19.9901 10.8586 20.2805 10.5786 20.2805 10.2052C20.2805 9.8319 19.9901 9.55708 19.4094 9.38079C18.8286 9.19412 18.0716 9.10079 17.1382 9.10079C16.1945 9.10079 15.4323 9.19412 14.8516 9.38079C14.2708 9.55708 13.9805 9.8319 13.9805 10.2052C13.9805 10.5786 14.2708 10.8586 14.8516 11.0452C15.4323 11.2319 16.1945 11.3252 17.1382 11.3252ZM23.421 3.5319V2.00745H26.3922V0.654119H28.1188V2.00745H31.1055V3.5319H23.421ZM33.9366 7.01634V12.7097H32.2566V0.763008H33.9366V5.30523H35.3988V7.01634H33.9366ZM28.1033 10.4852C29.6173 10.4852 30.727 10.3193 31.4322 9.98745V11.5741C31.0796 11.7297 30.5973 11.8489 29.9855 11.9319C29.384 12.0149 28.7203 12.0563 27.9944 12.0563H23.4677V10.4852H26.4077V9.00745C25.6403 8.89338 25.0336 8.62893 24.5877 8.21412C24.1522 7.7993 23.9344 7.26523 23.9344 6.6119C23.9344 5.83412 24.2351 5.22745 24.8366 4.7919C25.4485 4.34597 26.2625 4.12301 27.2788 4.12301C28.2951 4.12301 29.104 4.34597 29.7055 4.7919C30.3173 5.22745 30.6233 5.83412 30.6233 6.6119C30.6233 7.26523 30.3951 7.80449 29.9388 8.22967C29.4929 8.64449 28.881 8.90375 28.1033 9.00745V10.4852ZM25.521 6.6119C25.521 6.93338 25.6714 7.19264 25.9722 7.38967C26.2833 7.57634 26.7188 7.66967 27.2788 7.66967C27.8388 7.66967 28.2692 7.57634 28.5699 7.38967C28.881 7.19264 29.0366 6.93338 29.0366 6.6119C29.0366 6.29042 28.881 6.03116 28.5699 5.83412C28.2588 5.63708 27.8285 5.53856 27.2788 5.53856C26.7292 5.53856 26.2988 5.63708 25.9877 5.83412C25.6766 6.03116 25.521 6.29042 25.521 6.6119Z" fill="#0B0B0B"/>
</svg>
