<svg width="41" height="16" viewBox="0 0 41 16" fill="none" xmlns="http://www.w3.org/2000/svg">
<path d="M7.74702 0.986666C9.15739 0.986666 10.4122 1.27704 11.5115 1.85778C12.6211 2.43852 13.4818 3.24741 14.0937 4.28444C14.7159 5.32148 15.027 6.49333 15.027 7.8C15.027 8.69185 14.9078 9.46444 14.6692 10.1178C14.4307 10.7607 14.0937 11.2533 13.6581 11.5956C13.2226 11.9274 12.7196 12.0933 12.1492 12.0933C11.6722 12.0933 11.2729 11.9844 10.9515 11.7667C10.63 11.5489 10.407 11.2378 10.2826 10.8333L10.2204 10.4289C9.94036 10.9578 9.54628 11.3674 9.03813 11.6578C8.54036 11.9481 7.95962 12.0933 7.29591 12.0933C6.6011 12.0933 5.97369 11.9274 5.41369 11.5956C4.85369 11.2533 4.40776 10.7815 4.07591 10.18C3.75443 9.56815 3.59369 8.87852 3.59369 8.11111C3.59369 7.3437 3.75443 6.65926 4.07591 6.05778C4.40776 5.4563 4.85369 4.98963 5.41369 4.65778C5.97369 4.31556 6.6011 4.14444 7.29591 4.14444C7.89739 4.14444 8.43147 4.26889 8.89813 4.51778C9.37517 4.76667 9.75887 5.12444 10.0492 5.59111V4.23778H11.6204V9.71333C11.6204 10.4393 11.9055 10.8022 12.4759 10.8022C12.9011 10.8022 13.2329 10.5481 13.4715 10.04C13.71 9.53185 13.8292 8.79556 13.8292 7.83111C13.8292 6.71111 13.57 5.72074 13.0515 4.86C12.5433 3.98889 11.8278 3.31481 10.9048 2.83778C9.99221 2.35037 8.93962 2.10667 7.74702 2.10667C6.55443 2.10667 5.49665 2.36074 4.57369 2.86889C3.65073 3.37704 2.92999 4.08222 2.41147 4.98444C1.90332 5.88667 1.64924 6.90815 1.64924 8.04889C1.64924 9.21037 1.89813 10.2422 2.39591 11.1444C2.90406 12.0467 3.61443 12.7519 4.52702 13.26C5.44999 13.7681 6.50258 14.0222 7.6848 14.0222C8.19295 14.0222 8.71147 13.9652 9.24036 13.8511C9.76925 13.737 10.2618 13.5659 10.7181 13.3378L11.107 14.4267C10.6507 14.6652 10.1115 14.8467 9.48925 14.9711C8.87739 15.0956 8.27591 15.1578 7.6848 15.1578C6.24332 15.1578 4.96776 14.8519 3.85813 14.24C2.7485 13.6385 1.88258 12.7985 1.26036 11.72C0.648504 10.6415 0.342578 9.41778 0.342578 8.04889C0.342578 6.69037 0.653689 5.47704 1.27591 4.40889C1.89813 3.34074 2.76924 2.50593 3.88924 1.90444C5.00924 1.29259 6.29517 0.986666 7.74702 0.986666ZM7.62258 10.74C8.33813 10.74 8.92406 10.5015 9.38036 10.0244C9.83665 9.54741 10.0648 8.90963 10.0648 8.11111C10.0648 7.31259 9.83665 6.68 9.38036 6.21333C8.92406 5.7363 8.33813 5.49778 7.62258 5.49778C6.90702 5.49778 6.3211 5.7363 5.8648 6.21333C5.41887 6.69037 5.19591 7.32296 5.19591 8.11111C5.19591 8.89926 5.41887 9.53704 5.8648 10.0244C6.3211 10.5015 6.90702 10.74 7.62258 10.74ZM25.2563 9.44889V0.582222H26.9363V9.44889H25.2563ZM20.2007 5.03111C19.7548 5.78815 19.2 6.40519 18.5363 6.88222C17.8726 7.34889 17.1414 7.6237 16.3429 7.70667V6.05778C17.0066 5.9437 17.5874 5.63778 18.0851 5.14C18.5829 4.63185 18.9718 3.98889 19.2518 3.21111C19.5318 2.42296 19.677 1.57259 19.6874 0.66L21.3829 0.768888C21.3829 1.76444 21.2222 2.71333 20.9007 3.61556L24.4007 6.29111L23.4051 7.56667L20.2007 5.03111ZM27.1851 12.4356H17.0896V8.48444H18.8007V10.8489H27.1851V12.4356ZM38.928 4.62667V7.70667H37.248V0.582222H38.928V2.93111H40.4213V4.62667H38.928ZM32.4102 5.12444C31.9954 5.77778 31.4613 6.30667 30.808 6.71111C30.165 7.11556 29.4442 7.35407 28.6457 7.42667V5.82444C29.5065 5.72074 30.1961 5.35259 30.7146 4.72C31.2435 4.07704 31.5494 3.27852 31.6324 2.32444H28.8013V0.815555H36.0502V2.32444H33.3435C33.3124 2.8637 33.2294 3.33037 33.0946 3.72444L36.3924 6.02667L35.5213 7.33333L32.4102 5.12444ZM38.928 8.26667V12.5911H37.2168V9.79111H29.1435V8.26667H38.928Z" fill="#0B0B0B"/>
</svg>
