<svg width="54" height="16" viewBox="0 0 54 16" fill="none" xmlns="http://www.w3.org/2000/svg">
<path d="M8.08784 0.986666C9.49821 0.986666 10.753 1.27704 11.8523 1.85778C12.9619 2.43852 13.8227 3.24741 14.4345 4.28444C15.0567 5.32148 15.3678 6.49333 15.3678 7.8C15.3678 8.69185 15.2486 9.46444 15.0101 10.1178C14.7715 10.7607 14.4345 11.2533 13.999 11.5956C13.5634 11.9274 13.0604 12.0933 12.4901 12.0933C12.013 12.0933 11.6138 11.9844 11.2923 11.7667C10.9708 11.5489 10.7478 11.2378 10.6234 10.8333L10.5612 10.4289C10.2812 10.9578 9.8871 11.3674 9.37895 11.6578C8.88118 11.9481 8.30044 12.0933 7.63673 12.0933C6.94192 12.0933 6.31451 11.9274 5.75451 11.5956C5.19451 11.2533 4.74858 10.7815 4.41673 10.18C4.09525 9.56815 3.93451 8.87852 3.93451 8.11111C3.93451 7.3437 4.09525 6.65926 4.41673 6.05778C4.74858 5.4563 5.19451 4.98963 5.75451 4.65778C6.31451 4.31556 6.94192 4.14444 7.63673 4.14444C8.23821 4.14444 8.77229 4.26889 9.23895 4.51778C9.71599 4.76667 10.0997 5.12444 10.3901 5.59111V4.23778H11.9612V9.71333C11.9612 10.4393 12.2464 10.8022 12.8167 10.8022C13.2419 10.8022 13.5738 10.5481 13.8123 10.04C14.0508 9.53185 14.1701 8.79556 14.1701 7.83111C14.1701 6.71111 13.9108 5.72074 13.3923 4.86C12.8841 3.98889 12.1686 3.31481 11.2456 2.83778C10.333 2.35037 9.28044 2.10667 8.08784 2.10667C6.89525 2.10667 5.83747 2.36074 4.91451 2.86889C3.99155 3.37704 3.27081 4.08222 2.75229 4.98444C2.24414 5.88667 1.99007 6.90815 1.99007 8.04889C1.99007 9.21037 2.23895 10.2422 2.73673 11.1444C3.24488 12.0467 3.95525 12.7519 4.86784 13.26C5.79081 13.7681 6.8434 14.0222 8.02562 14.0222C8.53377 14.0222 9.05229 13.9652 9.58118 13.8511C10.1101 13.737 10.6027 13.5659 11.059 13.3378L11.4478 14.4267C10.9915 14.6652 10.4523 14.8467 9.83007 14.9711C9.21821 15.0956 8.61673 15.1578 8.02562 15.1578C6.58414 15.1578 5.30858 14.8519 4.19895 14.24C3.08932 13.6385 2.2234 12.7985 1.60118 11.72C0.989324 10.6415 0.683398 9.41778 0.683398 8.04889C0.683398 6.69037 0.99451 5.47704 1.61673 4.40889C2.23895 3.34074 3.11007 2.50593 4.23007 1.90444C5.35007 1.29259 6.63599 0.986666 8.08784 0.986666ZM7.9634 10.74C8.67895 10.74 9.26488 10.5015 9.72118 10.0244C10.1775 9.54741 10.4056 8.90963 10.4056 8.11111C10.4056 7.31259 10.1775 6.68 9.72118 6.21333C9.26488 5.7363 8.67895 5.49778 7.9634 5.49778C7.24784 5.49778 6.66192 5.7363 6.20562 6.21333C5.75969 6.69037 5.53673 7.32296 5.53673 8.11111C5.53673 8.89926 5.75969 9.53704 6.20562 10.0244C6.66192 10.5015 7.24784 10.74 7.9634 10.74ZM18.9393 2.60444V6.50889H27.3549V8.14222H17.2126V0.955555H27.2304V2.60444H18.9393ZM16.5126 12.0156V10.3667H27.9149V12.0156H16.5126ZM39.2688 6.94444V12.5289H37.5888V0.582222H39.2688V5.23333H40.7621V6.94444H39.2688ZM33.8554 10.2889C34.3947 10.2889 34.934 10.237 35.4732 10.1333C36.0125 10.0296 36.4532 9.88963 36.7954 9.71333V11.3C36.4532 11.4763 36.0073 11.6163 35.4577 11.72C34.908 11.8237 34.3532 11.8756 33.7932 11.8756H29.3132V5.56H33.9799V2.55778H29.2821V0.955555H35.6599V7.14667H30.9777V10.2889H33.8554ZM51.5871 6.94444V12.5289H49.9071V0.582222H51.5871V5.23333H53.0805V6.94444H51.5871ZM48.0716 0.955555V11.8756H41.6316V0.955555H48.0716ZM46.376 10.2267V2.60444H43.3116V10.2267H46.376Z" fill="#0B0B0B"/>
</svg>
