<svg width="17" height="16" viewBox="0 0 17 16" fill="none" xmlns="http://www.w3.org/2000/svg">
<g id="056-horror movie 2" clip-path="url(#clip0_7143_32930)">
<g id="Group 2608392">
<path id="Subtract" fill-rule="evenodd" clip-rule="evenodd" d="M4.46283 0.5C2.74883 0.5 1.35937 1.88947 1.35938 3.60346L1.3594 12.3966C1.35941 14.1106 2.74887 15.5 4.46285 15.5H13.2559C14.9699 15.5 16.3594 14.1105 16.3594 12.3966V3.60345C16.3594 1.88946 14.9699 0.5 13.2559 0.5H4.46283ZM3.68709 3.86119C3.68709 3.57552 3.45551 3.34395 3.16985 3.34395C2.88418 3.34395 2.65261 3.57552 2.65261 3.86119L2.65261 5.2405C2.65261 5.52616 2.88418 5.75774 3.16985 5.75774C3.45551 5.75774 3.68709 5.52616 3.68709 5.2405L3.68709 3.86119ZM3.68709 7.30947C3.68709 7.0238 3.45551 6.79222 3.16985 6.79222C2.88418 6.79222 2.65261 7.0238 2.65261 7.30947L2.65261 8.68878C2.65261 8.97444 2.88418 9.20602 3.16985 9.20602C3.45551 9.20602 3.68709 8.97444 3.68709 8.68878V7.30947ZM3.68709 10.7577C3.68709 10.4721 3.45551 10.2405 3.16985 10.2405C2.88418 10.2405 2.65261 10.4721 2.65261 10.7577L2.65261 12.1365C2.65261 12.4221 2.88418 12.6537 3.16985 12.6537C3.45551 12.6537 3.68709 12.4221 3.68709 12.1365L3.68709 10.7577ZM14.5492 3.34395C14.8348 3.34395 15.0664 3.57552 15.0664 3.86119V5.2405C15.0664 5.52616 14.8348 5.75774 14.5492 5.75774C14.2635 5.75774 14.0319 5.52616 14.0319 5.2405V3.86119C14.0319 3.57552 14.2635 3.34395 14.5492 3.34395ZM14.5492 6.79222C14.8348 6.79222 15.0664 7.0238 15.0664 7.30947V8.68878C15.0664 8.97444 14.8348 9.20602 14.5492 9.20602C14.2635 9.20602 14.0319 8.97444 14.0319 8.68878V7.30947C14.0319 7.0238 14.2635 6.79222 14.5492 6.79222ZM14.5492 10.2405C14.8348 10.2405 15.0664 10.4721 15.0664 10.7577V12.1365C15.0664 12.4221 14.8348 12.6537 14.5492 12.6537C14.2635 12.6537 14.0319 12.4221 14.0319 12.1365L14.0319 10.7577C14.0319 10.4721 14.2635 10.2405 14.5492 10.2405ZM5.75592 3.00033C5.1846 3.00033 4.72144 3.46348 4.72144 4.03481V11.9658C4.72144 12.5372 5.18459 13.0003 5.75592 13.0003H11.9628C12.5342 13.0003 12.9973 12.5372 12.9973 11.9658V4.03481C12.9973 3.46348 12.5342 3.00033 11.9628 3.00033H5.75592Z" fill="#F2F2F2"/>
<g id="Union">
<path fill-rule="evenodd" clip-rule="evenodd" d="M6.4558 7.68393C6.4558 6.53103 7.39041 5.59643 8.5433 5.59643C9.6962 5.59643 10.6308 6.53103 10.6308 7.68393C10.6308 8.83682 9.6962 9.77143 8.5433 9.77143C7.39041 9.77143 6.4558 8.83682 6.4558 7.68393ZM8.5433 5C7.06101 5 5.85938 6.20164 5.85938 7.68393C5.85938 9.16622 7.06101 10.3679 8.5433 10.3679C9.17065 10.3679 9.74773 10.1526 10.2047 9.79196L11.321 10.9082C11.4443 11.0315 11.6442 11.0315 11.7675 10.9082C11.8908 10.7849 11.8908 10.5849 11.7675 10.4616L10.6513 9.3454C11.012 8.88841 11.2272 8.31131 11.2272 7.68393C11.2272 6.20164 10.0256 5 8.5433 5Z" fill="#F2F2F2"/>
<path d="M10.2047 9.79196L10.4876 9.50911L10.2361 9.25764L9.9569 9.47796L10.2047 9.79196ZM11.321 10.9082L11.6038 10.6253L11.6038 10.6253L11.321 10.9082ZM11.7675 10.9082L11.4847 10.6253L11.4847 10.6253L11.7675 10.9082ZM11.7675 10.4616L11.4847 10.7445H11.4847L11.7675 10.4616ZM10.6513 9.3454L10.3373 9.09759L10.117 9.37676L10.3684 9.62825L10.6513 9.3454ZM8.5433 5.19643C7.1695 5.19643 6.0558 6.31012 6.0558 7.68393H6.8558C6.8558 6.75195 7.61132 5.99643 8.5433 5.99643V5.19643ZM11.0308 7.68393C11.0308 6.31012 9.91711 5.19643 8.5433 5.19643V5.99643C9.47528 5.99643 10.2308 6.75195 10.2308 7.68393H11.0308ZM8.5433 10.1714C9.91711 10.1714 11.0308 9.05774 11.0308 7.68393H10.2308C10.2308 8.61591 9.47528 9.37143 8.5433 9.37143V10.1714ZM6.0558 7.68393C6.0558 9.05774 7.1695 10.1714 8.5433 10.1714V9.37143C7.61132 9.37143 6.8558 8.61591 6.8558 7.68393H6.0558ZM6.25938 7.68393C6.25938 6.42255 7.28192 5.4 8.5433 5.4V4.6C6.8401 4.6 5.45937 5.98072 5.45937 7.68393H6.25938ZM8.5433 9.96786C7.28192 9.96786 6.25938 8.94531 6.25938 7.68393H5.45937C5.45937 9.38713 6.8401 10.7679 8.5433 10.7679V9.96786ZM9.9569 9.47796C9.56798 9.78491 9.07756 9.96786 8.5433 9.96786V10.7679C9.26374 10.7679 9.92748 10.5203 10.4525 10.1059L9.9569 9.47796ZM11.6038 10.6253L10.4876 9.50911L9.92187 10.0748L11.0381 11.191L11.6038 10.6253ZM11.4847 10.6253C11.5176 10.5924 11.5709 10.5924 11.6038 10.6253L11.0381 11.191C11.3176 11.4705 11.7708 11.4705 12.0503 11.191L11.4847 10.6253ZM11.4847 10.7445C11.4518 10.7116 11.4518 10.6582 11.4847 10.6253L12.0503 11.191C12.3299 10.9115 12.3299 10.4583 12.0503 10.1788L11.4847 10.7445ZM10.3684 9.62825L11.4847 10.7445L12.0503 10.1788L10.9341 9.06256L10.3684 9.62825ZM10.8272 7.68393C10.8272 8.21821 10.6443 8.70865 10.3373 9.09759L10.9653 9.59322C11.3797 9.06816 11.6272 8.4044 11.6272 7.68393H10.8272ZM8.5433 5.4C9.80468 5.4 10.8272 6.42255 10.8272 7.68393H11.6272C11.6272 5.98072 10.2465 4.6 8.5433 4.6V5.4Z" fill="#F2F2F2"/>
</g>
</g>
</g>
<defs>
<clipPath id="clip0_7143_32930">
<rect width="16" height="16" fill="white" transform="translate(0.859375)"/>
</clipPath>
</defs>
</svg>
