<svg width="78" height="16" viewBox="0 0 78 16" fill="none" xmlns="http://www.w3.org/2000/svg">
<path d="M8.26948 0.986666C9.67985 0.986666 10.9347 1.27704 12.0339 1.85778C13.1436 2.43852 14.0043 3.24741 14.6162 4.28444C15.2384 5.32148 15.5495 6.49333 15.5495 7.8C15.5495 8.69185 15.4302 9.46444 15.1917 10.1178C14.9532 10.7607 14.6162 11.2533 14.1806 11.5956C13.745 11.9274 13.2421 12.0933 12.6717 12.0933C12.1947 12.0933 11.7954 11.9844 11.4739 11.7667C11.1524 11.5489 10.9295 11.2378 10.805 10.8333L10.7428 10.4289C10.4628 10.9578 10.0687 11.3674 9.56059 11.6578C9.06282 11.9481 8.48208 12.0933 7.81837 12.0933C7.12356 12.0933 6.49615 11.9274 5.93615 11.5956C5.37615 11.2533 4.93022 10.7815 4.59837 10.18C4.27689 9.56815 4.11615 8.87852 4.11615 8.11111C4.11615 7.3437 4.27689 6.65926 4.59837 6.05778C4.93022 5.4563 5.37615 4.98963 5.93615 4.65778C6.49615 4.31556 7.12356 4.14444 7.81837 4.14444C8.41985 4.14444 8.95393 4.26889 9.42059 4.51778C9.89763 4.76667 10.2813 5.12444 10.5717 5.59111V4.23778H12.1428V9.71333C12.1428 10.4393 12.428 10.8022 12.9984 10.8022C13.4236 10.8022 13.7554 10.5481 13.9939 10.04C14.2324 9.53185 14.3517 8.79556 14.3517 7.83111C14.3517 6.71111 14.0924 5.72074 13.5739 4.86C13.0658 3.98889 12.3502 3.31481 11.4273 2.83778C10.5147 2.35037 9.46208 2.10667 8.26948 2.10667C7.07689 2.10667 6.01911 2.36074 5.09615 2.86889C4.17319 3.37704 3.45245 4.08222 2.93393 4.98444C2.42578 5.88667 2.17171 6.90815 2.17171 8.04889C2.17171 9.21037 2.42059 10.2422 2.91837 11.1444C3.42652 12.0467 4.13689 12.7519 5.04948 13.26C5.97245 13.7681 7.02504 14.0222 8.20726 14.0222C8.71541 14.0222 9.23393 13.9652 9.76282 13.8511C10.2917 13.737 10.7843 13.5659 11.2406 13.3378L11.6295 14.4267C11.1732 14.6652 10.6339 14.8467 10.0117 14.9711C9.39985 15.0956 8.79837 15.1578 8.20726 15.1578C6.76578 15.1578 5.49022 14.8519 4.38059 14.24C3.27097 13.6385 2.40504 12.7985 1.78282 11.72C1.17096 10.6415 0.865039 9.41778 0.865039 8.04889C0.865039 6.69037 1.17615 5.47704 1.79837 4.40889C2.42059 3.34074 3.29171 2.50593 4.41171 1.90444C5.53171 1.29259 6.81763 0.986666 8.26948 0.986666ZM8.14504 10.74C8.86059 10.74 9.44652 10.5015 9.90282 10.0244C10.3591 9.54741 10.5873 8.90963 10.5873 8.11111C10.5873 7.31259 10.3591 6.68 9.90282 6.21333C9.44652 5.7363 8.86059 5.49778 8.14504 5.49778C7.42948 5.49778 6.84356 5.7363 6.38726 6.21333C5.94134 6.69037 5.71837 7.32296 5.71837 8.11111C5.71837 8.89926 5.94134 9.53704 6.38726 10.0244C6.84356 10.5015 7.42948 10.74 8.14504 10.74ZM27.7698 12.5289H26.1832V6.89778H24.6898V12.3267H23.1187V0.644444H24.6898V5.23333H26.1832V0.582222H27.7698V12.5289ZM19.4787 0.8C20.3809 0.8 21.055 1.25111 21.5009 2.15333C21.9572 3.05556 22.1854 4.4763 22.1854 6.41556C22.1854 8.35481 21.9572 9.77556 21.5009 10.6778C21.055 11.58 20.3809 12.0311 19.4787 12.0311C18.5869 12.0311 17.9128 11.58 17.4565 10.6778C17.0106 9.77556 16.7876 8.35481 16.7876 6.41556C16.7876 4.4763 17.0106 3.05556 17.4565 2.15333C17.9128 1.25111 18.5869 0.8 19.4787 0.8ZM19.4787 10.4289C19.8728 10.4289 20.158 10.1074 20.3343 9.46444C20.5209 8.81111 20.6143 7.79481 20.6143 6.41556C20.6143 5.0363 20.5209 4.02518 20.3343 3.38222C20.158 2.72889 19.8728 2.40222 19.4787 2.40222C19.095 2.40222 18.8098 2.72889 18.6232 3.38222C18.4469 4.03556 18.3587 5.04667 18.3587 6.41556C18.3587 7.78444 18.4469 8.79556 18.6232 9.44889C18.8098 10.1022 19.095 10.4289 19.4787 10.4289ZM38.0815 12.5289V0.582222H39.7771V12.5289H38.0815ZM34.286 10.2578C34.8149 10.2578 35.3489 10.2059 35.8882 10.1022C36.4274 9.99852 36.8734 9.85852 37.226 9.68222V11.3C36.8837 11.4867 36.4482 11.6319 35.9193 11.7356C35.3904 11.8289 34.846 11.8756 34.286 11.8756H29.6193V0.877778H31.346V10.2578H34.286ZM52.4066 12.5289H50.8199V0.582222H52.4066V12.5289ZM49.6065 0.644444V12.3267H48.0354V6.89778H46.6199V11.8756H41.6421V0.955555H46.6199V5.23333H48.0354V0.644444H49.6065ZM43.1977 2.55778V10.2733H45.0332V2.55778H43.1977ZM62.7338 12.5289V0.582222H64.4294V12.5289H62.7338ZM57.5849 0.8C58.6531 0.8 59.4982 1.27185 60.1205 2.21556C60.7427 3.14889 61.0538 4.54889 61.0538 6.41556C61.0538 8.28222 60.7427 9.68741 60.1205 10.6311C59.4982 11.5644 58.6531 12.0311 57.5849 12.0311C56.5064 12.0311 55.6508 11.5644 55.0182 10.6311C54.396 9.68741 54.0849 8.28222 54.0849 6.41556C54.0849 4.54889 54.396 3.14889 55.0182 2.21556C55.6508 1.27185 56.5064 0.8 57.5849 0.8ZM57.5849 2.43333C57.0249 2.43333 56.579 2.75481 56.2471 3.39778C55.9153 4.04074 55.7494 5.04667 55.7494 6.41556C55.7494 7.78444 55.9153 8.79037 56.2471 9.43333C56.579 10.0763 57.0249 10.3978 57.5849 10.3978C58.1345 10.3978 58.5701 10.0763 58.8916 9.43333C59.2234 8.79037 59.3894 7.78444 59.3894 6.41556C59.3894 5.04667 59.2234 4.04074 58.8916 3.39778C58.5701 2.75481 58.1345 2.43333 57.5849 2.43333ZM72.9522 5.66889V4.20667H75.1455V3.07111H72.9522V1.60889H75.1455V0.582222H76.8099V9.44889H75.1455V5.66889H72.9522ZM69.7322 5.24889C69.2862 6.0163 68.7418 6.63852 68.0988 7.11556C67.4662 7.59259 66.761 7.87259 65.9833 7.95556V6.30667C66.6262 6.20296 67.1862 5.88148 67.6633 5.34222C68.1507 4.80296 68.524 4.1237 68.7833 3.30444C69.0529 2.47481 69.1929 1.59333 69.2033 0.66L70.8988 0.768888C70.8988 1.8163 70.7381 2.82222 70.4166 3.78667L73.7922 6.66444L72.7344 7.87778L69.7322 5.24889ZM77.0122 12.4356H66.9477V8.54667H68.6588V10.8489H77.0122V12.4356Z" fill="#0B0B0B"/>
</svg>
