<svg width="50" height="26" viewBox="0 0 50 26" fill="none" xmlns="http://www.w3.org/2000/svg">
<path d="M13.7257 13.2222V19.6044H11.8057V5.95111H13.7257V11.2667H15.4324V13.2222H13.7257ZM7.53903 17.0089C8.15532 17.0089 8.76569 16.9496 9.37014 16.8311C9.98644 16.7126 10.4961 16.5585 10.899 16.3689V18.2C10.5079 18.4015 9.99236 18.5615 9.35236 18.68C8.72421 18.7985 8.09014 18.8578 7.45014 18.8578H2.34792V6.37778H9.88569V8.22667H4.26792V11.6044H9.63681V13.4711H4.26792V17.0089H7.53903ZM28.1772 13.0444H26.2572V5.95111H28.1772V13.0444ZM24.2483 9.48889C24.2483 10.1763 24.0764 10.7807 23.7327 11.3022C23.4009 11.8237 22.9209 12.2267 22.2927 12.5111C21.6764 12.7956 20.9534 12.9378 20.1238 12.9378C19.306 12.9378 18.5831 12.7956 17.9549 12.5111C17.3386 12.2148 16.8586 11.8059 16.5149 11.2844C16.1712 10.763 15.9994 10.1644 15.9994 9.48889C15.9994 8.81333 16.1712 8.21481 16.5149 7.69333C16.8586 7.17185 17.3386 6.76889 17.9549 6.48444C18.5831 6.18815 19.306 6.04 20.1238 6.04C20.9534 6.04 21.6764 6.18222 22.2927 6.46667C22.9209 6.75111 23.4009 7.15407 23.7327 7.67556C24.0764 8.19704 24.2483 8.80148 24.2483 9.48889ZM17.9194 9.48889C17.9194 10.0459 18.1209 10.4844 18.5238 10.8044C18.9268 11.1244 19.4601 11.2844 20.1238 11.2844C20.7994 11.2844 21.3386 11.1244 21.7416 10.8044C22.1446 10.4844 22.346 10.0459 22.346 9.48889C22.346 8.93185 22.1446 8.49333 21.7416 8.17333C21.3386 7.84148 20.7994 7.67556 20.1238 7.67556C19.4601 7.67556 18.9268 7.84148 18.5238 8.17333C18.1209 8.49333 17.9194 8.93185 17.9194 9.48889ZM28.1772 13.5956V19.4978H17.0838V13.5956H18.9683V14.84H26.2927V13.5956H28.1772ZM26.2927 16.44H18.9683V17.88H26.2927V16.44Z" fill="#F2F2F2"/>
<g clip-path="url(#clip0_7143_32928)">
<path fill-rule="evenodd" clip-rule="evenodd" d="M37.4628 5.5C35.7488 5.5 34.3594 6.88947 34.3594 8.60346L34.3594 17.3966C34.3594 19.1106 35.7489 20.5 37.4629 20.5H46.2559C47.9699 20.5 49.3594 19.1105 49.3594 17.3966V8.60345C49.3594 6.88946 47.9699 5.5 46.2559 5.5H37.4628ZM36.6871 8.86119C36.6871 8.57552 36.4555 8.34395 36.1698 8.34395C35.8842 8.34395 35.6526 8.57552 35.6526 8.86119L35.6526 10.2405C35.6526 10.5262 35.8842 10.7577 36.1698 10.7577C36.4555 10.7577 36.6871 10.5262 36.6871 10.2405L36.6871 8.86119ZM36.6871 12.3095C36.6871 12.0238 36.4555 11.7922 36.1698 11.7922C35.8842 11.7922 35.6526 12.0238 35.6526 12.3095L35.6526 13.6888C35.6526 13.9744 35.8842 14.206 36.1698 14.206C36.4555 14.206 36.6871 13.9744 36.6871 13.6888V12.3095ZM36.6871 15.7577C36.6871 15.4721 36.4555 15.2405 36.1698 15.2405C35.8842 15.2405 35.6526 15.4721 35.6526 15.7577L35.6526 17.1365C35.6526 17.4221 35.8842 17.6537 36.1698 17.6537C36.4555 17.6537 36.6871 17.4221 36.6871 17.1365L36.6871 15.7577ZM47.5492 8.34395C47.8348 8.34395 48.0664 8.57552 48.0664 8.86119V10.2405C48.0664 10.5262 47.8348 10.7577 47.5492 10.7577C47.2635 10.7577 47.0319 10.5262 47.0319 10.2405V8.86119C47.0319 8.57552 47.2635 8.34395 47.5492 8.34395ZM47.5492 11.7922C47.8348 11.7922 48.0664 12.0238 48.0664 12.3095V13.6888C48.0664 13.9744 47.8348 14.206 47.5492 14.206C47.2635 14.206 47.0319 13.9744 47.0319 13.6888V12.3095C47.0319 12.0238 47.2635 11.7922 47.5492 11.7922ZM47.5492 15.2405C47.8348 15.2405 48.0664 15.4721 48.0664 15.7577V17.1365C48.0664 17.4221 47.8348 17.6537 47.5492 17.6537C47.2635 17.6537 47.0319 17.4221 47.0319 17.1365L47.0319 15.7577C47.0319 15.4721 47.2635 15.2405 47.5492 15.2405ZM38.7559 8.00033C38.1846 8.00033 37.7214 8.46348 37.7214 9.03481V16.9658C37.7214 17.5372 38.1846 18.0003 38.7559 18.0003H44.9628C45.5342 18.0003 45.9973 17.5372 45.9973 16.9658V9.03481C45.9973 8.46348 45.5342 8.00033 44.9628 8.00033H38.7559Z" fill="#F2F2F2"/>
<path fill-rule="evenodd" clip-rule="evenodd" d="M39.4558 12.6839C39.4558 11.531 40.3904 10.5964 41.5433 10.5964C42.6962 10.5964 43.6308 11.531 43.6308 12.6839C43.6308 13.8368 42.6962 14.7714 41.5433 14.7714C40.3904 14.7714 39.4558 13.8368 39.4558 12.6839ZM41.5433 10C40.061 10 38.8594 11.2016 38.8594 12.6839C38.8594 14.1662 40.061 15.3679 41.5433 15.3679C42.1707 15.3679 42.7477 15.1526 43.2047 14.792L44.321 15.9082C44.4443 16.0315 44.6442 16.0315 44.7675 15.9082C44.8908 15.7849 44.8908 15.5849 44.7675 15.4616L43.6513 14.3454C44.012 13.8884 44.2272 13.3113 44.2272 12.6839C44.2272 11.2016 43.0256 10 41.5433 10Z" fill="#F2F2F2"/>
<path d="M43.2047 14.792L43.4876 14.5091L43.2361 14.2576L42.9569 14.478L43.2047 14.792ZM44.321 15.9082L44.6038 15.6253L44.6038 15.6253L44.321 15.9082ZM44.7675 15.9082L44.4847 15.6253L44.4847 15.6253L44.7675 15.9082ZM44.7675 15.4616L44.4847 15.7445H44.4847L44.7675 15.4616ZM43.6513 14.3454L43.3373 14.0976L43.117 14.3768L43.3684 14.6282L43.6513 14.3454ZM41.5433 10.1964C40.1695 10.1964 39.0558 11.3101 39.0558 12.6839H39.8558C39.8558 11.7519 40.6113 10.9964 41.5433 10.9964V10.1964ZM44.0308 12.6839C44.0308 11.3101 42.9171 10.1964 41.5433 10.1964V10.9964C42.4753 10.9964 43.2308 11.7519 43.2308 12.6839H44.0308ZM41.5433 15.1714C42.9171 15.1714 44.0308 14.0577 44.0308 12.6839H43.2308C43.2308 13.6159 42.4753 14.3714 41.5433 14.3714V15.1714ZM39.0558 12.6839C39.0558 14.0577 40.1695 15.1714 41.5433 15.1714V14.3714C40.6113 14.3714 39.8558 13.6159 39.8558 12.6839H39.0558ZM39.2594 12.6839C39.2594 11.4225 40.2819 10.4 41.5433 10.4V9.6C39.8401 9.6 38.4594 10.9807 38.4594 12.6839H39.2594ZM41.5433 14.9679C40.2819 14.9679 39.2594 13.9453 39.2594 12.6839H38.4594C38.4594 14.3871 39.8401 15.7679 41.5433 15.7679V14.9679ZM42.9569 14.478C42.568 14.7849 42.0776 14.9679 41.5433 14.9679V15.7679C42.2637 15.7679 42.9275 15.5203 43.4525 15.1059L42.9569 14.478ZM44.6038 15.6253L43.4876 14.5091L42.9219 15.0748L44.0381 16.191L44.6038 15.6253ZM44.4847 15.6253C44.5176 15.5924 44.5709 15.5924 44.6038 15.6253L44.0381 16.191C44.3176 16.4705 44.7708 16.4705 45.0503 16.191L44.4847 15.6253ZM44.4847 15.7445C44.4518 15.7116 44.4518 15.6582 44.4847 15.6253L45.0503 16.191C45.3299 15.9115 45.3299 15.4583 45.0503 15.1788L44.4847 15.7445ZM43.3684 14.6282L44.4847 15.7445L45.0503 15.1788L43.9341 14.0626L43.3684 14.6282ZM43.8272 12.6839C43.8272 13.2182 43.6443 13.7086 43.3373 14.0976L43.9653 14.5932C44.3797 14.0682 44.6272 13.4044 44.6272 12.6839H43.8272ZM41.5433 10.4C42.8047 10.4 43.8272 11.4225 43.8272 12.6839H44.6272C44.6272 10.9807 43.2465 9.6 41.5433 9.6V10.4Z" fill="#F2F2F2"/>
</g>
<defs>
<clipPath id="clip0_7143_32928">
<rect width="16" height="16" fill="white" transform="translate(33.8594 5)"/>
</clipPath>
</defs>
</svg>
