<svg width="41" height="16" viewBox="0 0 41 16" fill="none" xmlns="http://www.w3.org/2000/svg">
<path d="M7.74702 0.986666C9.15739 0.986666 10.4122 1.27704 11.5115 1.85778C12.6211 2.43852 13.4818 3.24741 14.0937 4.28444C14.7159 5.32148 15.027 6.49333 15.027 7.8C15.027 8.69185 14.9078 9.46444 14.6692 10.1178C14.4307 10.7607 14.0937 11.2533 13.6581 11.5956C13.2226 11.9274 12.7196 12.0933 12.1492 12.0933C11.6722 12.0933 11.2729 11.9844 10.9515 11.7667C10.63 11.5489 10.407 11.2378 10.2826 10.8333L10.2204 10.4289C9.94036 10.9578 9.54628 11.3674 9.03813 11.6578C8.54036 11.9481 7.95962 12.0933 7.29591 12.0933C6.6011 12.0933 5.97369 11.9274 5.41369 11.5956C4.85369 11.2533 4.40776 10.7815 4.07591 10.18C3.75443 9.56815 3.59369 8.87852 3.59369 8.11111C3.59369 7.3437 3.75443 6.65926 4.07591 6.05778C4.40776 5.4563 4.85369 4.98963 5.41369 4.65778C5.97369 4.31556 6.6011 4.14444 7.29591 4.14444C7.89739 4.14444 8.43147 4.26889 8.89813 4.51778C9.37517 4.76667 9.75887 5.12444 10.0492 5.59111V4.23778H11.6204V9.71333C11.6204 10.4393 11.9055 10.8022 12.4759 10.8022C12.9011 10.8022 13.2329 10.5481 13.4715 10.04C13.71 9.53185 13.8292 8.79556 13.8292 7.83111C13.8292 6.71111 13.57 5.72074 13.0515 4.86C12.5433 3.98889 11.8278 3.31481 10.9048 2.83778C9.99221 2.35037 8.93962 2.10667 7.74702 2.10667C6.55443 2.10667 5.49665 2.36074 4.57369 2.86889C3.65073 3.37704 2.92999 4.08222 2.41147 4.98444C1.90332 5.88667 1.64924 6.90815 1.64924 8.04889C1.64924 9.21037 1.89813 10.2422 2.39591 11.1444C2.90406 12.0467 3.61443 12.7519 4.52702 13.26C5.44999 13.7681 6.50258 14.0222 7.6848 14.0222C8.19295 14.0222 8.71147 13.9652 9.24036 13.8511C9.76925 13.737 10.2618 13.5659 10.7181 13.3378L11.107 14.4267C10.6507 14.6652 10.1115 14.8467 9.48925 14.9711C8.87739 15.0956 8.27591 15.1578 7.6848 15.1578C6.24332 15.1578 4.96776 14.8519 3.85813 14.24C2.7485 13.6385 1.88258 12.7985 1.26036 11.72C0.648504 10.6415 0.342578 9.41778 0.342578 8.04889C0.342578 6.69037 0.653689 5.47704 1.27591 4.40889C1.89813 3.34074 2.76924 2.50593 3.88924 1.90444C5.00924 1.29259 6.29517 0.986666 7.74702 0.986666ZM7.62258 10.74C8.33813 10.74 8.92406 10.5015 9.38036 10.0244C9.83665 9.54741 10.0648 8.90963 10.0648 8.11111C10.0648 7.31259 9.83665 6.68 9.38036 6.21333C8.92406 5.7363 8.33813 5.49778 7.62258 5.49778C6.90702 5.49778 6.3211 5.7363 5.8648 6.21333C5.41887 6.69037 5.19591 7.32296 5.19591 8.11111C5.19591 8.89926 5.41887 9.53704 5.8648 10.0244C6.3211 10.5015 6.90702 10.74 7.62258 10.74ZM25.3496 2.99333H23.7007L23.6074 1.46889H25.3496V0.582222H27.014V7.17778H25.3496V5.96444H23.6074L23.7007 4.44H25.3496V2.99333ZM23.3274 3.74C23.3274 4.35185 23.1822 4.89111 22.8918 5.35778C22.6014 5.82444 22.1866 6.18741 21.6474 6.44667C21.1185 6.70593 20.4963 6.83556 19.7807 6.83556C19.0755 6.83556 18.4533 6.70593 17.914 6.44667C17.3748 6.18741 16.96 5.82444 16.6696 5.35778C16.3792 4.89111 16.234 4.35185 16.234 3.74C16.234 3.12815 16.3792 2.59407 16.6696 2.13778C16.96 1.67111 17.3748 1.30815 17.914 1.04889C18.4533 0.789629 19.0755 0.66 19.7807 0.66C20.4963 0.66 21.1185 0.789629 21.6474 1.04889C22.1866 1.30815 22.6014 1.67111 22.8918 2.13778C23.1822 2.59407 23.3274 3.12815 23.3274 3.74ZM17.914 3.74C17.914 4.24815 18.08 4.64741 18.4118 4.93778C18.754 5.21778 19.2103 5.35778 19.7807 5.35778C20.3511 5.35778 20.8022 5.21778 21.134 4.93778C21.4763 4.64741 21.6474 4.24815 21.6474 3.74C21.6474 3.24222 21.4763 2.84815 21.134 2.55778C20.8022 2.26741 20.3511 2.12222 19.7807 2.12222C19.2103 2.12222 18.754 2.26741 18.4118 2.55778C18.08 2.84815 17.914 3.24222 17.914 3.74ZM22.1607 7.47333C23.6437 7.47333 24.8363 7.68074 25.7385 8.09556C26.6511 8.51037 27.1074 9.15333 27.1074 10.0244C27.1074 10.9059 26.6511 11.5541 25.7385 11.9689C24.8363 12.3837 23.6437 12.5911 22.1607 12.5911C20.6674 12.5911 19.4644 12.3837 18.5518 11.9689C17.6496 11.5541 17.1985 10.9059 17.1985 10.0244C17.1985 9.15333 17.6496 8.51037 18.5518 8.09556C19.4644 7.68074 20.6674 7.47333 22.1607 7.47333ZM22.1607 11.1444C23.1044 11.1444 23.8614 11.0511 24.4318 10.8644C25.0126 10.6778 25.3029 10.3978 25.3029 10.0244C25.3029 9.65111 25.0126 9.3763 24.4318 9.2C23.8511 9.01333 23.094 8.92 22.1607 8.92C21.217 8.92 20.4548 9.01333 19.874 9.2C19.2933 9.3763 19.0029 9.65111 19.0029 10.0244C19.0029 10.3978 19.2933 10.6778 19.874 10.8644C20.4548 11.0511 21.217 11.1444 22.1607 11.1444ZM28.4435 3.35111V1.82667H31.4146V0.473333H33.1413V1.82667H36.128V3.35111H28.4435ZM38.9591 6.83556V12.5289H37.2791V0.582222H38.9591V5.12444H40.4213V6.83556H38.9591ZM33.1257 10.3044C34.6398 10.3044 35.7494 10.1385 36.4546 9.80667V11.3933C36.102 11.5489 35.6198 11.6681 35.008 11.7511C34.4065 11.8341 33.7428 11.8756 33.0168 11.8756H28.4902V10.3044H31.4302V8.82667C30.6628 8.71259 30.0561 8.44815 29.6102 8.03333C29.1746 7.61852 28.9568 7.08444 28.9568 6.43111C28.9568 5.65333 29.2576 5.04667 29.8591 4.61111C30.4709 4.16519 31.285 3.94222 32.3013 3.94222C33.3176 3.94222 34.1265 4.16519 34.728 4.61111C35.3398 5.04667 35.6457 5.65333 35.6457 6.43111C35.6457 7.08444 35.4176 7.6237 34.9613 8.04889C34.5154 8.4637 33.9035 8.72296 33.1257 8.82667V10.3044ZM30.5435 6.43111C30.5435 6.75259 30.6939 7.01185 30.9946 7.20889C31.3057 7.39556 31.7413 7.48889 32.3013 7.48889C32.8613 7.48889 33.2917 7.39556 33.5924 7.20889C33.9035 7.01185 34.0591 6.75259 34.0591 6.43111C34.0591 6.10963 33.9035 5.85037 33.5924 5.65333C33.2813 5.4563 32.8509 5.35778 32.3013 5.35778C31.7517 5.35778 31.3213 5.4563 31.0102 5.65333C30.6991 5.85037 30.5435 6.10963 30.5435 6.43111Z" fill="#0B0B0B"/>
</svg>
