<svg width="133" height="15" viewBox="0 0 133 15" fill="none" xmlns="http://www.w3.org/2000/svg">
<path d="M10.0306 8.20444V0.951111H11.9506V8.20444H10.0306ZM5.55059 5.91111C6.30911 5.91111 7.01429 5.8637 7.66615 5.76889C8.318 5.66222 8.83355 5.52 9.21281 5.34222V7.06667C8.83355 7.24444 8.318 7.38667 7.66615 7.49333C7.02615 7.58815 6.30911 7.63556 5.51503 7.63556H0.181701V1.12889H2.11948V5.91111H5.55059ZM0.697257 14.4978V8.89778H11.9506V14.4978H0.697257ZM10.0306 10.6044H2.61726V12.7911H10.0306V10.6044ZM24.1087 14.6044V0.951111H26.0465V14.6044H24.1087ZM18.2243 1.2C19.445 1.2 20.4109 1.73926 21.122 2.81778C21.8332 3.88444 22.1887 5.48444 22.1887 7.61778C22.1887 9.75111 21.8332 11.357 21.122 12.4356C20.4109 13.5022 19.445 14.0356 18.2243 14.0356C16.9917 14.0356 16.0139 13.5022 15.2909 12.4356C14.5798 11.357 14.2243 9.75111 14.2243 7.61778C14.2243 5.48444 14.5798 3.88444 15.2909 2.81778C16.0139 1.73926 16.9917 1.2 18.2243 1.2ZM18.2243 3.06667C17.5843 3.06667 17.0746 3.43407 16.6954 4.16889C16.3161 4.9037 16.1265 6.05333 16.1265 7.61778C16.1265 9.18222 16.3161 10.3319 16.6954 11.0667C17.0746 11.8015 17.5843 12.1689 18.2243 12.1689C18.8524 12.1689 19.3502 11.8015 19.7176 11.0667C20.0969 10.3319 20.2865 9.18222 20.2865 7.61778C20.2865 6.05333 20.0969 4.9037 19.7176 4.16889C19.3502 3.43407 18.8524 3.06667 18.2243 3.06667ZM37.4536 4.45333C36.8017 4.89185 35.9899 5.22963 35.018 5.46667C34.058 5.7037 33.0447 5.83407 31.978 5.85778V4.31111C33.0684 4.28741 34.0817 4.12741 35.018 3.83111C35.9543 3.52296 36.5706 3.10222 36.8669 2.56889H32.1558V1.05778H43.5336V2.56889H39.0002C38.9647 2.77037 38.8877 2.9837 38.7691 3.20889L43.8714 4.41778L43.4447 5.91111L37.4536 4.45333ZM44.3514 8.08H31.3202V6.55111H44.3514V8.08ZM43.7114 13.1289V14.4978H32.1736V11.1378H41.6314V10.3022H32.138V8.96889H43.5336V12.2756H34.0758V13.1289H43.7114ZM57.7895 14.6044H55.8695V10.4622H53.3273V8.57778H55.8695V5.78667H53.7184V3.88444H55.8695V0.951111H57.7895V14.6044ZM53.025 1.37778V4.82667C53.025 6.65185 52.7406 8.24593 52.1717 9.60889C51.6028 10.96 50.7791 12.003 49.7006 12.7378C48.6339 13.4726 47.3717 13.84 45.9139 13.84V11.92C47.5613 11.9081 48.8295 11.28 49.7184 10.0356C50.6191 8.77926 51.0695 7.04889 51.0695 4.84444V3.22667H45.9139V1.37778H53.025ZM63.7965 6.30222C63.3224 6.96593 62.7298 7.50519 62.0187 7.92C61.3076 8.33481 60.5195 8.5837 59.6543 8.66667V6.94222C60.5195 6.8237 61.2365 6.48 61.8054 5.91111C62.3743 5.33037 62.7476 4.61926 62.9254 3.77778H59.7965V2.10667H62.9965V0.702222H64.952V2.10667H68.1343V3.77778H64.9165C64.8691 4.09778 64.7861 4.44148 64.6676 4.80889L68.4009 7.01333L67.5298 8.54222L63.7965 6.30222ZM73.112 5.71556H71.4054V8.84444H69.4854V0.951111H71.4054V3.74222H73.112V5.71556ZM67.1387 11.0489C67.0676 11.2622 66.9728 11.4756 66.8543 11.6889L71.8498 13.0578L71.4232 14.6756L65.6809 12.9689C65.0172 13.4785 64.1995 13.8578 63.2276 14.1067C62.2558 14.3674 61.2306 14.4978 60.152 14.4978V12.8444C61.2306 12.8444 62.2083 12.6844 63.0854 12.3644C63.9624 12.0444 64.5787 11.6059 64.9343 11.0489H60.2943V9.48444H71.512V11.0489H67.1387ZM85.8391 4.59556V6.30222H74.4435V0.915555H76.3813V4.59556H85.8391ZM73.5546 9.34222V7.61778H86.5857V9.34222H73.5546ZM85.9457 12.7911V14.4978H74.408V10.3733H76.3635V12.7911H85.9457ZM92.0195 6.01778V4.38222H101.388V2.69333H92.0195V1.02222H103.308V7.24444H101.388V6.01778H92.0195ZM104.179 9.71556H91.1484V8.02667H95.8595V6.26667H97.7973V8.02667H104.179V9.71556ZM103.539 12.8089V14.4978H92.0017V10.6756H93.9573V12.8089H103.539ZM116.071 11.3156V0.951111H117.884V11.3156H116.071ZM111.502 5.96444V4.13333H112.889V1.02222H114.684V11.0844H112.889V5.96444H111.502ZM111.946 9.09333C111.567 9.24741 111.069 9.36593 110.453 9.44889C109.837 9.53185 109.179 9.57333 108.48 9.57333H105.582V1.21778H111.235V2.87111H107.378V4.56H110.862V6.14222H107.378V7.92H108.604C110.05 7.92 111.164 7.76 111.946 7.44V9.09333ZM118.151 14.4978H106.311V10.48H108.266V12.6844H118.151V14.4978ZM125.669 7.06667C125.017 7.93185 124.17 8.61926 123.127 9.12889C122.096 9.62667 120.952 9.89926 119.696 9.94667V8.08C120.964 8.00889 122.066 7.62963 123.002 6.94222C123.951 6.24296 124.549 5.34222 124.798 4.24H119.998V2.37333H124.816V0.773333H126.789V2.37333H131.642V4.24H126.896C126.813 4.72593 126.694 5.15259 126.54 5.52L132.051 8.32889L131.216 10.0178L125.669 7.06667ZM132.336 14.0178H119.305V12.1511H132.336V14.0178Z" fill="white"/>
</svg>
