<svg width="85" height="15" viewBox="0 0 85 15" fill="none" xmlns="http://www.w3.org/2000/svg">
<path d="M6.86764 4.20444C6.21579 4.65481 5.40394 5.00444 4.43208 5.25333C3.46023 5.50222 2.4469 5.63852 1.39208 5.66222V4.15111C2.43505 4.12741 3.4069 3.97333 4.30764 3.68889C5.22023 3.40444 5.84838 3.01926 6.19208 2.53333H1.56986V1.05778H12.9476V2.53333H8.37875C8.33134 2.69926 8.26023 2.86518 8.16542 3.03111L13.3032 4.25778L12.8588 5.71556L6.86764 4.20444ZM13.7654 7.88444H0.734306V6.40889H6.29875V5.27111H8.21875V6.40889H13.7654V7.88444ZM13.0899 9.05778V10.4267H1.40986V9.05778H6.28097V8.34667H8.21875V9.05778H13.0899ZM7.25875 10.9244C9.02468 10.9244 10.3462 11.0785 11.2232 11.3867C12.1002 11.683 12.5388 12.157 12.5388 12.8089C12.5388 13.4726 12.1002 13.9526 11.2232 14.2489C10.3462 14.557 9.02468 14.7111 7.25875 14.7111C5.48097 14.7111 4.15356 14.557 3.27653 14.2489C2.39949 13.9526 1.96097 13.4726 1.96097 12.8089C1.96097 12.157 2.39949 11.683 3.27653 11.3867C4.16542 11.0785 5.49282 10.9244 7.25875 10.9244ZM7.25875 13.3956C9.4869 13.3956 10.601 13.2 10.601 12.8089C10.601 12.6193 10.3106 12.477 9.72986 12.3822C9.14912 12.2756 8.32542 12.2222 7.25875 12.2222C6.19208 12.2222 5.36838 12.2756 4.78764 12.3822C4.2069 12.477 3.91653 12.6193 3.91653 12.8089C3.91653 13.2 5.0306 13.3956 7.25875 13.3956ZM26.7413 8.22222V14.6044H24.8213V0.951111H26.7413V6.26667H28.448V8.22222H26.7413ZM19.0969 1.2C20.3176 1.2 21.2776 1.73926 21.9769 2.81778C22.6761 3.88444 23.0258 5.48444 23.0258 7.61778C23.0258 9.75111 22.6761 11.357 21.9769 12.4356C21.2776 13.5022 20.3176 14.0356 19.0969 14.0356C17.888 14.0356 16.928 13.5022 16.2169 12.4356C15.5176 11.357 15.168 9.75111 15.168 7.61778C15.168 5.48444 15.5176 3.88444 16.2169 2.81778C16.928 1.73926 17.888 1.2 19.0969 1.2ZM19.0969 12.1689C19.7132 12.1689 20.1991 11.8074 20.5547 11.0844C20.9221 10.3496 21.1058 9.19407 21.1058 7.61778C21.1058 6.04148 20.9221 4.89185 20.5547 4.16889C20.1991 3.43407 19.7132 3.06667 19.0969 3.06667C18.4806 3.06667 17.9887 3.43407 17.6213 4.16889C17.2539 4.89185 17.0702 6.04148 17.0702 7.61778C17.0702 9.18222 17.2539 10.3319 17.6213 11.0667C17.9887 11.8015 18.4806 12.1689 19.0969 12.1689ZM37.6017 2.87111V4.73778H29.1928V2.87111H32.4106V0.897778H34.3839V2.87111H37.6017ZM40.8194 8.22222V14.6044H38.8994V0.951111H40.8194V6.26667H42.5261V8.22222H40.8194ZM33.3883 5.60889C34.1113 5.60889 34.7513 5.79259 35.3083 6.16C35.8654 6.51556 36.298 7.01333 36.6061 7.65333C36.9143 8.29333 37.0683 9.0163 37.0683 9.82222C37.0683 10.6281 36.9143 11.3511 36.6061 11.9911C36.298 12.6311 35.8654 13.1289 35.3083 13.4844C34.7513 13.84 34.1113 14.0178 33.3883 14.0178C32.6654 14.0178 32.0254 13.84 31.4683 13.4844C30.9113 13.1289 30.4787 12.6311 30.1706 11.9911C29.8624 11.3511 29.7083 10.6281 29.7083 9.82222C29.7083 9.0163 29.8624 8.29333 30.1706 7.65333C30.4787 7.01333 30.9113 6.51556 31.4683 6.16C32.0254 5.79259 32.6654 5.60889 33.3883 5.60889ZM33.3883 12.2756C33.9217 12.2756 34.3602 12.0504 34.7039 11.6C35.0476 11.1496 35.2194 10.557 35.2194 9.82222C35.2194 9.07556 35.0476 8.48296 34.7039 8.04444C34.372 7.59407 33.9335 7.36889 33.3883 7.36889C32.8431 7.36889 32.3987 7.59407 32.055 8.04444C31.7231 8.48296 31.5572 9.07556 31.5572 9.82222C31.5572 10.557 31.7291 11.1496 32.0728 11.6C32.4165 12.0504 32.855 12.2756 33.3883 12.2756ZM55.2709 14.6044H53.3509V0.951111H55.2709V14.6044ZM48.9776 1.32444C48.9776 3.28 48.8057 5.12889 48.462 6.87111L52.5331 12.6667L50.9687 13.84L47.8042 9.21778C47.2946 10.6637 46.6428 11.7896 45.8487 12.5956C45.0665 13.3896 44.1716 13.8104 43.1642 13.8578V11.7956C43.9465 11.677 44.622 11.1496 45.1909 10.2133C45.7716 9.26519 46.2161 8.01481 46.5242 6.46222C46.8442 4.90963 47.0102 3.17333 47.022 1.25333L48.9776 1.32444ZM63.3935 6.16C62.7179 7.01333 61.8587 7.68296 60.8157 8.16889C59.7846 8.64296 58.6646 8.90963 57.4557 8.96889V7.10222C58.7357 7.01926 59.8438 6.64593 60.7801 5.98222C61.7283 5.30667 62.3742 4.38815 62.7179 3.22667H57.7401V1.37778H69.3846V3.22667H64.7979C64.715 3.70074 64.5787 4.15704 64.389 4.59556L69.829 7.36889L69.029 9.05778L63.3935 6.16ZM70.0779 14.0178H57.0468V12.1511H60.2113V9.34222H62.149V12.1511H64.9935V9.34222H66.9313V12.1511H70.0779V14.0178ZM74.6449 9.96444C74.6449 9.51407 74.722 9.11704 74.876 8.77333C75.0301 8.41778 75.2197 8.11556 75.4449 7.86667C75.6701 7.61778 75.9605 7.33333 76.316 7.01333C76.7664 6.59852 77.0983 6.24889 77.3116 5.96444C77.5249 5.66815 77.6316 5.31852 77.6316 4.91556C77.6316 4.38222 77.4183 3.94963 76.9916 3.61778C76.5649 3.28593 75.9842 3.12 75.2494 3.12C73.9812 3.12 72.9916 3.5763 72.2805 4.48889L70.6983 3.52889C71.196 2.85333 71.842 2.33185 72.636 1.96444C73.4301 1.58519 74.3664 1.39556 75.4449 1.39556C76.7486 1.39556 77.7916 1.68 78.5738 2.24889C79.3679 2.81778 79.7649 3.59407 79.7649 4.57778C79.7649 5.0637 79.682 5.4963 79.516 5.87556C79.362 6.24296 79.1664 6.55704 78.9294 6.81778C78.7042 7.06667 78.402 7.36296 78.0227 7.70667C77.5486 8.13333 77.199 8.50667 76.9738 8.82667C76.7486 9.13481 76.636 9.51407 76.636 9.96444H74.6449ZM75.6405 14.1067C75.2612 14.1067 74.9412 13.9881 74.6805 13.7511C74.4316 13.5022 74.3072 13.2 74.3072 12.8444C74.3072 12.4889 74.4316 12.1926 74.6805 11.9556C74.9412 11.7185 75.2612 11.6 75.6405 11.6C76.0197 11.6 76.3338 11.7185 76.5827 11.9556C76.8434 12.1926 76.9738 12.4889 76.9738 12.8444C76.9738 13.2 76.8434 13.5022 76.5827 13.7511C76.3338 13.9881 76.0197 14.1067 75.6405 14.1067ZM84.5528 1.55556L84.144 9.96444H82.5262L82.1351 1.55556H84.5528ZM83.344 14.1067C82.9528 14.1067 82.6328 13.9881 82.384 13.7511C82.1351 13.5022 82.0106 13.2 82.0106 12.8444C82.0106 12.4889 82.1351 12.1926 82.384 11.9556C82.6328 11.7185 82.9528 11.6 83.344 11.6C83.7232 11.6 84.0373 11.7185 84.2862 11.9556C84.5469 12.1926 84.6773 12.4889 84.6773 12.8444C84.6773 13.2 84.5469 13.5022 84.2862 13.7511C84.0373 13.9881 83.7232 14.1067 83.344 14.1067Z" fill="white"/>
</svg>
