<svg width="152" height="15" viewBox="0 0 152 15" fill="none" xmlns="http://www.w3.org/2000/svg">
<path d="M12.9389 14.6044H11.0189V0.951111H12.9389V14.6044ZM6.41443 3.22667C6.37887 4.79111 6.25443 6.11852 6.04109 7.20889L10.0944 12.5778L8.58332 13.7689L5.41887 9.46667C4.93295 10.8059 4.3048 11.8548 3.53443 12.6133C2.76406 13.36 1.89295 13.7748 0.921094 13.8578V11.8311C1.62035 11.7126 2.23072 11.28 2.7522 10.5333C3.28554 9.77481 3.70035 8.76741 3.99665 7.51111C4.29295 6.25481 4.45295 4.82667 4.47665 3.22667H1.24109V1.37778H9.54332V3.22667H6.41443ZM24.9192 5.60889V2.74667H15.5503V1.05778H26.857V5.60889H24.9192ZM14.7148 7.99111V6.30222H27.7459V7.99111H14.7148ZM15.5681 14.4978V9.14667H26.9103V14.4978H15.5681ZM24.9903 10.7644H17.4703V12.8978H24.9903V10.7644ZM44.2374 8.22222V14.6044H42.3174V0.951111H44.2374V6.26667H45.9441V8.22222H44.2374ZM39.9174 1.37778V4.82667C39.9174 6.65185 39.627 8.24593 39.0463 9.60889C38.4774 10.96 37.6537 12.003 36.5752 12.7378C35.4967 13.4726 34.2226 13.84 32.753 13.84V11.92C34.4122 11.9081 35.6922 11.28 36.593 10.0356C37.5056 8.77926 37.9619 7.04889 37.9619 4.84444V3.22667H32.753V1.37778H39.9174ZM60.0222 5.28889H58.3155V8.48889H56.3955V0.951111H58.3155V3.35111H60.0222V5.28889ZM50.9555 5.68C50.4696 6.41481 49.8474 7.01333 49.0889 7.47556C48.3304 7.93778 47.4889 8.20444 46.5644 8.27556V6.49778C47.5126 6.37926 48.2889 5.99407 48.8933 5.34222C49.5096 4.67852 49.8711 3.87259 49.9778 2.92444H46.7422V1.21778H55.0266V2.92444H51.9155C51.9037 3.2563 51.8385 3.66518 51.72 4.15111L55.4533 6.48L54.5111 7.99111L50.9555 5.68ZM52.8044 8.82667C54.5229 8.82667 55.8978 9.0637 56.9289 9.53778C57.96 10 58.4755 10.7348 58.4755 11.7422C58.4755 12.7615 57.96 13.5081 56.9289 13.9822C55.8978 14.4444 54.5229 14.6756 52.8044 14.6756C51.0859 14.6756 49.7111 14.4444 48.68 13.9822C47.6489 13.5081 47.1333 12.7615 47.1333 11.7422C47.1333 10.7348 47.6489 10 48.68 9.53778C49.7229 9.0637 51.0978 8.82667 52.8044 8.82667ZM52.8044 13.0222C53.8829 13.0222 54.7541 12.9156 55.4178 12.7022C56.0815 12.4889 56.4133 12.1689 56.4133 11.7422C56.4133 11.3156 56.0815 11.0015 55.4178 10.8C54.7541 10.5867 53.8829 10.48 52.8044 10.48C51.7259 10.48 50.8548 10.5867 50.1911 10.8C49.5274 11.0015 49.1955 11.3156 49.1955 11.7422C49.1955 12.1689 49.5274 12.4889 50.1911 12.7022C50.8548 12.9156 51.7259 13.0222 52.8044 13.0222ZM74.3626 11.0844V0.951111H76.2826V11.0844H74.3626ZM68.2115 1.04C69.0411 1.04 69.77 1.21185 70.3982 1.55556C71.0382 1.88741 71.53 2.36148 71.8737 2.97778C72.2174 3.58222 72.3893 4.27556 72.3893 5.05778C72.3893 5.84 72.2174 6.53926 71.8737 7.15556C71.53 7.76 71.0382 8.23407 70.3982 8.57778C69.77 8.90963 69.0411 9.07556 68.2115 9.07556C67.3819 9.07556 66.6471 8.90963 66.0071 8.57778C65.3789 8.23407 64.893 7.76 64.5493 7.15556C64.2056 6.53926 64.0337 5.84 64.0337 5.05778C64.0337 4.27556 64.2056 3.58222 64.5493 2.97778C64.893 2.36148 65.3789 1.88741 66.0071 1.55556C66.6471 1.21185 67.3819 1.04 68.2115 1.04ZM68.2115 2.74667C67.5478 2.74667 67.0085 2.95407 66.5937 3.36889C66.1789 3.77185 65.9715 4.33481 65.9715 5.05778C65.9715 5.78074 66.1789 6.34963 66.5937 6.76444C67.0085 7.17926 67.5478 7.38667 68.2115 7.38667C68.8871 7.38667 69.4323 7.17926 69.8471 6.76444C70.2619 6.34963 70.4693 5.78074 70.4693 5.05778C70.4693 4.33481 70.2619 3.77185 69.8471 3.36889C69.4323 2.95407 68.8871 2.74667 68.2115 2.74667ZM76.5671 12.6844V14.4978H65.1893V9.91111H67.1448V12.6844H76.5671ZM88.4407 14.6044V0.951111H90.3607V14.6044H88.4407ZM85.9519 4.82667C85.9519 6.65185 85.6496 8.24593 85.0452 9.60889C84.4526 10.96 83.6052 12.003 82.503 12.7378C81.4007 13.4726 80.1148 13.84 78.6452 13.84V11.92C79.7593 11.92 80.7133 11.6356 81.5074 11.0667C82.3133 10.4859 82.9237 9.66815 83.3385 8.61333C83.7652 7.54667 83.9785 6.29037 83.9785 4.84444V3.22667H78.6452V1.37778H85.9519V4.82667ZM102.519 8.52444V0.951111H104.439V8.52444H102.519ZM100.51 4.64889C100.51 5.36 100.338 5.98815 99.9944 6.53333C99.6626 7.07852 99.1826 7.50518 98.5544 7.81333C97.9381 8.10963 97.2152 8.25778 96.3855 8.25778C95.5678 8.25778 94.8448 8.10963 94.2166 7.81333C93.6004 7.50518 93.1204 7.07852 92.7766 6.53333C92.4329 5.98815 92.2611 5.36 92.2611 4.64889C92.2611 3.93778 92.4329 3.30963 92.7766 2.76444C93.1204 2.21926 93.6004 1.79852 94.2166 1.50222C94.8448 1.19407 95.5678 1.04 96.3855 1.04C97.2152 1.04 97.9381 1.19407 98.5544 1.50222C99.1826 1.79852 99.6626 2.21926 99.9944 2.76444C100.338 3.30963 100.51 3.93778 100.51 4.64889ZM94.1811 4.64889C94.1811 5.24148 94.3826 5.70963 94.7855 6.05333C95.2004 6.39704 95.7337 6.56889 96.3855 6.56889C97.0611 6.56889 97.6004 6.39704 98.0033 6.05333C98.4063 5.70963 98.6078 5.24148 98.6078 4.64889C98.6078 4.04444 98.4063 3.57037 98.0033 3.22667C97.6004 2.88296 97.0611 2.71111 96.3855 2.71111C95.7218 2.71111 95.1885 2.88889 94.7855 3.24444C94.3826 3.58815 94.1811 4.0563 94.1811 4.64889ZM101.95 12.5422C101.535 13.1467 101.037 13.6207 100.457 13.9644C99.8759 14.2963 99.2596 14.4741 98.6078 14.4978L96.4566 12.5956C96.03 13.1763 95.5322 13.6326 94.9633 13.9644C94.4063 14.2963 93.8137 14.4741 93.1855 14.4978V12.6667C93.6241 12.643 94.0389 12.4593 94.43 12.1156C94.8329 11.7719 95.1648 11.3215 95.4255 10.7644C95.6863 10.2074 95.8404 9.60296 95.8878 8.95111L97.7544 9.25333C97.6833 9.94074 97.5411 10.557 97.3278 11.1022L99.07 12.5778C99.6507 12.4 100.149 11.9733 100.563 11.2978C100.99 10.6222 101.239 9.84 101.31 8.95111L103.159 9.25333C103.111 9.84593 102.981 10.4504 102.768 11.0667L105.417 13.1644L104.314 14.5867L101.95 12.5422ZM118.499 4.59556V6.30222H107.104V0.915555H109.041V4.59556H118.499ZM106.215 9.34222V7.61778H119.246V9.34222H106.215ZM118.606 12.7911V14.4978H107.068V10.3733H109.024V12.7911H118.606ZM134.297 3.70667H132.413L132.306 1.96444H134.297V0.951111H136.2V8.48889H134.297V7.10222H132.306L132.413 5.36H134.297V3.70667ZM131.986 4.56C131.986 5.25926 131.82 5.87556 131.489 6.40889C131.157 6.94222 130.683 7.35704 130.066 7.65333C129.462 7.94963 128.751 8.09778 127.933 8.09778C127.127 8.09778 126.416 7.94963 125.8 7.65333C125.183 7.35704 124.709 6.94222 124.377 6.40889C124.046 5.87556 123.88 5.25926 123.88 4.56C123.88 3.86074 124.046 3.25037 124.377 2.72889C124.709 2.19556 125.183 1.78074 125.8 1.48444C126.416 1.18815 127.127 1.04 127.933 1.04C128.751 1.04 129.462 1.18815 130.066 1.48444C130.683 1.78074 131.157 2.19556 131.489 2.72889C131.82 3.25037 131.986 3.86074 131.986 4.56ZM125.8 4.56C125.8 5.14074 125.989 5.59704 126.369 5.92889C126.76 6.24889 127.281 6.40889 127.933 6.40889C128.585 6.40889 129.1 6.24889 129.48 5.92889C129.871 5.59704 130.066 5.14074 130.066 4.56C130.066 3.99111 129.871 3.54074 129.48 3.20889C129.1 2.87704 128.585 2.71111 127.933 2.71111C127.281 2.71111 126.76 2.87704 126.369 3.20889C125.989 3.54074 125.8 3.99111 125.8 4.56ZM130.653 8.82667C132.348 8.82667 133.711 9.0637 134.742 9.53778C135.785 10.0119 136.306 10.7467 136.306 11.7422C136.306 12.7496 135.785 13.4904 134.742 13.9644C133.711 14.4385 132.348 14.6756 130.653 14.6756C128.946 14.6756 127.571 14.4385 126.529 13.9644C125.497 13.4904 124.982 12.7496 124.982 11.7422C124.982 10.7467 125.497 10.0119 126.529 9.53778C127.571 9.0637 128.946 8.82667 130.653 8.82667ZM130.653 13.0222C131.731 13.0222 132.597 12.9156 133.249 12.7022C133.912 12.4889 134.244 12.1689 134.244 11.7422C134.244 11.3156 133.912 11.0015 133.249 10.8C132.585 10.5867 131.72 10.48 130.653 10.48C129.574 10.48 128.703 10.5867 128.04 10.8C127.376 11.0015 127.044 11.3156 127.044 11.7422C127.044 12.1689 127.376 12.4889 128.04 12.7022C128.703 12.9156 129.574 13.0222 130.653 13.0222ZM137.833 4.11556V2.37333H141.229V0.826666H143.202V2.37333H146.616V4.11556H137.833ZM149.851 8.09778V14.6044H147.931V0.951111H149.851V6.14222H151.522V8.09778H149.851ZM143.184 12.0622C144.915 12.0622 146.183 11.8726 146.989 11.4933V13.3067C146.586 13.4844 146.035 13.6207 145.336 13.7156C144.648 13.8104 143.89 13.8578 143.06 13.8578H137.887V12.0622H141.247V10.3733C140.37 10.243 139.676 9.94074 139.167 9.46667C138.669 8.99259 138.42 8.38222 138.42 7.63556C138.42 6.74667 138.764 6.05333 139.451 5.55556C140.15 5.04593 141.081 4.79111 142.242 4.79111C143.404 4.79111 144.328 5.04593 145.016 5.55556C145.715 6.05333 146.064 6.74667 146.064 7.63556C146.064 8.38222 145.804 8.99852 145.282 9.48444C144.773 9.95852 144.073 10.2548 143.184 10.3733V12.0622ZM140.233 7.63556C140.233 8.00296 140.405 8.29926 140.749 8.52444C141.104 8.73778 141.602 8.84444 142.242 8.84444C142.882 8.84444 143.374 8.73778 143.718 8.52444C144.073 8.29926 144.251 8.00296 144.251 7.63556C144.251 7.26815 144.073 6.97185 143.718 6.74667C143.362 6.52148 142.87 6.40889 142.242 6.40889C141.614 6.40889 141.122 6.52148 140.767 6.74667C140.411 6.97185 140.233 7.26815 140.233 7.63556Z" fill="#F2F2F2"/>
</svg>
