<svg width="145" height="15" viewBox="0 0 145 15" fill="none" xmlns="http://www.w3.org/2000/svg">
<path d="M6.98762 5.66222C6.24096 6.81185 5.32836 7.71852 4.24984 8.38222C3.18318 9.04593 2.05725 9.37778 0.872066 9.37778V7.45778C1.77281 7.45778 2.63207 7.17926 3.44984 6.62222C4.26762 6.05333 4.96688 5.27704 5.54762 4.29333C6.12836 3.29778 6.51355 2.18963 6.70318 0.968888L8.67651 1.30667C8.48688 2.36148 8.22021 3.28 7.87651 4.06222L13.4587 7.77778L12.4454 9.41333L6.98762 5.66222ZM13.6365 12.1333V14.0178H0.605399V12.1333H6.15207V8.61333H8.08984V12.1333H13.6365ZM20.7991 6.58667V4.96889H25.1724V3.76H20.7991V2.16H25.1724V0.951111H27.0746V11.12H25.1724V6.58667H20.7991ZM23.7502 9.12889C23.3709 9.27111 22.8495 9.3837 22.1857 9.46667C21.522 9.53778 20.7932 9.57333 19.9991 9.57333H15.1635V1.12889H17.1191V7.88444H20.088C21.7354 7.88444 22.9561 7.74222 23.7502 7.45778V9.12889ZM27.3057 14.4978H15.8035V10.5333H17.7591V12.7022H27.3057V14.4978ZM42.3972 5.94667H40.6905V11.0844H38.7705V0.951111H40.6905V3.99111H42.3972V5.94667ZM29.1528 8.73778V1.21778H36.8683V8.73778H29.1528ZM31.0728 2.94222V7.01333H34.9839V2.94222H31.0728ZM40.9928 12.6844V14.4978H29.5972V9.92889H31.5528V12.6844H40.9928ZM42.7864 4.11556V2.37333H46.182V0.826666H48.1553V2.37333H51.5687V4.11556H42.7864ZM54.8042 8.09778V14.6044H52.8842V0.951111H54.8042V6.14222H56.4753V8.09778H54.8042ZM48.1376 12.0622C49.8679 12.0622 51.1361 11.8726 51.942 11.4933V13.3067C51.539 13.4844 50.9879 13.6207 50.2887 13.7156C49.6013 13.8104 48.8427 13.8578 48.0131 13.8578H42.8398V12.0622H46.1998V10.3733C45.3227 10.243 44.6294 9.94074 44.1198 9.46667C43.622 8.99259 43.3731 8.38222 43.3731 7.63556C43.3731 6.74667 43.7168 6.05333 44.4042 5.55556C45.1035 5.04593 46.0338 4.79111 47.1953 4.79111C48.3568 4.79111 49.2813 5.04593 49.9687 5.55556C50.6679 6.05333 51.0176 6.74667 51.0176 7.63556C51.0176 8.38222 50.7568 8.99852 50.2353 9.48444C49.7257 9.95852 49.0264 10.2548 48.1376 10.3733V12.0622ZM45.1864 7.63556C45.1864 8.00296 45.3583 8.29926 45.702 8.52444C46.0576 8.73778 46.5553 8.84444 47.1953 8.84444C47.8353 8.84444 48.3272 8.73778 48.6709 8.52444C49.0264 8.29926 49.2042 8.00296 49.2042 7.63556C49.2042 7.26815 49.0264 6.97185 48.6709 6.74667C48.3153 6.52148 47.8235 6.40889 47.1953 6.40889C46.5672 6.40889 46.0753 6.52148 45.7198 6.74667C45.3642 6.97185 45.1864 7.26815 45.1864 7.63556ZM66.5669 4.20444C65.915 4.65481 65.1032 5.00444 64.1313 5.25333C63.1595 5.50222 62.1461 5.63852 61.0913 5.66222V4.15111C62.1343 4.12741 63.1061 3.97333 64.0069 3.68889C64.9195 3.40444 65.5476 3.01926 65.8913 2.53333H61.2691V1.05778H72.6469V2.53333H68.078C68.0306 2.69926 67.9595 2.86518 67.8646 3.03111L73.0024 4.25778L72.558 5.71556L66.5669 4.20444ZM73.4646 7.88444H60.4335V6.40889H65.998V5.27111H67.918V6.40889H73.4646V7.88444ZM72.7891 9.05778V10.4267H61.1091V9.05778H65.9802V8.34667H67.918V9.05778H72.7891ZM66.958 10.9244C68.7239 10.9244 70.0454 11.0785 70.9224 11.3867C71.7995 11.683 72.238 12.157 72.238 12.8089C72.238 13.4726 71.7995 13.9526 70.9224 14.2489C70.0454 14.557 68.7239 14.7111 66.958 14.7111C65.1802 14.7111 63.8528 14.557 62.9757 14.2489C62.0987 13.9526 61.6602 13.4726 61.6602 12.8089C61.6602 12.157 62.0987 11.683 62.9757 11.3867C63.8646 11.0785 65.192 10.9244 66.958 10.9244ZM66.958 13.3956C69.1861 13.3956 70.3002 13.2 70.3002 12.8089C70.3002 12.6193 70.0098 12.477 69.4291 12.3822C68.8483 12.2756 68.0246 12.2222 66.958 12.2222C65.8913 12.2222 65.0676 12.2756 64.4869 12.3822C63.9061 12.477 63.6157 12.6193 63.6157 12.8089C63.6157 13.2 64.7298 13.3956 66.958 13.3956ZM86.4405 8.22222V14.6044H84.5205V0.951111H86.4405V6.26667H88.1472V8.22222H86.4405ZM78.7961 1.2C80.0168 1.2 80.9768 1.73926 81.6761 2.81778C82.3754 3.88444 82.725 5.48444 82.725 7.61778C82.725 9.75111 82.3754 11.357 81.6761 12.4356C80.9768 13.5022 80.0168 14.0356 78.7961 14.0356C77.5872 14.0356 76.6272 13.5022 75.9161 12.4356C75.2168 11.357 74.8672 9.75111 74.8672 7.61778C74.8672 5.48444 75.2168 3.88444 75.9161 2.81778C76.6272 1.73926 77.5872 1.2 78.7961 1.2ZM78.7961 12.1689C79.4124 12.1689 79.8983 11.8074 80.2539 11.0844C80.6213 10.3496 80.805 9.19407 80.805 7.61778C80.805 6.04148 80.6213 4.89185 80.2539 4.16889C79.8983 3.43407 79.4124 3.06667 78.7961 3.06667C78.1798 3.06667 77.6879 3.43407 77.3205 4.16889C76.9531 4.89185 76.7694 6.04148 76.7694 7.61778C76.7694 9.18222 76.9531 10.3319 77.3205 11.0667C77.6879 11.8015 78.1798 12.1689 78.7961 12.1689ZM97.3009 2.87111V4.73778H88.892V2.87111H92.1098V0.897778H94.0831V2.87111H97.3009ZM100.519 8.22222V14.6044H98.5987V0.951111H100.519V6.26667H102.225V8.22222H100.519ZM93.0876 5.60889C93.8105 5.60889 94.4505 5.79259 95.0076 6.16C95.5646 6.51556 95.9972 7.01333 96.3053 7.65333C96.6135 8.29333 96.7676 9.0163 96.7676 9.82222C96.7676 10.6281 96.6135 11.3511 96.3053 11.9911C95.9972 12.6311 95.5646 13.1289 95.0076 13.4844C94.4505 13.84 93.8105 14.0178 93.0876 14.0178C92.3646 14.0178 91.7246 13.84 91.1676 13.4844C90.6105 13.1289 90.1779 12.6311 89.8698 11.9911C89.5616 11.3511 89.4076 10.6281 89.4076 9.82222C89.4076 9.0163 89.5616 8.29333 89.8698 7.65333C90.1779 7.01333 90.6105 6.51556 91.1676 6.16C91.7246 5.79259 92.3646 5.60889 93.0876 5.60889ZM93.0876 12.2756C93.6209 12.2756 94.0594 12.0504 94.4031 11.6C94.7468 11.1496 94.9187 10.557 94.9187 9.82222C94.9187 9.07556 94.7468 8.48296 94.4031 8.04444C94.0713 7.59407 93.6327 7.36889 93.0876 7.36889C92.5424 7.36889 92.0979 7.59407 91.7542 8.04444C91.4224 8.48296 91.2564 9.07556 91.2564 9.82222C91.2564 10.557 91.4283 11.1496 91.772 11.6C92.1157 12.0504 92.5542 12.2756 93.0876 12.2756ZM114.97 14.6044H113.05V0.951111H114.97V14.6044ZM108.677 1.32444C108.677 3.28 108.505 5.12889 108.161 6.87111L112.232 12.6667L110.668 13.84L107.503 9.21778C106.994 10.6637 106.342 11.7896 105.548 12.5956C104.766 13.3896 103.871 13.8104 102.863 13.8578V11.7956C103.646 11.677 104.321 11.1496 104.89 10.2133C105.471 9.26519 105.915 8.01481 106.223 6.46222C106.543 4.90963 106.709 3.17333 106.721 1.25333L108.677 1.32444ZM123.093 6.16C122.417 7.01333 121.558 7.68296 120.515 8.16889C119.484 8.64296 118.364 8.90963 117.155 8.96889V7.10222C118.435 7.01926 119.543 6.64593 120.479 5.98222C121.428 5.30667 122.073 4.38815 122.417 3.22667H117.439V1.37778H129.084V3.22667H124.497C124.414 3.70074 124.278 4.15704 124.088 4.59556L129.528 7.36889L128.728 9.05778L123.093 6.16ZM129.777 14.0178H116.746V12.1511H119.91V9.34222H121.848V12.1511H124.693V9.34222H126.63V12.1511H129.777V14.0178ZM134.326 9.98222C134.326 9.33037 134.469 8.79111 134.753 8.36444C135.049 7.92593 135.47 7.4637 136.015 6.97778C136.454 6.58667 136.78 6.24889 136.993 5.96444C137.206 5.66815 137.313 5.31852 137.313 4.91556C137.313 4.38222 137.1 3.95556 136.673 3.63556C136.258 3.3037 135.683 3.13778 134.949 3.13778C133.68 3.13778 132.691 3.59407 131.98 4.50667L130.38 3.52889C130.877 2.84148 131.523 2.31407 132.317 1.94667C133.123 1.56741 134.066 1.37778 135.144 1.37778C136.448 1.37778 137.491 1.66815 138.273 2.24889C139.067 2.81778 139.464 3.59407 139.464 4.57778C139.464 5.07556 139.381 5.51407 139.215 5.89333C139.061 6.26074 138.866 6.57481 138.629 6.83556C138.403 7.08444 138.101 7.38074 137.722 7.72444C137.248 8.15111 136.898 8.52444 136.673 8.84444C136.448 9.15259 136.335 9.53185 136.335 9.98222H134.326ZM135.34 14.1244C134.949 14.1244 134.629 14 134.38 13.7511C134.131 13.5022 134.006 13.2 134.006 12.8444C134.006 12.4889 134.131 12.1926 134.38 11.9556C134.629 11.7067 134.949 11.5822 135.34 11.5822C135.731 11.5822 136.051 11.7067 136.3 11.9556C136.56 12.1926 136.691 12.4889 136.691 12.8444C136.691 13.2 136.56 13.5022 136.3 13.7511C136.051 14 135.731 14.1244 135.34 14.1244ZM144.27 1.53778L143.861 9.98222H142.225L141.817 1.53778H144.27ZM143.043 14.1244C142.652 14.1244 142.326 14 142.065 13.7511C141.817 13.5022 141.692 13.2 141.692 12.8444C141.692 12.4889 141.817 12.1926 142.065 11.9556C142.326 11.7067 142.652 11.5822 143.043 11.5822C143.422 11.5822 143.737 11.7067 143.985 11.9556C144.246 12.1926 144.377 12.4889 144.377 12.8444C144.377 13.2 144.246 13.5022 143.985 13.7511C143.737 14 143.422 14.1244 143.043 14.1244Z" fill="#F2F2F2"/>
</svg>
