<svg width="119" height="15" viewBox="0 0 119 15" fill="none" xmlns="http://www.w3.org/2000/svg">
<path d="M12.6029 14.6044H10.6829V0.951111H12.6029V14.6044ZM6.07849 3.22667C6.04293 4.79111 5.91849 6.11852 5.70516 7.20889L9.75849 12.5778L8.24738 13.7689L5.08293 9.46667C4.59701 10.8059 3.96886 11.8548 3.19849 12.6133C2.42812 13.36 1.55701 13.7748 0.585156 13.8578V11.8311C1.28442 11.7126 1.89479 11.28 2.41627 10.5333C2.9496 9.77481 3.36442 8.76741 3.66071 7.51111C3.95701 6.25481 4.11701 4.82667 4.14071 3.22667H0.905156V1.37778H9.20738V3.22667H6.07849ZM24.5833 5.60889V2.74667H15.2144V1.05778H26.5211V5.60889H24.5833ZM14.3788 7.99111V6.30222H27.4099V7.99111H14.3788ZM15.2322 14.4978V9.14667H26.5744V14.4978H15.2322ZM24.6544 10.7644H17.1344V12.8978H24.6544V10.7644ZM34.5681 3.26222V7.72444H38.1059V9.59111H32.6837V1.37778H38.0881V3.26222H34.5681ZM40.6837 3.26222V7.72444H44.3637V9.59111H38.7815V1.37778H44.2393V3.26222H40.6837ZM31.9726 14.0178V12.1333H45.0037V14.0178H31.9726ZM58.3352 4.59556V6.30222H46.9396V0.915555H48.8774V4.59556H58.3352ZM46.0507 9.34222V7.61778H59.0818V9.34222H46.0507ZM58.4418 12.7911V14.4978H46.904V10.3733H48.8596V12.7911H58.4418ZM69.9734 14.16C68.7645 14.16 67.6741 13.8874 66.7022 13.3422C65.7422 12.7852 64.9837 12.0207 64.4267 11.0489C63.8815 10.077 63.6089 8.98667 63.6089 7.77778C63.6089 6.56889 63.8815 5.47852 64.4267 4.50667C64.9837 3.53481 65.7422 2.7763 66.7022 2.23111C67.6741 1.67407 68.7645 1.39556 69.9734 1.39556C71.1704 1.39556 72.2489 1.67407 73.2089 2.23111C74.1808 2.7763 74.9393 3.53481 75.4845 4.50667C76.0415 5.47852 76.32 6.56889 76.32 7.77778C76.32 8.98667 76.0415 10.077 75.4845 11.0489C74.9393 12.0207 74.1808 12.7852 73.2089 13.3422C72.2489 13.8874 71.1704 14.16 69.9734 14.16ZM69.9734 12.3289C70.7793 12.3289 71.5082 12.1333 72.16 11.7422C72.8237 11.3511 73.3393 10.8119 73.7067 10.1244C74.0859 9.43704 74.2756 8.65481 74.2756 7.77778C74.2756 6.90074 74.0859 6.11852 73.7067 5.43111C73.3393 4.7437 72.8237 4.20444 72.16 3.81333C71.5082 3.42222 70.7793 3.22667 69.9734 3.22667C69.1556 3.22667 68.4208 3.42222 67.7689 3.81333C67.1171 4.19259 66.6015 4.73185 66.2222 5.43111C65.8548 6.11852 65.6711 6.90074 65.6711 7.77778C65.6711 8.65481 65.8548 9.44296 66.2222 10.1422C66.6015 10.8296 67.1171 11.3689 67.7689 11.76C68.4208 12.1393 69.1556 12.3289 69.9734 12.3289ZM88.5853 14H86.9142L80.212 5.21778V14H78.2031V1.55556H79.8742L86.5764 10.3378V1.55556H88.5853V14ZM97.7415 8.47111V1.02222H99.5549V3.35111H101.333V0.951111H103.146V8.91556H101.333V5.2H99.5549V8.47111H97.7415ZM94.0438 5.82222C93.6645 6.60444 93.1727 7.23852 92.5682 7.72444C91.9638 8.19852 91.2645 8.48296 90.4704 8.57778V6.76444C91.3356 6.55111 91.9934 5.94667 92.4438 4.95111C92.8941 3.9437 93.1193 2.65185 93.1193 1.07555L94.9504 1.14667C94.9504 2.18963 94.8615 3.13778 94.6838 3.99111L97.6527 6.90667L96.4082 8.20444L94.0438 5.82222ZM97.4038 9.09333C99.1815 9.09333 100.61 9.31852 101.688 9.76889C102.779 10.2074 103.324 10.9126 103.324 11.8844C103.324 12.8563 102.779 13.5615 101.688 14C100.598 14.4504 99.1697 14.6756 97.4038 14.6756C95.6378 14.6756 94.2097 14.4504 93.1193 14C92.029 13.5615 91.4838 12.8563 91.4838 11.8844C91.4838 10.9126 92.023 10.2074 93.1015 9.76889C94.1919 9.31852 95.626 9.09333 97.4038 9.09333ZM97.4038 13.0578C98.5178 13.0578 99.4423 12.963 100.177 12.7733C100.912 12.5837 101.279 12.2874 101.279 11.8844C101.279 11.4815 100.912 11.1852 100.177 10.9956C99.4423 10.8059 98.5178 10.7111 97.4038 10.7111C96.2778 10.7111 95.3475 10.8059 94.6127 10.9956C93.8897 11.1852 93.5282 11.4815 93.5282 11.8844C93.5282 12.2874 93.8897 12.5837 94.6127 12.7733C95.3475 12.963 96.2778 13.0578 97.4038 13.0578ZM116.495 5.71556V9.09333H114.575V0.951111H116.495V3.76H118.202V5.71556H116.495ZM112.46 2.97778C112.46 4.88593 111.778 6.32 110.415 7.28C109.064 8.22815 107.221 8.70222 104.886 8.70222V6.92444C106.64 6.91259 108.009 6.60444 108.993 6C109.989 5.39556 110.486 4.50667 110.486 3.33333V2.96H104.886V1.21778H112.46V2.97778ZM116.495 9.73333V14.6756H114.54V11.4756H105.313V9.73333H116.495Z" fill="#EFEFEF"/>
</svg>
