<svg width="152" height="15" viewBox="0 0 152 15" fill="none" xmlns="http://www.w3.org/2000/svg">
<path d="M10.5931 14H8.922L2.202 5.18222V14H0.210885V1.55556H1.882L8.602 10.3733V1.55556H10.5931V14ZM21.9716 14H13.2071V1.55556H21.7405V3.28H15.216V6.85333H21.0116V8.52444H15.216V12.2756H21.9716V14ZM37.1321 14H34.981L31.9587 4.50667L28.901 14H26.7498L22.821 1.55556H24.9187L27.941 11.2444L31.0698 1.55556H32.9543L36.0298 11.2978L39.1232 1.55556H41.061L37.1321 14ZM44.9396 1.55556L44.5307 9.96444H42.9129L42.5218 1.55556H44.9396ZM43.7307 14.1067C43.3396 14.1067 43.0196 13.9881 42.7707 13.7511C42.5218 13.5022 42.3973 13.2 42.3973 12.8444C42.3973 12.4889 42.5218 12.1926 42.7707 11.9556C43.0196 11.7185 43.3396 11.6 43.7307 11.6C44.1099 11.6 44.424 11.7185 44.6729 11.9556C44.9336 12.1926 45.064 12.4889 45.064 12.8444C45.064 13.2 44.9336 13.5022 44.6729 13.7511C44.424 13.9881 44.1099 14.1067 43.7307 14.1067ZM62.2169 8.22222V14.6044H60.3325V0.951111H62.2169V6.26667H63.8347V8.22222H62.2169ZM52.9191 12.0444C53.2036 12.0444 53.494 12.0207 53.7903 11.9733C54.0984 11.9259 54.3651 11.8548 54.5903 11.76V13.52C54.3058 13.6267 53.9503 13.7096 53.5236 13.7689C53.1088 13.8281 52.694 13.8578 52.2791 13.8578H50.5903V1.37778H54.5369V3.20889H52.4569V12.0444H52.9191ZM57.488 12.0444C57.8199 12.0444 58.1577 12.0089 58.5014 11.9378C58.8451 11.8667 59.1532 11.76 59.4258 11.6178V13.4133C58.7977 13.7096 58.0036 13.8578 57.0436 13.8578H55.1058V1.37778H59.1058V3.20889H56.9725V12.0444H57.488ZM68.2595 6.19556V2.78222H64.9884V1.05778H70.1795V6.19556H68.2595ZM74.5706 6.19556V2.78222H70.8728V1.05778H76.4906V6.19556H74.5706ZM64.2773 8.75556V7.01333H77.3084V8.75556H64.2773ZM76.6684 12.7911V14.4978H65.1306V10H67.1039V12.7911H76.6684ZM90.3732 8.22222V14.6044H88.4887V0.951111H90.3732V6.26667H91.991V8.22222H90.3732ZM81.0754 12.0444C81.3598 12.0444 81.6502 12.0207 81.9465 11.9733C82.2547 11.9259 82.5213 11.8548 82.7465 11.76V13.52C82.4621 13.6267 82.1065 13.7096 81.6798 13.7689C81.265 13.8281 80.8502 13.8578 80.4354 13.8578H78.7465V1.37778H82.6932V3.20889H80.6132V12.0444H81.0754ZM85.6443 12.0444C85.9761 12.0444 86.3139 12.0089 86.6576 11.9378C87.0013 11.8667 87.3095 11.76 87.5821 11.6178V13.4133C86.9539 13.7096 86.1598 13.8578 85.1998 13.8578H83.2621V1.37778H87.2621V3.20889H85.1287V12.0444H85.6443ZM96.4157 6.19556V2.78222H93.1446V1.05778H98.3357V6.19556H96.4157ZM102.727 6.19556V2.78222H99.0291V1.05778H104.647V6.19556H102.727ZM92.4335 8.75556V7.01333H105.465V8.75556H92.4335ZM104.825 12.7911V14.4978H93.2869V10H95.2602V12.7911H104.825ZM106.458 3.72444V2.10667H109.872V0.702222H111.845V2.10667H115.294V3.72444H106.458ZM120.147 6.42667H118.441V11.1733H116.521V0.951111H118.441V4.45333H120.147V6.42667ZM110.867 9.94667C109.741 9.94667 108.811 9.69778 108.076 9.2C107.341 8.70222 106.974 8.01481 106.974 7.13778C106.974 6.26074 107.341 5.57333 108.076 5.07556C108.811 4.57778 109.741 4.32889 110.867 4.32889C111.993 4.32889 112.924 4.57778 113.658 5.07556C114.405 5.57333 114.778 6.26074 114.778 7.13778C114.778 8.01481 114.405 8.70222 113.658 9.2C112.924 9.69778 111.993 9.94667 110.867 9.94667ZM110.867 5.84C110.239 5.84 109.735 5.96444 109.356 6.21333C108.989 6.45037 108.805 6.75852 108.805 7.13778C108.805 7.51704 108.989 7.83111 109.356 8.08C109.735 8.31704 110.239 8.43556 110.867 8.43556C111.495 8.43556 111.993 8.31704 112.361 8.08C112.74 7.83111 112.929 7.51704 112.929 7.13778C112.929 6.75852 112.74 6.45037 112.361 6.21333C111.993 5.96444 111.495 5.84 110.867 5.84ZM118.743 12.72V14.4978H107.347V10.5867H109.303V12.72H118.743ZM134.488 11.0844V0.951111H136.408V11.0844H134.488ZM128.71 6.03556C128.2 6.90074 127.566 7.60593 126.808 8.15111C126.049 8.68444 125.214 8.99852 124.301 9.09333V7.20889C125.059 7.07852 125.723 6.72889 126.292 6.16C126.861 5.57926 127.305 4.84444 127.625 3.95555C127.945 3.05481 128.111 2.08296 128.123 1.04L130.061 1.16444C130.061 2.30222 129.877 3.38667 129.51 4.41778L133.51 7.47556L132.372 8.93333L128.71 6.03556ZM136.692 14.4978H125.154V9.98222H127.11V12.6844H136.692V14.4978ZM150.112 5.57333V9.09333H148.192V0.951111H150.112V3.63556H151.819V5.57333H150.112ZM142.664 6.14222C142.189 6.88889 141.579 7.49333 140.832 7.95556C140.098 8.41778 139.274 8.69037 138.361 8.77333V6.94222C139.345 6.8237 140.133 6.40296 140.726 5.68C141.33 4.94519 141.68 4.03259 141.775 2.94222H138.539V1.21778H146.824V2.94222H143.73C143.695 3.55852 143.6 4.09185 143.446 4.54222L147.215 7.17333L146.219 8.66667L142.664 6.14222ZM150.112 9.73333V14.6756H148.157V11.4756H138.93V9.73333H150.112Z" fill="#F2F2F2"/>
</svg>
