<svg width="165" height="15" viewBox="0 0 165 15" fill="none" xmlns="http://www.w3.org/2000/svg">
<path d="M12.8998 14.6044H10.9798V0.951111H12.8998V14.6044ZM6.37536 3.22667C6.33981 4.79111 6.21536 6.11852 6.00203 7.20889L10.0554 12.5778L8.54425 13.7689L5.37981 9.46667C4.89388 10.8059 4.26574 11.8548 3.49536 12.6133C2.72499 13.36 1.85388 13.7748 0.882031 13.8578V11.8311C1.58129 11.7126 2.19166 11.28 2.71314 10.5333C3.24648 9.77481 3.66129 8.76741 3.95759 7.51111C4.25388 6.25481 4.41388 4.82667 4.43759 3.22667H1.20203V1.37778H9.50425V3.22667H6.37536ZM24.8802 5.60889V2.74667H15.5113V1.05778H26.8179V5.60889H24.8802ZM14.6757 7.99111V6.30222H27.7068V7.99111H14.6757ZM15.529 14.4978V9.14667H26.8713V14.4978H15.529ZM24.9513 10.7644H17.4313V12.8978H24.9513V10.7644ZM44.1984 8.22222V14.6044H42.2784V0.951111H44.1984V6.26667H45.905V8.22222H44.1984ZM39.8784 1.37778V4.82667C39.8784 6.65185 39.588 8.24593 39.0072 9.60889C38.4384 10.96 37.6146 12.003 36.5361 12.7378C35.4576 13.4726 34.1835 13.84 32.7139 13.84V11.92C34.3732 11.9081 35.6532 11.28 36.5539 10.0356C37.4665 8.77926 37.9228 7.04889 37.9228 4.84444V3.22667H32.7139V1.37778H39.8784ZM59.9831 5.28889H58.2765V8.48889H56.3565V0.951111H58.2765V3.35111H59.9831V5.28889ZM50.9165 5.68C50.4305 6.41481 49.8083 7.01333 49.0498 7.47556C48.2913 7.93778 47.4498 8.20444 46.5254 8.27556V6.49778C47.4735 6.37926 48.2498 5.99407 48.8543 5.34222C49.4705 4.67852 49.832 3.87259 49.9387 2.92444H46.7031V1.21778H54.9876V2.92444H51.8765C51.8646 3.2563 51.7994 3.66518 51.6809 4.15111L55.4143 6.48L54.472 7.99111L50.9165 5.68ZM52.7654 8.82667C54.4839 8.82667 55.8587 9.0637 56.8898 9.53778C57.9209 10 58.4365 10.7348 58.4365 11.7422C58.4365 12.7615 57.9209 13.5081 56.8898 13.9822C55.8587 14.4444 54.4839 14.6756 52.7654 14.6756C51.0468 14.6756 49.672 14.4444 48.6409 13.9822C47.6098 13.5081 47.0943 12.7615 47.0943 11.7422C47.0943 10.7348 47.6098 10 48.6409 9.53778C49.6839 9.0637 51.0587 8.82667 52.7654 8.82667ZM52.7654 13.0222C53.8439 13.0222 54.715 12.9156 55.3787 12.7022C56.0424 12.4889 56.3743 12.1689 56.3743 11.7422C56.3743 11.3156 56.0424 11.0015 55.3787 10.8C54.715 10.5867 53.8439 10.48 52.7654 10.48C51.6868 10.48 50.8157 10.5867 50.152 10.8C49.4883 11.0015 49.1565 11.3156 49.1565 11.7422C49.1565 12.1689 49.4883 12.4889 50.152 12.7022C50.8157 12.9156 51.6868 13.0222 52.7654 13.0222ZM74.3236 11.0844V0.951111H76.2436V11.0844H74.3236ZM68.1724 1.04C69.0021 1.04 69.731 1.21185 70.3591 1.55556C70.9991 1.88741 71.491 2.36148 71.8347 2.97778C72.1784 3.58222 72.3502 4.27556 72.3502 5.05778C72.3502 5.84 72.1784 6.53926 71.8347 7.15556C71.491 7.76 70.9991 8.23407 70.3591 8.57778C69.731 8.90963 69.0021 9.07556 68.1724 9.07556C67.3428 9.07556 66.608 8.90963 65.968 8.57778C65.3399 8.23407 64.8539 7.76 64.5102 7.15556C64.1665 6.53926 63.9947 5.84 63.9947 5.05778C63.9947 4.27556 64.1665 3.58222 64.5102 2.97778C64.8539 2.36148 65.3399 1.88741 65.968 1.55556C66.608 1.21185 67.3428 1.04 68.1724 1.04ZM68.1724 2.74667C67.5087 2.74667 66.9695 2.95407 66.5547 3.36889C66.1399 3.77185 65.9324 4.33481 65.9324 5.05778C65.9324 5.78074 66.1399 6.34963 66.5547 6.76444C66.9695 7.17926 67.5087 7.38667 68.1724 7.38667C68.848 7.38667 69.3932 7.17926 69.808 6.76444C70.2228 6.34963 70.4302 5.78074 70.4302 5.05778C70.4302 4.33481 70.2228 3.77185 69.808 3.36889C69.3932 2.95407 68.848 2.74667 68.1724 2.74667ZM76.528 12.6844V14.4978H65.1502V9.91111H67.1058V12.6844H76.528ZM88.4017 14.6044V0.951111H90.3217V14.6044H88.4017ZM85.9128 4.82667C85.9128 6.65185 85.6106 8.24593 85.0061 9.60889C84.4135 10.96 83.5661 12.003 82.4639 12.7378C81.3617 13.4726 80.0758 13.84 78.6061 13.84V11.92C79.7202 11.92 80.6743 11.6356 81.4684 11.0667C82.2743 10.4859 82.8846 9.66815 83.2995 8.61333C83.7261 7.54667 83.9395 6.29037 83.9395 4.84444V3.22667H78.6061V1.37778H85.9128V4.82667ZM102.48 8.52444V0.951111H104.4V8.52444H102.48ZM100.471 4.64889C100.471 5.36 100.299 5.98815 99.9554 6.53333C99.6235 7.07852 99.1435 7.50518 98.5154 7.81333C97.8991 8.10963 97.1761 8.25778 96.3465 8.25778C95.5287 8.25778 94.8057 8.10963 94.1776 7.81333C93.5613 7.50518 93.0813 7.07852 92.7376 6.53333C92.3939 5.98815 92.222 5.36 92.222 4.64889C92.222 3.93778 92.3939 3.30963 92.7376 2.76444C93.0813 2.21926 93.5613 1.79852 94.1776 1.50222C94.8057 1.19407 95.5287 1.04 96.3465 1.04C97.1761 1.04 97.8991 1.19407 98.5154 1.50222C99.1435 1.79852 99.6235 2.21926 99.9554 2.76444C100.299 3.30963 100.471 3.93778 100.471 4.64889ZM94.142 4.64889C94.142 5.24148 94.3435 5.70963 94.7465 6.05333C95.1613 6.39704 95.6946 6.56889 96.3465 6.56889C97.022 6.56889 97.5613 6.39704 97.9643 6.05333C98.3672 5.70963 98.5687 5.24148 98.5687 4.64889C98.5687 4.04444 98.3672 3.57037 97.9643 3.22667C97.5613 2.88296 97.022 2.71111 96.3465 2.71111C95.6828 2.71111 95.1494 2.88889 94.7465 3.24444C94.3435 3.58815 94.142 4.0563 94.142 4.64889ZM101.911 12.5422C101.496 13.1467 100.998 13.6207 100.418 13.9644C99.8368 14.2963 99.2205 14.4741 98.5687 14.4978L96.4176 12.5956C95.9909 13.1763 95.4931 13.6326 94.9243 13.9644C94.3672 14.2963 93.7746 14.4741 93.1465 14.4978V12.6667C93.585 12.643 93.9998 12.4593 94.3909 12.1156C94.7939 11.7719 95.1257 11.3215 95.3865 10.7644C95.6472 10.2074 95.8013 9.60296 95.8487 8.95111L97.7154 9.25333C97.6443 9.94074 97.502 10.557 97.2887 11.1022L99.0309 12.5778C99.6117 12.4 100.109 11.9733 100.524 11.2978C100.951 10.6222 101.2 9.84 101.271 8.95111L103.12 9.25333C103.072 9.84593 102.942 10.4504 102.729 11.0667L105.378 13.1644L104.275 14.5867L101.911 12.5422ZM118.46 4.59556V6.30222H107.065V0.915555H109.002V4.59556H118.46ZM106.176 9.34222V7.61778H119.207V9.34222H106.176ZM118.567 12.7911V14.4978H107.029V10.3733H108.985V12.7911H118.567ZM136.072 14.6044H134.152V0.951111H136.072V14.6044ZM129.778 1.32444C129.778 3.28 129.606 5.12889 129.263 6.87111L133.334 12.6667L131.769 13.84L128.605 9.21778C128.095 10.6637 127.444 11.7896 126.649 12.5956C125.867 13.3896 124.972 13.8104 123.965 13.8578V11.7956C124.747 11.677 125.423 11.1496 125.992 10.2133C126.572 9.26519 127.017 8.01481 127.325 6.46222C127.645 4.90963 127.811 3.17333 127.823 1.25333L129.778 1.32444ZM148.23 14.6044V0.951111H150.15V14.6044H148.23ZM140.461 8.45333V12.0444H143.874C144.479 12.0444 145.083 11.9852 145.688 11.8667C146.304 11.7363 146.819 11.5763 147.234 11.3867V13.2C146.843 13.4133 146.334 13.5793 145.705 13.6978C145.089 13.8044 144.455 13.8578 143.803 13.8578H138.523V6.64H144.016V3.20889H138.505V1.37778H145.919V8.45333H140.461ZM158.379 6.46222C157.703 7.42222 156.838 8.16889 155.783 8.70222C154.741 9.2237 153.591 9.51407 152.335 9.57333V7.70667C153.662 7.6237 154.8 7.20296 155.748 6.44444C156.696 5.68593 157.324 4.61926 157.632 3.24444H152.619V1.37778H164.263V3.24444H159.73C159.612 3.87259 159.463 4.41778 159.286 4.88L164.743 8.04444L163.801 9.68L158.379 6.46222ZM164.957 14.0178H151.926V12.1333H164.957V14.0178Z" fill="#F2F2F2"/>
</svg>
