<svg width="355" height="16" viewBox="0 0 355 16" fill="none" xmlns="http://www.w3.org/2000/svg">
<path d="M12.8178 14.6044H10.8978V0.951111H12.8178V14.6044ZM6.29333 3.22667C6.25778 4.79111 6.13333 6.11852 5.92 7.20889L9.97333 12.5778L8.46222 13.7689L5.29778 9.46667C4.81185 10.8059 4.1837 11.8548 3.41333 12.6133C2.64296 13.36 1.77185 13.7748 0.8 13.8578V11.8311C1.49926 11.7126 2.10963 11.28 2.63111 10.5333C3.16444 9.77481 3.57926 8.76741 3.87556 7.51111C4.17185 6.25481 4.33185 4.82667 4.35556 3.22667H1.12V1.37778H9.42222V3.22667H6.29333ZM24.7981 5.60889V2.74667H15.4292V1.05778H26.7359V5.60889H24.7981ZM14.5937 7.99111V6.30222H27.6248V7.99111H14.5937ZM15.447 14.4978V9.14667H26.7892V14.4978H15.447ZM24.8692 10.7644H17.3492V12.8978H24.8692V10.7644ZM44.1163 8.22222V14.6044H42.1963V0.951111H44.1163V6.26667H45.823V8.22222H44.1163ZM39.7963 1.37778V4.82667C39.7963 6.65185 39.5059 8.24593 38.9252 9.60889C38.3563 10.96 37.5326 12.003 36.4541 12.7378C35.3756 13.4726 34.1015 13.84 32.6319 13.84V11.92C34.2911 11.9081 35.5711 11.28 36.4719 10.0356C37.3845 8.77926 37.8408 7.04889 37.8408 4.84444V3.22667H32.6319V1.37778H39.7963ZM59.9011 5.28889H58.1944V8.48889H56.2744V0.951111H58.1944V3.35111H59.9011V5.28889ZM50.8344 5.68C50.3485 6.41481 49.7263 7.01333 48.9678 7.47556C48.2093 7.93778 47.3678 8.20444 46.4433 8.27556V6.49778C47.3915 6.37926 48.1678 5.99407 48.7722 5.34222C49.3885 4.67852 49.75 3.87259 49.8567 2.92444H46.6211V1.21778H54.9056V2.92444H51.7944C51.7826 3.2563 51.7174 3.66518 51.5989 4.15111L55.3322 6.48L54.39 7.99111L50.8344 5.68ZM52.6833 8.82667C54.4019 8.82667 55.7767 9.0637 56.8078 9.53778C57.8389 10 58.3544 10.7348 58.3544 11.7422C58.3544 12.7615 57.8389 13.5081 56.8078 13.9822C55.7767 14.4444 54.4019 14.6756 52.6833 14.6756C50.9648 14.6756 49.59 14.4444 48.5589 13.9822C47.5278 13.5081 47.0122 12.7615 47.0122 11.7422C47.0122 10.7348 47.5278 10 48.5589 9.53778C49.6019 9.0637 50.9767 8.82667 52.6833 8.82667ZM52.6833 13.0222C53.7619 13.0222 54.633 12.9156 55.2967 12.7022C55.9604 12.4889 56.2922 12.1689 56.2922 11.7422C56.2922 11.3156 55.9604 11.0015 55.2967 10.8C54.633 10.5867 53.7619 10.48 52.6833 10.48C51.6048 10.48 50.7337 10.5867 50.07 10.8C49.4063 11.0015 49.0744 11.3156 49.0744 11.7422C49.0744 12.1689 49.4063 12.4889 50.07 12.7022C50.7337 12.9156 51.6048 13.0222 52.6833 13.0222ZM75.0238 14H72.9793V8.59556H66.6504V14H64.6237V1.55556H66.6504V6.76444H72.9793V1.55556H75.0238V14ZM83.1413 14.16C81.9324 14.16 80.8421 13.8874 79.8702 13.3422C78.9102 12.7852 78.1517 12.0207 77.5947 11.0489C77.0495 10.077 76.7769 8.98667 76.7769 7.77778C76.7769 6.56889 77.0495 5.47852 77.5947 4.50667C78.1517 3.53481 78.9102 2.7763 79.8702 2.23111C80.8421 1.67407 81.9324 1.39556 83.1413 1.39556C84.3384 1.39556 85.4169 1.67407 86.3769 2.23111C87.3487 2.7763 88.1072 3.53481 88.6524 4.50667C89.2095 5.47852 89.488 6.56889 89.488 7.77778C89.488 8.98667 89.2095 10.077 88.6524 11.0489C88.1072 12.0207 87.3487 12.7852 86.3769 13.3422C85.4169 13.8874 84.3384 14.16 83.1413 14.16ZM83.1413 12.3289C83.9472 12.3289 84.6761 12.1333 85.328 11.7422C85.9917 11.3511 86.5072 10.8119 86.8747 10.1244C87.2539 9.43704 87.4435 8.65481 87.4435 7.77778C87.4435 6.90074 87.2539 6.11852 86.8747 5.43111C86.5072 4.7437 85.9917 4.20444 85.328 3.81333C84.6761 3.42222 83.9472 3.22667 83.1413 3.22667C82.3235 3.22667 81.5887 3.42222 80.9369 3.81333C80.285 4.19259 79.7695 4.73185 79.3902 5.43111C79.0228 6.11852 78.8391 6.90074 78.8391 7.77778C78.8391 8.65481 79.0228 9.44296 79.3902 10.1422C79.7695 10.8296 80.285 11.3689 80.9369 11.76C81.5887 12.1393 82.3235 12.3289 83.1413 12.3289ZM89.4294 3.31556V1.55556H99.3672V3.31556H95.4206V14H93.3939V3.31556H89.4294ZM99.6341 3.72444V2.10667H103.047V0.702222H105.021V2.10667H108.47V3.72444H99.6341ZM113.323 6.42667H111.616V11.1733H109.696V0.951111H111.616V4.45333H113.323V6.42667ZM104.043 9.94667C102.917 9.94667 101.987 9.69778 101.252 9.2C100.517 8.70222 100.15 8.01481 100.15 7.13778C100.15 6.26074 100.517 5.57333 101.252 5.07556C101.987 4.57778 102.917 4.32889 104.043 4.32889C105.169 4.32889 106.099 4.57778 106.834 5.07556C107.581 5.57333 107.954 6.26074 107.954 7.13778C107.954 8.01481 107.581 8.70222 106.834 9.2C106.099 9.69778 105.169 9.94667 104.043 9.94667ZM104.043 5.84C103.415 5.84 102.911 5.96444 102.532 6.21333C102.164 6.45037 101.981 6.75852 101.981 7.13778C101.981 7.51704 102.164 7.83111 102.532 8.08C102.911 8.31704 103.415 8.43556 104.043 8.43556C104.671 8.43556 105.169 8.31704 105.536 8.08C105.916 7.83111 106.105 7.51704 106.105 7.13778C106.105 6.75852 105.916 6.45037 105.536 6.21333C105.169 5.96444 104.671 5.84 104.043 5.84ZM111.919 12.72V14.4978H100.523V10.5867H102.479V12.72H111.919ZM118.152 6.01778V4.38222H127.521V2.69333H118.152V1.02222H129.441V7.24444H127.521V6.01778H118.152ZM130.312 9.71556H117.281V8.02667H121.992V6.26667H123.93V8.02667H130.312V9.71556ZM129.672 12.8089V14.4978H118.135V10.6756H120.09V12.8089H129.672ZM142.204 11.3156V0.951111H144.017V11.3156H142.204ZM137.635 5.96444V4.13333H139.022V1.02222H140.817V11.0844H139.022V5.96444H137.635ZM138.079 9.09333C137.7 9.24741 137.202 9.36593 136.586 9.44889C135.97 9.53185 135.312 9.57333 134.613 9.57333H131.715V1.21778H137.368V2.87111H133.51V4.56H136.995V6.14222H133.51V7.92H134.737C136.183 7.92 137.297 7.76 138.079 7.44V9.09333ZM144.284 14.4978H132.444V10.48H134.399V12.6844H144.284V14.4978ZM151.802 7.06667C151.15 7.93185 150.303 8.61926 149.26 9.12889C148.229 9.62667 147.085 9.89926 145.829 9.94667V8.08C147.097 8.00889 148.199 7.62963 149.135 6.94222C150.083 6.24296 150.682 5.34222 150.931 4.24H146.131V2.37333H150.949V0.773333H152.922V2.37333H157.775V4.24H153.029C152.946 4.72593 152.827 5.15259 152.673 5.52L158.184 8.32889L157.349 10.0178L151.802 7.06667ZM158.469 14.0178H145.437V12.1511H158.469V14.0178Z" fill="#F2F2F2"/>
</svg>
