<svg width="117" height="17" viewBox="0 0 117 17" fill="none" xmlns="http://www.w3.org/2000/svg">
<path d="M11.4723 0.82H13.6323V12.22H11.4723V6.3H8.9723V4.32H11.4723V0.82ZM4.8723 6.9C4.32564 7.83333 3.6323 8.58667 2.7923 9.16C1.9523 9.72 1.01897 10.04 -0.00769526 10.12V8.06C1.08564 7.91333 1.9723 7.38667 2.6523 6.48C3.3323 5.57333 3.72564 4.44 3.8323 3.08H0.172305V1.12H9.4923V3.08H6.01231C5.99897 3.69333 5.89897 4.35333 5.7123 5.06L9.9923 8.36L8.77231 10L4.8723 6.9ZM13.8923 16.06H0.952305V10.98H3.1523V14.02H13.8923V16.06ZM20.2902 4.94C20.2635 6.35333 20.1969 7.44 20.0902 8.2L23.4902 14.14L21.8102 15.18L19.4902 11.04C18.7169 13.7067 17.4102 15.14 15.5702 15.34V13.16C16.4102 13 17.0569 12.1933 17.5102 10.74C17.9635 9.27333 18.2035 7.34 18.2302 4.94H15.7702V2.88H18.2302V0.779999H20.2902V2.88H22.7502V4.94H20.2902ZM29.7702 16.18H27.7302V0.82H29.7702V16.18ZM26.0302 0.899999V15.92H23.9902V9.04H22.1302V6.9H23.9902V0.899999H26.0302ZM36.3032 6.52V4.68H46.8432V2.78H36.3032V0.899999H49.0032V7.9H46.8432V6.52H36.3032ZM49.9832 10.68H35.3232V8.78H40.6232V6.8H42.8032V8.78H49.9832V10.68ZM49.2632 14.16V16.06H36.2832V11.76H38.4832V14.16H49.2632ZM63.3611 12.48V0.82H65.4011V12.48H63.3611ZM58.2211 6.46V4.4H59.7811V0.899999H61.8011V12.22H59.7811V6.46H58.2211ZM58.7211 9.98C58.2944 10.1533 57.7344 10.2867 57.0411 10.38C56.3477 10.4733 55.6077 10.52 54.8211 10.52H51.5611V1.12H57.9211V2.98H53.5811V4.88H57.5011V6.66H53.5811V8.66H54.9611C56.5877 8.66 57.8411 8.48 58.7211 8.12V9.98ZM65.7011 16.06H52.3811V11.54H54.5811V14.02H65.7011V16.06ZM74.1589 7.7C73.4256 8.67333 72.4723 9.44667 71.2989 10.02C70.1389 10.58 68.8523 10.8867 67.4389 10.94V8.84C68.8656 8.76 70.1056 8.33333 71.1589 7.56C72.2256 6.77333 72.8989 5.76 73.1789 4.52H67.7789V2.42H73.1989V0.619999H75.4189V2.42H80.8789V4.52H75.5389C75.4456 5.06667 75.3123 5.54667 75.1389 5.96L81.3389 9.12L80.3989 11.02L74.1589 7.7ZM81.6589 15.52H66.9989V13.42H81.6589V15.52ZM95.0519 9.6V0.899999H97.0719V3.9H98.9919V0.82H101.032V10.14H98.9919V5.96H97.0719V9.6H95.0519ZM94.1919 8.88C93.2986 9.24 91.9986 9.42 90.2919 9.42H87.1719V4.44H91.4919V2.88H87.1719V1.12H93.4919V6.1H89.1719V7.66H90.4319C92.0452 7.66 93.2986 7.48 94.1919 7.12V8.88ZM94.5719 10.34C96.5586 10.34 98.1586 10.5733 99.3719 11.04C100.585 11.5067 101.192 12.26 101.192 13.3C101.192 14.34 100.585 15.0933 99.3719 15.56C98.1586 16.0267 96.5586 16.26 94.5719 16.26C92.5852 16.26 90.9852 16.0267 89.7719 15.56C88.5586 15.0933 87.9519 14.34 87.9519 13.3C87.9519 12.26 88.5586 11.5067 89.7719 11.04C90.9852 10.5733 92.5852 10.34 94.5719 10.34ZM94.5719 14.5C95.8386 14.5 96.8786 14.4067 97.6919 14.22C98.5052 14.02 98.9119 13.7133 98.9119 13.3C98.9119 12.8867 98.5052 12.5867 97.6919 12.4C96.8786 12.2 95.8386 12.1 94.5719 12.1C93.3052 12.1 92.2586 12.2 91.4319 12.4C90.6186 12.5867 90.2119 12.8867 90.2119 13.3C90.2119 13.7133 90.6186 14.02 91.4319 14.22C92.2586 14.4067 93.3052 14.5 94.5719 14.5ZM114.31 9.52V0.82H116.47V9.52H114.31ZM111.97 3.36C111.97 5.4 111.17 6.89333 109.57 7.84C107.983 8.78667 105.836 9.26 103.13 9.26V7.52C106.21 7.52 108.223 6.98 109.17 5.9H103.13V4.22H109.83C109.87 4.07333 109.89 3.84 109.89 3.52V2.84H103.13V1.12H111.97V3.36ZM110.19 9.92C112.15 9.92 113.716 10.18 114.89 10.7C116.063 11.2067 116.65 12.0067 116.65 13.1C116.65 14.1933 116.063 14.9933 114.89 15.5C113.716 16.0067 112.15 16.26 110.19 16.26C108.23 16.26 106.656 16.0067 105.47 15.5C104.296 14.9933 103.71 14.1933 103.71 13.1C103.71 12.0067 104.296 11.2067 105.47 10.7C106.656 10.18 108.23 9.92 110.19 9.92ZM110.19 14.44C111.416 14.44 112.41 14.3333 113.17 14.12C113.943 13.8933 114.33 13.5533 114.33 13.1C114.33 12.6467 113.943 12.3133 113.17 12.1C112.41 11.8733 111.416 11.76 110.19 11.76C108.963 11.76 107.963 11.8733 107.19 12.1C106.416 12.3133 106.03 12.6467 106.03 13.1C106.03 13.5533 106.416 13.8933 107.19 14.12C107.963 14.3333 108.963 14.44 110.19 14.44Z" fill="#F2F2F2"/>
</svg>
