<svg width="179" height="15" viewBox="0 0 179 15" fill="none" xmlns="http://www.w3.org/2000/svg">
<path d="M0.773368 3.70667V2.12444H4.16892V0.702222H6.14226V2.12444H9.18226V3.70667H0.773368ZM9.57337 8.77333V7.06667H11.2623V5.48444H9.57337V3.77778H11.2623V0.951111H13.1645V11.1556H11.2623V8.77333H9.57337ZM5.16448 9.94667C4.06226 9.94667 3.14966 9.69778 2.4267 9.2C1.70374 8.70222 1.34226 8.01481 1.34226 7.13778C1.34226 6.24889 1.69781 5.56148 2.40892 5.07556C3.13189 4.57778 4.05041 4.32889 5.16448 4.32889C6.27855 4.32889 7.19115 4.57778 7.90226 5.07556C8.62522 5.56148 8.9867 6.24889 8.9867 7.13778C8.9867 8.01481 8.62522 8.70222 7.90226 9.2C7.17929 9.69778 6.2667 9.94667 5.16448 9.94667ZM5.16448 5.82222C4.54818 5.82222 4.06226 5.94667 3.7067 6.19556C3.35115 6.44444 3.17337 6.75852 3.17337 7.13778C3.17337 7.51704 3.35115 7.83111 3.7067 8.08C4.06226 8.31704 4.54818 8.43556 5.16448 8.43556C5.76892 8.43556 6.24892 8.31704 6.60448 8.08C6.96003 7.83111 7.13781 7.51704 7.13781 7.13778C7.13781 6.75852 6.96003 6.44444 6.60448 6.19556C6.24892 5.94667 5.76892 5.82222 5.16448 5.82222ZM13.4134 14.4978H1.89337V10.4978H3.83115V12.72H13.4134V14.4978ZM25.2337 7.65333V0.951111H27.1537V7.65333H25.2337ZM19.4737 5.09333C18.9641 5.78074 18.33 6.3437 17.5715 6.78222C16.813 7.20889 15.9715 7.47556 15.047 7.58222V5.78667C16.1967 5.59704 17.1152 5.06963 17.8026 4.20444C18.49 3.32741 18.8456 2.27259 18.8693 1.04L20.807 1.16444C20.807 2.04148 20.647 2.86518 20.327 3.63556L24.2204 5.85778L23.3315 7.35111L19.4737 5.09333ZM27.4026 14.4978H15.9182V10.7467H25.2515V9.75111H15.8826V8.29333H27.1537V12.0444H17.8204V13.0578H27.4026V14.4978ZM42.5652 5.18222H40.8585V7.92H38.9385V0.951111H40.8585V3.33333H42.5652V5.18222ZM38.1385 7.12C37.7592 7.28593 37.2259 7.4163 36.5385 7.51111C35.863 7.60593 35.1281 7.65333 34.3341 7.65333H29.3207V1.21778H37.2852V2.65778H31.2407V3.76H37.0185V5.11111H31.2407V6.21333H34.4763C35.2348 6.21333 35.9341 6.17185 36.5741 6.08889C37.2259 5.99407 37.7474 5.8637 38.1385 5.69778V7.12ZM41.1074 13.0933V14.4978H29.783V10.8889H38.9741V9.98222H29.7474V8.56H40.8585V12.1689H31.6852V13.0933H41.1074ZM49.1766 4.68444C48.5129 5.14667 47.6774 5.50815 46.67 5.76889C45.6626 6.01778 44.6077 6.15407 43.5055 6.17778V4.68444C44.6077 4.66074 45.6329 4.50074 46.5811 4.20444C47.5411 3.90815 48.187 3.49926 48.5189 2.97778H43.7366V1.53778H48.5722V0.4H50.51V1.53778H55.31V2.97778H50.6344C50.6107 3.1437 50.5455 3.31556 50.4389 3.49333L55.5766 4.75556L55.1855 6.19556L49.1766 4.68444ZM50.51 9.23556H55.2211V12.4178H45.7455V13.2356H55.3989V14.4978H43.8611V11.2978H53.3189V10.4978H43.8255V9.23556H48.5544V8.27556H43.0077V6.81778H56.0389V8.27556H50.51V9.23556ZM61.3126 2.71111V1.05778H66.5037V5.39556H64.6015V2.71111H61.3126ZM67.197 2.71111V1.05778H72.8148V5.39556H70.9126V2.71111H67.197ZM68.0859 9.28889H72.8148V14.4978H61.4548V9.28889H66.1482V7.74222H60.6015V6.05333H73.6326V7.74222H68.0859V9.28889ZM63.357 10.8889V12.9156H70.8948V10.8889H63.357ZM88.3152 5.18222H86.6085V7.65333H84.6885V0.951111H86.6085V3.22667H88.3152V5.18222ZM82.573 2.76444C82.573 4.4237 81.8974 5.63259 80.5463 6.39111C79.207 7.13778 77.3581 7.51111 74.9996 7.51111V5.84C76.7537 5.82815 78.1285 5.59704 79.1241 5.14667C80.1315 4.68444 80.6352 4.00889 80.6352 3.12V2.87111H74.9996V1.21778H82.573V2.76444ZM86.7507 13.0578V14.4978H75.533V8.29333H86.6085V9.71556H77.453V10.6933H86.4307V12.0622H77.453V13.0578H86.7507ZM95.2822 0.808888C97.0007 0.808888 98.3992 1.06963 99.4777 1.59111C100.568 2.11259 101.113 2.86518 101.113 3.84889C101.113 4.84444 100.568 5.60296 99.4777 6.12444C98.3874 6.64593 96.9889 6.90667 95.2822 6.90667C93.5755 6.90667 92.177 6.64593 91.0866 6.12444C89.9963 5.60296 89.4511 4.84444 89.4511 3.84889C89.4511 2.86518 89.9903 2.11259 91.0689 1.59111C92.1592 1.06963 93.5637 0.808888 95.2822 0.808888ZM95.2822 2.40889C94.18 2.40889 93.2674 2.53926 92.5444 2.8C91.8333 3.04889 91.4777 3.39852 91.4777 3.84889C91.4777 4.29926 91.8333 4.65481 92.5444 4.91556C93.2555 5.16444 94.1681 5.28889 95.2822 5.28889C96.3963 5.28889 97.3029 5.16444 98.0022 4.91556C98.7133 4.65481 99.0689 4.29926 99.0689 3.84889C99.0689 3.39852 98.7133 3.04889 98.0022 2.8C97.2911 2.53926 96.3844 2.40889 95.2822 2.40889ZM88.7577 9.57333V7.88444H101.789V9.57333H88.7577ZM101.149 12.7911V14.4978H89.6111V10.5689H91.5666V12.7911H101.149ZM119.987 5.98222H118.28V11.0844H116.36V0.951111H118.28V4.02667H119.987V5.98222ZM115.543 8.38222C115.175 8.54815 114.636 8.68444 113.925 8.79111C113.226 8.88593 112.473 8.93333 111.667 8.93333H106.369V7.26222H107.827V2.90667H106.44V1.21778H115.045V2.90667H113.658V7.15556C114.334 7.0963 114.962 6.94815 115.543 6.71111V8.38222ZM110.778 7.26222C111.24 7.26222 111.584 7.2563 111.809 7.24444V2.90667H109.676V7.26222H110.778ZM118.583 12.6844V14.4978H107.187V10H109.143V12.6844H118.583ZM132.359 8.22222V14.6044H130.439V0.951111H132.359V6.26667H134.065V8.22222H132.359ZM126.172 12.0089C126.788 12.0089 127.399 11.9496 128.003 11.8311C128.619 11.7126 129.129 11.5585 129.532 11.3689V13.2C129.141 13.4015 128.625 13.5615 127.985 13.68C127.357 13.7985 126.723 13.8578 126.083 13.8578H120.981V1.37778H128.519V3.22667H122.901V6.60444H128.27V8.47111H122.901V12.0089H126.172ZM146.81 14.6044H144.89V0.951111H146.81V14.6044ZM140.286 3.22667C140.25 4.79111 140.126 6.11852 139.912 7.20889L143.966 12.5778L142.454 13.7689L139.29 9.46667C138.804 10.8059 138.176 11.8548 137.406 12.6133C136.635 13.36 135.764 13.7748 134.792 13.8578V11.8311C135.491 11.7126 136.102 11.28 136.623 10.5333C137.157 9.77481 137.571 8.76741 137.868 7.51111C138.164 6.25481 138.324 4.82667 138.348 3.22667H135.112V1.37778H143.414V3.22667H140.286ZM164.759 14.6044H162.946V0.951111H164.759V14.6044ZM161.435 1.02222V14.3733H159.621V7.35111H157.826V5.43111H159.621V1.02222H161.435ZM156.581 1.32444C156.581 3.46963 156.487 5.31852 156.297 6.87111L159.355 12.8622L157.773 13.6978L155.71 9.62667C155.011 12.1867 153.832 13.597 152.173 13.8578V11.8133C153.879 11.3274 154.744 7.80741 154.768 1.25333L156.581 1.32444ZM178.837 14.6044H177.042V0.951111H178.837V14.6044ZM175.584 1.02222V14.3733H173.806V10.3556H170.997C170.511 11.4696 169.871 12.3289 169.077 12.9333C168.295 13.5259 167.418 13.8281 166.446 13.84V11.9378C167.181 11.9022 167.815 11.6178 168.349 11.0844C168.894 10.5393 169.314 9.77481 169.611 8.79111C169.907 7.80741 170.055 6.64 170.055 5.28889V3.20889H166.446V1.37778H171.904V4.16889H173.806V1.02222H175.584ZM173.806 6.05333H171.886C171.851 6.91852 171.744 7.72444 171.566 8.47111H173.806V6.05333Z" fill="#F2F2F2"/>
</svg>
