<svg width="166" height="15" viewBox="0 0 166 15" fill="none" xmlns="http://www.w3.org/2000/svg">
<path d="M1.66576 8.02667V1.21778H13.0613V3.06667H3.62132V6.16H13.2035V8.02667H1.66576ZM8.31465 11.3333V14.9244H6.34132V11.3333H0.812431V9.44889H13.8435V11.3333H8.31465ZM25.1128 6.24889V2.78222H15.6906V1.05778H27.0683V6.24889H25.1128ZM14.8906 8.75556V7.01333H27.9217V8.75556H14.8906ZM27.2817 12.7911V14.4978H15.7439V10H17.7172V12.7911H27.2817ZM29.822 8.02667V1.21778H41.2176V3.06667H31.7776V6.16H41.3598V8.02667H29.822ZM36.4709 11.3333V14.9244H34.4976V11.3333H28.9687V9.44889H41.9998V11.3333H36.4709ZM53.269 6.24889V2.78222H43.8468V1.05778H55.2246V6.24889H53.269ZM43.0468 8.75556V7.01333H56.0779V8.75556H43.0468ZM55.4379 12.7911V14.4978H43.9001V10H45.8735V12.7911H55.4379ZM68.285 4.32889V2.55111H71.1117V0.951111H73.0317V7.74222H71.1117V4.32889H68.285ZM65.0317 5.16444C64.5339 5.87556 63.9117 6.45037 63.165 6.88889C62.4183 7.32741 61.5828 7.60593 60.6583 7.72444V5.92889C61.3931 5.79852 62.0391 5.50815 62.5961 5.05778C63.1531 4.59555 63.5857 4.01481 63.8939 3.31556C64.202 2.6163 64.362 1.85778 64.3739 1.04L66.3117 1.16444C66.3117 2.02963 66.1635 2.87111 65.8672 3.68889L69.5828 6.14222L68.5872 7.54667L65.0317 5.16444ZM73.2628 14.4978H61.7783V10.8H71.1117V9.84H61.7606V8.38222H73.0317V12.08H63.6983V13.0578H73.2628V14.4978ZM87.3765 9.05778H85.5631V0.951111H87.3765V9.05778ZM81.1365 5.27111V3.45778H82.3809V1.02222H84.1765V8.91556H82.3809V5.27111H81.1365ZM81.4209 8.16889C81.0416 8.32296 80.5439 8.44148 79.9276 8.52444C79.3231 8.60741 78.6653 8.64889 77.9542 8.64889H75.0565V4.18667H78.7009V2.78222H75.0565V1.21778H80.4609V5.66222H76.8165V7.08444H78.0787C79.5128 7.08444 80.6268 6.92444 81.4209 6.60444V8.16889ZM87.3765 9.69778V14.4978H75.8031V9.69778H87.3765ZM85.492 12.9156V11.2978H77.6876V12.9156H85.492ZM104.241 8.22222V14.6044H102.321V0.951111H104.241V6.26667H105.948V8.22222H104.241ZM99.9213 1.37778V4.82667C99.9213 6.65185 99.6309 8.24593 99.0502 9.60889C98.4813 10.96 97.6576 12.003 96.5791 12.7378C95.5006 13.4726 94.2265 13.84 92.7569 13.84V11.92C94.4161 11.9081 95.6961 11.28 96.5969 10.0356C97.5095 8.77926 97.9658 7.04889 97.9658 4.84444V3.22667H92.7569V1.37778H99.9213ZM109.182 2.67556V4.70222H118.711V6.30222H107.279V1.05778H118.568V2.67556H109.182ZM106.391 9.11111V7.47556H119.422V9.11111H106.391ZM116.631 14.6756V11.92H107.155V10.2667H118.586V14.6756H116.631ZM137.015 14.0178H123.984V12.1689H129.513V10H124.802V4.82667H134.331V3.15556H124.802V1.37778H136.233V6.53333H126.722V8.20444H136.393V10H131.469V12.1689H137.015V14.0178ZM145.405 10.9956V1.02222H147.2V4.11556H148.907V0.951111H150.72V11.2267H148.907V6H147.2V10.9956H145.405ZM138.418 9.00444V1.21778H144.142V9.00444H138.418ZM140.178 2.92444V7.31556H142.382V2.92444H140.178ZM150.987 14.4978H139.147V10.1244H141.102V12.6844H150.987V14.4978ZM158.523 5.75111C157.764 6.9363 156.846 7.87259 155.767 8.56C154.701 9.23556 153.581 9.57926 152.407 9.59111V7.67111C153.296 7.67111 154.149 7.37481 154.967 6.78222C155.797 6.18963 156.502 5.3837 157.083 4.36444C157.664 3.34518 158.049 2.21333 158.238 0.968888L160.212 1.30667C160.022 2.38518 159.744 3.33333 159.376 4.15111L165.012 8.02667L163.981 9.64444L158.523 5.75111ZM165.172 12.1333V14.0178H152.141V12.1333H165.172Z" fill="white"/>
</svg>
