<svg width="178" height="15" viewBox="0 0 178 15" fill="none" xmlns="http://www.w3.org/2000/svg">
<path d="M12.4311 14.6044H10.6178V8.16889H8.91115V14.3733H7.11559V1.02222H8.91115V6.26667H10.6178V0.951111H12.4311V14.6044ZM3.29337 12.08C3.8267 12.08 4.36003 12.0385 4.89337 11.9556C5.43855 11.8607 5.91263 11.7363 6.31559 11.5822V13.3422C5.93633 13.5081 5.45041 13.6385 4.85781 13.7333C4.27707 13.8163 3.69041 13.8578 3.09781 13.8578H0.128924V1.37778H5.7467V3.15556H1.96003V12.08H3.29337ZM26.8826 10.0178H13.8515V8.32889H19.3982V6.96H14.7404V1.00444H16.6248V2.40889H24.127V1.00444H26.0115V6.96H21.3359V8.32889H26.8826V10.0178ZM24.127 5.39556V3.93778H16.6248V5.39556H24.127ZM26.2426 12.8267V14.4978H14.7048V10.8178H16.6604V12.8267H26.2426ZM39.4986 5.37778C39.2971 6.14815 38.8527 6.76444 38.1652 7.22667C37.4778 7.68889 36.6186 7.92 35.5875 7.92C34.7697 7.92 34.0527 7.77778 33.4364 7.49333C32.8201 7.19704 32.3401 6.79407 31.9964 6.28444C31.6645 5.76296 31.4986 5.16444 31.4986 4.48889C31.4986 3.81333 31.6645 3.22074 31.9964 2.71111C32.3401 2.18963 32.8201 1.78667 33.4364 1.50222C34.0527 1.20593 34.7697 1.05778 35.5875 1.05778C36.5949 1.05778 37.4423 1.27704 38.1297 1.71556C38.8171 2.15407 39.2675 2.74667 39.4808 3.49333H41.9164V0.951111H43.8364V8.04444H41.9164V5.37778H39.4986ZM33.4364 4.48889C33.4364 5.03407 33.6319 5.46667 34.023 5.78667C34.4141 6.09481 34.9356 6.24889 35.5875 6.24889C36.2393 6.24889 36.7549 6.09481 37.1341 5.78667C37.5252 5.46667 37.7208 5.03407 37.7208 4.48889C37.7208 3.9437 37.5252 3.51111 37.1341 3.19111C36.743 2.87111 36.2275 2.71111 35.5875 2.71111C34.9356 2.71111 34.4141 2.87111 34.023 3.19111C33.6319 3.51111 33.4364 3.9437 33.4364 4.48889ZM41.7919 12.4356C41.4127 13.0637 40.9504 13.5615 40.4052 13.9289C39.8719 14.2844 39.2852 14.4741 38.6452 14.4978V12.7378C39.0601 12.6785 39.4452 12.4652 39.8008 12.0978C40.1682 11.7304 40.4645 11.2385 40.6897 10.6222C40.9267 10.0059 41.063 9.31259 41.0986 8.54222L42.9475 8.68444C42.8882 9.56148 42.7578 10.2844 42.5564 10.8533L45.1519 13.1822L43.9786 14.5333L41.7919 12.4356ZM38.183 8.59556V14.4978H32.6008V8.59556H34.3075V10H36.4764V8.59556H38.183ZM36.4764 11.4578H34.3075V13.0044H36.4764V11.4578ZM55.9056 14.6044V0.951111H57.8434V14.6044H55.9056ZM50.0211 1.2C51.2419 1.2 52.2078 1.73926 52.9189 2.81778C53.63 3.88444 53.9856 5.48444 53.9856 7.61778C53.9856 9.75111 53.63 11.357 52.9189 12.4356C52.2078 13.5022 51.2419 14.0356 50.0211 14.0356C48.7886 14.0356 47.8108 13.5022 47.0878 12.4356C46.3767 11.357 46.0211 9.75111 46.0211 7.61778C46.0211 5.48444 46.3767 3.88444 47.0878 2.81778C47.8108 1.73926 48.7886 1.2 50.0211 1.2ZM50.0211 3.06667C49.3811 3.06667 48.8715 3.43407 48.4923 4.16889C48.113 4.9037 47.9234 6.05333 47.9234 7.61778C47.9234 9.18222 48.113 10.3319 48.4923 11.0667C48.8715 11.8015 49.3811 12.1689 50.0211 12.1689C50.6493 12.1689 51.1471 11.8015 51.5145 11.0667C51.8937 10.3319 52.0834 9.18222 52.0834 7.61778C52.0834 6.05333 51.8937 4.9037 51.5145 4.16889C51.1471 3.43407 50.6493 3.06667 50.0211 3.06667ZM71.9705 6.33778V4.79111H73.606V3.68889H71.9705V2.12444H73.606V0.951111H75.5082V8.04444H73.606V6.33778H71.9705ZM71.7927 7.33333C71.4253 7.47556 70.9097 7.58815 70.246 7.67111C69.5823 7.74222 68.8416 7.77778 68.0238 7.77778H63.2238V6.23111H64.5571V2.76444H63.2771V1.21778H71.526V2.76444H70.2105V6.14222C70.8505 6.07111 71.3779 5.96444 71.7927 5.82222V7.33333ZM67.1705 6.23111C67.7275 6.23111 68.1305 6.22519 68.3793 6.21333V2.76444H66.3882V6.23111H67.1705ZM75.7393 14.4978H64.2549V10.9778H73.5882V10.1067H64.2371V8.68444H75.5082V12.2044H66.1927V13.0933H75.7393V14.4978ZM82.7597 4.70222C82.7241 5.63852 82.6175 6.61037 82.4397 7.61778L86.4219 12.6489L84.9108 13.84L81.7997 9.76889C81.3256 11.0133 80.7093 11.9852 79.9508 12.6844C79.2041 13.3837 78.3508 13.7748 77.3908 13.8578V11.8844C78.0427 11.7778 78.6175 11.4044 79.1152 10.7644C79.6249 10.1244 80.0219 9.28296 80.3064 8.24C80.5908 7.19704 80.7627 6.01778 80.8219 4.70222H77.5508V2.83556H80.8397V0.915555H82.7952V2.83556H85.8175V4.70222H82.7597ZM89.5864 14.6044H87.6664V9.98222H85.5152V8.11556H87.6664V6.39111H85.5152V4.54222H87.6664V0.951111H89.5864V14.6044ZM103.576 14.6044H101.656V0.951111H103.576V14.6044ZM97.0511 3.22667C97.0156 4.79111 96.8911 6.11852 96.6778 7.20889L100.731 12.5778L99.22 13.7689L96.0556 9.46667C95.5697 10.8059 94.9415 11.8548 94.1711 12.6133C93.4008 13.36 92.5297 13.7748 91.5578 13.8578V11.8311C92.2571 11.7126 92.8674 11.28 93.3889 10.5333C93.9223 9.77481 94.3371 8.76741 94.6334 7.51111C94.9297 6.25481 95.0897 4.82667 95.1134 3.22667H91.8778V1.37778H100.18V3.22667H97.0511ZM117.636 4.59556V6.30222H106.24V0.915555H108.178V4.59556H117.636ZM105.351 9.34222V7.61778H118.383V9.34222H105.351ZM117.743 12.7911V14.4978H106.205V10.3733H108.16V12.7911H117.743ZM133.327 14.6044V0.951111H135.247V14.6044H133.327ZM125.559 8.45333V12.0444H128.972C129.576 12.0444 130.181 11.9852 130.785 11.8667C131.402 11.7363 131.917 11.5763 132.332 11.3867V13.2C131.941 13.4133 131.431 13.5793 130.803 13.6978C130.187 13.8044 129.553 13.8578 128.901 13.8578H123.621V6.64H129.114V3.20889H123.603V1.37778H131.016V8.45333H125.559ZM145.077 5.11111C144.875 5.83407 144.431 6.41481 143.743 6.85333C143.068 7.29185 142.214 7.51111 141.183 7.51111C140.377 7.51111 139.666 7.37481 139.05 7.10222C138.446 6.82963 137.977 6.45037 137.646 5.96444C137.326 5.47852 137.166 4.91556 137.166 4.27556C137.166 3.64741 137.326 3.09037 137.646 2.60444C137.977 2.10667 138.446 1.72148 139.05 1.44889C139.666 1.1763 140.377 1.04 141.183 1.04C142.167 1.04 142.991 1.24148 143.654 1.64444C144.33 2.03556 144.786 2.57481 145.023 3.26222H147.494V0.951111H149.414V7.65333H147.494V5.11111H145.077ZM139.068 4.27556C139.068 4.77333 139.257 5.17037 139.637 5.46667C140.028 5.75111 140.543 5.89333 141.183 5.89333C141.823 5.89333 142.333 5.75111 142.712 5.46667C143.103 5.17037 143.299 4.77333 143.299 4.27556C143.299 3.76593 143.103 3.36889 142.712 3.08444C142.333 2.8 141.823 2.65778 141.183 2.65778C140.543 2.65778 140.028 2.8 139.637 3.08444C139.257 3.36889 139.068 3.76593 139.068 4.27556ZM149.646 14.4978H138.321V10.7467H147.494V9.75111H138.286V8.29333H149.414V12.0444H140.223V13.0578H149.646V14.4978ZM161.484 14.6044V0.951111H163.404V14.6044H161.484ZM153.715 8.45333V12.0444H157.128C157.733 12.0444 158.337 11.9852 158.941 11.8667C159.558 11.7363 160.073 11.5763 160.488 11.3867V13.2C160.097 13.4133 159.587 13.5793 158.959 13.6978C158.343 13.8044 157.709 13.8578 157.057 13.8578H151.777V6.64H157.27V3.20889H151.759V1.37778H159.173V8.45333H153.715ZM177.482 14.6044H175.562V0.951111H177.482V14.6044ZM171.189 12.0089C171.793 12.0089 172.403 11.9496 173.02 11.8311C173.636 11.7126 174.146 11.5526 174.549 11.3511V13.2C174.157 13.4133 173.66 13.5793 173.055 13.6978C172.451 13.8044 171.829 13.8578 171.189 13.8578H165.873V1.37778H173.535V3.22667H167.793V6.60444H173.304V8.47111H167.793V12.0089H171.189Z" fill="white"/>
</svg>
