<svg width="249" height="15" viewBox="0 0 249 15" fill="none" xmlns="http://www.w3.org/2000/svg">
<path d="M14.2136 5.12889H12.5069V7.65333H10.5869V0.951111H12.5069V3.17333H14.2136V5.12889ZM8.66694 4.27556C8.66694 4.91556 8.50102 5.47852 8.16917 5.96444C7.84917 6.45037 7.38694 6.82963 6.7825 7.10222C6.17806 7.37481 5.46694 7.51111 4.64917 7.51111C3.84324 7.51111 3.13213 7.37481 2.51583 7.10222C1.91139 6.82963 1.44324 6.45037 1.11139 5.96444C0.791389 5.47852 0.631389 4.91556 0.631389 4.27556C0.631389 3.64741 0.791389 3.09037 1.11139 2.60444C1.44324 2.10667 1.91139 1.72148 2.51583 1.44889C3.13213 1.1763 3.84324 1.04 4.64917 1.04C5.46694 1.04 6.17806 1.1763 6.7825 1.44889C7.38694 1.72148 7.84917 2.10667 8.16917 2.60444C8.50102 3.09037 8.66694 3.64741 8.66694 4.27556ZM2.53361 4.27556C2.53361 4.77333 2.72324 5.17037 3.1025 5.46667C3.49361 5.75111 4.00917 5.89333 4.64917 5.89333C5.28917 5.89333 5.7988 5.75111 6.17806 5.46667C6.56917 5.17037 6.76472 4.77333 6.76472 4.27556C6.76472 3.76593 6.56917 3.36889 6.17806 3.08444C5.7988 2.8 5.28917 2.65778 4.64917 2.65778C4.00917 2.65778 3.49361 2.8 3.1025 3.08444C2.72324 3.36889 2.53361 3.76593 2.53361 4.27556ZM12.7558 13.0578V14.4978H1.57361V10.7467H10.6225V9.75111H1.53806V8.29333H12.5069V12.0444H3.49361V13.0578H12.7558ZM21.0384 5.00444C20.3036 6 19.3969 6.78815 18.3184 7.36889C17.2517 7.94963 16.1317 8.24593 14.9584 8.25778V6.33778C15.8473 6.33778 16.7066 6.10074 17.5362 5.62667C18.3658 5.14074 19.0651 4.47704 19.634 3.63556C20.2028 2.78222 20.5703 1.84 20.7362 0.808888L22.7095 1.12889C22.5673 1.95852 22.3184 2.73481 21.9628 3.45778L27.4917 6.55111L26.5673 8.24L21.0384 5.00444ZM22.1584 11.4044V14.9244H20.1851V11.4044H14.6562V9.52H27.6873V11.4044H22.1584ZM41.7654 9.85778H28.7343V8.27556H34.2987V7.19111H29.641V3.49333H39.0276V2.42667H29.6232V1.05778H40.9121V4.73778H31.5254V5.80444H41.0543V7.19111H36.2188V8.27556H41.7654V9.85778ZM40.9299 10.8356V14.6756H38.9743V12.4178H29.4987V10.8356H40.9299ZM58.5592 8.22222V14.6044H56.9058V0.951111H58.5592V6.26667H59.9636V8.22222H58.5592ZM50.9147 1.32444V13.8578H46.6125V1.32444H48.1414V5.84H49.4569V1.32444H50.9147ZM55.8214 1.32444V13.8578H51.5369V1.32444H52.9769V5.84H54.2925V1.32444H55.8214ZM49.4569 7.6H48.1414V12.0978H49.4569V7.6ZM54.2925 7.6H52.9769V12.0978H54.2925V7.6ZM72.7973 14.6044H70.8773V9.76889H68.584V7.90222H70.8773V6.26667H68.584V4.4H70.8773V0.951111H72.7973V14.6044ZM65.9884 3.22667C65.9528 4.61333 65.8343 5.91704 65.6328 7.13778L69.704 12.5956L68.1395 13.7511L64.9928 9.41333C64.5188 10.7763 63.9025 11.837 63.144 12.5956C62.3854 13.3541 61.5203 13.7748 60.5484 13.8578V11.8311C61.2477 11.7126 61.858 11.28 62.3795 10.5333C62.901 9.77481 63.304 8.76741 63.5884 7.51111C63.8728 6.25481 64.021 4.82667 64.0328 3.22667H60.8684V1.37778H69.064V3.22667H65.9884ZM77.2576 3.26222V7.72444H86.8754V9.59111H75.2843V1.37778H86.7332V3.26222H77.2576ZM74.4843 14.0178V12.1333H87.5154V14.0178H74.4843ZM100.847 4.59556V6.30222H89.4513V0.915555H91.3891V4.59556H100.847ZM88.5624 9.34222V7.61778H101.594V9.34222H88.5624ZM100.954 12.7911V14.4978H89.4158V10.3733H91.3713V12.7911H100.954ZM106.672 2.92444V1.52H111.703V0.4H113.641V1.52H118.69V2.92444H106.672ZM107.134 5.39556C107.134 4.72 107.626 4.22815 108.61 3.92C109.605 3.6 110.962 3.44 112.681 3.44C114.399 3.44 115.75 3.6 116.734 3.92C117.73 4.22815 118.227 4.72 118.227 5.39556C118.227 6.05926 117.73 6.55111 116.734 6.87111C115.75 7.17926 114.399 7.33333 112.681 7.33333C110.962 7.33333 109.605 7.17926 108.61 6.87111C107.626 6.55111 107.134 6.05926 107.134 5.39556ZM116.307 5.39556C116.307 5.17037 115.975 4.99852 115.312 4.88C114.648 4.76148 113.771 4.70222 112.681 4.70222C111.59 4.70222 110.713 4.76148 110.05 4.88C109.386 4.99852 109.054 5.17037 109.054 5.39556C109.054 5.62074 109.386 5.79259 110.05 5.91111C110.713 6.01778 111.59 6.07111 112.681 6.07111C113.759 6.07111 114.63 6.01778 115.294 5.91111C115.97 5.79259 116.307 5.62074 116.307 5.39556ZM119.187 9.48444H106.156V8.04444H119.187V9.48444ZM112.681 10.2667C114.435 10.2667 115.833 10.4444 116.876 10.8C117.931 11.1556 118.458 11.7185 118.458 12.4889C118.458 13.2593 117.931 13.8222 116.876 14.1778C115.833 14.5333 114.435 14.7111 112.681 14.7111C110.927 14.7111 109.522 14.5333 108.467 14.1778C107.412 13.8222 106.885 13.2593 106.885 12.4889C106.885 11.7185 107.412 11.1556 108.467 10.8C109.522 10.4444 110.927 10.2667 112.681 10.2667ZM112.681 13.3067C113.771 13.3067 114.672 13.2415 115.383 13.1111C116.094 12.9689 116.45 12.7615 116.45 12.4889C116.45 12.2163 116.094 12.0089 115.383 11.8667C114.672 11.7244 113.771 11.6533 112.681 11.6533C111.59 11.6533 110.69 11.7244 109.978 11.8667C109.267 12.0089 108.912 12.2163 108.912 12.4889C108.912 12.7615 109.261 12.9689 109.961 13.1111C110.672 13.2415 111.578 13.3067 112.681 13.3067ZM130.617 14.6044V0.951111H132.537V14.6044H130.617ZM120.928 13.8578V1.37778H128.412V13.8578H120.928ZM126.492 3.26222H122.848V11.9733H126.492V3.26222ZM144.695 11.0844V0.951111H146.615V11.0844H144.695ZM139.041 6.24889C138.567 7.06667 137.951 7.72444 137.192 8.22222C136.434 8.72 135.581 9.01037 134.632 9.09333V7.24444C135.628 7.12593 136.434 6.67556 137.05 5.89333C137.667 5.11111 138.022 4.13333 138.117 2.96H134.81V1.21778H143.219V2.96H140.072C140.061 3.46963 139.972 4.02074 139.806 4.61333L143.664 7.51111L142.597 8.98667L139.041 6.24889ZM146.899 14.4978H135.361V9.98222H137.317V12.6844H146.899V14.4978ZM158.773 11.0844V0.951111H160.693V11.0844H158.773ZM153.119 6.24889C152.645 7.06667 152.029 7.72444 151.271 8.22222C150.512 8.72 149.659 9.01037 148.711 9.09333V7.24444C149.706 7.12593 150.512 6.67556 151.128 5.89333C151.745 5.11111 152.1 4.13333 152.195 2.96H148.888V1.21778H157.297V2.96H154.151C154.139 3.46963 154.05 4.02074 153.884 4.61333L157.742 7.51111L156.675 8.98667L153.119 6.24889ZM160.977 14.4978H149.439V9.98222H151.395V12.6844H160.977V14.4978ZM162.415 3.72444V2.10667H165.829V0.702222H167.802V2.10667H171.251V3.72444H162.415ZM176.104 6.42667H174.398V11.1733H172.478V0.951111H174.398V4.45333H176.104V6.42667ZM166.824 9.94667C165.698 9.94667 164.768 9.69778 164.033 9.2C163.298 8.70222 162.931 8.01481 162.931 7.13778C162.931 6.26074 163.298 5.57333 164.033 5.07556C164.768 4.57778 165.698 4.32889 166.824 4.32889C167.95 4.32889 168.881 4.57778 169.615 5.07556C170.362 5.57333 170.735 6.26074 170.735 7.13778C170.735 8.01481 170.362 8.70222 169.615 9.2C168.881 9.69778 167.95 9.94667 166.824 9.94667ZM166.824 5.84C166.196 5.84 165.692 5.96444 165.313 6.21333C164.946 6.45037 164.762 6.75852 164.762 7.13778C164.762 7.51704 164.946 7.83111 165.313 8.08C165.692 8.31704 166.196 8.43556 166.824 8.43556C167.452 8.43556 167.95 8.31704 168.318 8.08C168.697 7.83111 168.886 7.51704 168.886 7.13778C168.886 6.75852 168.697 6.45037 168.318 6.21333C167.95 5.96444 167.452 5.84 166.824 5.84ZM174.7 12.72V14.4978H163.304V10.5867H165.26V12.72H174.7ZM191.991 8.22222V14.6044H190.071V0.951111H191.991V6.26667H193.698V8.22222H191.991ZM185.805 12.0267C186.421 12.0267 187.031 11.9674 187.636 11.8489C188.252 11.7304 188.762 11.5763 189.165 11.3867V13.2178C188.774 13.4193 188.252 13.5793 187.6 13.6978C186.948 13.8044 186.302 13.8578 185.662 13.8578H180.614V1.37778H188.151V3.20889H182.569V12.0267H185.805ZM194.994 6.85333V5.04H204.292V2.99555H194.994V1.16444H206.283V8.64889H204.292V6.85333H194.994ZM204.167 11.3156V14.9244H202.229V11.3156H199.083V14.9244H197.163V11.3156H194.141V9.48444H207.172V11.3156H204.167ZM219.063 11.1378V0.951111H220.876V11.1378H219.063ZM208.574 9.00444V1.21778H214.299V4.11556H215.881V1.02222H217.676V10.9067H215.881V5.94667H214.299V9.00444H208.574ZM210.334 2.92444V7.31556H212.539V2.92444H210.334ZM221.143 14.4978H209.303V10.1422H211.259V12.6844H221.143V14.4978ZM234.688 14.6044H232.75V8.20444H230.563V6.32H232.75V0.951111H234.688V14.6044ZM227.932 12.0089C228.537 12.0089 229.147 11.9496 229.763 11.8311C230.38 11.7126 230.889 11.5526 231.292 11.3511V13.2C230.901 13.4133 230.398 13.5793 229.781 13.6978C229.177 13.8044 228.561 13.8578 227.932 13.8578H222.937V1.37778H230.368V3.22667H224.857V6.60444H229.675V8.47111H224.857V12.0089H227.932ZM246.757 14.6044V0.951111H248.677V14.6044H246.757ZM238.988 8.45333V12.0444H242.402C243.006 12.0444 243.61 11.9852 244.215 11.8667C244.831 11.7363 245.347 11.5763 245.762 11.3867V13.2C245.37 13.4133 244.861 13.5793 244.233 13.6978C243.616 13.8044 242.982 13.8578 242.33 13.8578H237.05V6.64H242.544V3.20889H237.033V1.37778H244.446V8.45333H238.988Z" fill="white"/>
</svg>
