<svg width="169" height="15" viewBox="0 0 169 15" fill="none" xmlns="http://www.w3.org/2000/svg">
<path d="M0.501285 3.72444V2.10667H3.91462V0.702222H5.88795V2.10667H9.33684V3.72444H0.501285ZM14.1902 6.42667H12.4835V11.1733H10.5635V0.951111H12.4835V4.45333H14.1902V6.42667ZM4.91017 9.94667C3.78425 9.94667 2.85388 9.69778 2.11906 9.2C1.38425 8.70222 1.01684 8.01481 1.01684 7.13778C1.01684 6.26074 1.38425 5.57333 2.11906 5.07556C2.85388 4.57778 3.78425 4.32889 4.91017 4.32889C6.0361 4.32889 6.96647 4.57778 7.70128 5.07556C8.44795 5.57333 8.82129 6.26074 8.82129 7.13778C8.82129 8.01481 8.44795 8.70222 7.70128 9.2C6.96647 9.69778 6.0361 9.94667 4.91017 9.94667ZM4.91017 5.84C4.28203 5.84 3.77832 5.96444 3.39906 6.21333C3.03166 6.45037 2.84795 6.75852 2.84795 7.13778C2.84795 7.51704 3.03166 7.83111 3.39906 8.08C3.77832 8.31704 4.28203 8.43556 4.91017 8.43556C5.53832 8.43556 6.0361 8.31704 6.40351 8.08C6.78277 7.83111 6.9724 7.51704 6.9724 7.13778C6.9724 6.75852 6.78277 6.45037 6.40351 6.21333C6.0361 5.96444 5.53832 5.84 4.91017 5.84ZM12.7857 12.72V14.4978H1.39017V10.5867H3.34573V12.72H12.7857ZM21.0327 4.06222C20.2979 4.86815 19.4031 5.51407 18.3483 6C17.2935 6.47407 16.2031 6.72296 15.0772 6.74667V5.00444C15.9187 4.96889 16.7424 4.76148 17.5483 4.38222C18.3542 4.00296 19.0416 3.48741 19.6105 2.83556C20.1794 2.17185 20.5409 1.42519 20.695 0.595555L22.6327 0.933333C22.5261 1.52593 22.3246 2.10667 22.0283 2.67556L27.4505 5.28889L26.6861 6.83556L21.0327 4.06222ZM27.6816 9.46667H22.1172V11.6356H20.1794V9.46667H14.6505V7.77778H27.6816V9.46667ZM27.0239 12.8089V14.4978H15.4861V10.5689H17.4416V12.8089H27.0239ZM42.3464 5.94667H40.6398V11.0844H38.7198V0.951111H40.6398V3.99111H42.3464V5.94667ZM36.6042 3.19111C36.6042 4.47111 36.2842 5.54963 35.6442 6.42667C35.0161 7.29185 34.1331 7.9437 32.9953 8.38222C31.8575 8.80889 30.5361 9.02222 29.0309 9.02222V7.22667C30.7494 7.21481 32.1123 6.88296 33.1198 6.23111C34.1272 5.56741 34.6309 4.65481 34.6309 3.49333V2.97778H29.0309V1.21778H36.6042V3.19111ZM40.942 12.6844V14.4978H29.5464V10.0356H31.502V12.6844H40.942ZM55.8201 14.0178H42.789V12.1333H48.3357V9.23556H43.589V1.37778H55.0379V3.26222H45.5623V7.36889H55.1801V9.23556H50.2912V12.1333H55.8201V14.0178ZM73.4139 7.84889H60.3827V6.35556H65.9472V5.34222H61.2716V0.915555H63.1739V3.81333H72.7027V5.34222H67.8672V6.35556H73.4139V7.84889ZM72.7383 9.05778V10.4267H61.0583V9.05778H65.9294V8.29333H67.8672V9.05778H72.7383ZM66.9072 10.9244C68.6731 10.9244 69.9946 11.0785 70.8716 11.3867C71.7487 11.683 72.1872 12.157 72.1872 12.8089C72.1872 13.4726 71.7487 13.9526 70.8716 14.2489C69.9946 14.557 68.6731 14.7111 66.9072 14.7111C65.1294 14.7111 63.802 14.557 62.925 14.2489C62.0479 13.9526 61.6094 13.4726 61.6094 12.8089C61.6094 12.157 62.0479 11.683 62.925 11.3867C63.8139 11.0785 65.1413 10.9244 66.9072 10.9244ZM66.9072 13.3956C69.1353 13.3956 70.2494 13.2 70.2494 12.8089C70.2494 12.6193 69.959 12.477 69.3783 12.3822C68.7976 12.2756 67.9739 12.2222 66.9072 12.2222C65.8405 12.2222 65.0168 12.2756 64.4361 12.3822C63.8553 12.477 63.565 12.6193 63.565 12.8089C63.565 13.2 64.679 13.3956 66.9072 13.3956ZM78.8875 5.68C78.4135 6.26074 77.809 6.74074 77.0742 7.12C76.3394 7.48741 75.5275 7.70667 74.6386 7.77778V6.16C75.5275 6.04148 76.2623 5.75111 76.8431 5.28889C77.4357 4.82667 77.8149 4.24593 77.9809 3.54667H74.7809V1.98222H78.0698V0.702222H80.0075V1.98222H83.2431V3.54667H79.9542C79.8831 3.90222 79.8179 4.16296 79.7586 4.32889L83.4564 6.17778L82.7098 7.61778L78.8875 5.68ZM84.8431 7.81333V0.951111H86.7631V7.81333H84.8431ZM87.012 14.4978H75.5275V10.8178H84.8786V9.87556H75.492V8.45333H86.7631V12.1333H77.412V13.0933H87.012V14.4978ZM98.4368 5.00444C97.702 6 96.7954 6.78815 95.7168 7.36889C94.6502 7.94963 93.5302 8.24593 92.3568 8.25778V6.33778C93.2457 6.33778 94.105 6.10074 94.9346 5.62667C95.7642 5.14074 96.4635 4.47704 97.0324 3.63556C97.6013 2.78222 97.9687 1.84 98.1346 0.808888L100.108 1.12889C99.9657 1.95852 99.7168 2.73481 99.3613 3.45778L104.89 6.55111L103.966 8.24L98.4368 5.00444ZM99.5568 11.4044V14.9244H97.5835V11.4044H92.0546V9.52H105.086V11.4044H99.5568ZM117.702 5.37778C117.5 6.14815 117.056 6.76444 116.368 7.22667C115.681 7.68889 114.822 7.92 113.791 7.92C112.973 7.92 112.256 7.77778 111.639 7.49333C111.023 7.19704 110.543 6.79407 110.199 6.28444C109.868 5.76296 109.702 5.16444 109.702 4.48889C109.702 3.81333 109.868 3.22074 110.199 2.71111C110.543 2.18963 111.023 1.78667 111.639 1.50222C112.256 1.20593 112.973 1.05778 113.791 1.05778C114.798 1.05778 115.645 1.27704 116.333 1.71556C117.02 2.15407 117.471 2.74667 117.684 3.49333H120.119V0.951111H122.039V8.04444H120.119V5.37778H117.702ZM111.639 4.48889C111.639 5.03407 111.835 5.46667 112.226 5.78667C112.617 6.09481 113.139 6.24889 113.791 6.24889C114.442 6.24889 114.958 6.09481 115.337 5.78667C115.728 5.46667 115.924 5.03407 115.924 4.48889C115.924 3.9437 115.728 3.51111 115.337 3.19111C114.946 2.87111 114.431 2.71111 113.791 2.71111C113.139 2.71111 112.617 2.87111 112.226 3.19111C111.835 3.51111 111.639 3.9437 111.639 4.48889ZM119.995 12.4356C119.616 13.0637 119.154 13.5615 118.608 13.9289C118.075 14.2844 117.488 14.4741 116.848 14.4978V12.7378C117.263 12.6785 117.648 12.4652 118.004 12.0978C118.371 11.7304 118.668 11.2385 118.893 10.6222C119.13 10.0059 119.266 9.31259 119.302 8.54222L121.151 8.68444C121.091 9.56148 120.961 10.2844 120.759 10.8533L123.355 13.1822L122.182 14.5333L119.995 12.4356ZM116.386 8.59556V14.4978H110.804V8.59556H112.511V10H114.679V8.59556H116.386ZM114.679 11.4578H112.511V13.0044H114.679V11.4578ZM136.011 4.59556V6.30222H124.615V0.915555H126.553V4.59556H136.011ZM123.726 9.34222V7.61778H136.758V9.34222H123.726ZM136.118 12.7911V14.4978H124.58V10.3733H126.535V12.7911H136.118ZM153.978 9.34222H152.165V5.80444H150.458V9.2H148.662V1.02222H150.458V3.92H152.165V0.951111H153.978V9.34222ZM144.52 9.05778C143.56 9.05778 142.808 8.70222 142.262 7.99111C141.729 7.26815 141.462 6.27852 141.462 5.02222C141.462 3.76593 141.729 2.78222 142.262 2.07111C142.808 1.36 143.56 1.00444 144.52 1.00444C145.492 1.00444 146.245 1.36 146.778 2.07111C147.323 2.78222 147.596 3.76593 147.596 5.02222C147.596 6.27852 147.323 7.26815 146.778 7.99111C146.245 8.70222 145.492 9.05778 144.52 9.05778ZM144.52 2.67556C144.105 2.67556 143.785 2.87704 143.56 3.28C143.347 3.67111 143.24 4.25185 143.24 5.02222C143.24 5.79259 143.347 6.37926 143.56 6.78222C143.785 7.18518 144.105 7.38667 144.52 7.38667C144.947 7.38667 145.267 7.18518 145.48 6.78222C145.694 6.37926 145.8 5.79259 145.8 5.02222C145.8 3.45778 145.374 2.67556 144.52 2.67556ZM153.978 9.98222V14.6756H152.094V11.7244H142.458V9.98222H153.978ZM163.381 6.76444V5.09333H165.887V3.79556H163.381V2.12444H165.887V0.951111H167.789V11.0844H165.887V6.76444H163.381ZM159.701 6.28444C159.191 7.16148 158.569 7.87259 157.834 8.41778C157.111 8.96296 156.305 9.28296 155.416 9.37778V7.49333C156.151 7.37481 156.791 7.00741 157.336 6.39111C157.893 5.77481 158.32 4.99852 158.616 4.06222C158.924 3.11407 159.084 2.10667 159.096 1.04L161.034 1.16444C161.034 2.36148 160.85 3.51111 160.483 4.61333L164.341 7.90222L163.132 9.28889L159.701 6.28444ZM168.021 14.4978H156.518V10.0533H158.474V12.6844H168.021V14.4978Z" fill="white"/>
</svg>
