<svg width="198" height="15" viewBox="0 0 198 15" fill="none" xmlns="http://www.w3.org/2000/svg">
<path d="M3.57205 3.26222V7.72444H7.10983V9.59111H1.6876V1.37778H7.09205V3.26222H3.57205ZM9.6876 3.26222V7.72444H13.3676V9.59111H7.78538V1.37778H13.2432V3.26222H9.6876ZM0.976493 14.0178V12.1333H14.0076V14.0178H0.976493ZM27.4457 8.04444H25.5257V5.57333H22.2191C21.1168 7.12593 18.8531 7.90222 15.428 7.90222V6.19556C17.1939 6.1837 18.5687 5.92889 19.5524 5.43111C20.548 4.93333 21.0457 4.19852 21.0457 3.22667V2.90667H15.428V1.21778H23.0191V2.85333C23.0191 3.13778 22.9894 3.42815 22.9302 3.72444H25.5257V0.951111H27.4457V8.04444ZM27.4457 8.59556V14.4978H16.1746V8.59556H18.0591V9.84H25.5435V8.59556H27.4457ZM25.5435 11.44H18.0591V12.88H25.5435V11.44ZM29.8972 3.24444V1.37778H41.3639V10.3733H39.355V3.24444H29.8972ZM42.1639 14.0178H29.1327V12.1333H33.7372V6.32H35.7283V12.1333H42.1639V14.0178ZM51.1709 6.85333C50.6969 7.58815 50.0924 8.18074 49.3576 8.63111C48.6346 9.06963 47.8169 9.32444 46.9043 9.39556V7.61778C47.8287 7.49926 48.5813 7.11407 49.162 6.46222C49.7546 5.81037 50.1161 4.98074 50.2465 3.97333H47.0465V2.26667H50.2465V0.702222H52.202V2.26667H55.3843V3.97333H52.202C52.1665 4.44741 52.0895 4.88593 51.9709 5.28889L55.6865 7.77778L54.7443 9.28889L51.1709 6.85333ZM60.362 6.26667H58.6554V11.12H56.7354V0.951111H58.6554V4.31111H60.362V6.26667ZM58.9576 12.7022V14.4978H47.562V10.3733H49.5176V12.7022H58.9576ZM74.4402 6.26667H72.7335V11.12H70.8135V0.951111H72.7335V4.31111H74.4402V6.26667ZM66.9202 2.83556H61.178V1.21778H68.8224V6.03556H63.1157V7.72444H66.3513C67.1217 7.72444 67.8268 7.67704 68.4668 7.58222C69.1068 7.48741 69.6224 7.35111 70.0135 7.17333V8.77333C69.6342 8.95111 69.1068 9.09333 68.4313 9.2C67.7676 9.29481 67.0387 9.34222 66.2446 9.34222H61.1957V4.50667H66.9202V2.83556ZM73.0357 12.7022V14.4978H61.6402V10.4267H63.5957V12.7022H73.0357ZM74.8294 3.72444V2.10667H78.2427V0.702222H80.2161V2.10667H83.665V3.72444H74.8294ZM88.5183 6.42667H86.8116V11.1733H84.8916V0.951111H86.8116V4.45333H88.5183V6.42667ZM79.2383 9.94667C78.1124 9.94667 77.182 9.69778 76.4472 9.2C75.7124 8.70222 75.345 8.01481 75.345 7.13778C75.345 6.26074 75.7124 5.57333 76.4472 5.07556C77.182 4.57778 78.1124 4.32889 79.2383 4.32889C80.3642 4.32889 81.2946 4.57778 82.0294 5.07556C82.7761 5.57333 83.1494 6.26074 83.1494 7.13778C83.1494 8.01481 82.7761 8.70222 82.0294 9.2C81.2946 9.69778 80.3642 9.94667 79.2383 9.94667ZM79.2383 5.84C78.6102 5.84 78.1064 5.96444 77.7272 6.21333C77.3598 6.45037 77.1761 6.75852 77.1761 7.13778C77.1761 7.51704 77.3598 7.83111 77.7272 8.08C78.1064 8.31704 78.6102 8.43556 79.2383 8.43556C79.8664 8.43556 80.3642 8.31704 80.7316 8.08C81.1109 7.83111 81.3005 7.51704 81.3005 7.13778C81.3005 6.75852 81.1109 6.45037 80.7316 6.21333C80.3642 5.96444 79.8664 5.84 79.2383 5.84ZM87.1139 12.72V14.4978H75.7183V10.5867H77.6739V12.72H87.1139ZM96.9209 6.37333C96.435 7.07259 95.8306 7.64148 95.1076 8.08C94.3965 8.51852 93.6083 8.77926 92.7432 8.86222V7.12C93.6202 7.01333 94.3432 6.65778 94.912 6.05333C95.4928 5.43704 95.8661 4.68444 96.032 3.79556H92.8676V2.12444H96.0854V0.702222H98.0409V2.12444H101.223V3.79556H98.0054C97.9106 4.29333 97.8217 4.65481 97.7387 4.88L101.49 7.26222L100.619 8.73778L96.9209 6.37333ZM102.948 0.951111H104.868V9.07556H102.948V5.78667H100.761V3.97333H102.948V0.951111ZM99.2498 9.41333C101.004 9.41333 102.402 9.62074 103.445 10.0356C104.488 10.4504 105.01 11.12 105.01 12.0444C105.01 12.9689 104.488 13.6385 103.445 14.0533C102.402 14.4681 101.004 14.6756 99.2498 14.6756C97.4958 14.6756 96.0972 14.4681 95.0543 14.0533C94.0232 13.6385 93.5076 12.9689 93.5076 12.0444C93.5076 11.12 94.0232 10.4504 95.0543 10.0356C96.0972 9.62074 97.4958 9.41333 99.2498 9.41333ZM99.2498 13.0933C100.376 13.0933 101.271 13.0104 101.934 12.8444C102.61 12.6785 102.948 12.4119 102.948 12.0444C102.948 11.677 102.61 11.4104 101.934 11.2444C101.259 11.0667 100.364 10.9778 99.2498 10.9778C98.1358 10.9778 97.2409 11.0667 96.5654 11.2444C95.8898 11.4104 95.552 11.677 95.552 12.0444C95.552 12.4119 95.8839 12.6785 96.5476 12.8444C97.2232 13.0104 98.1239 13.0933 99.2498 13.0933ZM112.652 5.44889C111.977 5.98222 111.141 6.40296 110.146 6.71111C109.15 7.01926 108.119 7.18518 107.052 7.20889V5.57333C108.143 5.54963 109.174 5.34222 110.146 4.95111C111.129 4.56 111.787 4.03852 112.119 3.38667H107.284V1.78667H112.119V0.4H114.057V1.78667H118.857V3.38667H114.217C114.169 3.65926 114.069 3.90815 113.915 4.13333L119.177 5.64444L118.679 7.20889L112.652 5.44889ZM119.586 9.71556H114.039V11.6533H112.101V9.71556H106.555V8.04444H119.586V9.71556ZM118.946 12.8267V14.4978H107.408V10.7644H109.364V12.8267H118.946ZM131.051 14.6044V0.951111H132.971V14.6044H131.051ZM125.113 1.16444C125.895 1.16444 126.594 1.34815 127.211 1.71556C127.827 2.08296 128.307 2.59852 128.651 3.26222C128.994 3.91407 129.166 4.66074 129.166 5.50222C129.166 6.35556 128.994 7.11407 128.651 7.77778C128.307 8.42963 127.827 8.93926 127.211 9.30667C126.594 9.67407 125.895 9.85778 125.113 9.85778C124.331 9.85778 123.625 9.67407 122.997 9.30667C122.381 8.93926 121.901 8.42963 121.557 7.77778C121.213 7.11407 121.042 6.35556 121.042 5.50222C121.042 4.64889 121.213 3.8963 121.557 3.24444C121.901 2.59259 122.381 2.08296 122.997 1.71556C123.625 1.34815 124.331 1.16444 125.113 1.16444ZM125.113 2.97778C124.449 2.97778 123.916 3.22074 123.513 3.70667C123.11 4.18074 122.908 4.77926 122.908 5.50222C122.908 6.24889 123.11 6.85926 123.513 7.33333C123.916 7.80741 124.449 8.04444 125.113 8.04444C125.776 8.04444 126.31 7.80741 126.713 7.33333C127.116 6.84741 127.317 6.23704 127.317 5.50222C127.317 4.77926 127.11 4.18074 126.695 3.70667C126.292 3.22074 125.765 2.97778 125.113 2.97778ZM130.091 13.2356C129.676 13.437 129.113 13.5911 128.402 13.6978C127.691 13.8044 126.92 13.8578 126.091 13.8578H120.633V11.9733H126.197C127.003 11.9733 127.75 11.9259 128.437 11.8311C129.125 11.7244 129.676 11.5704 130.091 11.3689V13.2356ZM151.258 14.0178H138.226V12.1333H143.773V9.27111H139.026V1.37778H150.458V9.27111H145.711V12.1333H151.258V14.0178ZM148.538 7.38667V3.26222H140.964V7.38667H148.538ZM155.131 2.69333V4.98667H164.625V6.62222H153.194V1.05778H164.482V2.69333H155.131ZM152.305 9.53778V7.84889H165.336V9.53778H152.305ZM164.696 12.7911V14.4978H153.158V10.4978H155.114V12.7911H164.696ZM176.298 4.06222C175.564 4.86815 174.669 5.51407 173.614 6C172.559 6.47407 171.469 6.72296 170.343 6.74667V5.00444C171.184 4.96889 172.008 4.76148 172.814 4.38222C173.62 4.00296 174.307 3.48741 174.876 2.83556C175.445 2.17185 175.807 1.42519 175.961 0.595555L177.898 0.933333C177.792 1.52593 177.59 2.10667 177.294 2.67556L182.716 5.28889L181.952 6.83556L176.298 4.06222ZM182.947 9.46667H177.383V11.6356H175.445V9.46667H169.916V7.77778H182.947V9.46667ZM182.289 12.8089V14.4978H170.752V10.5689H172.707V12.8089H182.289ZM197.612 5.94667H195.905V11.0844H193.985V0.951111H195.905V3.99111H197.612V5.94667ZM191.87 3.19111C191.87 4.47111 191.55 5.54963 190.91 6.42667C190.282 7.29185 189.399 7.9437 188.261 8.38222C187.123 8.80889 185.802 9.02222 184.296 9.02222V7.22667C186.015 7.21481 187.378 6.88296 188.385 6.23111C189.393 5.56741 189.896 4.65481 189.896 3.49333V2.97778H184.296V1.21778H191.87V3.19111ZM196.208 12.6844V14.4978H184.812V10.0356H186.768V12.6844H196.208Z" fill="white"/>
</svg>
