<svg width="168" height="15" viewBox="0 0 168 15" fill="none" xmlns="http://www.w3.org/2000/svg">
<path d="M10.2025 8.20444V0.951111H12.1225V8.20444H10.2025ZM5.72247 5.91111C6.48098 5.91111 7.18617 5.8637 7.83802 5.76889C8.48987 5.66222 9.00543 5.52 9.38469 5.34222V7.06667C9.00543 7.24444 8.48987 7.38667 7.83802 7.49333C7.19802 7.58815 6.48098 7.63556 5.68691 7.63556H0.353576V1.12889H2.29135V5.91111H5.72247ZM0.869132 14.4978V8.89778H12.1225V14.4978H0.869132ZM10.2025 10.6044H2.78913V12.7911H10.2025V10.6044ZM20.4228 0.826666C22.1769 0.826666 23.5754 1.02815 24.6184 1.43111C25.6613 1.82222 26.1828 2.4563 26.1828 3.33333C26.1828 4.21037 25.6613 4.85037 24.6184 5.25333C23.5754 5.6563 22.1769 5.85778 20.4228 5.85778C18.6687 5.85778 17.2643 5.6563 16.2095 5.25333C15.1547 4.85037 14.6273 4.21037 14.6273 3.33333C14.6273 2.4563 15.1487 1.82222 16.1917 1.43111C17.2465 1.02815 18.6569 0.826666 20.4228 0.826666ZM20.4228 2.32C19.285 2.32 18.3724 2.40296 17.685 2.56889C17.0095 2.73481 16.6717 2.98963 16.6717 3.33333C16.6717 3.68889 17.0095 3.94963 17.685 4.11556C18.3724 4.28148 19.285 4.36444 20.4228 4.36444C21.5606 4.36444 22.4673 4.28148 23.1428 4.11556C23.8184 3.94963 24.1561 3.68889 24.1561 3.33333C24.1561 2.98963 23.8184 2.73481 23.1428 2.56889C22.4673 2.40296 21.5606 2.32 20.4228 2.32ZM13.8984 8.08V6.55111H26.9295V8.08H13.8984ZM16.6539 12.2756V13.1289H26.2895V14.4978H14.7517V11.1378H24.2095V10.3022H14.7161V8.96889H26.1117V12.2756H16.6539ZM43.8299 14.6044H41.9099V0.951111H43.8299V14.6044ZM35.9721 8.24C35.2136 8.24 34.538 8.09185 33.9455 7.79556C33.3647 7.48741 32.9084 7.06667 32.5766 6.53333C32.2447 5.98815 32.0788 5.37185 32.0788 4.68444C32.0788 3.99704 32.2447 3.38667 32.5766 2.85333C32.9084 2.30815 33.3647 1.88741 33.9455 1.59111C34.538 1.28296 35.2136 1.12889 35.9721 1.12889C36.7188 1.12889 37.3825 1.28296 37.9632 1.59111C38.5558 1.88741 39.018 2.30815 39.3499 2.85333C39.6817 3.38667 39.8477 3.99704 39.8477 4.68444C39.8477 5.37185 39.6817 5.98815 39.3499 6.53333C39.018 7.06667 38.5558 7.48741 37.9632 7.79556C37.3825 8.09185 36.7188 8.24 35.9721 8.24ZM35.9721 2.78222C35.3558 2.78222 34.858 2.96593 34.4788 3.33333C34.1114 3.68889 33.9277 4.13926 33.9277 4.68444C33.9277 5.22963 34.1114 5.68593 34.4788 6.05333C34.858 6.40889 35.3558 6.58667 35.9721 6.58667C36.5766 6.58667 37.0684 6.40889 37.4477 6.05333C37.8269 5.68593 38.0166 5.22963 38.0166 4.68444C38.0166 4.13926 37.8269 3.68889 37.4477 3.33333C37.0684 2.96593 36.5766 2.78222 35.9721 2.78222ZM37.0566 9.30667C38.8699 9.30667 40.1677 9.13481 40.9499 8.79111V10.6222C40.1321 10.9659 38.8284 11.1378 37.0388 11.1378H36.9143V14.6044H34.9943V11.1378H31.4921V9.30667H37.0566ZM52.2191 2.88889V4.72H45.2858V2.88889H47.8102V0.915555H49.7125V2.88889H52.2191ZM58.228 14.6044H56.4502V8.16889H54.7791V14.3733H53.0191V1.02222H54.7791V6.26667H56.4502V0.951111H58.228V14.6044ZM48.8236 5.57333C49.7362 5.57333 50.4769 5.94074 51.0458 6.67556C51.6147 7.41037 51.8991 8.45333 51.8991 9.80444C51.8991 11.1437 51.6147 12.1807 51.0458 12.9156C50.4769 13.6504 49.7362 14.0178 48.8236 14.0178C47.8991 14.0178 47.1525 13.6563 46.5836 12.9333C46.0265 12.1985 45.748 11.1556 45.748 9.80444C45.748 8.45333 46.0265 7.41037 46.5836 6.67556C47.1525 5.94074 47.8991 5.57333 48.8236 5.57333ZM48.8236 12.2756C49.2147 12.2756 49.5347 12.0563 49.7836 11.6178C50.0325 11.1793 50.1569 10.5748 50.1569 9.80444C50.1569 9.03407 50.0325 8.42963 49.7836 7.99111C49.5347 7.55259 49.2147 7.33333 48.8236 7.33333C48.4206 7.33333 48.0947 7.55259 47.8458 7.99111C47.6088 8.42963 47.4902 9.03407 47.4902 9.80444C47.4902 10.5748 47.6088 11.1793 47.8458 11.6178C48.0947 12.0563 48.4206 12.2756 48.8236 12.2756ZM75.5551 8.36444H73.6351V5.44889H71.2351C71.0455 6.25481 70.601 6.89481 69.9018 7.36889C69.2144 7.84296 68.3492 8.08 67.3062 8.08C66.4884 8.08 65.7714 7.93185 65.1551 7.63556C64.5507 7.33926 64.0766 6.92444 63.7329 6.39111C63.401 5.85778 63.2351 5.24741 63.2351 4.56C63.2351 3.87259 63.401 3.26815 63.7329 2.74667C64.0766 2.21333 64.5566 1.79852 65.1729 1.50222C65.7892 1.20593 66.5003 1.05778 67.3062 1.05778C68.3136 1.05778 69.167 1.28296 69.8662 1.73333C70.5655 2.1837 71.0158 2.79407 71.2173 3.56444H73.6351V0.951111H75.5551V8.36444ZM67.3062 6.40889C67.9462 6.40889 68.4618 6.24296 68.8529 5.91111C69.2558 5.57926 69.4573 5.12889 69.4573 4.56C69.4573 3.99111 69.2558 3.54074 68.8529 3.20889C68.4618 2.87704 67.9462 2.71111 67.3062 2.71111C66.6544 2.71111 66.1329 2.87704 65.7418 3.20889C65.3507 3.54074 65.1551 3.99111 65.1551 4.56C65.1551 5.12889 65.3507 5.57926 65.7418 5.91111C66.1329 6.24296 66.6544 6.40889 67.3062 6.40889ZM75.5551 9.00444V14.4978H64.444V9.00444H75.5551ZM73.6351 12.8089V10.6933H66.364V12.8089H73.6351ZM84.8866 5.07556V3.22667H87.7132V0.951111H89.6332V11.0844H87.7132V5.07556H84.8866ZM81.6155 6.17778C81.1058 7.04296 80.4777 7.74815 79.731 8.29333C78.9843 8.82667 78.1606 9.14667 77.2599 9.25333V7.36889C77.9947 7.23852 78.6406 6.87704 79.1977 6.28444C79.7547 5.69185 80.1873 4.93926 80.4955 4.02667C80.8036 3.10222 80.9636 2.10667 80.9755 1.04L82.9132 1.16444C82.9132 2.36148 82.7355 3.46963 82.3799 4.48889L86.2377 7.76L85.0466 9.14667L81.6155 6.17778ZM89.8643 14.4978H78.3621V9.98222H80.3177V12.6844H89.8643V14.4978ZM91.2669 3.72444V2.10667H94.6802V0.702222H96.6536V2.10667H100.102V3.72444H91.2669ZM104.956 6.42667H103.249V11.1733H101.329V0.951111H103.249V4.45333H104.956V6.42667ZM95.6758 9.94667C94.5499 9.94667 93.6195 9.69778 92.8847 9.2C92.1499 8.70222 91.7825 8.01481 91.7825 7.13778C91.7825 6.26074 92.1499 5.57333 92.8847 5.07556C93.6195 4.57778 94.5499 4.32889 95.6758 4.32889C96.8017 4.32889 97.7321 4.57778 98.4669 5.07556C99.2136 5.57333 99.5869 6.26074 99.5869 7.13778C99.5869 8.01481 99.2136 8.70222 98.4669 9.2C97.7321 9.69778 96.8017 9.94667 95.6758 9.94667ZM95.6758 5.84C95.0477 5.84 94.5439 5.96444 94.1647 6.21333C93.7973 6.45037 93.6136 6.75852 93.6136 7.13778C93.6136 7.51704 93.7973 7.83111 94.1647 8.08C94.5439 8.31704 95.0477 8.43556 95.6758 8.43556C96.3039 8.43556 96.8017 8.31704 97.1691 8.08C97.5484 7.83111 97.738 7.51704 97.738 7.13778C97.738 6.75852 97.5484 6.45037 97.1691 6.21333C96.8017 5.96444 96.3039 5.84 95.6758 5.84ZM103.551 12.72V14.4978H92.1558V10.5867H94.1114V12.72H103.551Z" fill="#F2F2F2"/>
<path d="M108.203 3.29778V1.55556H118.141V3.29778H114.176V14H112.167V3.29778H108.203ZM124.43 14.16C123.221 14.16 122.131 13.8874 121.159 13.3422C120.199 12.7852 119.447 12.0207 118.901 11.0489C118.356 10.077 118.084 8.98667 118.084 7.77778C118.084 6.56889 118.356 5.47852 118.901 4.50667C119.447 3.53481 120.199 2.7763 121.159 2.23111C122.131 1.67407 123.221 1.39556 124.43 1.39556C125.627 1.39556 126.706 1.67407 127.666 2.23111C128.638 2.7763 129.396 3.53481 129.941 4.50667C130.499 5.47852 130.777 6.56889 130.777 7.77778C130.777 8.98667 130.499 10.077 129.941 11.0489C129.396 12.0207 128.638 12.7852 127.666 13.3422C126.706 13.8874 125.627 14.16 124.43 14.16ZM124.43 12.3467C125.236 12.3467 125.965 12.1511 126.617 11.76C127.281 11.3689 127.796 10.8296 128.164 10.1422C128.543 9.44296 128.733 8.65481 128.733 7.77778C128.733 6.90074 128.543 6.11852 128.164 5.43111C127.796 4.73185 127.281 4.18667 126.617 3.79556C125.965 3.40444 125.236 3.20889 124.43 3.20889C123.613 3.20889 122.872 3.40444 122.208 3.79556C121.556 4.18667 121.041 4.73185 120.661 5.43111C120.294 6.11852 120.11 6.90074 120.11 7.77778C120.11 8.65481 120.294 9.44296 120.661 10.1422C121.041 10.8296 121.556 11.3689 122.208 11.76C122.872 12.1511 123.613 12.3467 124.43 12.3467ZM137.282 1.55556C138.823 1.55556 140.038 1.94667 140.927 2.72889C141.828 3.51111 142.278 4.5837 142.278 5.94667C142.278 6.84741 142.076 7.62963 141.673 8.29333C141.27 8.94519 140.69 9.44889 139.931 9.80444C139.185 10.1481 138.302 10.32 137.282 10.32H134.527V14H132.5V1.55556H137.282ZM137.193 8.57778C138.177 8.57778 138.93 8.34667 139.451 7.88444C139.973 7.42222 140.233 6.7763 140.233 5.94667C140.233 5.10519 139.973 4.45333 139.451 3.99111C138.93 3.52889 138.177 3.29778 137.193 3.29778H134.527V8.57778H137.193ZM153.303 14H151.187V3.28H148.485V1.55556H153.303V14ZM162.357 14.16C161.361 14.16 160.472 13.9052 159.69 13.3956C158.908 12.8859 158.298 12.1511 157.859 11.1911C157.42 10.2311 157.201 9.09333 157.201 7.77778C157.201 6.46222 157.42 5.32444 157.859 4.36444C158.298 3.40444 158.908 2.66963 159.69 2.16C160.472 1.65037 161.361 1.39556 162.357 1.39556C163.364 1.39556 164.253 1.65037 165.023 2.16C165.806 2.66963 166.416 3.40444 166.855 4.36444C167.293 5.32444 167.512 6.46222 167.512 7.77778C167.512 9.09333 167.293 10.2311 166.855 11.1911C166.416 12.1511 165.806 12.8859 165.023 13.3956C164.253 13.9052 163.364 14.16 162.357 14.16ZM162.357 12.3644C163.281 12.3644 164.016 11.9733 164.561 11.1911C165.106 10.4089 165.379 9.27111 165.379 7.77778C165.379 6.28444 165.106 5.14667 164.561 4.36444C164.016 3.58222 163.281 3.19111 162.357 3.19111C161.432 3.19111 160.698 3.58222 160.152 4.36444C159.619 5.14667 159.352 6.28444 159.352 7.77778C159.352 9.27111 159.619 10.4089 160.152 11.1911C160.698 11.9733 161.432 12.3644 162.357 12.3644Z" fill="#922DFF"/>
</svg>
