<svg width="179" height="15" viewBox="0 0 179 15" fill="none" xmlns="http://www.w3.org/2000/svg">
<path d="M12.1645 14.6044H10.2445V8.31111H8.04004C7.95707 10.2074 7.57189 11.6356 6.88448 12.5956C6.19707 13.5556 5.27855 14.0356 4.12892 14.0356C2.92003 14.0356 1.96003 13.5022 1.24892 12.4356C0.549664 11.357 0.200035 9.75111 0.200035 7.61778C0.200035 5.48444 0.549664 3.88444 1.24892 2.81778C1.96003 1.73926 2.92003 1.2 4.12892 1.2C5.21929 1.2 6.10818 1.63852 6.79559 2.51556C7.483 3.38074 7.89189 4.67852 8.02226 6.40889H10.2445V0.951111H12.1645V14.6044ZM4.12892 12.1689C4.74522 12.1689 5.23707 11.8015 5.60448 11.0667C5.97189 10.3319 6.15559 9.18222 6.15559 7.61778C6.15559 6.04148 5.97189 4.89185 5.60448 4.16889C5.23707 3.43407 4.74522 3.06667 4.12892 3.06667C3.51263 3.06667 3.02078 3.43407 2.65337 4.16889C2.29781 4.89185 2.12003 6.04148 2.12003 7.61778C2.12003 9.19407 2.29781 10.3496 2.65337 11.0844C3.02078 11.8074 3.51263 12.1689 4.12892 12.1689ZM26.0648 7.38667V9.28889H14.6515V1.23556H16.6248V7.38667H26.0648ZM13.8515 14.0178V12.1333H26.8826V14.0178H13.8515ZM40.5874 14.6044H38.7741V8.16889H36.9607V14.3733H35.1474V1.02222H36.9607V6.26667H38.7741V0.951111H40.5874V14.6044ZM32.4096 1.32444C32.4096 3.55259 32.3148 5.35407 32.1252 6.72889L35.2185 12.7911L33.6007 13.6622L31.5563 9.55556C31.2126 10.8593 30.7444 11.8667 30.1518 12.5778C29.5711 13.2889 28.8541 13.7156 28.0007 13.8578V11.8133C29.7074 11.3274 30.5726 7.80741 30.5963 1.25333L32.4096 1.32444ZM57.7545 8.22222V14.6044H56.1011V0.951111H57.7545V6.26667H59.1589V8.22222H57.7545ZM50.11 1.32444V13.8578H45.8078V1.32444H47.3367V5.84H48.6523V1.32444H50.11ZM55.0167 1.32444V13.8578H50.7323V1.32444H52.1723V5.84H53.4878V1.32444H55.0167ZM48.6523 7.6H47.3367V12.0978H48.6523V7.6ZM53.4878 7.6H52.1723V12.0978H53.4878V7.6ZM71.9926 14.6044H70.0726V9.76889H67.7793V7.90222H70.0726V6.26667H67.7793V4.4H70.0726V0.951111H71.9926V14.6044ZM65.1837 3.22667C65.1482 4.61333 65.0296 5.91704 64.8282 7.13778L68.8993 12.5956L67.3348 13.7511L64.1882 9.41333C63.7141 10.7763 63.0978 11.837 62.3393 12.5956C61.5808 13.3541 60.7156 13.7748 59.7437 13.8578V11.8311C60.443 11.7126 61.0533 11.28 61.5748 10.5333C62.0963 9.77481 62.4993 8.76741 62.7837 7.51111C63.0682 6.25481 63.2163 4.82667 63.2282 3.22667H60.0637V1.37778H68.2593V3.22667H65.1837ZM76.453 3.26222V7.72444H86.0707V9.59111H74.4796V1.37778H85.9285V3.26222H76.453ZM73.6796 14.0178V12.1333H86.7107V14.0178H73.6796ZM100.042 4.59556V6.30222H88.6466V0.915555H90.5844V4.59556H100.042ZM87.7577 9.34222V7.61778H100.789V9.34222H87.7577ZM100.149 12.7911V14.4978H88.6111V10.3733H90.5666V12.7911H100.149ZM118.383 8.13333H105.351V6.62222H110.916V5.62667H106.24V1.05778H117.511V5.62667H112.836V6.62222H118.383V8.13333ZM115.609 4.13333V2.53333H108.143V4.13333H115.609ZM117.743 13.1644V14.4978H106.205V11.1556H115.663V10.3022H106.169V8.96889H117.565V12.2933H108.107V13.1644H117.743ZM131.732 8.04444H129.812V0.951111H131.732V8.04444ZM127.803 4.48889C127.803 5.1763 127.631 5.78074 127.287 6.30222C126.956 6.8237 126.476 7.22667 125.847 7.51111C125.231 7.79556 124.508 7.93778 123.679 7.93778C122.861 7.93778 122.138 7.79556 121.51 7.51111C120.893 7.21481 120.413 6.80593 120.07 6.28444C119.726 5.76296 119.554 5.16444 119.554 4.48889C119.554 3.81333 119.726 3.21481 120.07 2.69333C120.413 2.17185 120.893 1.76889 121.51 1.48444C122.138 1.18815 122.861 1.04 123.679 1.04C124.508 1.04 125.231 1.18222 125.847 1.46667C126.476 1.75111 126.956 2.15407 127.287 2.67556C127.631 3.19704 127.803 3.80148 127.803 4.48889ZM121.474 4.48889C121.474 5.04593 121.676 5.48444 122.079 5.80444C122.481 6.12444 123.015 6.28444 123.679 6.28444C124.354 6.28444 124.893 6.12444 125.296 5.80444C125.699 5.48444 125.901 5.04593 125.901 4.48889C125.901 3.93185 125.699 3.49333 125.296 3.17333C124.893 2.84148 124.354 2.67556 123.679 2.67556C123.015 2.67556 122.481 2.84148 122.079 3.17333C121.676 3.49333 121.474 3.93185 121.474 4.48889ZM131.732 8.59556V14.4978H120.639V8.59556H122.523V9.84H129.847V8.59556H131.732ZM129.847 11.44H122.523V12.88H129.847V11.44ZM139.797 3.26222V7.72444H149.414V9.59111H137.823V1.37778H149.272V3.26222H139.797ZM137.023 14.0178V12.1333H150.054V14.0178H137.023ZM163.03 8.22222V14.6044H161.11V0.951111H163.03V6.26667H164.737V8.22222H163.03ZM156.844 12.0444C157.46 12.0444 158.076 11.9852 158.693 11.8667C159.309 11.7481 159.813 11.5881 160.204 11.3867V13.2C159.813 13.4015 159.303 13.5615 158.675 13.68C158.047 13.7985 157.413 13.8578 156.773 13.8578H151.653V6.64H156.986V3.20889H151.617V1.37778H158.906V8.45333H153.555V12.0444H156.844ZM177.109 8.22222V14.6044H175.189V0.951111H177.109V6.26667H178.815V8.22222H177.109ZM173.091 1.37778V13.8578H165.731V1.37778H173.091ZM171.153 11.9733V3.26222H167.651V11.9733H171.153Z" fill="white"/>
</svg>
