<svg width="201" height="17" viewBox="0 0 201 17" fill="none" xmlns="http://www.w3.org/2000/svg">
<path d="M14.4949 5.62667H12.8238V9.09333H10.9038V0.951111H12.8238V3.76H14.4949V5.62667ZM1.44597 2.78222V1.11111H8.87708V5.87556H6.97486V2.78222H1.44597ZM9.96153 7.84889C9.20301 8.20444 7.88153 8.38222 5.99708 8.38222H0.859306V6.76444H3.11708V4.16889H5.01931V6.76444H6.06819C7.86968 6.76444 9.16745 6.58667 9.96153 6.23111V7.84889ZM7.29486 9.28889C9.07264 9.28889 10.4712 9.51407 11.4904 9.96444C12.5097 10.403 13.0193 11.0785 13.0193 11.9911C13.0193 12.9037 12.5097 13.5793 11.4904 14.0178C10.4712 14.4681 9.07264 14.6933 7.29486 14.6933C5.51708 14.6933 4.11856 14.4681 3.09931 14.0178C2.0919 13.5793 1.58819 12.9037 1.58819 11.9911C1.58819 11.0785 2.0919 10.403 3.09931 9.96444C4.11856 9.51407 5.51708 9.28889 7.29486 9.28889ZM7.29486 13.1822C8.45634 13.1822 9.36301 13.0874 10.0149 12.8978C10.6667 12.6963 10.9926 12.3941 10.9926 11.9911C10.9926 11.6 10.6667 11.3096 10.0149 11.12C9.36301 10.9185 8.45634 10.8178 7.29486 10.8178C6.14523 10.8178 5.23856 10.9185 4.57486 11.12C3.92301 11.3096 3.59708 11.6 3.59708 11.9911C3.59708 12.3941 3.92301 12.6963 4.57486 12.8978C5.22671 13.0874 6.13338 13.1822 7.29486 13.1822ZM14.9552 2.85333V1.55556H18.2797V0.542222H20.253V1.55556H23.6308V2.85333H14.9552ZM28.573 5.36H26.9019V8.96889H24.9819V0.951111H26.9019V3.51111H28.573V5.36ZM24.0397 8.36444C23.6367 8.53037 23.0856 8.66074 22.3863 8.75556C21.6871 8.83852 20.9167 8.88 20.0752 8.88H14.9374V7.58222H18.3152V6.88889C17.4382 6.81778 16.7508 6.62815 16.253 6.32C15.7552 6.01185 15.5063 5.60889 15.5063 5.11111C15.5063 4.53037 15.8441 4.08 16.5197 3.76C17.2071 3.44 18.1315 3.28 19.293 3.28C20.4426 3.28 21.3552 3.44 22.0308 3.76C22.7182 4.08 23.0619 4.53037 23.0619 5.11111C23.0619 5.60889 22.8071 6.01185 22.2974 6.32C21.7997 6.62815 21.1122 6.8237 20.2352 6.90667V7.58222C22.0011 7.58222 23.2693 7.41037 24.0397 7.06667V8.36444ZM17.3019 5.11111C17.3019 5.28889 17.4797 5.43704 17.8352 5.55556C18.1908 5.67407 18.6767 5.73333 19.293 5.73333C19.9093 5.73333 20.3952 5.67407 20.7508 5.55556C21.1063 5.43704 21.2841 5.28889 21.2841 5.11111C21.2841 4.92148 21.1063 4.77333 20.7508 4.66667C20.4071 4.56 19.9211 4.50667 19.293 4.50667C18.6648 4.50667 18.173 4.56 17.8174 4.66667C17.4737 4.77333 17.3019 4.92148 17.3019 5.11111ZM27.1685 13.3244V14.4978H15.8263V11.5111H25.0174V10.7644H15.7908V9.60889H26.9019V12.56H17.7285V13.3244H27.1685ZM28.9622 3.49333V1.96444H32.3756V0.702222H34.3489V1.96444H37.7978V3.49333H28.9622ZM40.9444 5.94667V9.07556H39.0244V0.951111H40.9444V4.04444H42.6511V5.94667H40.9444ZM33.3711 9.02222C32.257 9.02222 31.3326 8.80296 30.5978 8.36444C29.863 7.92593 29.4956 7.32741 29.4956 6.56889C29.4956 5.78667 29.863 5.17037 30.5978 4.72C31.3326 4.26963 32.257 4.04444 33.3711 4.04444C34.4852 4.04444 35.4096 4.26963 36.1444 4.72C36.8793 5.17037 37.2467 5.78667 37.2467 6.56889C37.2467 7.32741 36.8793 7.92593 36.1444 8.36444C35.4096 8.80296 34.4852 9.02222 33.3711 9.02222ZM33.3711 5.50222C32.7548 5.50222 32.257 5.60296 31.8778 5.80444C31.5104 5.99407 31.3267 6.24889 31.3267 6.56889C31.3267 6.86519 31.5104 7.10815 31.8778 7.29778C32.257 7.48741 32.7548 7.58222 33.3711 7.58222C33.9874 7.58222 34.4793 7.48741 34.8467 7.29778C35.2259 7.10815 35.4156 6.86519 35.4156 6.56889C35.4156 6.24889 35.2259 5.99407 34.8467 5.80444C34.4793 5.60296 33.9874 5.50222 33.3711 5.50222ZM40.9444 9.71556V14.4978H29.8511V9.71556H40.9444ZM39.06 12.9156V11.2978H31.7711V12.9156H39.06ZM44.7115 11.4222C45.1026 11.4222 45.4226 11.5526 45.6715 11.8133C45.9203 12.0622 46.0448 12.3763 46.0448 12.7556C46.0448 12.9452 46.0211 13.1348 45.9737 13.3244C45.9263 13.5022 45.8315 13.7807 45.6892 14.16L44.8003 16.6667H43.467L44.1781 13.9644C43.9292 13.8696 43.7278 13.7156 43.5737 13.5022C43.4315 13.2889 43.3603 13.04 43.3603 12.7556C43.3603 12.3644 43.4848 12.0444 43.7337 11.7956C43.9944 11.5467 44.3203 11.4222 44.7115 11.4222ZM61.2259 14.6044V0.951111H63.1459V14.6044H61.2259ZM51.537 13.8578V1.37778H59.0215V13.8578H51.537ZM57.1015 3.26222H53.457V11.9733H57.1015V3.26222ZM77.224 14.6044H75.304V0.951111H77.224V14.6044ZM70.6996 3.22667C70.664 4.79111 70.5396 6.11852 70.3263 7.20889L74.3796 12.5778L72.8685 13.7689L69.704 9.46667C69.2181 10.8059 68.59 11.8548 67.8196 12.6133C67.0492 13.36 66.1781 13.7748 65.2063 13.8578V11.8311C65.9055 11.7126 66.5159 11.28 67.0374 10.5333C67.5707 9.77481 67.9855 8.76741 68.2818 7.51111C68.5781 6.25481 68.7381 4.82667 68.7618 3.22667H65.5263V1.37778H73.8285V3.22667H70.6996ZM89.4177 14.6044V0.951111H91.3377V14.6044H89.4177ZM83.4799 1.16444C84.2622 1.16444 84.9614 1.34815 85.5777 1.71556C86.194 2.08296 86.674 2.59852 87.0177 3.26222C87.3614 3.91407 87.5333 4.66074 87.5333 5.50222C87.5333 6.35556 87.3614 7.11407 87.0177 7.77778C86.674 8.42963 86.194 8.93926 85.5777 9.30667C84.9614 9.67407 84.2622 9.85778 83.4799 9.85778C82.6977 9.85778 81.9925 9.67407 81.3644 9.30667C80.7481 8.93926 80.2681 8.42963 79.9244 7.77778C79.5807 7.11407 79.4088 6.35556 79.4088 5.50222C79.4088 4.64889 79.5807 3.8963 79.9244 3.24444C80.2681 2.59259 80.7481 2.08296 81.3644 1.71556C81.9925 1.34815 82.6977 1.16444 83.4799 1.16444ZM83.4799 2.97778C82.8162 2.97778 82.2829 3.22074 81.8799 3.70667C81.477 4.18074 81.2755 4.77926 81.2755 5.50222C81.2755 6.24889 81.477 6.85926 81.8799 7.33333C82.2829 7.80741 82.8162 8.04444 83.4799 8.04444C84.1436 8.04444 84.677 7.80741 85.0799 7.33333C85.4829 6.84741 85.6844 6.23704 85.6844 5.50222C85.6844 4.77926 85.477 4.18074 85.0622 3.70667C84.6592 3.22074 84.1318 2.97778 83.4799 2.97778ZM88.4577 13.2356C88.0429 13.437 87.4799 13.5911 86.7688 13.6978C86.0577 13.8044 85.2873 13.8578 84.4577 13.8578H78.9999V11.9733H84.5644C85.3703 11.9733 86.117 11.9259 86.8044 11.8311C87.4918 11.7244 88.0429 11.5704 88.4577 11.3689V13.2356ZM109.251 14.6044H107.438V0.951111H109.251V14.6044ZM105.927 1.02222V14.3733H104.114V7.35111H102.318V5.43111H104.114V1.02222H105.927ZM101.074 1.32444C101.074 3.46963 100.979 5.31852 100.789 6.87111L103.847 12.8622L102.265 13.6978L100.203 9.62667C99.5033 12.1867 98.3241 13.597 96.6648 13.8578V11.8133C98.3715 11.3274 99.2366 7.80741 99.2603 1.25333L101.074 1.32444ZM123.33 14.6044H121.534V0.951111H123.33V14.6044ZM120.076 1.02222V14.3733H118.298V10.3556H115.49C115.004 11.4696 114.364 12.3289 113.57 12.9333C112.787 13.5259 111.91 13.8281 110.938 13.84V11.9378C111.673 11.9022 112.307 11.6178 112.841 11.0844C113.386 10.5393 113.807 9.77481 114.103 8.79111C114.399 7.80741 114.547 6.64 114.547 5.28889V3.20889H110.938V1.37778H116.396V4.16889H118.298V1.02222H120.076ZM118.298 6.05333H116.378C116.343 6.91852 116.236 7.72444 116.058 8.47111H118.298V6.05333ZM137.781 14.0178H124.75V12.1689H130.279V10H125.568V4.82667H135.097V3.15556H125.568V1.37778H136.999V6.53333H127.488V8.20444H137.159V10H132.234V12.1689H137.781V14.0178ZM154.273 8.22222V14.6044H152.353V0.951111H154.273V6.26667H155.979V8.22222H154.273ZM149.953 1.37778V4.82667C149.953 6.65185 149.662 8.24593 149.081 9.60889C148.513 10.96 147.689 12.003 146.61 12.7378C145.532 13.4726 144.258 13.84 142.788 13.84V11.92C144.447 11.9081 145.727 11.28 146.628 10.0356C147.541 8.77926 147.997 7.04889 147.997 4.84444V3.22667H142.788V1.37778H149.953ZM168.706 4.59556V6.30222H157.311V0.915555H159.248V4.59556H168.706ZM156.422 9.34222V7.61778H169.453V9.34222H156.422ZM168.813 12.7911V14.4978H157.275V10.3733H159.231V12.7911H168.813ZM186.407 14.6044H184.504V10.9956H182.602L182.727 9.11111H184.504V6.05333H182.727L182.602 4.16889H184.504V0.951111H186.407V14.6044ZM178.353 1.2C179.55 1.2 180.499 1.73926 181.198 2.81778C181.897 3.88444 182.247 5.48444 182.247 7.61778C182.247 9.75111 181.897 11.357 181.198 12.4356C180.499 13.5022 179.55 14.0356 178.353 14.0356C177.144 14.0356 176.19 13.5022 175.491 12.4356C174.792 11.357 174.442 9.75111 174.442 7.61778C174.442 5.48444 174.792 3.88444 175.491 2.81778C176.19 1.73926 177.144 1.2 178.353 1.2ZM178.353 12.1689C178.958 12.1689 179.438 11.8074 179.793 11.0844C180.149 10.3496 180.327 9.19407 180.327 7.61778C180.327 6.04148 180.149 4.89185 179.793 4.16889C179.438 3.43407 178.958 3.06667 178.353 3.06667C177.725 3.06667 177.233 3.43407 176.878 4.16889C176.522 4.89185 176.344 6.04148 176.344 7.61778C176.344 9.19407 176.522 10.3496 176.878 11.0844C177.233 11.8074 177.725 12.1689 178.353 12.1689ZM198.565 0.951111H200.485V8.61333H198.565V5.07556H196.343V3.35111H198.565V0.951111ZM192.698 5.76889C192.212 6.48 191.596 7.06074 190.849 7.51111C190.103 7.94963 189.273 8.21037 188.36 8.29333V6.49778C189.308 6.39111 190.085 6.01185 190.689 5.36C191.294 4.70815 191.655 3.8963 191.774 2.92444H188.52V1.21778H196.805V2.92444H193.711C193.676 3.35111 193.593 3.7837 193.463 4.22222L197.249 6.65778L196.307 8.16889L192.698 5.76889ZM194.849 8.95111C196.58 8.95111 197.966 9.18222 199.009 9.64444C200.064 10.1067 200.591 10.8296 200.591 11.8133C200.591 12.8089 200.07 13.5378 199.027 14C197.984 14.4504 196.591 14.6756 194.849 14.6756C193.119 14.6756 191.732 14.4504 190.689 14C189.646 13.5378 189.125 12.8089 189.125 11.8133C189.125 10.8296 189.646 10.1067 190.689 9.64444C191.732 9.18222 193.119 8.95111 194.849 8.95111ZM194.849 13.0578C195.94 13.0578 196.823 12.9511 197.498 12.7378C198.186 12.5244 198.529 12.2163 198.529 11.8133C198.529 11.4104 198.186 11.1022 197.498 10.8889C196.823 10.6756 195.94 10.5689 194.849 10.5689C193.771 10.5689 192.888 10.6756 192.2 10.8889C191.525 11.1022 191.187 11.4104 191.187 11.8133C191.187 12.2163 191.525 12.5244 192.2 12.7378C192.888 12.9511 193.771 13.0578 194.849 13.0578Z" fill="white"/>
</svg>
