<svg width="212" height="15" viewBox="0 0 212 15" fill="none" xmlns="http://www.w3.org/2000/svg">
<path d="M1.82632 6.24889V0.915555H3.7641V4.56H13.2219V6.24889H1.82632ZM13.9685 9.18222H8.42188V11.5289H6.4841V9.18222H0.937431V7.49333H13.9685V9.18222ZM13.3463 12.7911V14.4978H1.79076V10.2667H3.7641V12.7911H13.3463ZM26.98 8.09778V14.6044H25.06V0.951111H26.98V6.14222H28.6511V8.09778H26.98ZM15.4778 3.31556V1.43111H22.98V10.0533H21.06V3.31556H15.4778ZM20.2244 11.9733C21.9904 11.9733 23.2881 11.7837 24.1178 11.4044V13.3067C23.6793 13.4844 23.1163 13.6207 22.4289 13.7156C21.7533 13.8104 21.0067 13.8578 20.1889 13.8578H15.0156V11.9733H17.0422V6.51556H18.9978V11.9733H20.2244ZM44.9471 14.6044H43.0271V0.951111H44.9471V14.6044ZM33.4271 3.20889V1.37778H40.7515V7.13778H38.8315V3.20889H33.4271ZM38.1737 7.97333C39.9989 7.97333 41.2967 7.79556 42.0671 7.44V9.28889C41.3086 9.63259 40.0049 9.80444 38.156 9.80444H37.9782V14.6044H36.0582V9.80444H32.6093V7.97333H38.1737ZM58.6163 8.22222V14.6044H56.6963V0.951111H58.6163V6.26667H60.323V8.22222H58.6163ZM54.2963 1.37778V4.82667C54.2963 6.65185 54.0059 8.24593 53.4252 9.60889C52.8563 10.96 52.0326 12.003 50.9541 12.7378C49.8756 13.4726 48.6015 13.84 47.1319 13.84V11.92C48.7911 11.9081 50.0711 11.28 50.9719 10.0356C51.8845 8.77926 52.3408 7.04889 52.3408 4.84444V3.22667H47.1319V1.37778H54.2963ZM70.4145 4.45333C69.7627 4.89185 68.9508 5.22963 67.979 5.46667C67.019 5.7037 66.0056 5.83407 64.939 5.85778V4.31111C66.0293 4.28741 67.0427 4.12741 67.979 3.83111C68.9153 3.52296 69.5316 3.10222 69.8278 2.56889H65.1167V1.05778H76.4945V2.56889H71.9612C71.9256 2.77037 71.8486 2.9837 71.7301 3.20889L76.8323 4.41778L76.4056 5.91111L70.4145 4.45333ZM77.3123 8.08H64.2812V6.55111H77.3123V8.08ZM76.6723 13.1289V14.4978H65.1345V11.1378H74.5923V10.3022H65.099V8.96889H76.4945V12.2756H67.0367V13.1289H76.6723ZM90.7504 14.6044H88.8304V8.18667H85.6482C85.186 9.96444 84.3682 11.3511 83.1949 12.3467C82.0215 13.3422 80.5815 13.84 78.8749 13.84V11.92C80.546 11.9081 81.8319 11.28 82.7326 10.0356C83.6334 8.77926 84.0838 7.04889 84.0838 4.84444V3.22667H78.8749V1.37778H86.0393V4.82667C86.0393 5.27704 86.0097 5.76889 85.9504 6.30222H88.8304V0.951111H90.7504V14.6044ZM98.9619 6.83556C97.2434 6.83556 95.8389 6.58074 94.7485 6.07111C93.67 5.56148 93.1308 4.81481 93.1308 3.83111C93.1308 2.83556 93.67 2.08296 94.7485 1.57333C95.8389 1.0637 97.2434 0.808888 98.9619 0.808888C100.68 0.808888 102.079 1.0637 103.157 1.57333C104.248 2.08296 104.793 2.83556 104.793 3.83111C104.793 4.81481 104.248 5.56148 103.157 6.07111C102.079 6.58074 100.68 6.83556 98.9619 6.83556ZM98.9619 2.39111C97.8478 2.39111 96.9352 2.52148 96.2241 2.78222C95.513 3.03111 95.1574 3.38074 95.1574 3.83111C95.1574 4.28148 95.513 4.63111 96.2241 4.88C96.9352 5.11704 97.8478 5.23556 98.9619 5.23556C100.076 5.23556 100.983 5.11704 101.682 4.88C102.393 4.63111 102.749 4.28148 102.749 3.83111C102.749 3.38074 102.393 3.03111 101.682 2.78222C100.983 2.52148 100.076 2.39111 98.9619 2.39111ZM105.469 9.48444H99.9219V11.6356H97.9841V9.48444H92.4374V7.79556H105.469V9.48444ZM104.829 12.8089V14.4978H93.2908V10.5689H95.2463V12.8089H104.829ZM114.582 7.10222C114.12 7.83704 113.522 8.42963 112.787 8.88C112.052 9.31852 111.222 9.57926 110.298 9.66222V7.83111C111.199 7.71259 111.933 7.32741 112.502 6.67556C113.083 6.01185 113.439 5.2 113.569 4.24H110.565V2.40889H113.605V0.773333H115.56V2.40889H118.6V4.24H115.56C115.525 4.71407 115.447 5.14074 115.329 5.52L119.133 8.13333L118.102 9.64444L114.582 7.10222ZM122.351 14.6044H120.449V0.951111H122.351V14.6044ZM115.596 12.0089C117.373 12.0089 118.671 11.8133 119.489 11.4222V13.3067C118.612 13.6741 117.308 13.8578 115.578 13.8578H110.031V12.0089H113.533V9.43111H115.436V12.0089H115.596ZM124.874 3.24444V1.37778H136.34V10.3733H134.332V3.24444H124.874ZM137.14 14.0178H124.109V12.1333H128.714V6.32H130.705V12.1333H137.14V14.0178ZM148.605 14.6044V0.951111H150.525V14.6044H148.605ZM142.667 1.16444C143.45 1.16444 144.149 1.34815 144.765 1.71556C145.382 2.08296 145.862 2.59852 146.205 3.26222C146.549 3.91407 146.721 4.66074 146.721 5.50222C146.721 6.35556 146.549 7.11407 146.205 7.77778C145.862 8.42963 145.382 8.93926 144.765 9.30667C144.149 9.67407 143.45 9.85778 142.667 9.85778C141.885 9.85778 141.18 9.67407 140.552 9.30667C139.936 8.93926 139.456 8.42963 139.112 7.77778C138.768 7.11407 138.596 6.35556 138.596 5.50222C138.596 4.64889 138.768 3.8963 139.112 3.24444C139.456 2.59259 139.936 2.08296 140.552 1.71556C141.18 1.34815 141.885 1.16444 142.667 1.16444ZM142.667 2.97778C142.004 2.97778 141.47 3.22074 141.067 3.70667C140.664 4.18074 140.463 4.77926 140.463 5.50222C140.463 6.24889 140.664 6.85926 141.067 7.33333C141.47 7.80741 142.004 8.04444 142.667 8.04444C143.331 8.04444 143.864 7.80741 144.267 7.33333C144.67 6.84741 144.872 6.23704 144.872 5.50222C144.872 4.77926 144.664 4.18074 144.25 3.70667C143.847 3.22074 143.319 2.97778 142.667 2.97778ZM147.645 13.2356C147.23 13.437 146.667 13.5911 145.956 13.6978C145.245 13.8044 144.475 13.8578 143.645 13.8578H138.187V11.9733H143.752C144.558 11.9733 145.304 11.9259 145.992 11.8311C146.679 11.7244 147.23 11.5704 147.645 11.3689V13.2356ZM168.172 14.6044H166.235V8.16889H164.172V6.26667H166.235V0.951111H168.172V14.6044ZM163.177 11.8667C163.923 11.7363 164.54 11.5467 165.026 11.2978V13.1289C164.611 13.3541 164.048 13.5319 163.337 13.6622C162.626 13.7926 161.867 13.8578 161.061 13.8578H155.995V12.0267H157.31V3.20889H156.066V1.37778H164.439V3.20889H163.177V11.8667ZM160.208 12.0267C160.706 12.0267 161.067 12.0207 161.292 12.0089V3.20889H159.195V12.0267H160.208ZM182.89 14.0178H169.859V12.1333H175.406V9.41333H170.517V7.56444H172.686V3.28H170.642V1.43111H182.126V3.28H180.082V7.56444H182.25V9.41333H177.344V12.1333H182.89V14.0178ZM178.162 7.56444V3.28H174.606V7.56444H178.162ZM184.417 8.75556V1.21778H192.08V3.99111H194.409V0.951111H196.329V11.0844H194.409V5.87556H192.08V8.75556H184.417ZM186.32 2.94222V7.01333H190.16V2.94222H186.32ZM196.56 14.4978H185.057V9.92889H187.013V12.6844H196.56V14.4978ZM204.398 5.75111C203.639 6.9363 202.721 7.87259 201.642 8.56C200.576 9.23556 199.456 9.57926 198.282 9.59111V7.67111C199.171 7.67111 200.024 7.37481 200.842 6.78222C201.672 6.18963 202.377 5.3837 202.958 4.36444C203.539 3.34518 203.924 2.21333 204.113 0.968888L206.087 1.30667C205.897 2.38518 205.619 3.33333 205.251 4.15111L210.887 8.02667L209.856 9.64444L204.398 5.75111ZM211.047 12.1333V14.0178H198.016V12.1333H211.047Z" fill="white"/>
</svg>
