<svg width="197" height="15" viewBox="0 0 197 15" fill="none" xmlns="http://www.w3.org/2000/svg">
<path d="M0.92316 3.72444V2.10667H4.33649V0.702222H6.30983V2.10667H9.75872V3.72444H0.92316ZM14.612 6.42667H12.9054V11.1733H10.9854V0.951111H12.9054V4.45333H14.612V6.42667ZM5.33205 9.94667C4.20612 9.94667 3.27575 9.69778 2.54094 9.2C1.80612 8.70222 1.43872 8.01481 1.43872 7.13778C1.43872 6.26074 1.80612 5.57333 2.54094 5.07556C3.27575 4.57778 4.20612 4.32889 5.33205 4.32889C6.45797 4.32889 7.38834 4.57778 8.12316 5.07556C8.86983 5.57333 9.24316 6.26074 9.24316 7.13778C9.24316 8.01481 8.86983 8.70222 8.12316 9.2C7.38834 9.69778 6.45797 9.94667 5.33205 9.94667ZM5.33205 5.84C4.7039 5.84 4.2002 5.96444 3.82094 6.21333C3.45353 6.45037 3.26983 6.75852 3.26983 7.13778C3.26983 7.51704 3.45353 7.83111 3.82094 8.08C4.2002 8.31704 4.7039 8.43556 5.33205 8.43556C5.9602 8.43556 6.45797 8.31704 6.82538 8.08C7.20464 7.83111 7.39427 7.51704 7.39427 7.13778C7.39427 6.75852 7.20464 6.45037 6.82538 6.21333C6.45797 5.96444 5.9602 5.84 5.33205 5.84ZM13.2076 12.72V14.4978H1.81205V10.5867H3.7676V12.72H13.2076ZM21.4546 4.06222C20.7198 4.86815 19.825 5.51407 18.7702 6C17.7154 6.47407 16.625 6.72296 15.4991 6.74667V5.00444C16.3405 4.96889 17.1642 4.76148 17.9702 4.38222C18.7761 4.00296 19.4635 3.48741 20.0324 2.83556C20.6013 2.17185 20.9628 1.42519 21.1168 0.595555L23.0546 0.933333C22.948 1.52593 22.7465 2.10667 22.4502 2.67556L27.8724 5.28889L27.108 6.83556L21.4546 4.06222ZM28.1035 9.46667H22.5391V11.6356H20.6013V9.46667H15.0724V7.77778H28.1035V9.46667ZM27.4457 12.8089V14.4978H15.908V10.5689H17.8635V12.8089H27.4457ZM42.7683 5.94667H41.0616V11.0844H39.1416V0.951111H41.0616V3.99111H42.7683V5.94667ZM37.0261 3.19111C37.0261 4.47111 36.7061 5.54963 36.0661 6.42667C35.4379 7.29185 34.555 7.9437 33.4172 8.38222C32.2794 8.80889 30.9579 9.02222 29.4527 9.02222V7.22667C31.1713 7.21481 32.5342 6.88296 33.5416 6.23111C34.549 5.56741 35.0527 4.65481 35.0527 3.49333V2.97778H29.4527V1.21778H37.0261V3.19111ZM41.3639 12.6844V14.4978H29.9683V10.0356H31.9239V12.6844H41.3639ZM56.242 14.0178H43.2109V12.1333H48.7575V9.23556H44.0109V1.37778H55.4598V3.26222H45.9842V7.36889H55.602V9.23556H50.7131V12.1333H56.242V14.0178ZM74.4402 5.57333H72.7335V8.70222H70.8135V0.951111H72.7335V3.61778H74.4402V5.57333ZM61.1957 8.02667V1.16444H63.0802V2.88889H67.0446V1.16444H68.9113V8.02667H61.1957ZM67.0446 4.48889H63.0802V6.35556H67.0446V4.48889ZM67.2224 9.05778C68.9409 9.05778 70.3157 9.28296 71.3468 9.73333C72.378 10.1837 72.8935 10.8948 72.8935 11.8667C72.8935 12.8385 72.378 13.5496 71.3468 14C70.3157 14.4504 68.9409 14.6756 67.2224 14.6756C65.5039 14.6756 64.1291 14.4504 63.098 14C62.0668 13.5496 61.5513 12.8385 61.5513 11.8667C61.5513 10.8948 62.0668 10.1837 63.098 9.73333C64.1291 9.28296 65.5039 9.05778 67.2224 9.05778ZM67.2224 13.0578C68.3009 13.0578 69.172 12.963 69.8357 12.7733C70.5113 12.5719 70.8491 12.2696 70.8491 11.8667C70.8491 11.4637 70.5113 11.1674 69.8357 10.9778C69.172 10.7763 68.3009 10.6756 67.2224 10.6756C66.1557 10.6756 65.2846 10.7763 64.6091 10.9778C63.9454 11.1674 63.6135 11.4637 63.6135 11.8667C63.6135 12.2696 63.9454 12.5719 64.6091 12.7733C65.2846 12.963 66.1557 13.0578 67.2224 13.0578ZM87.185 8.36444H85.265V0.951111H87.185V8.36444ZM79.5583 5.39556C79.0368 6.16593 78.3909 6.79407 77.6205 7.28C76.8502 7.75407 76.0027 8.03852 75.0783 8.13333V6.30222C75.8368 6.1837 76.5005 5.88148 77.0694 5.39556C77.6502 4.90963 78.1005 4.29333 78.4205 3.54667C78.7405 2.78815 78.9005 1.95259 78.9005 1.04L80.8383 1.16444C80.8383 2.11259 80.6783 3.00741 80.3583 3.84889L84.2516 6.48L83.2739 7.95556L79.5583 5.39556ZM87.185 9.00444V14.4978H75.9316V9.00444H87.185ZM85.265 12.8089V10.6933H77.8516V12.8089H85.265ZM88.9075 3.28V1.82222H92.3209V0.684444H94.2942V1.82222H97.7431V3.28H88.9075ZM102.596 5.37778H100.89V8.06222H98.9698V0.951111H100.89V3.54667H102.596V5.37778ZM93.3164 8.09778C92.1905 8.09778 91.2661 7.91407 90.5431 7.54667C89.8201 7.16741 89.4586 6.63407 89.4586 5.94667C89.4586 5.24741 89.8201 4.71407 90.5431 4.34667C91.2661 3.97926 92.1905 3.79556 93.3164 3.79556C94.4423 3.79556 95.3668 3.97926 96.0898 4.34667C96.8127 4.71407 97.1742 5.24741 97.1742 5.94667C97.1742 6.63407 96.8127 7.16741 96.0898 7.54667C95.3668 7.91407 94.4423 8.09778 93.3164 8.09778ZM93.3164 5.14667C92.6883 5.14667 92.1905 5.21778 91.8231 5.36C91.4557 5.50222 91.272 5.69778 91.272 5.94667C91.272 6.19556 91.4557 6.39111 91.8231 6.53333C92.1905 6.67556 92.6883 6.74667 93.3164 6.74667C93.9446 6.74667 94.4423 6.67556 94.8098 6.53333C95.1772 6.39111 95.3609 6.19556 95.3609 5.94667C95.3609 5.69778 95.1772 5.50222 94.8098 5.36C94.4423 5.21778 93.9446 5.14667 93.3164 5.14667ZM101.139 13.1289V14.4978H89.8142V10.96H99.0053V10.0711H89.7786V8.68444H100.89V12.2222H91.7164V13.1289H101.139ZM112.937 5.00444C112.202 6 111.295 6.78815 110.217 7.36889C109.15 7.94963 108.03 8.24593 106.857 8.25778V6.33778C107.746 6.33778 108.605 6.10074 109.435 5.62667C110.264 5.14074 110.964 4.47704 111.532 3.63556C112.101 2.78222 112.469 1.84 112.635 0.808888L114.608 1.12889C114.466 1.95852 114.217 2.73481 113.861 3.45778L119.39 6.55111L118.466 8.24L112.937 5.00444ZM114.057 11.4044V14.9244H112.084V11.4044H106.555V9.52H119.586V11.4044H114.057ZM132.202 5.37778C132 6.14815 131.556 6.76444 130.868 7.22667C130.181 7.68889 129.322 7.92 128.291 7.92C127.473 7.92 126.756 7.77778 126.139 7.49333C125.523 7.19704 125.043 6.79407 124.699 6.28444C124.368 5.76296 124.202 5.16444 124.202 4.48889C124.202 3.81333 124.368 3.22074 124.699 2.71111C125.043 2.18963 125.523 1.78667 126.139 1.50222C126.756 1.20593 127.473 1.05778 128.291 1.05778C129.298 1.05778 130.145 1.27704 130.833 1.71556C131.52 2.15407 131.971 2.74667 132.184 3.49333H134.619V0.951111H136.539V8.04444H134.619V5.37778H132.202ZM126.139 4.48889C126.139 5.03407 126.335 5.46667 126.726 5.78667C127.117 6.09481 127.639 6.24889 128.291 6.24889C128.942 6.24889 129.458 6.09481 129.837 5.78667C130.228 5.46667 130.424 5.03407 130.424 4.48889C130.424 3.9437 130.228 3.51111 129.837 3.19111C129.446 2.87111 128.931 2.71111 128.291 2.71111C127.639 2.71111 127.117 2.87111 126.726 3.19111C126.335 3.51111 126.139 3.9437 126.139 4.48889ZM134.495 12.4356C134.116 13.0637 133.654 13.5615 133.108 13.9289C132.575 14.2844 131.988 14.4741 131.348 14.4978V12.7378C131.763 12.6785 132.148 12.4652 132.504 12.0978C132.871 11.7304 133.168 11.2385 133.393 10.6222C133.63 10.0059 133.766 9.31259 133.802 8.54222L135.651 8.68444C135.591 9.56148 135.461 10.2844 135.259 10.8533L137.855 13.1822L136.682 14.5333L134.495 12.4356ZM130.886 8.59556V14.4978H125.304V8.59556H127.011V10H129.179V8.59556H130.886ZM129.179 11.4578H127.011V13.0044H129.179V11.4578ZM150.511 4.59556V6.30222H139.115V0.915555H141.053V4.59556H150.511ZM138.226 9.34222V7.61778H151.258V9.34222H138.226ZM150.618 12.7911V14.4978H139.08V10.3733H141.035V12.7911H150.618ZM161.936 6.32C161.308 6.9837 160.502 7.51111 159.518 7.90222C158.534 8.29333 157.444 8.51852 156.247 8.57778V6.72889C157.444 6.64593 158.481 6.34963 159.358 5.84C160.247 5.31852 160.851 4.66074 161.171 3.86667H156.549V2.01778H161.331V0.613333H163.305V2.01778H168.122V3.86667H163.358C163.299 4.15111 163.198 4.46518 163.056 4.80889L168.496 6.76444L167.891 8.50667L161.936 6.32ZM163.305 11.5467V14.9244H161.367V11.5467H155.82V9.68H168.851V11.5467H163.305ZM182.289 9.09333H180.369V7.67111H177.898V5.87556H180.369V4.20444H178.414V2.42667H180.369V0.951111H182.289V9.09333ZM177.792 2.97778C177.792 4.89778 177.116 6.33185 175.765 7.28C174.426 8.22815 172.595 8.70222 170.272 8.70222V6.92444C172.014 6.91259 173.371 6.60444 174.343 6C175.327 5.3837 175.818 4.49481 175.818 3.33333V2.96H170.272V1.21778H177.792V2.97778ZM182.254 9.73333V14.6756H180.298V11.4756H170.929V9.73333H182.254ZM194.448 0.951111H196.368V11.0844H194.448V5.82222H192.225V4.06222H194.448V0.951111ZM188.581 6.35556C188.095 7.18519 187.479 7.85481 186.732 8.36444C185.985 8.86222 185.156 9.14667 184.243 9.21778V7.38667C185.215 7.2563 186.003 6.78815 186.608 5.98222C187.212 5.1763 187.562 4.16889 187.656 2.96H184.403V1.21778H192.688V2.96H189.594C189.582 3.50519 189.494 4.09185 189.328 4.72L193.132 7.65333L192.048 9.11111L188.581 6.35556ZM196.599 14.4978H185.096V9.98222H187.052V12.6844H196.599V14.4978Z" fill="white"/>
</svg>
