<svg width="183" height="15" viewBox="0 0 183 15" fill="none" xmlns="http://www.w3.org/2000/svg">
<path d="M12.5333 8.22222V14.6044H10.6489V0.951111H12.5333V6.26667H14.1511V8.22222H12.5333ZM8.44444 1.32444C8.42074 3.71852 8.32 5.69778 8.14222 7.26222L10.6667 13.0578L9.17333 13.7511L7.60889 9.98222C7.30074 11.1437 6.89185 12.0504 6.38222 12.7022C5.87259 13.3422 5.24444 13.7215 4.49778 13.84L3.32444 10.1956C2.70815 12.3763 1.69481 13.597 0.284444 13.8578V11.7956C1.05481 11.5585 1.60593 10.5215 1.93778 8.68444C2.26963 6.83556 2.43556 4.35852 2.43556 1.25333L4.23111 1.32444C4.20741 3.84889 4.10667 5.82815 3.92889 7.26222L5.26222 11.1378C6.17481 9.79852 6.63111 6.5037 6.63111 1.25333L8.44444 1.32444ZM26.9137 3.95555V5.50222H15.4826V0.915555H17.3848V3.95555H26.9137ZM14.5937 7.97333V6.44444H27.6248V7.97333H14.5937ZM17.3315 12.2578V13.1644H26.9848V14.4978H15.447V11.1022H24.9048V10.2311H15.4115V8.91556H26.807V12.2578H17.3315ZM35.3207 2.88889V4.72H28.3874V2.88889H30.9118V0.915555H32.814V2.88889H35.3207ZM41.3296 14.6044H39.5518V8.16889H37.8807V14.3733H36.1207V1.02222H37.8807V6.26667H39.5518V0.951111H41.3296V14.6044ZM31.9251 5.57333C32.8377 5.57333 33.5785 5.94074 34.1474 6.67556C34.7163 7.41037 35.0007 8.45333 35.0007 9.80444C35.0007 11.1437 34.7163 12.1807 34.1474 12.9156C33.5785 13.6504 32.8377 14.0178 31.9251 14.0178C31.0007 14.0178 30.254 13.6563 29.6851 12.9333C29.1281 12.1985 28.8496 11.1556 28.8496 9.80444C28.8496 8.45333 29.1281 7.41037 29.6851 6.67556C30.254 5.94074 31.0007 5.57333 31.9251 5.57333ZM31.9251 12.2756C32.3163 12.2756 32.6363 12.0563 32.8851 11.6178C33.134 11.1793 33.2585 10.5748 33.2585 9.80444C33.2585 9.03407 33.134 8.42963 32.8851 7.99111C32.6363 7.55259 32.3163 7.33333 31.9251 7.33333C31.5222 7.33333 31.1963 7.55259 30.9474 7.99111C30.7103 8.42963 30.5918 9.03407 30.5918 9.80444C30.5918 10.5748 30.7103 11.1793 30.9474 11.6178C31.1963 12.0563 31.5222 12.2756 31.9251 12.2756ZM58.9233 14.6044H57.11V8.16889H55.4033V14.3733H53.6078V1.02222H55.4033V6.26667H57.11V0.951111H58.9233V14.6044ZM49.7856 12.0622C50.3307 12.0622 50.87 12.0207 51.4033 11.9378C51.9485 11.843 52.4167 11.7185 52.8078 11.5644V13.3422C52.4404 13.5081 51.9604 13.6385 51.3678 13.7333C50.787 13.8163 50.1944 13.8578 49.59 13.8578H46.6211V1.34222H48.4878V12.0622H49.7856ZM72.2726 8.22222V14.6044H70.3526V0.951111H72.2726V6.26667H73.9792V8.22222H72.2726ZM67.9526 1.37778V4.82667C67.9526 6.65185 67.6622 8.24593 67.0815 9.60889C66.5126 10.96 65.6889 12.003 64.6103 12.7378C63.5318 13.4726 62.2578 13.84 60.7881 13.84V11.92C62.4474 11.9081 63.7274 11.28 64.6281 10.0356C65.5407 8.77926 65.997 7.04889 65.997 4.84444V3.22667H60.7881V1.37778H67.9526ZM89.8663 8.22222V14.6044H87.9463V0.951111H89.8663V6.26667H91.573V8.22222H89.8663ZM83.6797 12.0267C84.2959 12.0267 84.9063 11.9674 85.5108 11.8489C86.1271 11.7304 86.6367 11.5763 87.0397 11.3867V13.2178C86.6485 13.4193 86.1271 13.5793 85.4752 13.6978C84.8234 13.8044 84.1774 13.8578 83.5374 13.8578H78.4885V1.37778H86.0263V3.20889H80.4441V12.0267H83.6797ZM101.647 6.32C101.019 6.9837 100.213 7.51111 99.229 7.90222C98.2453 8.29333 97.1549 8.51852 95.9578 8.57778V6.72889C97.1549 6.64593 98.1919 6.34963 99.069 5.84C99.9578 5.31852 100.562 4.66074 100.882 3.86667H96.2601V2.01778H101.042V0.613333H103.016V2.01778H107.833V3.86667H103.069C103.01 4.15111 102.909 4.46518 102.767 4.80889L108.207 6.76444L107.602 8.50667L101.647 6.32ZM103.016 11.5467V14.9244H101.078V11.5467H95.5312V9.68H108.562V11.5467H103.016ZM122.018 14.6044H120.08V13.2889H116.4V11.5467H120.08V0.951111H122.018V14.6044ZM114.178 7.79556C113.42 7.79556 112.744 7.65926 112.152 7.38667C111.559 7.11407 111.097 6.72889 110.765 6.23111C110.433 5.72148 110.267 5.14074 110.267 4.48889C110.267 3.82518 110.433 3.24444 110.765 2.74667C111.097 2.23704 111.559 1.84593 112.152 1.57333C112.744 1.30074 113.42 1.16444 114.178 1.16444C114.937 1.16444 115.612 1.30074 116.205 1.57333C116.797 1.84593 117.26 2.23704 117.592 2.74667C117.923 3.24444 118.089 3.82518 118.089 4.48889C118.089 5.14074 117.923 5.72148 117.592 6.23111C117.26 6.72889 116.797 7.11407 116.205 7.38667C115.612 7.65926 114.937 7.79556 114.178 7.79556ZM114.178 2.78222C113.562 2.78222 113.058 2.94222 112.667 3.26222C112.288 3.57037 112.098 3.97926 112.098 4.48889C112.098 4.98667 112.288 5.38963 112.667 5.69778C113.058 6.00593 113.562 6.16 114.178 6.16C114.794 6.16 115.292 6.00593 115.672 5.69778C116.051 5.38963 116.24 4.98667 116.24 4.48889C116.24 3.97926 116.051 3.57037 115.672 3.26222C115.292 2.94222 114.794 2.78222 114.178 2.78222ZM119.138 9.96444C118.32 10.3081 117.011 10.48 115.209 10.48H114.943V14.6044H113.023V10.48H109.609V8.70222H115.227C117.052 8.70222 118.356 8.53037 119.138 8.18667V9.96444ZM135.99 14.6044H134.07V0.951111H135.99V14.6044ZM129.465 3.22667C129.43 4.79111 129.305 6.11852 129.092 7.20889L133.145 12.5778L131.634 13.7689L128.47 9.46667C127.984 10.8059 127.356 11.8548 126.585 12.6133C125.815 13.36 124.944 13.7748 123.972 13.8578V11.8311C124.671 11.7126 125.282 11.28 125.803 10.5333C126.336 9.77481 126.751 8.76741 127.047 7.51111C127.344 6.25481 127.504 4.82667 127.527 3.22667H124.292V1.37778H132.594V3.22667H129.465ZM150.05 4.59556V6.30222H138.654V0.915555H140.592V4.59556H150.05ZM137.766 9.34222V7.61778H150.797V9.34222H137.766ZM150.157 12.7911V14.4978H138.619V10.3733H140.574V12.7911H150.157ZM156.195 2.71111V1.05778H167.502V5.66222H165.564V2.71111H156.195ZM168.39 8.15111H155.359V6.49778H160.017V4.08H161.937V6.49778H168.39V8.15111ZM161.884 9.2C163.626 9.2 165.024 9.42519 166.079 9.87556C167.146 10.3141 167.679 11.0015 167.679 11.9378C167.679 12.8741 167.146 13.5615 166.079 14C165.024 14.4504 163.626 14.6756 161.884 14.6756C160.142 14.6756 158.737 14.4504 157.67 14C156.616 13.5615 156.088 12.8741 156.088 11.9378C156.088 10.9896 156.616 10.2963 157.67 9.85778C158.725 9.41926 160.13 9.2 161.884 9.2ZM161.884 13.1111C162.962 13.1111 163.857 13.0163 164.568 12.8267C165.279 12.6252 165.635 12.3289 165.635 11.9378C165.635 11.5585 165.279 11.2681 164.568 11.0667C163.857 10.8652 162.962 10.7644 161.884 10.7644C160.782 10.7644 159.875 10.8652 159.164 11.0667C158.464 11.2563 158.115 11.5467 158.115 11.9378C158.115 12.3289 158.47 12.6252 159.182 12.8267C159.893 13.0163 160.793 13.1111 161.884 13.1111ZM182.469 14.0178H169.437V12.1333H174.984V9.41333H170.095V7.56444H172.264V3.28H170.22V1.43111H181.704V3.28H179.66V7.56444H181.829V9.41333H176.922V12.1333H182.469V14.0178ZM177.74 7.56444V3.28H174.184V7.56444H177.74Z" fill="white"/>
</svg>
