<svg width="247" height="15" viewBox="0 0 247 15" fill="none" xmlns="http://www.w3.org/2000/svg">
<path d="M12.674 8.22222V14.6044H10.7895V0.951111H12.674V6.26667H14.2917V8.22222H12.674ZM8.58507 1.32444C8.56137 3.71852 8.46063 5.69778 8.28285 7.26222L10.8073 13.0578L9.31396 13.7511L7.74951 9.98222C7.44137 11.1437 7.03248 12.0504 6.52285 12.7022C6.01322 13.3422 5.38507 13.7215 4.6384 13.84L3.46507 10.1956C2.84877 12.3763 1.83544 13.597 0.425069 13.8578V11.7956C1.19544 11.5585 1.74655 10.5215 2.0784 8.68444C2.41025 6.83556 2.57618 4.35852 2.57618 1.25333L4.37174 1.32444C4.34803 3.84889 4.24729 5.82815 4.06951 7.26222L5.40285 11.1378C6.31544 9.79852 6.77174 6.5037 6.77174 1.25333L8.58507 1.32444ZM27.0543 3.95555V5.50222H15.6232V0.915555H17.5254V3.95555H27.0543ZM14.7343 7.97333V6.44444H27.7654V7.97333H14.7343ZM17.4721 12.2578V13.1644H27.1254V14.4978H15.5876V11.1022H25.0454V10.2311H15.5521V8.91556H26.9476V12.2578H17.4721ZM28.7591 3.72444V2.10667H32.1724V0.702222H34.1458V2.10667H37.5947V3.72444H28.7591ZM42.448 6.42667H40.7413V11.1733H38.8213V0.951111H40.7413V4.45333H42.448V6.42667ZM33.168 9.94667C32.0421 9.94667 31.1117 9.69778 30.3769 9.2C29.6421 8.70222 29.2747 8.01481 29.2747 7.13778C29.2747 6.26074 29.6421 5.57333 30.3769 5.07556C31.1117 4.57778 32.0421 4.32889 33.168 4.32889C34.2939 4.32889 35.2243 4.57778 35.9591 5.07556C36.7058 5.57333 37.0791 6.26074 37.0791 7.13778C37.0791 8.01481 36.7058 8.70222 35.9591 9.2C35.2243 9.69778 34.2939 9.94667 33.168 9.94667ZM33.168 5.84C32.5398 5.84 32.0361 5.96444 31.6569 6.21333C31.2895 6.45037 31.1058 6.75852 31.1058 7.13778C31.1058 7.51704 31.2895 7.83111 31.6569 8.08C32.0361 8.31704 32.5398 8.43556 33.168 8.43556C33.7961 8.43556 34.2939 8.31704 34.6613 8.08C35.0406 7.83111 35.2302 7.51704 35.2302 7.13778C35.2302 6.75852 35.0406 6.45037 34.6613 6.21333C34.2939 5.96444 33.7961 5.84 33.168 5.84ZM41.0435 12.72V14.4978H29.648V10.5867H31.6035V12.72H41.0435ZM56.7884 14.6044V0.951111H58.7084V14.6044H56.7884ZM54.2995 4.82667C54.2995 6.65185 53.9973 8.24593 53.3928 9.60889C52.8003 10.96 51.9528 12.003 50.8506 12.7378C49.7484 13.4726 48.4625 13.84 46.9928 13.84V11.92C48.1069 11.92 49.061 11.6356 49.8551 11.0667C50.661 10.4859 51.2714 9.66815 51.6862 8.61333C52.1128 7.54667 52.3262 6.29037 52.3262 4.84444V3.22667H46.9928V1.37778H54.2995V4.82667ZM67.0087 6.83556C65.2902 6.83556 63.8858 6.58074 62.7954 6.07111C61.7169 5.56148 61.1776 4.81481 61.1776 3.83111C61.1776 2.83556 61.7169 2.08296 62.7954 1.57333C63.8858 1.0637 65.2902 0.808888 67.0087 0.808888C68.7273 0.808888 70.1258 1.0637 71.2043 1.57333C72.2947 2.08296 72.8399 2.83556 72.8399 3.83111C72.8399 4.81481 72.2947 5.56148 71.2043 6.07111C70.1258 6.58074 68.7273 6.83556 67.0087 6.83556ZM67.0087 2.39111C65.8947 2.39111 64.9821 2.52148 64.271 2.78222C63.5599 3.03111 63.2043 3.38074 63.2043 3.83111C63.2043 4.28148 63.5599 4.63111 64.271 4.88C64.9821 5.11704 65.8947 5.23556 67.0087 5.23556C68.1228 5.23556 69.0295 5.11704 69.7288 4.88C70.4399 4.63111 70.7954 4.28148 70.7954 3.83111C70.7954 3.38074 70.4399 3.03111 69.7288 2.78222C69.0295 2.52148 68.1228 2.39111 67.0087 2.39111ZM73.5154 9.48444H67.9688V11.6356H66.031V9.48444H60.4843V7.79556H73.5154V9.48444ZM72.8754 12.8089V14.4978H61.3376V10.5689H63.2932V12.8089H72.8754ZM84.9447 14.6044V0.951111H86.8824V14.6044H84.9447ZM79.0602 1.2C80.2809 1.2 81.2469 1.73926 81.958 2.81778C82.6691 3.88444 83.0247 5.48444 83.0247 7.61778C83.0247 9.75111 82.6691 11.357 81.958 12.4356C81.2469 13.5022 80.2809 14.0356 79.0602 14.0356C77.8276 14.0356 76.8498 13.5022 76.1269 12.4356C75.4158 11.357 75.0602 9.75111 75.0602 7.61778C75.0602 5.48444 75.4158 3.88444 76.1269 2.81778C76.8498 1.73926 77.8276 1.2 79.0602 1.2ZM79.0602 3.06667C78.4202 3.06667 77.9106 3.43407 77.5313 4.16889C77.1521 4.9037 76.9624 6.05333 76.9624 7.61778C76.9624 9.18222 77.1521 10.3319 77.5313 11.0667C77.9106 11.8015 78.4202 12.1689 79.0602 12.1689C79.6884 12.1689 80.1861 11.8015 80.5535 11.0667C80.9328 10.3319 81.1224 9.18222 81.1224 7.61778C81.1224 6.05333 80.9328 4.9037 80.5535 4.16889C80.1861 3.43407 79.6884 3.06667 79.0602 3.06667ZM98.5384 5.75111C97.7799 6.9363 96.8614 7.87259 95.7828 8.56C94.7162 9.23556 93.5962 9.57926 92.4228 9.59111V7.67111C93.3117 7.67111 94.1651 7.37481 94.9828 6.78222C95.8125 6.18963 96.5177 5.3837 97.0984 4.36444C97.6791 3.34518 98.0643 2.21333 98.254 0.968888L100.227 1.30667C100.038 2.38518 99.7591 3.33333 99.3917 4.15111L105.027 8.02667L103.996 9.64444L98.5384 5.75111ZM105.187 12.1333V14.0178H92.1562V12.1333H105.187ZM118.625 14.6044H116.705V10.6222H114.803V8.73778H116.705V5.98222H114.803V4.09778H116.705V0.951111H118.625V14.6044ZM114.128 1.37778V13.8578H106.857V1.37778H114.128ZM112.208 11.9733V3.26222H108.759V11.9733H112.208ZM123.086 3.26222V7.72444H132.704V9.59111H121.112V1.37778H132.561V3.26222H123.086ZM120.312 14.0178V12.1333H133.344V14.0178H120.312ZM146.675 4.59556V6.30222H135.279V0.915555H137.217V4.59556H146.675ZM134.391 9.34222V7.61778H147.422V9.34222H134.391ZM146.782 12.7911V14.4978H135.244V10.3733H137.199V12.7911H146.782ZM158.455 3.70667C157.732 4.42963 156.832 5.01037 155.753 5.44889C154.687 5.87556 153.578 6.10074 152.429 6.12444V4.45333C153.27 4.41778 154.094 4.23407 154.9 3.90222C155.718 3.57037 156.411 3.12 156.98 2.55111C157.549 1.97037 157.904 1.31852 158.047 0.595555L159.984 0.951111C159.878 1.46074 159.7 1.93481 159.451 2.37333L164.749 4.61333L164.055 6.16L158.455 3.70667ZM159.469 9.71556H164.18V14.4978H152.838V9.71556H157.549V8.57778H151.984V6.97778H165.015V8.57778H159.469V9.71556ZM154.74 11.28V12.9511H162.26V11.28H154.74ZM181.507 5.69778V9.09333H179.587V0.951111H181.507V3.76H183.214V5.69778H181.507ZM169.969 8.43556V1.21778H177.685V8.43556H169.969ZM171.889 2.92444V6.72889H175.8V2.92444H171.889ZM181.507 9.73333V14.6756H179.551V11.4756H170.325V9.73333H181.507ZM192.616 2.87111V4.73778H184.083V2.87111H187.372V0.897778H189.345V2.87111H192.616ZM195.958 14.6044H194.038V0.951111H195.958V14.6044ZM188.35 5.60889C189.084 5.60889 189.73 5.79259 190.287 6.16C190.856 6.51556 191.295 7.01333 191.603 7.65333C191.911 8.29333 192.065 9.0163 192.065 9.82222C192.065 10.6281 191.911 11.3511 191.603 11.9911C191.295 12.6311 190.856 13.1289 190.287 13.4844C189.73 13.84 189.084 14.0178 188.35 14.0178C187.615 14.0178 186.963 13.84 186.394 13.4844C185.837 13.1289 185.404 12.6311 185.096 11.9911C184.788 11.3511 184.634 10.6281 184.634 9.82222C184.634 9.0163 184.788 8.29333 185.096 7.65333C185.404 7.01333 185.837 6.51556 186.394 6.16C186.963 5.79259 187.615 5.60889 188.35 5.60889ZM188.35 12.2756C188.895 12.2756 189.339 12.0504 189.683 11.6C190.038 11.1496 190.216 10.557 190.216 9.82222C190.216 9.07556 190.038 8.48296 189.683 8.04444C189.339 7.59407 188.895 7.36889 188.35 7.36889C187.804 7.36889 187.354 7.59407 186.998 8.04444C186.655 8.48296 186.483 9.07556 186.483 9.82222C186.483 10.557 186.655 11.1496 186.998 11.6C187.354 12.0504 187.804 12.2756 188.35 12.2756ZM210.019 4.59556V6.30222H198.623V0.915555H200.561V4.59556H210.019ZM197.734 9.34222V7.61778H210.765V9.34222H197.734ZM210.125 12.7911V14.4978H198.588V10.3733H200.543V12.7911H210.125ZM221.728 4.06222C220.993 4.86815 220.098 5.51407 219.044 6C217.989 6.47407 216.898 6.72296 215.773 6.74667V5.00444C216.614 4.96889 217.438 4.76148 218.244 4.38222C219.05 4.00296 219.737 3.48741 220.306 2.83556C220.875 2.17185 221.236 1.42519 221.39 0.595555L223.328 0.933333C223.221 1.52593 223.02 2.10667 222.724 2.67556L228.146 5.28889L227.381 6.83556L221.728 4.06222ZM228.377 9.46667H222.812V11.6356H220.875V9.46667H215.346V7.77778H228.377V9.46667ZM227.719 12.8089V14.4978H216.181V10.5689H218.137V12.8089H227.719ZM243.042 5.94667H241.335V11.0844H239.415V0.951111H241.335V3.99111H243.042V5.94667ZM237.3 3.19111C237.3 4.47111 236.98 5.54963 236.34 6.42667C235.711 7.29185 234.828 7.9437 233.691 8.38222C232.553 8.80889 231.231 9.02222 229.726 9.02222V7.22667C231.445 7.21481 232.808 6.88296 233.815 6.23111C234.822 5.56741 235.326 4.65481 235.326 3.49333V2.97778H229.726V1.21778H237.3V3.19111ZM241.637 12.6844V14.4978H230.242V10.0356H232.197V12.6844H241.637ZM246.631 1.55556L246.222 9.96444H244.604L244.213 1.55556H246.631ZM245.422 14.1067C245.031 14.1067 244.711 13.9881 244.462 13.7511C244.213 13.5022 244.089 13.2 244.089 12.8444C244.089 12.4889 244.213 12.1926 244.462 11.9556C244.711 11.7185 245.031 11.6 245.422 11.6C245.801 11.6 246.115 11.7185 246.364 11.9556C246.625 12.1926 246.755 12.4889 246.755 12.8444C246.755 13.2 246.625 13.5022 246.364 13.7511C246.115 13.9881 245.801 14.1067 245.422 14.1067Z" fill="white"/>
</svg>
