<svg width="233" height="18" viewBox="0 0 233 18" fill="none" xmlns="http://www.w3.org/2000/svg">
<path d="M11.7161 8.48V0.32H13.8761V8.48H11.7161ZM6.67605 5.9C7.52939 5.9 8.32272 5.84667 9.05606 5.74C9.78939 5.62 10.3694 5.46 10.7961 5.26V7.2C10.3694 7.4 9.78939 7.56 9.05606 7.68C8.33606 7.78667 7.52939 7.84 6.63605 7.84H0.636055V0.519999H2.81605V5.9H6.67605ZM1.21605 15.56V9.26H13.8761V15.56H1.21605ZM11.7161 11.18H3.37605V13.64H11.7161V11.18ZM17.6939 12.1C18.1339 12.1 18.4939 12.2467 18.7739 12.54C19.0539 12.82 19.1939 13.1733 19.1939 13.6C19.1939 13.8133 19.1673 14.0267 19.1139 14.24C19.0606 14.44 18.9539 14.7533 18.7939 15.18L17.7939 18H16.2939L17.0939 14.96C16.8139 14.8533 16.5873 14.68 16.4139 14.44C16.2539 14.2 16.1739 13.92 16.1739 13.6C16.1739 13.16 16.3139 12.8 16.5939 12.52C16.8873 12.24 17.2539 12.1 17.6939 12.1ZM39.2527 15.02H24.5927V12.94H27.7527V9.08C26.9527 8.66667 26.3327 8.13333 25.8927 7.48C25.466 6.81333 25.2527 6.06667 25.2527 5.24C25.2527 4.30667 25.526 3.48 26.0727 2.76C26.6327 2.04 27.4194 1.48667 28.4327 1.1C29.446 0.7 30.6127 0.5 31.9327 0.5C33.2527 0.5 34.4194 0.7 35.4327 1.1C36.446 1.48667 37.226 2.04 37.7727 2.76C38.3327 3.48 38.6127 4.30667 38.6127 5.24C38.6127 6.06667 38.3927 6.81333 37.9527 7.48C37.526 8.13333 36.9127 8.66667 36.1127 9.08V12.94H39.2527V15.02ZM31.9327 2.54C30.626 2.54 29.566 2.78667 28.7527 3.28C27.9527 3.77333 27.5527 4.42667 27.5527 5.24C27.5527 6.05333 27.9527 6.70667 28.7527 7.2C29.566 7.69333 30.626 7.94 31.9327 7.94C33.2394 7.94 34.2927 7.69333 35.0927 7.2C35.906 6.70667 36.3127 6.05333 36.3127 5.24C36.3127 4.42667 35.906 3.77333 35.0927 3.28C34.2927 2.78667 33.2394 2.54 31.9327 2.54ZM33.9527 12.94V9.8C33.4194 9.92 32.746 9.98 31.9327 9.98C31.1194 9.98 30.4527 9.92 29.9327 9.8V12.94H33.9527ZM45.4306 6.42C44.8839 7.20667 44.2039 7.84667 43.3906 8.34C42.5906 8.83333 41.7039 9.12667 40.7306 9.22V7.26C41.7173 7.14 42.5306 6.74 43.1706 6.06C43.8239 5.36667 44.2439 4.52 44.4306 3.52H40.8706V1.64H44.4906V0.0399996H46.6906V1.64H50.2706V3.52H46.6506C46.5439 4.08 46.4439 4.48667 46.3506 4.74L50.5706 7.42L49.5906 9.08L45.4306 6.42ZM52.2106 0.32H54.3706V9.46H52.2106V5.76H49.7506V3.72H52.2106V0.32ZM48.0506 9.84C50.0239 9.84 51.5973 10.0733 52.7706 10.54C53.9439 11.0067 54.5306 11.76 54.5306 12.8C54.5306 13.84 53.9439 14.5933 52.7706 15.06C51.5973 15.5267 50.0239 15.76 48.0506 15.76C46.0773 15.76 44.5039 15.5267 43.3306 15.06C42.1706 14.5933 41.5906 13.84 41.5906 12.8C41.5906 11.76 42.1706 11.0067 43.3306 10.54C44.5039 10.0733 46.0773 9.84 48.0506 9.84ZM48.0506 13.98C49.3173 13.98 50.3239 13.8867 51.0706 13.7C51.8306 13.5133 52.2106 13.2133 52.2106 12.8C52.2106 12.3867 51.8306 12.0867 51.0706 11.9C50.3106 11.7 49.3039 11.6 48.0506 11.6C46.7973 11.6 45.7906 11.7 45.0306 11.9C44.2706 12.0867 43.8906 12.3867 43.8906 12.8C43.8906 13.2133 44.2639 13.5133 45.0106 13.7C45.7706 13.8867 46.7839 13.98 48.0506 13.98ZM66.0685 2.48V4.58H56.6085V2.48H60.2285V0.26H62.4485V2.48H66.0685ZM69.6885 8.5V15.68H67.5285V0.32H69.6885V6.3H71.6085V8.5H69.6885ZM61.3285 5.56C62.1418 5.56 62.8618 5.76667 63.4885 6.18C64.1151 6.58 64.6018 7.14 64.9485 7.86C65.2951 8.58 65.4685 9.39333 65.4685 10.3C65.4685 11.2067 65.2951 12.02 64.9485 12.74C64.6018 13.46 64.1151 14.02 63.4885 14.42C62.8618 14.82 62.1418 15.02 61.3285 15.02C60.5151 15.02 59.7951 14.82 59.1685 14.42C58.5418 14.02 58.0551 13.46 57.7085 12.74C57.3618 12.02 57.1885 11.2067 57.1885 10.3C57.1885 9.39333 57.3618 8.58 57.7085 7.86C58.0551 7.14 58.5418 6.58 59.1685 6.18C59.7951 5.76667 60.5151 5.56 61.3285 5.56ZM61.3285 13.06C61.9285 13.06 62.4218 12.8067 62.8085 12.3C63.1951 11.7933 63.3885 11.1267 63.3885 10.3C63.3885 9.46 63.1951 8.79333 62.8085 8.3C62.4351 7.79333 61.9418 7.54 61.3285 7.54C60.7151 7.54 60.2151 7.79333 59.8285 8.3C59.4551 8.79333 59.2685 9.46 59.2685 10.3C59.2685 11.1267 59.4618 11.7933 59.8485 12.3C60.2351 12.8067 60.7285 13.06 61.3285 13.06ZM83.7864 11.72V0.32H85.9464V11.72H83.7864ZM77.2864 6.04C76.713 7.01333 75.9997 7.80667 75.1464 8.42C74.293 9.02 73.353 9.37333 72.3264 9.48V7.36C73.1797 7.21333 73.9264 6.82 74.5664 6.18C75.2064 5.52667 75.7064 4.7 76.0664 3.7C76.4264 2.68667 76.613 1.59333 76.6264 0.42L78.8064 0.559999C78.8064 1.84 78.5997 3.06 78.1864 4.22L82.6864 7.66L81.4064 9.3L77.2864 6.04ZM86.2664 15.56H73.2864V10.48H75.4864V13.52H86.2664V15.56ZM92.8793 6.02V4.18H103.419V2.28H92.8793V0.399999H105.579V7.4H103.419V6.02H92.8793ZM106.559 10.18H91.8993V8.28H97.1993V6.3H99.3793V8.28H106.559V10.18ZM105.839 13.66V15.56H92.8593V11.26H95.0593V13.66H105.839ZM119.937 11.98V0.32H121.977V11.98H119.937ZM114.797 5.96V3.9H116.357V0.399999H118.377V11.72H116.357V5.96H114.797ZM115.297 9.48C114.871 9.65333 114.311 9.78667 113.617 9.88C112.924 9.97333 112.184 10.02 111.397 10.02H108.137V0.619999H114.497V2.48H110.157V4.38H114.077V6.16H110.157V8.16H111.537C113.164 8.16 114.417 7.98 115.297 7.62V9.48ZM122.277 15.56H108.957V11.04H111.157V13.52H122.277V15.56ZM130.735 7.2C130.002 8.17333 129.048 8.94667 127.875 9.52C126.715 10.08 125.428 10.3867 124.015 10.44V8.34C125.442 8.26 126.682 7.83333 127.735 7.06C128.802 6.27333 129.475 5.26 129.755 4.02H124.355V1.92H129.775V0.119999H131.995V1.92H137.455V4.02H132.115C132.022 4.56667 131.888 5.04667 131.715 5.46L137.915 8.62L136.975 10.52L130.735 7.2ZM138.235 15.02H123.575V12.92H138.235V15.02ZM152.833 8.5V15.68H150.673V0.32H152.833V6.3H154.753V8.5H152.833ZM147.973 0.799999V4.68C147.973 6.73333 147.646 8.52667 146.993 10.06C146.353 11.58 145.426 12.7533 144.213 13.58C143 14.4067 141.566 14.82 139.913 14.82V12.66C141.78 12.6467 143.22 11.94 144.233 10.54C145.26 9.12667 145.773 7.18 145.773 4.7V2.88H139.913V0.799999H147.973ZM174.546 5.42H172.626V8.66H170.466V0.32H172.626V3.24H174.546V5.42ZM159.646 8.02V0.619999H168.326V8.02H159.646ZM161.806 2.52V6.12H166.206V2.52H161.806ZM167.806 11.26C167.726 11.5533 167.613 11.8333 167.466 12.1L173.186 13.82L172.646 15.74L166.166 13.62C165.419 14.2467 164.499 14.7267 163.406 15.06C162.313 15.3933 161.166 15.56 159.966 15.56V13.6C161.193 13.6 162.306 13.3933 163.306 12.98C164.306 12.5533 164.999 11.98 165.386 11.26H160.126V9.38H172.746V11.26H167.806ZM182.384 0.179999C184.357 0.179999 185.931 0.406666 187.104 0.859999C188.277 1.3 188.864 2.01333 188.864 3C188.864 3.98667 188.277 4.70667 187.104 5.16C185.931 5.61333 184.357 5.84 182.384 5.84C180.411 5.84 178.831 5.61333 177.644 5.16C176.457 4.70667 175.864 3.98667 175.864 3C175.864 2.01333 176.451 1.3 177.624 0.859999C178.811 0.406666 180.397 0.179999 182.384 0.179999ZM182.384 1.86C181.104 1.86 180.077 1.95333 179.304 2.14C178.544 2.32667 178.164 2.61333 178.164 3C178.164 3.4 178.544 3.69333 179.304 3.88C180.077 4.06667 181.104 4.16 182.384 4.16C183.664 4.16 184.684 4.06667 185.444 3.88C186.204 3.69333 186.584 3.4 186.584 3C186.584 2.61333 186.204 2.32667 185.444 2.14C184.684 1.95333 183.664 1.86 182.384 1.86ZM175.044 8.34V6.62H189.704V8.34H175.044ZM178.144 13.06V14.02H188.984V15.56H176.004V11.78H186.644V10.84H175.964V9.34H188.784V13.06H178.144ZM204.402 8.5V15.68H202.282V0.32H204.402V6.3H206.222V8.5H204.402ZM195.482 0.799999V4.34C195.482 7.51333 195.142 9.95333 194.462 11.66C193.782 13.3533 192.688 14.2267 191.182 14.28V12.18C191.968 12.0333 192.528 11.3267 192.862 10.06C193.208 8.79333 193.382 6.96 193.382 4.56V2.86H191.182V0.799999H195.482ZM200.382 0.799999V4.54C200.382 7.78 199.988 10.2867 199.202 12.06C198.428 13.8333 197.235 14.7533 195.622 14.82V12.72C197.395 12.4533 198.282 9.8 198.282 4.76V2.86H196.142V0.799999H200.382ZM221.38 15.02H206.72V12.94H209.88V9.08C209.08 8.66667 208.46 8.13333 208.02 7.48C207.593 6.81333 207.38 6.06667 207.38 5.24C207.38 4.30667 207.653 3.48 208.2 2.76C208.76 2.04 209.546 1.48667 210.56 1.1C211.573 0.7 212.74 0.5 214.06 0.5C215.38 0.5 216.546 0.7 217.56 1.1C218.573 1.48667 219.353 2.04 219.9 2.76C220.46 3.48 220.74 4.30667 220.74 5.24C220.74 6.06667 220.52 6.81333 220.08 7.48C219.653 8.13333 219.04 8.66667 218.24 9.08V12.94H221.38V15.02ZM214.06 2.54C212.753 2.54 211.693 2.78667 210.88 3.28C210.08 3.77333 209.68 4.42667 209.68 5.24C209.68 6.05333 210.08 6.70667 210.88 7.2C211.693 7.69333 212.753 7.94 214.06 7.94C215.366 7.94 216.42 7.69333 217.22 7.2C218.033 6.70667 218.44 6.05333 218.44 5.24C218.44 4.42667 218.033 3.77333 217.22 3.28C216.42 2.78667 215.366 2.54 214.06 2.54ZM216.08 12.94V9.8C215.546 9.92 214.873 9.98 214.06 9.98C213.246 9.98 212.58 9.92 212.06 9.8V12.94H216.08ZM226.518 10.46C226.518 9.95333 226.604 9.50667 226.778 9.12C226.951 8.72 227.164 8.38 227.418 8.1C227.671 7.82 227.998 7.5 228.398 7.14C228.904 6.67333 229.278 6.28 229.518 5.96C229.758 5.62667 229.878 5.23333 229.878 4.78C229.878 4.18 229.638 3.69333 229.158 3.32C228.678 2.94667 228.024 2.76 227.198 2.76C225.771 2.76 224.658 3.27333 223.858 4.3L222.078 3.22C222.638 2.46 223.364 1.87333 224.258 1.46C225.151 1.03333 226.204 0.82 227.418 0.82C228.884 0.82 230.058 1.14 230.938 1.78C231.831 2.42 232.278 3.29333 232.278 4.4C232.278 4.94667 232.184 5.43333 231.998 5.86C231.824 6.27333 231.604 6.62667 231.338 6.92C231.084 7.2 230.744 7.53333 230.318 7.92C229.784 8.4 229.391 8.82 229.138 9.18C228.884 9.52667 228.758 9.95333 228.758 10.46H226.518ZM227.638 15.12C227.211 15.12 226.851 14.9867 226.558 14.72C226.278 14.44 226.138 14.1 226.138 13.7C226.138 13.3 226.278 12.9667 226.558 12.7C226.851 12.4333 227.211 12.3 227.638 12.3C228.064 12.3 228.418 12.4333 228.698 12.7C228.991 12.9667 229.138 13.3 229.138 13.7C229.138 14.1 228.991 14.44 228.698 14.72C228.418 14.9867 228.064 15.12 227.638 15.12Z" fill="#F2F2F2"/>
</svg>
