<svg width="243" height="17" viewBox="0 0 243 17" fill="none" xmlns="http://www.w3.org/2000/svg">
<path d="M0.742118 3.70667V2.12444H4.13767V0.702222H6.11101V2.12444H9.15101V3.70667H0.742118ZM9.54212 8.77333V7.06667H11.231V5.48444H9.54212V3.77778H11.231V0.951111H13.1332V11.1556H11.231V8.77333H9.54212ZM5.13323 9.94667C4.03101 9.94667 3.11841 9.69778 2.39545 9.2C1.67249 8.70222 1.31101 8.01481 1.31101 7.13778C1.31101 6.24889 1.66656 5.56148 2.37767 5.07556C3.10064 4.57778 4.01916 4.32889 5.13323 4.32889C6.2473 4.32889 7.1599 4.57778 7.87101 5.07556C8.59397 5.56148 8.95545 6.24889 8.95545 7.13778C8.95545 8.01481 8.59397 8.70222 7.87101 9.2C7.14804 9.69778 6.23545 9.94667 5.13323 9.94667ZM5.13323 5.82222C4.51693 5.82222 4.03101 5.94667 3.67545 6.19556C3.3199 6.44444 3.14212 6.75852 3.14212 7.13778C3.14212 7.51704 3.3199 7.83111 3.67545 8.08C4.03101 8.31704 4.51693 8.43556 5.13323 8.43556C5.73767 8.43556 6.21767 8.31704 6.57323 8.08C6.92878 7.83111 7.10656 7.51704 7.10656 7.13778C7.10656 6.75852 6.92878 6.44444 6.57323 6.19556C6.21767 5.94667 5.73767 5.82222 5.13323 5.82222ZM13.3821 14.4978H1.86212V10.4978H3.7999V12.72H13.3821V14.4978ZM25.2025 7.65333V0.951111H27.1225V7.65333H25.2025ZM19.4425 5.09333C18.9328 5.78074 18.2988 6.3437 17.5402 6.78222C16.7817 7.20889 15.9402 7.47556 15.0158 7.58222V5.78667C16.1654 5.59704 17.0839 5.06963 17.7714 4.20444C18.4588 3.32741 18.8143 2.27259 18.838 1.04L20.7758 1.16444C20.7758 2.04148 20.6158 2.86518 20.2958 3.63556L24.1891 5.85778L23.3002 7.35111L19.4425 5.09333ZM27.3714 14.4978H15.8869V10.7467H25.2202V9.75111H15.8514V8.29333H27.1225V12.0444H17.7891V13.0578H27.3714V14.4978ZM45.4451 14.0178H32.414V12.1689H37.9429V10H33.2318V4.82667H42.7607V3.15556H33.2318V1.37778H44.6629V6.53333H35.1518V8.20444H44.8229V10H39.8984V12.1689H45.4451V14.0178ZM56.6966 10.8356V3.26222H47.2566V1.37778H58.7232V10.8356H56.6966ZM46.4921 14.0178V12.1156H59.5232V14.0178H46.4921ZM72.4991 8.22222V14.6044H70.5791V0.951111H72.4991V6.26667H74.2058V8.22222H72.4991ZM64.8547 1.2C66.0754 1.2 67.0354 1.73926 67.7347 2.81778C68.4339 3.88444 68.7836 5.48444 68.7836 7.61778C68.7836 9.75111 68.4339 11.357 67.7347 12.4356C67.0354 13.5022 66.0754 14.0356 64.8547 14.0356C63.6458 14.0356 62.6858 13.5022 61.9747 12.4356C61.2754 11.357 60.9258 9.75111 60.9258 7.61778C60.9258 5.48444 61.2754 3.88444 61.9747 2.81778C62.6858 1.73926 63.6458 1.2 64.8547 1.2ZM64.8547 12.1689C65.471 12.1689 65.9569 11.8074 66.3125 11.0844C66.6799 10.3496 66.8636 9.19407 66.8636 7.61778C66.8636 6.04148 66.6799 4.89185 66.3125 4.16889C65.9569 3.43407 65.471 3.06667 64.8547 3.06667C64.2384 3.06667 63.7465 3.43407 63.3791 4.16889C63.0117 4.89185 62.828 6.04148 62.828 7.61778C62.828 9.18222 63.0117 10.3319 63.3791 11.0667C63.7465 11.8015 64.2384 12.1689 64.8547 12.1689ZM81.1728 6.48C79.4424 6.48 78.038 6.24296 76.9595 5.76889C75.881 5.29481 75.3417 4.58963 75.3417 3.65333C75.3417 2.70518 75.881 1.99407 76.9595 1.52C78.038 1.04593 79.4424 0.808888 81.1728 0.808888C82.9032 0.808888 84.3076 1.04593 85.3861 1.52C86.4647 1.99407 87.0039 2.70518 87.0039 3.65333C87.0039 4.58963 86.4647 5.29481 85.3861 5.76889C84.3076 6.24296 82.9032 6.48 81.1728 6.48ZM81.1728 2.37333C80.0469 2.37333 79.1284 2.48593 78.4173 2.71111C77.718 2.92444 77.3684 3.23852 77.3684 3.65333C77.3684 4.0563 77.718 4.36444 78.4173 4.57778C79.1284 4.79111 80.0469 4.89778 81.1728 4.89778C82.2987 4.89778 83.2113 4.79704 83.9106 4.59556C84.6098 4.38222 84.9595 4.06815 84.9595 3.65333C84.9595 3.23852 84.6098 2.92444 83.9106 2.71111C83.2113 2.48593 82.2987 2.37333 81.1728 2.37333ZM87.6795 8.93333H82.1328V9.92889H80.2128V8.93333H74.6484V7.26222H87.6795V8.93333ZM82.4528 10.5333C82.3936 10.8533 82.275 11.1674 82.0973 11.4756L87.2884 12.9689L86.7373 14.64L80.9773 12.8089C80.3136 13.3659 79.4721 13.7867 78.4528 14.0711C77.4454 14.3556 76.3847 14.4978 75.2706 14.4978V12.7733C76.5506 12.7733 77.6943 12.5422 78.7017 12.08C79.7091 11.6178 80.3254 10.9896 80.5506 10.1956L82.4528 10.5333ZM90.3443 11.4044C90.7354 11.4044 91.0554 11.5348 91.3043 11.7956C91.5532 12.0444 91.6776 12.3644 91.6776 12.7556C91.6776 12.957 91.6539 13.1526 91.6065 13.3422C91.5591 13.5319 91.4643 13.8044 91.322 14.16L90.4332 16.6667H89.082L89.7932 13.9644C89.5443 13.8696 89.3428 13.7156 89.1887 13.5022C89.0465 13.2889 88.9754 13.04 88.9754 12.7556C88.9754 12.3644 89.1058 12.0444 89.3665 11.7956C89.6272 11.5348 89.9532 11.4044 90.3443 11.4044ZM97.3654 6.24889V0.915555H99.3032V4.56H108.761V6.24889H97.3654ZM109.508 9.18222H103.961V11.5289H102.023V9.18222H96.4765V7.49333H109.508V9.18222ZM108.885 12.7911V14.4978H97.3298V10.2667H99.3032V12.7911H108.885ZM120.937 14.6044V0.951111H122.875V14.6044H120.937ZM115.052 1.2C116.273 1.2 117.239 1.73926 117.95 2.81778C118.661 3.88444 119.017 5.48444 119.017 7.61778C119.017 9.75111 118.661 11.357 117.95 12.4356C117.239 13.5022 116.273 14.0356 115.052 14.0356C113.82 14.0356 112.842 13.5022 112.119 12.4356C111.408 11.357 111.052 9.75111 111.052 7.61778C111.052 5.48444 111.408 3.88444 112.119 2.81778C112.842 1.73926 113.82 1.2 115.052 1.2ZM115.052 3.06667C114.412 3.06667 113.903 3.43407 113.524 4.16889C113.144 4.9037 112.955 6.05333 112.955 7.61778C112.955 9.18222 113.144 10.3319 113.524 11.0667C113.903 11.8015 114.412 12.1689 115.052 12.1689C115.681 12.1689 116.178 11.8015 116.546 11.0667C116.925 10.3319 117.115 9.18222 117.115 7.61778C117.115 6.05333 116.925 4.9037 116.546 4.16889C116.178 3.43407 115.681 3.06667 115.052 3.06667ZM134.282 4.45333C133.63 4.89185 132.818 5.22963 131.846 5.46667C130.886 5.7037 129.873 5.83407 128.806 5.85778V4.31111C129.897 4.28741 130.91 4.12741 131.846 3.83111C132.782 3.52296 133.399 3.10222 133.695 2.56889H128.984V1.05778H140.362V2.56889H135.828C135.793 2.77037 135.716 2.9837 135.597 3.20889L140.699 4.41778L140.273 5.91111L134.282 4.45333ZM141.179 8.08H128.148V6.55111H141.179V8.08ZM140.539 13.1289V14.4978H129.002V11.1378H138.459V10.3022H128.966V8.96889H140.362V12.2756H130.904V13.1289H140.539ZM154.618 14.6044H152.698V8.18667H149.515C149.053 9.96444 148.235 11.3511 147.062 12.3467C145.889 13.3422 144.449 13.84 142.742 13.84V11.92C144.413 11.9081 145.699 11.28 146.6 10.0356C147.501 8.77926 147.951 7.04889 147.951 4.84444V3.22667H142.742V1.37778H149.906V4.82667C149.906 5.27704 149.877 5.76889 149.818 6.30222H152.698V0.951111H154.618V14.6044ZM162.829 6.83556C161.111 6.83556 159.706 6.58074 158.616 6.07111C157.537 5.56148 156.998 4.81481 156.998 3.83111C156.998 2.83556 157.537 2.08296 158.616 1.57333C159.706 1.0637 161.111 0.808888 162.829 0.808888C164.548 0.808888 165.946 1.0637 167.025 1.57333C168.115 2.08296 168.66 2.83556 168.66 3.83111C168.66 4.81481 168.115 5.56148 167.025 6.07111C165.946 6.58074 164.548 6.83556 162.829 6.83556ZM162.829 2.39111C161.715 2.39111 160.802 2.52148 160.091 2.78222C159.38 3.03111 159.025 3.38074 159.025 3.83111C159.025 4.28148 159.38 4.63111 160.091 4.88C160.802 5.11704 161.715 5.23556 162.829 5.23556C163.943 5.23556 164.85 5.11704 165.549 4.88C166.26 4.63111 166.616 4.28148 166.616 3.83111C166.616 3.38074 166.26 3.03111 165.549 2.78222C164.85 2.52148 163.943 2.39111 162.829 2.39111ZM169.336 9.48444H163.789V11.6356H161.851V9.48444H156.305V7.79556H169.336V9.48444ZM168.696 12.8089V14.4978H157.158V10.5689H159.114V12.8089H168.696ZM186.556 14.6044H184.743V8.16889H183.036V14.3733H181.241V1.02222H183.036V6.26667H184.743V0.951111H186.556V14.6044ZM177.081 1.2C178.112 1.2 178.882 1.71556 179.392 2.74667C179.913 3.77778 180.174 5.40148 180.174 7.61778C180.174 9.83407 179.913 11.4578 179.392 12.4889C178.882 13.52 178.112 14.0356 177.081 14.0356C176.061 14.0356 175.291 13.52 174.769 12.4889C174.26 11.4578 174.005 9.83407 174.005 7.61778C174.005 5.40148 174.26 3.77778 174.769 2.74667C175.291 1.71556 176.061 1.2 177.081 1.2ZM177.081 12.2044C177.531 12.2044 177.857 11.837 178.058 11.1022C178.272 10.3556 178.378 9.19407 178.378 7.61778C178.378 6.04148 178.272 4.88593 178.058 4.15111C177.857 3.40444 177.531 3.03111 177.081 3.03111C176.642 3.03111 176.316 3.40444 176.103 4.15111C175.901 4.89778 175.801 6.05333 175.801 7.61778C175.801 9.18222 175.901 10.3378 176.103 11.0844C176.316 11.8311 176.642 12.2044 177.081 12.2044ZM198.341 14.6044V0.951111H200.279V14.6044H198.341ZM194.003 12.0089C194.608 12.0089 195.218 11.9496 195.834 11.8311C196.451 11.7126 196.96 11.5526 197.363 11.3511V13.2C196.972 13.4133 196.474 13.5793 195.87 13.6978C195.265 13.8044 194.643 13.8578 194.003 13.8578H188.67V1.28889H190.643V12.0089H194.003ZM214.712 14.6044H212.899V0.951111H214.712V14.6044ZM211.512 1.02222V14.3733H209.717V8.16889H208.099V13.8578H202.41V1.37778H208.099V6.26667H209.717V1.02222H211.512ZM204.188 3.20889V12.0267H206.286V3.20889H204.188ZM226.515 14.6044V0.951111H228.453V14.6044H226.515ZM220.631 1.2C221.851 1.2 222.817 1.73926 223.528 2.81778C224.239 3.88444 224.595 5.48444 224.595 7.61778C224.595 9.75111 224.239 11.357 223.528 12.4356C222.817 13.5022 221.851 14.0356 220.631 14.0356C219.398 14.0356 218.42 13.5022 217.697 12.4356C216.986 11.357 216.631 9.75111 216.631 7.61778C216.631 5.48444 216.986 3.88444 217.697 2.81778C218.42 1.73926 219.398 1.2 220.631 1.2ZM220.631 3.06667C219.991 3.06667 219.481 3.43407 219.102 4.16889C218.722 4.9037 218.533 6.05333 218.533 7.61778C218.533 9.18222 218.722 10.3319 219.102 11.0667C219.481 11.8015 219.991 12.1689 220.631 12.1689C221.259 12.1689 221.756 11.8015 222.124 11.0667C222.503 10.3319 222.693 9.18222 222.693 7.61778C222.693 6.05333 222.503 4.9037 222.124 4.16889C221.756 3.43407 221.259 3.06667 220.631 3.06667ZM238.193 6.76444V5.09333H240.7V3.79556H238.193V2.12444H240.7V0.951111H242.602V11.0844H240.7V6.76444H238.193ZM234.513 6.28444C234.003 7.16148 233.381 7.87259 232.646 8.41778C231.923 8.96296 231.118 9.28296 230.229 9.37778V7.49333C230.963 7.37481 231.603 7.00741 232.149 6.39111C232.706 5.77481 233.132 4.99852 233.429 4.06222C233.737 3.11407 233.897 2.10667 233.909 1.04L235.846 1.16444C235.846 2.36148 235.663 3.51111 235.295 4.61333L239.153 7.90222L237.944 9.28889L234.513 6.28444ZM242.833 14.4978H231.331V10.0533H233.286V12.6844H242.833V14.4978Z" fill="white"/>
</svg>
