<svg width="137" height="15" viewBox="0 0 137 15" fill="none" xmlns="http://www.w3.org/2000/svg">
<path d="M7.415 8.34667C6.24167 8.34667 5.21056 8.20444 4.32167 7.92C3.44463 7.6237 2.76315 7.19704 2.27722 6.64C1.80315 6.08296 1.56611 5.42518 1.56611 4.66667C1.56611 3.90815 1.80315 3.2563 2.27722 2.71111C2.76315 2.15407 3.44463 1.73333 4.32167 1.44889C5.21056 1.15259 6.24167 1.00444 7.415 1.00444C8.58833 1.00444 9.61352 1.15259 10.4906 1.44889C11.3794 1.73333 12.0609 2.15407 12.535 2.71111C13.0209 3.2563 13.2639 3.90815 13.2639 4.66667C13.2639 5.42518 13.0209 6.08296 12.535 6.64C12.0609 7.19704 11.3794 7.6237 10.4906 7.92C9.61352 8.20444 8.58833 8.34667 7.415 8.34667ZM7.415 2.8C6.26537 2.8 5.335 2.96593 4.62389 3.29778C3.92463 3.61778 3.575 4.07407 3.575 4.66667C3.575 5.25926 3.92463 5.72148 4.62389 6.05333C5.335 6.38518 6.26537 6.55111 7.415 6.55111C8.56463 6.55111 9.48907 6.38518 10.1883 6.05333C10.8876 5.72148 11.2372 5.25926 11.2372 4.66667C11.2372 4.07407 10.8817 3.61778 10.1706 3.29778C9.4713 2.96593 8.55278 2.8 7.415 2.8ZM10.9172 11.3156V14.9244H8.99722V11.3156H5.83278V14.9244H3.91278V11.3156H0.890556V9.44889H13.9217V11.3156H10.9172ZM27.6265 14.6044H25.8487V8.15111H24.3198V14.3733H22.542V1.02222H24.3198V6.23111H25.8487V0.951111H27.6265V14.6044ZM15.3598 3.06667V1.34222H21.3509V10H19.5909V7.19111H15.3776V5.44889H19.5909V3.06667H15.3598ZM18.2753 12.0444C19.8753 12.0444 21.0665 11.8785 21.8487 11.5467V13.3422C21.4457 13.5081 20.9124 13.6385 20.2487 13.7333C19.5968 13.8163 18.9094 13.8578 18.1865 13.8578H14.9687V12.0444H16.4798V8.68444H18.2753V12.0444ZM45.2202 14.6044H43.4069V0.951111H45.2202V14.6044ZM41.9491 1.02222V14.3733H40.1713V8.16889H38.2869C38.0024 9.93481 37.3743 11.3156 36.4024 12.3111C35.4306 13.2948 34.2395 13.8044 32.8291 13.84V12.0089C33.8365 11.9615 34.6484 11.5941 35.2647 10.9067C35.8928 10.2074 36.3076 9.25333 36.5091 8.04444H32.8291V6.24889H36.6513V5.16444V3.17333H32.8291V1.37778H38.4647V5.09333V6.26667H40.1713V1.02222H41.9491ZM57.0228 14.6044V0.951111H58.9428V14.6044H57.0228ZM47.3339 13.8578V1.37778H54.8183V13.8578H47.3339ZM52.8983 3.26222H49.2539V11.9733H52.8983V3.26222ZM77.2654 9.44889H64.2343V7.83111H69.7987V6.60444H64.9632V5.02222H67.1321V2.62222H65.1054V1.05778H76.4121V2.62222H74.3854V5.02222H76.5365V6.60444H71.7188V7.83111H77.2654V9.44889ZM72.4654 5.02222V2.62222H69.0521V5.02222H72.4654ZM76.4299 10.5333V14.6756H74.4743V12.1511H64.9987V10.5333H76.4299ZM91.948 5.04H90.2413V7.81333H88.3213V0.951111H90.2413V3.19111H91.948V5.04ZM78.7035 7.38667V1.16444H80.588V2.62222H84.5524V1.16444H86.4191V7.38667H78.7035ZM84.5524 4.18667H80.588V5.78667H84.5524V4.18667ZM90.4902 13.0933V14.4978H79.1658V10.8178H88.3569V9.87556H79.1302V8.45333H90.2413V12.1333H81.068V13.0933H90.4902ZM96.7062 7.77778V5.89333H106.128V3.20889H96.7062V1.32444H108.084V10.7644H106.128V7.77778H96.7062ZM108.937 14.0178H95.9062V12.1333H100.617V9.36H102.555V12.1333H108.937V14.0178ZM120.367 14.6044V0.951111H122.287V14.6044H120.367ZM110.678 13.8578V1.37778H118.162V13.8578H110.678ZM116.242 3.26222H112.598V11.9733H116.242V3.26222ZM134.427 14.6044V0.951111H136.365V14.6044H134.427ZM126.711 3.22667V12.0089H130.089C130.705 12.0089 131.316 11.9496 131.92 11.8311C132.537 11.7126 133.046 11.5585 133.449 11.3689V13.2C133.058 13.4015 132.548 13.5615 131.92 13.68C131.292 13.7985 130.658 13.8578 130.018 13.8578H124.756V1.37778H132.418V3.22667H126.711Z" fill="white"/>
</svg>
