<svg width="197" height="16" viewBox="0 0 197 16" fill="none" xmlns="http://www.w3.org/2000/svg">
<path d="M15.1579 10.32H0.43793V8.12H6.51793V6.96C4.89126 6.84 3.59126 6.49333 2.61793 5.92C1.6446 5.34667 1.15793 4.56 1.15793 3.56C1.15793 2.42667 1.77126 1.56667 2.99793 0.98C4.2246 0.393333 5.8246 0.0999995 7.79793 0.0999995C9.77126 0.0999995 11.3713 0.393333 12.5979 0.98C13.8246 1.56667 14.4379 2.42667 14.4379 3.56C14.4379 4.56 13.9446 5.34667 12.9579 5.92C11.9846 6.49333 10.6846 6.84 9.05793 6.96V8.12H15.1579V10.32ZM3.83793 3.56C3.83793 4 4.19793 4.34 4.91793 4.58C5.65126 4.80667 6.61126 4.92 7.79793 4.92C8.9846 4.92 9.93793 4.80667 10.6579 4.58C11.3779 4.34 11.7379 4 11.7379 3.56C11.7379 3.12 11.3713 2.78 10.6379 2.54C9.91793 2.3 8.97126 2.18 7.79793 2.18C6.6246 2.18 5.67126 2.3 4.93793 2.54C4.2046 2.78 3.83793 3.12 3.83793 3.56ZM14.4579 13.38V15.62H1.33793V11.16H3.91793V13.38H14.4579ZM34.6109 15.68H32.2309V0.32H34.6109V15.68ZM30.8309 0.38V15.42H28.4509V7.72H26.6309V5.2H28.4509V0.38H30.8309ZM25.4109 0.72C25.4109 3.16 25.2976 5.22 25.0709 6.9L28.4509 13.68L26.3709 14.74L24.3109 10.52C23.4442 13.24 22.0976 14.7 20.2709 14.9V12.2C21.1776 12 21.8576 10.8867 22.3109 8.86C22.7776 6.83333 23.0109 4.09333 23.0109 0.64L25.4109 0.72ZM51.4488 5.38H49.6288V8.78H47.1088V0.32H49.6288V2.86H51.4488V5.38ZM41.1688 5.56C40.5688 6.45333 39.8355 7.16667 38.9688 7.7C38.1021 8.23333 37.1355 8.54667 36.0688 8.64V6.26C36.8821 6.14 37.5888 5.81333 38.1888 5.28C38.8021 4.74667 39.2755 4.06 39.6088 3.22C39.9421 2.38 40.1088 1.44 40.1088 0.399999L42.6488 0.559999C42.6488 1.64 42.4955 2.63333 42.1888 3.54L46.3288 6.34L45.0488 8.24L41.1688 5.56ZM43.3088 9.1C45.2821 9.1 46.8555 9.36667 48.0288 9.9C49.2021 10.4333 49.7888 11.28 49.7888 12.44C49.7888 13.6133 49.2021 14.4667 48.0288 15C46.8555 15.5333 45.2821 15.8 43.3088 15.8C41.3488 15.8 39.7755 15.5333 38.5888 15C37.4155 14.4667 36.8288 13.6133 36.8288 12.44C36.8288 11.28 37.4155 10.4333 38.5888 9.9C39.7755 9.36667 41.3488 9.1 43.3088 9.1ZM43.3088 13.68C44.4288 13.68 45.3355 13.58 46.0288 13.38C46.7221 13.1667 47.0688 12.8533 47.0688 12.44C47.0688 12.0267 46.7221 11.72 46.0288 11.52C45.3355 11.32 44.4288 11.22 43.3088 11.22C42.1888 11.22 41.2821 11.32 40.5888 11.52C39.8955 11.72 39.5488 12.0267 39.5488 12.44C39.5488 12.8533 39.8955 13.1667 40.5888 13.38C41.2821 13.58 42.1888 13.68 43.3088 13.68ZM70.5818 15.08H55.8618V12.6H61.9418V9.74H56.7018V0.739999H69.7218V9.74H64.5018V12.6H70.5818V15.08ZM67.2018 7.28V3.22H59.2418V7.28H67.2018ZM75.1796 2.5V4.64H85.6396V6.76H72.6396V0.38H85.4796V2.5H75.1796ZM71.6996 10.14V7.94H86.4196V10.14H71.6996ZM85.7196 13.38V15.62H72.5996V11.08H75.1796V13.38H85.7196ZM94.9126 3.2V7.66H105.513V10.1H92.3326V0.739999H105.353V3.2H94.9126ZM91.4926 15.08V12.6H106.213V15.08H91.4926ZM120.891 8.68V15.68H118.371V0.32H120.891V6.12H122.711V8.68H120.891ZM113.731 12.52C114.424 12.52 115.117 12.4533 115.811 12.32C116.504 12.1867 117.071 12.0133 117.511 11.8V14.16C117.084 14.3867 116.517 14.5667 115.811 14.7C115.104 14.8333 114.384 14.9 113.651 14.9H107.871V6.58H113.611V3.14H107.831V0.739999H116.131V8.94H110.391V12.52H113.731ZM136.728 8.68V15.68H134.208V0.32H136.728V6.12H138.548V8.68H136.728ZM132.128 0.739999V14.9H123.728V0.739999H132.128ZM129.568 12.44V3.2H126.248V12.44H129.568ZM152.926 4.2V6.42H139.946V0.24H142.486V4.2H152.926ZM139.006 9.92V7.68H153.726V9.92H139.006ZM153.026 13.38V15.62H139.906V10.92H142.486V13.38H153.026ZM173.519 10.32H158.799V8.12H164.879V6.96C163.253 6.84 161.953 6.49333 160.979 5.92C160.006 5.34667 159.519 4.56 159.519 3.56C159.519 2.42667 160.133 1.56667 161.359 0.98C162.586 0.393333 164.186 0.0999995 166.159 0.0999995C168.133 0.0999995 169.733 0.393333 170.959 0.98C172.186 1.56667 172.799 2.42667 172.799 3.56C172.799 4.56 172.306 5.34667 171.319 5.92C170.346 6.49333 169.046 6.84 167.419 6.96V8.12H173.519V10.32ZM162.199 3.56C162.199 4 162.559 4.34 163.279 4.58C164.013 4.80667 164.973 4.92 166.159 4.92C167.346 4.92 168.299 4.80667 169.019 4.58C169.739 4.34 170.099 4 170.099 3.56C170.099 3.12 169.733 2.78 168.999 2.54C168.279 2.3 167.333 2.18 166.159 2.18C164.986 2.18 164.033 2.3 163.299 2.54C162.566 2.78 162.199 3.12 162.199 3.56ZM172.819 13.38V15.62H159.699V11.16H162.279V13.38H172.819ZM180.717 6.9V9.08H175.157V6.9H180.717ZM193.776 15.68V0.32H196.316V15.68H193.776ZM185.596 3.16V12.48H189.076C189.77 12.48 190.456 12.4133 191.136 12.28C191.83 12.1467 192.403 11.9733 192.856 11.76V14.16C192.416 14.3867 191.836 14.5667 191.116 14.7C190.41 14.8333 189.696 14.9 188.976 14.9H183.056V0.739999H191.696V3.16H185.596Z" fill="white"/>
</svg>
