<svg width="181" height="17" viewBox="0 0 181 17" fill="none" xmlns="http://www.w3.org/2000/svg">
<path d="M15.4538 10.32H0.733828V8.12H6.81383V6.96C5.18716 6.84 3.88716 6.49333 2.91383 5.92C1.94049 5.34667 1.45383 4.56 1.45383 3.56C1.45383 2.42667 2.06716 1.56667 3.29383 0.98C4.52049 0.393333 6.12049 0.0999995 8.09383 0.0999995C10.0672 0.0999995 11.6672 0.393333 12.8938 0.98C14.1205 1.56667 14.7338 2.42667 14.7338 3.56C14.7338 4.56 14.2405 5.34667 13.2538 5.92C12.2805 6.49333 10.9805 6.84 9.35383 6.96V8.12H15.4538V10.32ZM4.13383 3.56C4.13383 4 4.49383 4.34 5.21383 4.58C5.94716 4.80667 6.90716 4.92 8.09383 4.92C9.2805 4.92 10.2338 4.80667 10.9538 4.58C11.6738 4.34 12.0338 4 12.0338 3.56C12.0338 3.12 11.6672 2.78 10.9338 2.54C10.2138 2.3 9.26716 2.18 8.09383 2.18C6.9205 2.18 5.96716 2.3 5.23383 2.54C4.50049 2.78 4.13383 3.12 4.13383 3.56ZM14.7538 13.38V15.62H1.63383V11.16H4.21383V13.38H14.7538ZM34.9068 15.68H32.5268V0.32H34.9068V15.68ZM31.1268 0.38V15.42H28.7468V7.72H26.9268V5.2H28.7468V0.38H31.1268ZM25.7068 0.72C25.7068 3.16 25.5935 5.22 25.3668 6.9L28.7468 13.68L26.6668 14.74L24.6068 10.52C23.7401 13.24 22.3935 14.7 20.5668 14.9V12.2C21.4735 12 22.1535 10.8867 22.6068 8.86C23.0735 6.83333 23.3068 4.09333 23.3068 0.64L25.7068 0.72ZM51.7447 5.38H49.9247V8.78H47.4047V0.32H49.9247V2.86H51.7447V5.38ZM41.4647 5.56C40.8647 6.45333 40.1314 7.16667 39.2647 7.7C38.398 8.23333 37.4314 8.54667 36.3647 8.64V6.26C37.178 6.14 37.8847 5.81333 38.4847 5.28C39.098 4.74667 39.5714 4.06 39.9047 3.22C40.238 2.38 40.4047 1.44 40.4047 0.399999L42.9447 0.559999C42.9447 1.64 42.7914 2.63333 42.4847 3.54L46.6247 6.34L45.3447 8.24L41.4647 5.56ZM43.6047 9.1C45.578 9.1 47.1514 9.36667 48.3247 9.9C49.498 10.4333 50.0847 11.28 50.0847 12.44C50.0847 13.6133 49.498 14.4667 48.3247 15C47.1514 15.5333 45.578 15.8 43.6047 15.8C41.6447 15.8 40.0714 15.5333 38.8847 15C37.7114 14.4667 37.1247 13.6133 37.1247 12.44C37.1247 11.28 37.7114 10.4333 38.8847 9.9C40.0714 9.36667 41.6447 9.1 43.6047 9.1ZM43.6047 13.68C44.7247 13.68 45.6314 13.58 46.3247 13.38C47.018 13.1667 47.3647 12.8533 47.3647 12.44C47.3647 12.0267 47.018 11.72 46.3247 11.52C45.6314 11.32 44.7247 11.22 43.6047 11.22C42.4847 11.22 41.578 11.32 40.8847 11.52C40.1914 11.72 39.8447 12.0267 39.8447 12.44C39.8447 12.8533 40.1914 13.1667 40.8847 13.38C41.578 13.58 42.4847 13.68 43.6047 13.68ZM70.8777 15.08H56.1577V12.6H62.2377V9.74H56.9977V0.739999H70.0177V9.74H64.7977V12.6H70.8777V15.08ZM67.4977 7.28V3.22H59.5377V7.28H67.4977ZM75.4755 2.5V4.64H85.9355V6.76H72.9355V0.38H85.7755V2.5H75.4755ZM71.9955 10.14V7.94H86.7155V10.14H71.9955ZM86.0155 13.38V15.62H72.8955V11.08H75.4755V13.38H86.0155ZM105.349 8.68V15.68H102.829V0.32H105.349V6.12H107.169V8.68H105.349ZM98.1885 12.5C98.8818 12.5 99.5752 12.4333 100.269 12.3C100.962 12.1667 101.529 11.9933 101.969 11.78V14.18C101.555 14.4067 100.975 14.5867 100.229 14.72C99.4952 14.84 98.7552 14.9 98.0085 14.9H92.3485V0.739999H100.829V3.14H94.9085V12.5H98.1885ZM108.526 7.26V4.88H118.806V2.92H108.526V0.519999H121.406V8.96H118.806V7.26H108.526ZM119.106 12.2V16.04H116.566V12.2H113.406V16.04H110.866V12.2H107.626V9.8H122.346V12.2H119.106ZM137.384 4.2V6.42H124.404V0.24H126.944V4.2H137.384ZM123.464 9.92V7.68H138.184V9.92H123.464ZM137.484 13.38V15.62H124.364V10.92H126.944V13.38H137.484ZM157.977 10.32H143.257V8.12H149.337V6.96C147.711 6.84 146.411 6.49333 145.437 5.92C144.464 5.34667 143.977 4.56 143.977 3.56C143.977 2.42667 144.591 1.56667 145.817 0.98C147.044 0.393333 148.644 0.0999995 150.617 0.0999995C152.591 0.0999995 154.191 0.393333 155.417 0.98C156.644 1.56667 157.257 2.42667 157.257 3.56C157.257 4.56 156.764 5.34667 155.777 5.92C154.804 6.49333 153.504 6.84 151.877 6.96V8.12H157.977V10.32ZM146.657 3.56C146.657 4 147.017 4.34 147.737 4.58C148.471 4.80667 149.431 4.92 150.617 4.92C151.804 4.92 152.757 4.80667 153.477 4.58C154.197 4.34 154.557 4 154.557 3.56C154.557 3.12 154.191 2.78 153.457 2.54C152.737 2.3 151.791 2.18 150.617 2.18C149.444 2.18 148.491 2.3 147.757 2.54C147.024 2.78 146.657 3.12 146.657 3.56ZM157.277 13.38V15.62H144.157V11.16H146.737V13.38H157.277ZM165.175 6.9V9.08H159.615V6.9H165.175ZM178.234 15.68V0.32H180.774V15.68H178.234ZM170.054 3.16V12.48H173.534C174.228 12.48 174.914 12.4133 175.594 12.28C176.288 12.1467 176.861 11.9733 177.314 11.76V14.16C176.874 14.3867 176.294 14.5667 175.574 14.7C174.868 14.8333 174.154 14.9 173.434 14.9H167.514V0.739999H176.154V3.16H170.054Z" fill="white"/>
</svg>
