<svg width="201" height="17" viewBox="0 0 201 17" fill="none" xmlns="http://www.w3.org/2000/svg">
<path d="M14.08 15.68H11.54V0.32H14.08V15.68ZM6.78004 3.18C6.74004 4.83333 6.61337 6.21333 6.40004 7.32L10.8 13.24L8.80004 14.82L5.54004 10.28C4.98004 11.72 4.25337 12.84 3.36004 13.64C2.48004 14.4267 1.49337 14.8467 0.400039 14.9V12.22C1.14671 12.1133 1.80004 11.6733 2.36004 10.9C2.93337 10.1133 3.38004 9.06 3.70004 7.74C4.03337 6.40667 4.21337 4.88667 4.24004 3.18H0.780039V0.739999H10.1V3.18H6.78004ZM16.8179 2.76V0.58H29.7579V6H19.3379V7.2H29.9379V9.38H16.8579V3.96H27.2779V2.76H16.8179ZM24.5979 13V16.04H21.9979V13H15.9379V10.6H30.6579V13H24.5979ZM31.6758 3.58V1.48H35.3558V0.0399996H37.9358V1.48H41.6358V3.58H31.6758ZM47.1558 6.66H45.3358V11.8H42.8158V0.32H45.3358V4.08H47.1558V6.66ZM36.6558 10.46C35.3758 10.46 34.3158 10.18 33.4758 9.62C32.6358 9.06 32.2158 8.28667 32.2158 7.3C32.2158 6.31333 32.6358 5.54 33.4758 4.98C34.3158 4.42 35.3758 4.14 36.6558 4.14C37.9225 4.14 38.9758 4.42 39.8158 4.98C40.6692 5.54 41.0958 6.31333 41.0958 7.3C41.0958 8.28667 40.6692 9.06 39.8158 9.62C38.9758 10.18 37.9225 10.46 36.6558 10.46ZM36.6558 6.08C36.0425 6.08 35.5492 6.2 35.1758 6.44C34.8158 6.66667 34.6358 6.95333 34.6358 7.3C34.6358 7.66 34.8158 7.95333 35.1758 8.18C35.5492 8.40667 36.0425 8.52 36.6558 8.52C37.2558 8.52 37.7425 8.40667 38.1158 8.18C38.4892 7.95333 38.6758 7.66 38.6758 7.3C38.6758 6.95333 38.4892 6.66667 38.1158 6.44C37.7425 6.2 37.2558 6.08 36.6558 6.08ZM45.6158 13.3V15.62H32.6358V11.06H35.2158V13.3H45.6158ZM63.0088 7.84V0.32H65.5488V7.84H63.0088ZM56.3688 0.38C57.3021 0.38 58.1155 0.533333 58.8088 0.84C59.5155 1.14667 60.0555 1.58 60.4288 2.14C60.8155 2.7 61.0088 3.34 61.0088 4.06C61.0088 4.79333 60.8155 5.44 60.4288 6C60.0555 6.54667 59.5155 6.97333 58.8088 7.28C58.1155 7.58667 57.3021 7.74 56.3688 7.74C55.4221 7.74 54.5955 7.58667 53.8888 7.28C53.1955 6.97333 52.6621 6.54667 52.2888 6C51.9155 5.44 51.7288 4.79333 51.7288 4.06C51.7288 3.34 51.9155 2.7 52.2888 2.14C52.6755 1.58 53.2155 1.14667 53.9088 0.84C54.6155 0.533333 55.4355 0.38 56.3688 0.38ZM56.3688 2.48C55.7155 2.48 55.1955 2.62 54.8088 2.9C54.4221 3.18 54.2288 3.56667 54.2288 4.06C54.2288 4.54 54.4221 4.92667 54.8088 5.22C55.2088 5.5 55.7288 5.64 56.3688 5.64C57.0088 5.64 57.5221 5.5 57.9088 5.22C58.3088 4.92667 58.5088 4.54 58.5088 4.06C58.5088 3.56667 58.3155 3.18 57.9288 2.9C57.5421 2.62 57.0221 2.48 56.3688 2.48ZM55.3888 12.88V13.76H65.7688V15.62H52.8688V11.22H63.0488V10.34H52.8288V8.48H65.5488V12.88H55.3888ZM82.7867 5.38H80.9667V8.78H78.4467V0.32H80.9667V2.86H82.7867V5.38ZM72.5067 5.56C71.9067 6.45333 71.1733 7.16667 70.3067 7.7C69.44 8.23333 68.4733 8.54667 67.4067 8.64V6.26C68.22 6.14 68.9267 5.81333 69.5267 5.28C70.14 4.74667 70.6133 4.06 70.9467 3.22C71.28 2.38 71.4467 1.44 71.4467 0.399999L73.9867 0.559999C73.9867 1.64 73.8333 2.63333 73.5267 3.54L77.6667 6.34L76.3867 8.24L72.5067 5.56ZM74.6467 9.1C76.62 9.1 78.1933 9.36667 79.3667 9.9C80.54 10.4333 81.1267 11.28 81.1267 12.44C81.1267 13.6133 80.54 14.4667 79.3667 15C78.1933 15.5333 76.62 15.8 74.6467 15.8C72.6867 15.8 71.1133 15.5333 69.9267 15C68.7533 14.4667 68.1667 13.6133 68.1667 12.44C68.1667 11.28 68.7533 10.4333 69.9267 9.9C71.1133 9.36667 72.6867 9.1 74.6467 9.1ZM74.6467 13.68C75.7667 13.68 76.6733 13.58 77.3667 13.38C78.06 13.1667 78.4067 12.8533 78.4067 12.44C78.4067 12.0267 78.06 11.72 77.3667 11.52C76.6733 11.32 75.7667 11.22 74.6467 11.22C73.5267 11.22 72.62 11.32 71.9267 11.52C71.2333 11.72 70.8867 12.0267 70.8867 12.44C70.8867 12.8533 71.2333 13.1667 71.9267 13.38C72.62 13.58 73.5267 13.68 74.6467 13.68ZM97.6246 15.68H95.2646V0.32H97.6246V15.68ZM93.9846 0.38V15.42H91.6246V8.88H90.3246C90.2446 11.0267 89.9112 12.6 89.3246 13.6C88.7379 14.5867 87.9046 15.08 86.8246 15.08C85.6512 15.08 84.7712 14.5067 84.1846 13.36C83.5979 12.2 83.3046 10.3533 83.3046 7.82C83.3046 5.3 83.5979 3.46 84.1846 2.3C84.7712 1.14 85.6512 0.559999 86.8246 0.559999C87.8646 0.559999 88.6779 1.02667 89.2646 1.96C89.8512 2.88 90.1979 4.33333 90.3046 6.32H91.6246V0.38H93.9846ZM86.8246 12.68C87.2246 12.68 87.5179 12.2933 87.7046 11.52C87.8912 10.7333 87.9846 9.5 87.9846 7.82C87.9846 6.14 87.8912 4.91333 87.7046 4.14C87.5179 3.35333 87.2246 2.96 86.8246 2.96C86.4112 2.96 86.1112 3.35333 85.9246 4.14C85.7379 4.91333 85.6446 6.14 85.6446 7.82C85.6446 9.5 85.7379 10.7333 85.9246 11.52C86.1112 12.2933 86.4112 12.68 86.8246 12.68ZM117.418 15.68H115.038V8.64H113.358V15.42H110.998V0.38H113.358V6.12H115.038V0.32H117.418V15.68ZM108.218 0.72C108.218 3.04 108.111 5.04667 107.898 6.74L111.298 13.58L109.178 14.7L107.138 10.42C106.284 13.2067 104.931 14.7 103.078 14.9V12.2C103.984 12 104.664 10.8867 105.118 8.86C105.584 6.83333 105.818 4.09333 105.818 0.64L108.218 0.72ZM133.595 15.08H118.875V12.66H124.955V10.56H119.735V4.52H130.235V3.08H119.715V0.739999H132.755V6.76H122.255V8.24H132.915V10.56H127.495V12.66H133.595V15.08ZM142.073 6.98C140.1 6.98 138.5 6.69333 137.273 6.12C136.047 5.53333 135.433 4.68 135.433 3.56C135.433 2.42667 136.047 1.56667 137.273 0.98C138.5 0.393333 140.1 0.0999995 142.073 0.0999995C144.047 0.0999995 145.647 0.393333 146.873 0.98C148.1 1.56667 148.713 2.42667 148.713 3.56C148.713 4.68 148.1 5.53333 146.873 6.12C145.647 6.69333 144.047 6.98 142.073 6.98ZM142.073 2.18C140.9 2.18 139.947 2.3 139.213 2.54C138.48 2.78 138.113 3.12 138.113 3.56C138.113 4 138.473 4.34 139.193 4.58C139.927 4.80667 140.887 4.92 142.073 4.92C143.26 4.92 144.213 4.80667 144.933 4.58C145.653 4.34 146.013 4 146.013 3.56C146.013 3.12 145.647 2.78 144.913 2.54C144.193 2.3 143.247 2.18 142.073 2.18ZM149.433 10.08H143.333V12.32H140.793V10.08H134.713V7.88H149.433V10.08ZM148.733 13.4V15.62H135.613V11.14H138.193V13.4H148.733ZM155.446 6.26V4.12H165.766V2.54H155.446V0.36H168.286V7.36H165.766V6.26H155.446ZM169.226 10.32H154.506V8.12H159.586V6.22H162.146V8.12H169.226V10.32ZM168.526 13.42V15.62H155.406V11.26H157.986V13.42H168.526ZM182.364 11.94V0.32H184.724V11.94H182.364ZM177.384 6.1V3.68H178.724V0.38H181.084V11.68H178.724V6.1H177.384ZM177.844 9.56C177.458 9.73333 176.924 9.87333 176.244 9.98C175.578 10.0733 174.871 10.12 174.124 10.12H170.664V0.559999H177.064V2.72H173.024V4.26H176.684V6.32H173.024V7.94H174.304C175.011 7.94 175.678 7.9 176.304 7.82C176.931 7.72667 177.444 7.59333 177.844 7.42V9.56ZM184.964 15.62H171.484V11H174.084V13.24H184.964V15.62ZM193.442 7.48C192.669 8.41333 191.689 9.14667 190.502 9.68C189.315 10.2133 188.022 10.4933 186.622 10.52V8.08C187.955 8.04 189.135 7.67333 190.162 6.98C191.189 6.28667 191.862 5.37333 192.182 4.24H186.942V1.8H192.222V0.119999H194.802V1.8H200.122V4.24H194.942C194.849 4.72 194.735 5.12667 194.602 5.46L200.662 8.4L199.562 10.6L193.442 7.48ZM200.902 15.08H186.182V12.62H200.902V15.08Z" fill="white"/>
</svg>
