<svg width="181" height="16" viewBox="0 0 181 16" fill="none" xmlns="http://www.w3.org/2000/svg">
<path d="M15.0769 10.32H0.356875V8.12H6.43687V6.96C4.81021 6.84 3.51021 6.49333 2.53688 5.92C1.56354 5.34667 1.07688 4.56 1.07688 3.56C1.07688 2.42667 1.69021 1.56667 2.91687 0.98C4.14354 0.393333 5.74354 0.0999995 7.71687 0.0999995C9.69021 0.0999995 11.2902 0.393333 12.5169 0.98C13.7435 1.56667 14.3569 2.42667 14.3569 3.56C14.3569 4.56 13.8635 5.34667 12.8769 5.92C11.9035 6.49333 10.6035 6.84 8.97687 6.96V8.12H15.0769V10.32ZM3.75687 3.56C3.75687 4 4.11687 4.34 4.83688 4.58C5.57021 4.80667 6.53021 4.92 7.71687 4.92C8.90354 4.92 9.85688 4.80667 10.5769 4.58C11.2969 4.34 11.6569 4 11.6569 3.56C11.6569 3.12 11.2902 2.78 10.5569 2.54C9.83688 2.3 8.89021 2.18 7.71687 2.18C6.54354 2.18 5.59021 2.3 4.85688 2.54C4.12354 2.78 3.75687 3.12 3.75687 3.56ZM14.3769 13.38V15.62H1.25687V11.16H3.83688V13.38H14.3769ZM34.5298 15.68H32.1498V0.32H34.5298V15.68ZM30.7498 0.38V15.42H28.3698V7.72H26.5498V5.2H28.3698V0.38H30.7498ZM25.3298 0.72C25.3298 3.16 25.2165 5.22 24.9898 6.9L28.3698 13.68L26.2898 14.74L24.2298 10.52C23.3632 13.24 22.0165 14.7 20.1898 14.9V12.2C21.0965 12 21.7765 10.8867 22.2298 8.86C22.6965 6.83333 22.9298 4.09333 22.9298 0.64L25.3298 0.72ZM51.3677 5.38H49.5477V8.78H47.0277V0.32H49.5477V2.86H51.3677V5.38ZM41.0877 5.56C40.4877 6.45333 39.7544 7.16667 38.8877 7.7C38.0211 8.23333 37.0544 8.54667 35.9877 8.64V6.26C36.8011 6.14 37.5077 5.81333 38.1077 5.28C38.7211 4.74667 39.1944 4.06 39.5277 3.22C39.8611 2.38 40.0277 1.44 40.0277 0.399999L42.5677 0.559999C42.5677 1.64 42.4144 2.63333 42.1077 3.54L46.2477 6.34L44.9677 8.24L41.0877 5.56ZM43.2277 9.1C45.2011 9.1 46.7744 9.36667 47.9477 9.9C49.1211 10.4333 49.7077 11.28 49.7077 12.44C49.7077 13.6133 49.1211 14.4667 47.9477 15C46.7744 15.5333 45.2011 15.8 43.2277 15.8C41.2677 15.8 39.6944 15.5333 38.5077 15C37.3344 14.4667 36.7477 13.6133 36.7477 12.44C36.7477 11.28 37.3344 10.4333 38.5077 9.9C39.6944 9.36667 41.2677 9.1 43.2277 9.1ZM43.2277 13.68C44.3477 13.68 45.2544 13.58 45.9477 13.38C46.6411 13.1667 46.9877 12.8533 46.9877 12.44C46.9877 12.0267 46.6411 11.72 45.9477 11.52C45.2544 11.32 44.3477 11.22 43.2277 11.22C42.1077 11.22 41.2011 11.32 40.5077 11.52C39.8144 11.72 39.4677 12.0267 39.4677 12.44C39.4677 12.8533 39.8144 13.1667 40.5077 13.38C41.2011 13.58 42.1077 13.68 43.2277 13.68ZM70.5007 15.08H55.7807V12.6H61.8607V9.74H56.6207V0.739999H69.6407V9.74H64.4207V12.6H70.5007V15.08ZM67.1207 7.28V3.22H59.1607V7.28H67.1207ZM75.0986 2.5V4.64H85.5586V6.76H72.5586V0.38H85.3986V2.5H75.0986ZM71.6186 10.14V7.94H86.3386V10.14H71.6186ZM85.6386 13.38V15.62H72.5186V11.08H75.0986V13.38H85.6386ZM105.792 15.68H103.452V0.32H105.792V15.68ZM102.192 0.38V15.42H99.8716V11.68H98.1116C97.8716 12.8533 97.4849 13.7133 96.9516 14.26C96.4316 14.8067 95.7649 15.08 94.9516 15.08C93.7916 15.08 92.9182 14.5067 92.3316 13.36C91.7582 12.2 91.4716 10.3533 91.4716 7.82C91.4716 5.28667 91.7582 3.44667 92.3316 2.3C92.9182 1.14 93.7916 0.559999 94.9516 0.559999C96.4716 0.559999 97.4916 1.54 98.0116 3.5H99.8716V0.38H102.192ZM94.9516 12.7C95.3649 12.7 95.6582 12.3133 95.8316 11.54C96.0182 10.7533 96.1116 9.51333 96.1116 7.82C96.1116 6.12667 96.0182 4.89333 95.8316 4.12C95.6582 3.34667 95.3649 2.96 94.9516 2.96C94.5382 2.96 94.2382 3.34667 94.0516 4.12C93.8782 4.89333 93.7916 6.12667 93.7916 7.82C93.7916 9.51333 93.8782 10.7533 94.0516 11.54C94.2382 12.3133 94.5382 12.7 94.9516 12.7ZM99.8716 5.96H98.3716C98.4249 6.45333 98.4516 7.07333 98.4516 7.82C98.4516 8.46 98.4382 8.92667 98.4116 9.22H99.8716V5.96ZM121.189 3.82V5.88H108.189V0.24H110.709V3.82H121.189ZM107.249 9.02V6.96H121.969V9.02H107.249ZM114.609 9.9C116.649 9.9 118.256 10.1333 119.429 10.6C120.603 11.0667 121.189 11.82 121.189 12.86C121.189 13.9 120.603 14.6533 119.429 15.12C118.256 15.5867 116.649 15.82 114.609 15.82C112.569 15.82 110.956 15.5867 109.769 15.12C108.596 14.6533 108.009 13.9 108.009 12.86C108.009 11.82 108.596 11.0667 109.769 10.6C110.956 10.1333 112.569 9.9 114.609 9.9ZM114.609 11.9C113.423 11.9 112.469 11.98 111.749 12.14C111.043 12.2867 110.689 12.5267 110.689 12.86C110.689 13.1933 111.043 13.44 111.749 13.6C112.469 13.7467 113.423 13.82 114.609 13.82C115.796 13.82 116.743 13.7467 117.449 13.6C118.156 13.44 118.509 13.1933 118.509 12.86C118.509 12.5267 118.156 12.2867 117.449 12.14C116.743 11.98 115.796 11.9 114.609 11.9ZM130.447 0.0999995C132.407 0.0999995 134.001 0.4 135.227 1C136.467 1.6 137.087 2.46667 137.087 3.6C137.087 4.72 136.467 5.58 135.227 6.18C134.001 6.76667 132.407 7.06 130.447 7.06C128.474 7.06 126.874 6.76667 125.647 6.18C124.421 5.58 123.807 4.72 123.807 3.6C123.807 2.46667 124.421 1.6 125.647 1C126.874 0.4 128.474 0.0999995 130.447 0.0999995ZM130.447 2.18C129.274 2.18 128.321 2.30667 127.587 2.56C126.854 2.81333 126.487 3.16 126.487 3.6C126.487 4.02667 126.854 4.36667 127.587 4.62C128.321 4.86 129.274 4.98 130.447 4.98C131.621 4.98 132.567 4.86 133.287 4.62C134.021 4.36667 134.387 4.02667 134.387 3.6C134.387 3.16 134.021 2.81333 133.287 2.56C132.554 2.30667 131.607 2.18 130.447 2.18ZM123.087 10.18V7.98H137.807V10.18H123.087ZM137.107 13.38V15.62H123.987V11.14H126.567V13.38H137.107ZM157.6 10.32H142.88V8.12H148.96V6.96C147.334 6.84 146.034 6.49333 145.06 5.92C144.087 5.34667 143.6 4.56 143.6 3.56C143.6 2.42667 144.214 1.56667 145.44 0.98C146.667 0.393333 148.267 0.0999995 150.24 0.0999995C152.214 0.0999995 153.814 0.393333 155.04 0.98C156.267 1.56667 156.88 2.42667 156.88 3.56C156.88 4.56 156.387 5.34667 155.4 5.92C154.427 6.49333 153.127 6.84 151.5 6.96V8.12H157.6V10.32ZM146.28 3.56C146.28 4 146.64 4.34 147.36 4.58C148.094 4.80667 149.054 4.92 150.24 4.92C151.427 4.92 152.38 4.80667 153.1 4.58C153.82 4.34 154.18 4 154.18 3.56C154.18 3.12 153.814 2.78 153.08 2.54C152.36 2.3 151.414 2.18 150.24 2.18C149.067 2.18 148.114 2.3 147.38 2.54C146.647 2.78 146.28 3.12 146.28 3.56ZM156.9 13.38V15.62H143.78V11.16H146.36V13.38H156.9ZM164.798 6.9V9.08H159.238V6.9H164.798ZM177.857 15.68V0.32H180.397V15.68H177.857ZM169.677 3.16V12.48H173.157C173.851 12.48 174.537 12.4133 175.217 12.28C175.911 12.1467 176.484 11.9733 176.937 11.76V14.16C176.497 14.3867 175.917 14.5667 175.197 14.7C174.491 14.8333 173.777 14.9 173.057 14.9H167.137V0.739999H175.777V3.16H169.677Z" fill="white"/>
</svg>
