<svg width="181" height="16" viewBox="0 0 181 16" fill="none" xmlns="http://www.w3.org/2000/svg">
<path d="M15.0769 10.32H0.356875V8.12H6.43687V6.96C4.81021 6.84 3.51021 6.49333 2.53688 5.92C1.56354 5.34667 1.07688 4.56 1.07688 3.56C1.07688 2.42667 1.69021 1.56667 2.91687 0.98C4.14354 0.393333 5.74354 0.0999995 7.71687 0.0999995C9.69021 0.0999995 11.2902 0.393333 12.5169 0.98C13.7435 1.56667 14.3569 2.42667 14.3569 3.56C14.3569 4.56 13.8635 5.34667 12.8769 5.92C11.9035 6.49333 10.6035 6.84 8.97687 6.96V8.12H15.0769V10.32ZM3.75687 3.56C3.75687 4 4.11687 4.34 4.83688 4.58C5.57021 4.80667 6.53021 4.92 7.71687 4.92C8.90354 4.92 9.85688 4.80667 10.5769 4.58C11.2969 4.34 11.6569 4 11.6569 3.56C11.6569 3.12 11.2902 2.78 10.5569 2.54C9.83688 2.3 8.89021 2.18 7.71687 2.18C6.54354 2.18 5.59021 2.3 4.85688 2.54C4.12354 2.78 3.75687 3.12 3.75687 3.56ZM14.3769 13.38V15.62H1.25687V11.16H3.83688V13.38H14.3769ZM34.5298 15.68H32.1498V0.32H34.5298V15.68ZM30.7498 0.38V15.42H28.3698V7.72H26.5498V5.2H28.3698V0.38H30.7498ZM25.3298 0.72C25.3298 3.16 25.2165 5.22 24.9898 6.9L28.3698 13.68L26.2898 14.74L24.2298 10.52C23.3632 13.24 22.0165 14.7 20.1898 14.9V12.2C21.0965 12 21.7765 10.8867 22.2298 8.86C22.6965 6.83333 22.9298 4.09333 22.9298 0.64L25.3298 0.72ZM51.3677 5.38H49.5477V8.78H47.0277V0.32H49.5477V2.86H51.3677V5.38ZM41.0877 5.56C40.4877 6.45333 39.7544 7.16667 38.8877 7.7C38.0211 8.23333 37.0544 8.54667 35.9877 8.64V6.26C36.8011 6.14 37.5077 5.81333 38.1077 5.28C38.7211 4.74667 39.1944 4.06 39.5277 3.22C39.8611 2.38 40.0277 1.44 40.0277 0.399999L42.5677 0.559999C42.5677 1.64 42.4144 2.63333 42.1077 3.54L46.2477 6.34L44.9677 8.24L41.0877 5.56ZM43.2277 9.1C45.2011 9.1 46.7744 9.36667 47.9477 9.9C49.1211 10.4333 49.7077 11.28 49.7077 12.44C49.7077 13.6133 49.1211 14.4667 47.9477 15C46.7744 15.5333 45.2011 15.8 43.2277 15.8C41.2677 15.8 39.6944 15.5333 38.5077 15C37.3344 14.4667 36.7477 13.6133 36.7477 12.44C36.7477 11.28 37.3344 10.4333 38.5077 9.9C39.6944 9.36667 41.2677 9.1 43.2277 9.1ZM43.2277 13.68C44.3477 13.68 45.2544 13.58 45.9477 13.38C46.6411 13.1667 46.9877 12.8533 46.9877 12.44C46.9877 12.0267 46.6411 11.72 45.9477 11.52C45.2544 11.32 44.3477 11.22 43.2277 11.22C42.1077 11.22 41.2011 11.32 40.5077 11.52C39.8144 11.72 39.4677 12.0267 39.4677 12.44C39.4677 12.8533 39.8144 13.1667 40.5077 13.38C41.2011 13.58 42.1077 13.68 43.2277 13.68ZM70.5007 15.08H55.7807V12.6H61.8607V9.74H56.6207V0.739999H69.6407V9.74H64.4207V12.6H70.5007V15.08ZM67.1207 7.28V3.22H59.1607V7.28H67.1207ZM75.0986 2.5V4.64H85.5586V6.76H72.5586V0.38H85.3986V2.5H75.0986ZM71.6186 10.14V7.94H86.3386V10.14H71.6186ZM85.6386 13.38V15.62H72.5186V11.08H75.0986V13.38H85.6386ZM105.792 15.68H103.432V8.64H101.852V15.42H99.5116V0.38H101.852V6.12H103.432V0.32H105.792V15.68ZM94.9916 0.559999C96.1649 0.559999 97.0449 1.14 97.6316 2.3C98.2182 3.46 98.5116 5.3 98.5116 7.82C98.5116 10.3533 98.2182 12.2 97.6316 13.36C97.0449 14.5067 96.1649 15.08 94.9916 15.08C93.8182 15.08 92.9382 14.5067 92.3516 13.36C91.7649 12.2 91.4716 10.3533 91.4716 7.82C91.4716 5.3 91.7649 3.46 92.3516 2.3C92.9382 1.14 93.8182 0.559999 94.9916 0.559999ZM94.9916 12.68C95.3916 12.68 95.6849 12.2933 95.8716 11.52C96.0582 10.7333 96.1516 9.5 96.1516 7.82C96.1516 6.14 96.0582 4.91333 95.8716 4.14C95.6849 3.35333 95.3916 2.96 94.9916 2.96C94.5782 2.96 94.2782 3.35333 94.0916 4.14C93.9049 4.91333 93.8116 6.14 93.8116 7.82C93.8116 9.5 93.9049 10.7333 94.0916 11.52C94.2782 12.2933 94.5782 12.68 94.9916 12.68ZM118.689 15.68V0.32H121.229V15.68H118.689ZM113.989 12.48C114.669 12.48 115.356 12.4133 116.049 12.28C116.743 12.1467 117.316 11.9667 117.769 11.74V14.16C117.329 14.4 116.763 14.5867 116.069 14.72C115.389 14.84 114.696 14.9 113.989 14.9H107.949V0.64H110.569V12.48H113.989ZM137.007 4.2V6.42H124.027V0.24H126.567V4.2H137.007ZM123.087 9.92V7.68H137.807V9.92H123.087ZM137.107 13.38V15.62H123.987V10.92H126.567V13.38H137.107ZM157.6 10.32H142.88V8.12H148.96V6.96C147.334 6.84 146.034 6.49333 145.06 5.92C144.087 5.34667 143.6 4.56 143.6 3.56C143.6 2.42667 144.214 1.56667 145.44 0.98C146.667 0.393333 148.267 0.0999995 150.24 0.0999995C152.214 0.0999995 153.814 0.393333 155.04 0.98C156.267 1.56667 156.88 2.42667 156.88 3.56C156.88 4.56 156.387 5.34667 155.4 5.92C154.427 6.49333 153.127 6.84 151.5 6.96V8.12H157.6V10.32ZM146.28 3.56C146.28 4 146.64 4.34 147.36 4.58C148.094 4.80667 149.054 4.92 150.24 4.92C151.427 4.92 152.38 4.80667 153.1 4.58C153.82 4.34 154.18 4 154.18 3.56C154.18 3.12 153.814 2.78 153.08 2.54C152.36 2.3 151.414 2.18 150.24 2.18C149.067 2.18 148.114 2.3 147.38 2.54C146.647 2.78 146.28 3.12 146.28 3.56ZM156.9 13.38V15.62H143.78V11.16H146.36V13.38H156.9ZM164.798 6.9V9.08H159.238V6.9H164.798ZM177.857 15.68V0.32H180.397V15.68H177.857ZM169.677 3.16V12.48H173.157C173.851 12.48 174.537 12.4133 175.217 12.28C175.911 12.1467 176.484 11.9733 176.937 11.76V14.16C176.497 14.3867 175.917 14.5667 175.197 14.7C174.491 14.8333 173.777 14.9 173.057 14.9H167.137V0.739999H175.777V3.16H169.677Z" fill="white"/>
</svg>
