<svg width="56" height="56" viewBox="0 0 56 56" fill="none" xmlns="http://www.w3.org/2000/svg">
<path d="M24.0425 49.4518C25.0074 50.334 26.4861 50.334 27.4511 49.4518C27.6212 49.2963 27.5112 49.0128 27.2806 49.0128C27.0501 49.0128 24.2129 49.0128 24.2129 49.0128C23.9824 49.0128 23.8724 49.2963 24.0425 49.4518Z" fill="#0B0B0B"/>
<path d="M51.6232 27.7659C51.6232 41.0715 40.8369 51.8577 27.5314 51.8577C14.2258 51.8577 3.43958 41.0715 3.43958 27.7659C3.43958 14.4604 14.2258 3.67413 27.5314 3.67413C40.8369 3.67413 51.6232 14.4604 51.6232 27.7659Z" fill="#C1FF12"/>
<circle cx="22.3546" cy="22.4126" r="8.34279" fill="white" stroke="#7FB800" stroke-opacity="0.8" stroke-width="0.516253"/>
<circle cx="39.7244" cy="22.4126" r="8.34279" fill="white" stroke="#7FB800" stroke-opacity="0.8" stroke-width="0.516253"/>
<circle cx="24.2585" cy="23.3754" r="4.58891" fill="#202020"/>
<circle cx="41.8207" cy="23.3754" r="4.58891" fill="#202020"/>
</svg>
