<svg width="24" height="24" viewBox="0 0 24 24" fill="none" xmlns="http://www.w3.org/2000/svg">
<rect width="23.9501" height="23.9501" transform="translate(0.0507812)" fill="#0B0B0B"/>
<path d="M10.5073 21.4069C10.927 21.7906 11.5701 21.7906 11.9898 21.4069C12.0638 21.3393 12.0159 21.216 11.9157 21.216C11.8154 21.216 10.5814 21.216 10.5814 21.216C10.5814 21.216 10.5814 21.216 10.5814 21.216C10.4812 21.216 10.4333 21.3393 10.5073 21.4069Z" fill="#0B0B0B"/>
<mask id="path-2-inside-1_4406_11606" fill="white">
<path d="M22.503 11.9752C22.503 17.7622 17.8118 22.4534 12.0249 22.4534C6.23793 22.4534 1.54669 17.7622 1.54669 11.9752C1.54669 6.18831 6.23793 1.49707 12.0249 1.49707C17.8118 1.49707 22.503 6.18831 22.503 11.9752Z"/>
</mask>
<path d="M22.503 11.9752C22.503 17.7622 17.8118 22.4534 12.0249 22.4534C6.23793 22.4534 1.54669 17.7622 1.54669 11.9752C1.54669 6.18831 6.23793 1.49707 12.0249 1.49707C17.8118 1.49707 22.503 6.18831 22.503 11.9752Z" fill="#C1FF12"/>
<path d="M22.2037 11.9752C22.2037 17.5968 17.6465 22.154 12.0249 22.154V22.7528C17.9771 22.7528 22.8024 17.9275 22.8024 11.9752H22.2037ZM12.0249 22.154C6.40327 22.154 1.84607 17.5968 1.84607 11.9752H1.24732C1.24732 17.9275 6.07259 22.7528 12.0249 22.7528V22.154ZM1.84607 11.9752C1.84607 6.35365 6.40327 1.79645 12.0249 1.79645V1.19769C6.07259 1.19769 1.24732 6.02296 1.24732 11.9752H1.84607ZM12.0249 1.79645C17.6465 1.79645 22.2037 6.35365 22.2037 11.9752H22.8024C22.8024 6.02296 17.9771 1.19769 12.0249 1.19769V1.79645Z" fill="#ACE600" mask="url(#path-2-inside-1_4406_11606)"/>
<circle cx="9.77328" cy="9.64694" r="3.77819" fill="white" stroke="#ACE600" stroke-width="0.299376"/>
<circle cx="17.3278" cy="9.64694" r="3.77819" fill="white" stroke="#ACE600" stroke-width="0.299376"/>
<circle cx="10.6013" cy="10.0657" r="1.99584" fill="#202020"/>
<circle cx="18.2397" cy="10.0657" r="1.99584" fill="#202020"/>
</svg>
