<svg width="92" height="103" viewBox="0 0 92 103" fill="none" xmlns="http://www.w3.org/2000/svg">
<path d="M84.2772 85.3329L85.0511 86.6663L84.2772 85.3329C83.5237 85.7702 83.141 85.9286 82.2286 86.3044L55.2209 97.4305C51.6873 98.8862 50.1478 99.5098 48.5762 99.7577C47.1458 99.9833 45.6889 99.9836 44.2584 99.7586C42.6867 99.5113 41.1469 98.8883 37.6127 97.434L10.5649 86.3041C9.65159 85.9283 9.26851 85.77 8.51569 85.3336C8.15718 85.1258 6.93142 84.2596 6.61587 83.991C6.24295 83.6736 6.05681 83.5153 5.96366 83.4361L5.95392 83.4278C5.23246 82.6045 4.68674 81.6756 4.03118 80.1744C3.56558 79.1082 3.27682 77.7576 3.08794 75.7048C2.89864 73.6474 2.81859 71.0125 2.70993 67.4054C2.32106 54.4958 2.27922 42.5924 3.6883 35.2018C4.10445 33.3135 5.40981 31.1168 7.51357 28.6846C9.60273 26.2693 12.3673 23.7482 15.5012 21.2163C21.4719 16.3925 28.6306 11.6497 34.6909 7.63456C34.9954 7.43285 35.297 7.23299 35.5957 7.03504C39.4862 4.456 41.157 3.37133 43.3968 2.83829C45.2057 2.40779 47.7564 2.4087 49.565 2.84049C51.8044 3.37514 53.4726 4.45985 57.3573 7.03905C57.6266 7.21781 57.8983 7.39813 58.1723 7.57996C64.2412 11.6075 71.4202 16.3716 77.3842 21.2167C80.4995 23.7476 83.2404 26.2666 85.3012 28.6789C87.3835 31.1164 88.6559 33.3127 89.0341 35.1961L89.035 35.2006C90.5659 42.7071 90.5194 54.6325 90.0963 67.5316C89.9791 71.1057 89.8928 73.7157 89.6994 75.7552C89.5066 77.7896 89.2164 79.1306 88.7508 80.193C88.0979 81.6826 87.5546 82.6067 86.8389 83.425L86.8307 83.432C86.7376 83.5111 86.5517 83.6691 86.1784 83.9874C85.863 84.2563 84.6356 85.1249 84.2772 85.3329ZM6.02054 83.503C6.02015 83.5026 6.01976 83.5021 6.01937 83.5017C6.02097 83.5035 6.02175 83.5044 6.02142 83.504L6.02054 83.503ZM86.7746 83.4978C86.7737 83.4988 86.7729 83.4997 86.772 83.5007L86.7746 83.4978Z" fill="#FB52C2" fill-opacity="0.2" stroke="#FB52C2" stroke-width="3.08333"/>
<path d="M32.5699 43.4568C35.1695 43.446 37.0923 45.4226 37.1031 48.2263C37.0923 51.0515 35.1695 52.9744 32.5699 52.9744C29.9595 52.9744 28.0689 51.0515 28.0797 48.2263C28.0689 45.4226 29.9595 43.446 32.5699 43.4568ZM30.5289 48.2263C30.5181 49.7625 31.3668 50.697 32.5699 50.697C33.7623 50.697 34.6002 49.7625 34.6109 48.2263C34.6002 46.6794 33.7623 45.7878 32.5699 45.7771C31.3668 45.7878 30.5181 46.6794 30.5289 48.2263ZM31.2808 57.0134V54.822H44.7945V61.8259H42.066V57.0134H31.2808ZM38.0484 53.8552V42.6404H40.5836V47.0232H42.1949V42.2966H44.7945V53.9626H42.1949V49.2146H40.5836V53.8552H38.0484ZM53.8936 45.6482C53.8936 48.3552 55.2363 51.03 58.3193 52.1794L56.7939 54.3064C54.7422 53.5007 53.335 51.9539 52.5293 50.031C51.6807 52.0828 50.166 53.7048 47.9424 54.5427L46.4814 52.3943C49.6934 51.2556 51.1113 48.5164 51.1221 45.6482V43.3923H53.8936V45.6482ZM50.0264 61.4822V55.4021H52.7979V59.2908H63.4541V61.4822H50.0264ZM56.9658 50.8259V48.613H60.3174V47.0447H56.9658V44.8318H60.3174V42.2966H63.0459V56.7986H60.3174V50.8259H56.9658Z" fill="#F2F2F2"/>
</svg>
