<svg width="69" height="70" viewBox="0 0 69 70" fill="none" xmlns="http://www.w3.org/2000/svg">
<path d="M24.2863 7.97431C27.8614 4.39917 29.649 2.6116 31.7103 1.94185C33.5234 1.35272 35.4766 1.35272 37.2897 1.94185C39.351 2.6116 41.1386 4.39917 44.7137 7.97431L61.5257 24.7863C65.1008 28.3614 66.8884 30.149 67.5582 32.2103C68.1473 34.0234 68.1473 35.9766 67.5582 37.7897C66.8884 39.851 65.1008 41.6386 61.5257 45.2137L44.7137 62.0257C41.1386 65.6008 39.351 67.3884 37.2897 68.0582C35.4766 68.6473 33.5234 68.6473 31.7103 68.0582C29.649 67.3884 27.8614 65.6008 24.2863 62.0257L7.47431 45.2137C3.89917 41.6386 2.1116 39.851 1.44185 37.7897C0.852717 35.9766 0.852717 34.0234 1.44185 32.2103C2.1116 30.149 3.89917 28.3614 7.47431 24.7863L24.2863 7.97431Z" fill="#33CCCC" fill-opacity="0.2"/>
<path d="M24.2863 7.97431C27.8614 4.39917 29.649 2.6116 31.7103 1.94185C33.5234 1.35272 35.4766 1.35272 37.2897 1.94185C39.351 2.6116 41.1386 4.39917 44.7137 7.97431L61.5257 24.7863C65.1008 28.3614 66.8884 30.149 67.5582 32.2103C68.1473 34.0234 68.1473 35.9766 67.5582 37.7897C66.8884 39.851 65.1008 41.6386 61.5257 45.2137L44.7137 62.0257C41.1386 65.6008 39.351 67.3884 37.2897 68.0582C35.4766 68.6473 33.5234 68.6473 31.7103 68.0582C29.649 67.3884 27.8614 65.6008 24.2863 62.0257L7.47431 45.2137C3.89917 41.6386 2.1116 39.851 1.44185 37.7897C0.852717 35.9766 0.852717 34.0234 1.44185 32.2103C2.1116 30.149 3.89917 28.3614 7.47431 24.7863L24.2863 7.97431Z" stroke="#3CCBFF" stroke-width="1.8"/>
<path d="M24.2863 7.97431C27.8614 4.39917 29.649 2.6116 31.7103 1.94185C33.5234 1.35272 35.4766 1.35272 37.2897 1.94185C39.351 2.6116 41.1386 4.39917 44.7137 7.97431L61.5257 24.7863C65.1008 28.3614 66.8884 30.149 67.5582 32.2103C68.1473 34.0234 68.1473 35.9766 67.5582 37.7897C66.8884 39.851 65.1008 41.6386 61.5257 45.2137L44.7137 62.0257C41.1386 65.6008 39.351 67.3884 37.2897 68.0582C35.4766 68.6473 33.5234 68.6473 31.7103 68.0582C29.649 67.3884 27.8614 65.6008 24.2863 62.0257L7.47431 45.2137C3.89917 41.6386 2.1116 39.851 1.44185 37.7897C0.852717 35.9766 0.852717 34.0234 1.44185 32.2103C2.1116 30.149 3.89917 28.3614 7.47431 24.7863L24.2863 7.97431Z" stroke="url(#paint0_radial_7121_3062)" stroke-width="1.8"/>
<path d="M33.1724 41.6035H31.359V35.1679H29.6524V41.3724H27.8568V28.0212H29.6524V33.2657H31.359V27.9501H33.1724V41.6035ZM23.6968 28.199C24.7279 28.199 25.4983 28.7146 26.0079 29.7457C26.5294 30.7768 26.7901 32.4005 26.7901 34.6168C26.7901 36.8331 26.5294 38.4568 26.0079 39.4879C25.4983 40.519 24.7279 41.0346 23.6968 41.0346C22.6775 41.0346 21.9072 40.519 21.3857 39.4879C20.8761 38.4568 20.6212 36.8331 20.6212 34.6168C20.6212 32.4005 20.8761 30.7768 21.3857 29.7457C21.9072 28.7146 22.6775 28.199 23.6968 28.199ZM23.6968 39.2035C24.1472 39.2035 24.4731 38.8361 24.6746 38.1012C24.8879 37.3546 24.9946 36.1931 24.9946 34.6168C24.9946 33.0405 24.8879 31.8849 24.6746 31.1501C24.4731 30.4035 24.1472 30.0301 23.6968 30.0301C23.2583 30.0301 22.9324 30.4035 22.719 31.1501C22.5175 31.8968 22.4168 33.0524 22.4168 34.6168C22.4168 36.1812 22.5175 37.3368 22.719 38.0835C22.9324 38.8301 23.2583 39.2035 23.6968 39.2035ZM44.9571 41.6035V27.9501H46.8949V41.6035H44.9571ZM40.6194 39.0079C41.2238 39.0079 41.8342 38.9487 42.4505 38.8301C43.0668 38.7116 43.5764 38.5516 43.9794 38.3501V40.199C43.5883 40.4124 43.0905 40.5783 42.486 40.6968C41.8816 40.8035 41.2594 40.8568 40.6194 40.8568H35.286V28.2879H37.2594V39.0079H40.6194Z" fill="#F2F2F2"/>
<defs>
<radialGradient id="paint0_radial_7121_3062" cx="0" cy="0" r="1" gradientUnits="userSpaceOnUse" gradientTransform="translate(15.011 -3.17844) rotate(64.8566) scale(56.9411 102.778)">
<stop stop-color="white" stop-opacity="0.7"/>
<stop offset="1" stop-color="#202020" stop-opacity="0.3"/>
</radialGradient>
</defs>
</svg>
