<svg width="104" height="104" viewBox="0 0 104 104" fill="none" xmlns="http://www.w3.org/2000/svg">
<path d="M37.4072 11.4012C40.181 8.62736 42.1966 6.6134 43.9126 5.15664C45.6149 3.71156 46.9205 2.90556 48.2388 2.47723C50.7244 1.66959 53.402 1.66959 55.8876 2.47723C57.2059 2.90556 58.5115 3.71156 60.2138 5.15664C61.9297 6.6134 63.9454 8.62736 66.7192 11.4012L92.6377 37.3196C95.4115 40.0935 97.4255 42.1091 98.8822 43.8251C100.327 45.5273 101.133 46.833 101.562 48.1513C102.369 50.6369 102.369 53.3144 101.562 55.8001C101.133 57.1184 100.327 58.424 98.8822 60.1262C97.4255 61.8422 95.4115 63.8579 92.6377 66.6317L66.7192 92.5502C63.9454 95.324 61.9297 97.3379 60.2138 98.7947C58.5115 100.24 57.2059 101.046 55.8876 101.474C53.402 102.282 50.7244 102.282 48.2388 101.474C46.9205 101.046 45.6149 100.24 43.9126 98.7947C42.1966 97.3379 40.181 95.324 37.4072 92.5502L11.4887 66.6317C8.71488 63.8579 6.70093 61.8422 5.24416 60.1262C3.79908 58.424 2.99308 57.1184 2.56475 55.8001C1.75712 53.3144 1.75712 50.6369 2.56475 48.1513C2.99309 46.833 3.79908 45.5273 5.24416 43.8251C6.70093 42.1091 8.71488 40.0935 11.4887 37.3196L37.4072 11.4012Z" fill="#42FF3C" fill-opacity="0.2" stroke="#42FF3C" stroke-width="3.08333"/>
<path d="M38.0691 43.7979C40.6687 43.7871 42.3767 46.4941 42.3874 50.8662C42.3767 55.2598 40.6687 57.9775 38.0691 57.9775C35.4802 57.9775 33.8152 55.2598 33.8152 50.8662C33.8152 46.4941 35.4802 43.7871 38.0691 43.7979ZM36.3503 50.8662C36.3288 53.874 36.9734 55.3564 38.0691 55.335C39.197 55.3564 39.863 53.874 39.8523 50.8662C39.863 47.8691 39.197 46.376 38.0691 46.376C36.9734 46.376 36.3288 47.8691 36.3503 50.8662ZM43.612 61.0498V42.6807H46.2116V49.8564H47.9734V42.4014H50.5945V61.9521H47.9734V52.0908H46.2116V61.0498H43.612ZM68.6525 42.4014V61.9521H65.924V42.4014H68.6525ZM53.2697 57.1182V44.2705H55.9767V54.7871C58.6193 54.7441 61.4552 54.4971 64.3341 53.9385L64.6779 56.1943C61.2511 56.9141 58.007 57.1289 54.9884 57.1182H53.2697Z" fill="#F2F2F2"/>
</svg>
