<svg width="95" height="106" viewBox="0 0 95 106" fill="none" xmlns="http://www.w3.org/2000/svg">
<path d="M36.6471 6.47014C40.9696 3.97456 42.8354 2.91844 44.783 2.50445C46.5575 2.12728 48.3913 2.12728 50.1658 2.50445C52.1134 2.91844 53.9792 3.97456 58.3017 6.47014L82.2186 20.2786C86.541 22.7741 88.3885 23.8619 89.7209 25.3416C90.9347 26.6897 91.8517 28.2779 92.4123 30.0032C93.0276 31.8969 93.0458 34.0408 93.0458 39.0319V66.6488C93.0458 71.6399 93.0276 73.7838 92.4123 75.6775C91.8517 77.4028 90.9347 78.991 89.7209 80.3391C88.3885 81.8189 86.541 82.9066 82.2186 85.4022L58.3017 99.2106C53.9792 101.706 52.1134 102.762 50.1658 103.176C48.3913 103.553 46.5575 103.553 44.783 103.176C42.8354 102.762 40.9696 101.706 36.6471 99.2106L12.7302 85.4022C8.40778 82.9066 6.56026 81.8189 5.22791 80.3391C4.01406 78.991 3.09711 77.4028 2.53654 75.6775C1.92123 73.7838 1.90297 71.6399 1.90297 66.6488V39.0319C1.90297 34.0408 1.92123 31.8969 2.53654 30.0032C3.09711 28.2779 4.01406 26.6897 5.22791 25.3416C6.56026 23.8619 8.40778 22.7741 12.7302 20.2786L36.6471 6.47014Z" fill="#BAFB16" fill-opacity="0.2" stroke="#BAFB16" stroke-width="3.14286"/>
<path d="M35.6033 44.8989V46.6392C35.5925 48.9917 35.6355 51.7632 34.7224 55.9849L32.0369 55.7056C32.3591 54.2231 32.5632 52.9019 32.6921 51.7095L21.3376 52.354L20.9509 50.0122L32.8533 49.6255C32.907 48.7017 32.907 47.8638 32.9177 47.0903H21.5955V44.8989H35.6033ZM19.5544 60.561V58.3267H25.9353V53.6001H28.6638V58.3267H37.3865V60.561H19.5544ZM48.548 45.0278V58.1548H39.0949V45.0278H48.548ZM41.8449 55.9849H45.884V47.1763H41.8449V55.9849ZM51.7277 62.8599V43.2661H54.4992V62.8599H51.7277ZM73.0729 43.2661V62.8599H70.3014V43.2661H73.0729ZM57.8834 58.1978V44.9849H67.401V47.2192H60.6334V55.8774C64.1354 55.8774 66.2946 55.7808 68.7545 55.3403L69.0123 57.5962C66.3053 58.1118 63.8131 58.1978 59.5807 58.1978H57.8834Z" fill="#F2F2F2"/>
</svg>
