<svg width="92" height="103" viewBox="0 0 92 103" fill="none" xmlns="http://www.w3.org/2000/svg">
<path d="M8.02235 17.9891L7.24852 16.6557L8.02235 17.9891C8.77588 17.5518 9.15856 17.3935 10.071 17.0176L37.0787 5.89151C40.6123 4.43581 42.1518 3.81218 43.7234 3.56431C45.1538 3.33871 46.6107 3.33842 48.0412 3.56344C49.6129 3.81068 51.1527 4.4337 54.6869 5.88798L81.7347 17.0179C82.648 17.3937 83.0311 17.552 83.7839 17.9884C84.1424 18.1962 85.3682 19.0625 85.6837 19.331C86.0566 19.6485 86.2428 19.8068 86.3359 19.8859L86.3457 19.8942C87.0671 20.7175 87.6128 21.6464 88.2684 23.1477C88.734 24.2139 89.0228 25.5644 89.2116 27.6172C89.4009 29.6746 89.481 32.3095 89.5897 35.9166C89.9785 48.8263 90.0204 60.7296 88.6113 68.1202C88.1951 70.0085 86.8898 72.2052 84.786 74.6374C82.6969 77.0527 79.9323 79.5739 76.7984 82.1057C70.8277 86.9295 63.669 91.6723 57.6087 95.6875C57.3042 95.8892 57.0025 96.089 56.7039 96.287C52.8134 98.866 51.1426 99.9507 48.9028 100.484C47.0939 100.914 44.5432 100.913 42.7346 100.482C40.4952 99.9469 38.827 98.8622 34.9422 96.283C34.673 96.1042 34.4013 95.9239 34.1273 95.7421C28.0584 91.7146 20.8794 86.9504 14.9154 82.1053C11.8001 79.5745 9.05919 77.0554 6.99836 74.6431C4.91607 72.2056 3.64365 70.0093 3.26548 68.1259L3.26455 68.1214C1.73371 60.6149 1.78022 48.6895 2.20331 35.7904C2.32054 32.2163 2.40684 29.6063 2.60016 27.5668C2.79298 25.5324 3.08317 24.1915 3.5488 23.129C4.20166 21.6394 4.74503 20.7153 5.46065 19.897L5.46885 19.89C5.562 19.8109 5.74786 19.6529 6.12121 19.3346C6.43655 19.0658 7.66395 18.1971 8.02235 17.9891ZM86.2791 19.819C86.2794 19.8195 86.2798 19.8199 86.2802 19.8203C86.2786 19.8185 86.2778 19.8177 86.2782 19.818L86.2791 19.819ZM5.525 19.8242C5.52585 19.8232 5.5267 19.8223 5.52756 19.8213L5.525 19.8242Z" fill="#B020FF" fill-opacity="0.2" stroke="#B020FF" stroke-width="3.08333"/>
<path d="M31.054 43.0156V45.6152H34.8997V43.0156H37.6067V46.5391H41.2161V41.8984H43.9446V53.2207H41.2161V48.7734H37.6067V52.3828H28.304V43.0156H31.054ZM30.7961 61.2344V53.9941H43.9446V61.2344H30.7961ZM31.054 50.1914H34.8997V47.7422H31.054V50.1914ZM33.5461 59.043H41.259V56.1855H33.5461V59.043ZM57.8347 43.5957V45.7871H53.8278C53.9675 47.7422 55.4606 49.7188 58.5436 50.5137L57.2331 52.6191C54.945 52.0176 53.3444 50.6963 52.4421 49.0098C51.5505 50.8145 49.8962 52.2109 47.5007 52.8555L46.2116 50.75C49.3161 49.9229 50.8308 47.9033 50.9919 45.7871H47.0065V43.5957H57.8347ZM46.1257 55.4766C47.5651 55.4766 49.2624 55.4658 51.0456 55.4121V51.9531H53.8171V55.2832C55.4499 55.1865 57.0827 55.0254 58.6296 54.7891L58.8444 56.8301C54.5046 57.6465 49.864 57.6895 46.4479 57.6895L46.1257 55.4766ZM59.7468 61.4922V41.8984H62.4753V61.4922H59.7468Z" fill="#F2F2F2"/>
</svg>
