<svg width="94" height="95" viewBox="0 0 94 95" fill="none" xmlns="http://www.w3.org/2000/svg">
<path d="M6.00967 27.7206C7.16039 26.5971 8.73817 25.6265 11.2005 24.5186C13.6699 23.4075 16.9027 22.2117 21.3118 20.582L52.1995 9.16521C59.1416 6.59926 64.265 4.70668 68.3529 3.54526C72.4373 2.38481 75.3215 2.00632 77.8042 2.35103C82.3734 2.98543 86.3482 5.07589 88.8701 8.04842C90.1851 9.59835 90.9329 11.7204 91.3193 15.1352C91.708 18.57 91.7103 23.0709 91.7103 29.2466V70.6346C91.7103 74.8104 91.7085 77.8275 91.4682 80.1998C91.231 82.5416 90.7725 84.1063 89.9487 85.4103C88.3827 87.8895 85.8452 89.9614 82.6476 91.2756C80.9074 91.9908 78.8312 92.3778 75.8445 92.5746C72.8473 92.7721 69.0533 92.7729 63.8947 92.7729H47.0331C39.6092 92.7729 36.2317 92.7564 33.3588 91.8763C30.7764 91.0853 28.5002 89.8081 26.7137 88.178C24.7628 86.3979 23.6005 83.978 20.9638 78.3439L6.93775 48.3727C5.22037 44.703 3.97893 42.0466 3.20354 39.8862C2.43496 37.7449 2.18438 36.2455 2.33555 34.8893C2.62359 32.3052 3.87879 29.8011 6.00967 27.7206Z" fill="#00FFF8" fill-opacity="0.2" stroke="#00FFF8" stroke-width="3.08333"/>
<path d="M48.0078 37.9265V45.1882H50.8867V47.4226H48.0078V57.5203H45.2578V37.9265H48.0078ZM33.3555 52.7722V39.7312H42.5293V41.9441H36.084V50.5164C38.92 50.4949 41.2617 50.3445 43.8614 49.8933L44.1621 52.1921C41.1221 52.7078 38.458 52.783 35.0098 52.7722H33.3555ZM67.0112 38.9792V40.7195C67.0005 42.7712 67.0005 44.9949 66.3559 48.1316H68.9878V50.3445H64.7768V57.4773H62.0268V50.3445H57.9663V57.4773H55.2163V50.3445H51.1557V48.1316H63.6704C63.9067 47.1111 64.0678 46.1765 64.1645 45.3171L52.9389 45.8972L52.6167 43.5339L64.3471 43.2117C64.3794 42.4812 64.3794 41.7937 64.3901 41.1277H53.2397V38.9792H67.0112Z" fill="#F2F2F2"/>
</svg>
