<svg width="98" height="83" viewBox="0 0 98 83" fill="none" xmlns="http://www.w3.org/2000/svg">
<path d="M7.77284 31.5745C5.68574 27.0599 4.15643 23.7496 3.16178 21.1117C2.16639 18.4717 1.7737 16.6702 1.83852 15.1591C2.05617 10.0857 5.11578 5.49855 9.87041 3.21271C11.2961 2.52729 13.181 2.13716 16.0872 1.93815C18.9911 1.7393 22.748 1.73844 27.8623 1.73844H69.8428C74.9571 1.73844 78.714 1.7393 81.6179 1.93815C84.524 2.13716 86.409 2.52729 87.8347 3.21271C92.5893 5.49855 95.6489 10.0857 95.8666 15.1591C95.9314 16.6702 95.5387 18.4717 94.5433 21.1117C93.5487 23.7496 92.0193 27.0599 89.9322 31.5745L89.8525 31.747C88.5948 34.4672 87.8675 36.04 87.4804 37.672C86.8829 40.1912 86.8829 42.8089 87.4804 45.3281C87.8676 46.9601 88.5948 48.533 89.8526 51.2533L89.9322 51.4256C92.0193 55.9402 93.5487 59.2505 94.5433 61.8884C95.5387 64.5283 95.9314 66.3299 95.8666 67.841C95.6489 72.9144 92.5893 77.5015 87.8347 79.7874C86.409 80.4728 84.524 80.8629 81.6179 81.0619C78.714 81.2608 74.9571 81.2617 69.8428 81.2617H27.8623C22.748 81.2617 18.9911 81.2608 16.0872 81.0619C13.181 80.8629 11.2961 80.4728 9.87041 79.7874C5.11578 77.5015 2.05617 72.9144 1.83852 67.841C1.7737 66.3299 2.16639 64.5284 3.16178 61.8884C4.15643 59.2505 5.68574 55.9402 7.77284 51.4256L7.85246 51.2534C9.11027 48.533 9.83752 46.9601 10.2246 45.3281C10.8222 42.8089 10.8222 40.1912 10.2246 37.672C9.83752 36.04 9.11027 34.4671 7.85246 31.7467L7.77284 31.5745Z" fill="#F4FE0B" fill-opacity="0.2" stroke="#F4FE0B" stroke-width="3.08333"/>
<path d="M36.874 40.9707V43.1621H23.0381V33.5586H36.7236V35.7715H25.7451V40.9707H36.874ZM20.9326 49.0918V46.8359H38.8291V49.0918H20.9326ZM54.9321 31.9258V39.3164H57.811V41.5723H54.9321V51.5195H52.225V31.9258H54.9321ZM40.3012 35.7715V33.5586H49.3461V41.1426H43.0512V44.6875C45.8979 44.6768 48.2504 44.5479 50.85 44.1074L51.0864 46.2988C48.1 46.8467 45.4145 46.9648 41.977 46.9648H40.3227V38.9727H46.6176V35.7715H40.3012ZM68.0917 33.7734V46.707H58.703V33.7734H68.0917ZM61.41 44.5371H65.3632V35.9219H61.41V44.5371ZM70.7557 51.4766V31.9258H73.5057V39.2949H76.3846V41.5723H73.5057V51.4766H70.7557Z" fill="#F2F2F2"/>
</svg>
