<svg width="111" height="111" viewBox="0 0 111 111" fill="none" xmlns="http://www.w3.org/2000/svg">
<path d="M103.886 47.3475C104.604 47.9749 104.9 49.2819 104.457 50.6827C104.015 52.0822 103.097 52.8073 102.218 52.8073C100.239 52.8073 98.7336 52.8877 97.6056 53.0892C96.5058 53.2857 95.4994 53.64 94.8122 54.4128C94.0956 55.2187 93.9906 56.1809 93.9793 56.9005C93.9737 57.2525 93.9915 57.6278 94.0079 57.9733L94.0099 58.0146C94.0275 58.3875 94.0445 58.7575 94.0445 59.1547V81.0087C94.0445 84.9352 94.0432 87.7832 93.8518 90.0248C93.6622 92.2463 93.2943 93.733 92.6394 94.9632C91.4015 97.2886 89.4194 99.1916 86.9658 100.388C85.657 101.027 84.0782 101.382 81.7421 101.565C79.3899 101.749 76.4045 101.75 72.3057 101.75H38.6484C34.5496 101.75 31.5643 101.749 29.2121 101.565C26.8759 101.382 25.2971 101.027 23.9884 100.388C21.5348 99.1916 19.5527 97.2886 18.3148 94.9632C17.6599 93.733 17.292 92.2463 17.1023 90.0248C16.911 87.7832 16.9097 84.9352 16.9097 81.0087V59.3311C16.9097 58.943 16.9234 58.5819 16.9371 58.2181L16.94 58.1405C16.9541 57.7659 16.9685 57.3625 16.9558 56.9811C16.9306 56.2268 16.7965 55.2636 16.0712 54.4576C15.3734 53.6822 14.3608 53.312 13.2317 53.1045C12.08 52.8928 10.552 52.8073 8.55224 52.8073C7.61542 52.8073 6.66379 52.044 6.20887 50.6126C5.75324 49.179 6.05224 47.825 6.80899 47.1635L40.5569 17.66C43.3459 15.2217 45.3722 13.4517 47.0913 12.1699C48.7942 10.9002 50.1042 10.1812 51.4294 9.79429C53.9144 9.06879 56.5705 9.06879 59.0554 9.79429C60.3807 10.1812 61.6906 10.9002 63.3935 12.1699C65.1126 13.4517 67.1389 15.2217 69.9279 17.66L103.886 47.3475Z" fill="#BA76FF" fill-opacity="0.2" stroke="#BA76FF" stroke-width="3.08333"/>
<path d="M53.7692 50.9258V70.4766H51.1481V50.9258H53.7692ZM36.9899 59.3906C36.9899 55.0186 38.655 52.3115 41.2438 52.3223C42.8766 52.3115 44.1657 53.3857 44.8854 55.2656H47.195V51.2051H49.7731V69.5742H47.195V63.5156H44.8962C44.1657 65.417 42.8874 66.502 41.2438 66.502C38.655 66.502 36.9899 63.7842 36.9899 59.3906ZM39.4821 59.3906C39.4606 62.3984 40.0944 63.8809 41.2438 63.8594C42.3718 63.8809 43.0593 62.3984 43.07 59.3906C43.0593 56.3936 42.3718 54.9004 41.2438 54.9004C40.0944 54.9004 39.4606 56.3936 39.4821 59.3906ZM45.4333 57.457C45.5192 58.0586 45.5622 58.7031 45.5622 59.3906C45.5622 60.0674 45.5192 60.7119 45.444 61.3027H47.195V57.457H45.4333ZM71.2472 55.8242V58.0156H57.6476V51.2266H60.3761V55.8242H71.2472ZM55.3917 61.9258V59.6914H73.2667V61.9258H55.3917ZM57.4327 66.7812C57.4327 64.4717 60.0109 63.1611 64.2863 63.1504C68.5294 63.1611 71.0753 64.4717 71.0968 66.7812C71.0753 69.1123 68.5294 70.4121 64.2863 70.4121C60.0109 70.4121 57.4327 69.1123 57.4327 66.7812ZM60.2257 66.7812C60.215 67.8018 61.5792 68.3174 64.2863 68.3281C66.9396 68.3174 68.3361 67.8018 68.3468 66.7812C68.3361 65.7393 66.9396 65.2988 64.2863 65.2773C61.5792 65.2988 60.215 65.7393 60.2257 66.7812Z" fill="#F2F2F2"/>
</svg>
