<svg width="99" height="99" viewBox="0 0 99 99" fill="none" xmlns="http://www.w3.org/2000/svg">
<path d="M96.9985 49.5024C96.9985 75.815 75.668 97.1455 49.3555 97.1455C23.0429 97.1455 1.71239 75.815 1.71239 49.5024C1.71239 23.1899 23.0429 1.85936 49.3555 1.85936C75.668 1.85936 96.9985 23.1899 96.9985 49.5024Z" fill="#16FBC5" fill-opacity="0.2" stroke="#16FBC5" stroke-width="2.71385"/>
<path d="M32.3926 41.561V43.7524H30.8027V49.1772C31.5869 49.1128 32.3496 49.0376 33.0801 48.9517L33.2734 50.9712C29.3633 51.6372 24.8945 51.7017 21.6289 51.7017L21.3281 49.5103C21.9941 49.5103 22.7139 49.4995 23.4551 49.4888V43.7524H21.8438V41.561H32.3926ZM24.2715 59.1353V52.9692H27V56.9438H37.6562V59.1353H24.2715ZM26.0977 49.4243C26.7744 49.4028 27.4727 49.3813 28.1602 49.3491V43.7524H26.0977V49.4243ZM34.1973 54.3442V39.9497H36.9473V45.4497H39.5898V47.7271H36.9473V54.3442H34.1973ZM50.0424 41.5396V43.7739H43.5541V46.9966H49.7631V49.145H43.5541V52.8403C46.3471 52.8081 48.6352 52.6899 51.2455 52.2817L51.5034 54.4946C48.517 54.9458 45.853 55.0317 42.437 55.0317H40.7827V41.5396H50.0424ZM52.685 59.479V39.9282H55.435V47.3403H58.3139V49.6392H55.435V59.479H52.685ZM66.1669 45.2563C66.1561 48.4146 67.7889 51.7983 71.0653 53.1626L69.5829 55.311C67.2841 54.3335 65.6942 52.3892 64.8134 50.0259C63.9325 52.5933 62.3104 54.7417 60.0009 55.8052L58.4325 53.6353C61.6766 52.1851 63.3524 48.5649 63.3524 45.2563V44.0532H59.2059V41.8188H70.2489V44.0532H66.1669V45.2563ZM72.1825 59.479V39.9282H74.954V59.479H72.1825Z" fill="#F2F2F2"/>
</svg>
