<svg width="102" height="96" viewBox="0 0 102 96" fill="none" xmlns="http://www.w3.org/2000/svg">
<path d="M99.4428 56.1267C100.16 55.4992 100.456 54.1922 100.014 52.7914C99.5714 51.3919 98.6539 50.6669 97.7741 50.6669C95.8632 50.6669 94.3929 50.5863 93.2774 50.3843C92.1832 50.1861 91.195 49.8324 90.5006 49.0901C89.7738 48.313 89.6159 47.3772 89.5772 46.6287C89.5578 46.2527 89.5664 45.858 89.5768 45.4892C89.5786 45.425 89.5804 45.3611 89.5823 45.2973C89.5917 44.9783 89.601 44.6615 89.601 44.3195V22.4654C89.601 18.5389 89.5996 15.6909 89.4083 13.4493C89.2187 11.2278 88.8507 9.74114 88.1959 8.51096C86.958 6.18552 84.9758 4.28249 82.5222 3.08589C81.2135 2.44762 79.6347 2.0917 77.2986 1.909C74.9464 1.72505 71.961 1.72395 67.8622 1.72395H34.2049C30.1061 1.72395 27.1207 1.72505 24.7685 1.909C22.4324 2.0917 20.8536 2.44762 19.5449 3.08589C17.0913 4.28249 15.1091 6.18552 13.8712 8.51096C13.2164 9.74114 12.8484 11.2278 12.6588 13.4493C12.4675 15.6909 12.4662 18.5389 12.4662 22.4654V44.1431C12.4662 44.3682 12.47 44.6081 12.4739 44.8528C12.4832 45.4432 12.4931 46.0616 12.4509 46.5693C12.3851 47.3603 12.1791 48.2879 11.4401 49.0549C10.7317 49.7901 9.74179 50.159 8.62255 50.3687C7.48908 50.5811 6.01113 50.6669 4.1087 50.6669C3.17188 50.6669 2.22025 51.4301 1.76532 52.8615C1.30969 54.2952 1.6087 55.6491 2.36545 56.3107L36.1133 85.8141C38.9023 88.2524 40.9287 90.0224 42.6478 91.3042C44.3507 92.574 45.6606 93.2929 46.9859 93.6798C49.4708 94.4053 52.1269 94.4053 54.6119 93.6798C55.9371 93.2929 57.2471 92.574 58.95 91.3042C60.669 90.0225 62.6954 88.2524 65.4844 85.8141L99.4428 56.1267Z" fill="#276FFF" fill-opacity="0.2" stroke="#276FFF" stroke-width="3.08333"/>
<path d="M41.2747 46.5815C45.55 46.5815 48.2356 47.9351 48.2571 50.2769C48.2356 52.5864 45.55 53.9614 41.2747 53.9507C37.0315 53.9614 34.303 52.5864 34.3137 50.2769C34.303 47.9351 37.0315 46.5815 41.2747 46.5815ZM32.509 45.3354V43.1226H39.1692V39.7065H41.8762V43.1226H50.2551V45.3354H32.509ZM34.5071 37.4292V35.2808H48.1497V36.8706C48.1604 38.4282 48.1604 40.104 47.5911 42.1128L44.9055 41.855C45.3459 40.0825 45.3997 38.7612 45.4211 37.4292H34.5071ZM37.0422 50.2769C37.0315 51.3296 38.5784 51.8667 41.2747 51.8667C43.9709 51.8667 45.5286 51.3296 45.5286 50.2769C45.5286 49.1919 43.9709 48.6118 41.2747 48.6226C38.5784 48.6118 37.0315 49.1919 37.0422 50.2769ZM68.9362 49.4819V51.7808H51.0397V49.4819H58.5593V45.9585H52.5222V43.8101H55.1433V38.2241H52.4362V36.0327H67.4323V38.2241H64.6823V43.8101H67.3464V45.9585H61.2878V49.4819H68.9362ZM57.8933 43.8101H61.9753V38.2241H57.8933V43.8101Z" fill="#F2F2F2"/>
</svg>
