<svg width="101" height="93" viewBox="0 0 101 93" fill="none" xmlns="http://www.w3.org/2000/svg">
<path d="M8.53353 54.8829L9.88548 53.9972C13.8396 60.0325 19.3662 66.3379 26.3393 72.7308L25.2471 73.9221L26.3394 72.7308C32.8235 78.6755 39.8647 83.7465 44.8801 87.1002C48.4921 89.5156 53.1225 89.5092 56.7278 87.0839C61.7152 83.729 68.7093 78.6637 75.1592 72.7292C82.1055 66.3377 87.626 60.0339 91.5938 53.9993L92.9443 54.8873L91.5938 53.9993C96.7249 46.1956 99.259 38.8234 99.2993 32.0688C99.3487 23.7534 96.3273 15.7646 91.0749 10.1461L92.2472 9.05015L91.0748 10.146C86.2935 5.03129 80.1176 2.26128 73.6899 2.26128C65.9275 2.26128 58.5024 7.76973 53.595 15.2659C52.2958 17.2505 49.3284 17.2505 48.0292 15.2659C43.1219 7.76959 35.6967 2.26128 27.9343 2.26128C21.1331 2.26128 14.7099 5.32736 9.84987 11.0031M8.53353 54.8829L9.84987 11.0031M8.53353 54.8829L9.88547 53.9971C4.76786 46.1861 2.28449 38.8086 2.32453 32.0485L8.53353 54.8829ZM9.84987 11.0031C5.06367 16.5929 2.37216 24.0596 2.32453 32.0484L9.84987 11.0031Z" fill="#FFC2C2" fill-opacity="0.2" stroke="#FFC2C2" stroke-width="3.23253"/>
<path d="M40.7885 49.2593V51.5151H22.892V49.2593H30.433V46.3159H24.9545V39.7417H36.019V37.5933H24.933V35.4019H38.726V41.8901H27.7045V44.0815H39.1772V46.3159H33.1616V49.2593H40.7885ZM49.9305 36.0034V45.2417H42.1532V36.0034H49.9305ZM44.7313 43.1577H47.3739V38.1304H44.7313V43.1577ZM45.0106 53.3413V46.8315H47.7606V51.1499H58.7606V53.3413H45.0106ZM51.4774 48.0347V34.4995H54.0341V39.6558H55.6669V34.1558H58.2665V48.6577H55.6669V41.9116H54.0341V48.0347H51.4774ZM70.3304 36.7124C70.3196 39.5806 72.8655 42.6421 77.2913 43.394L76.0882 45.6714C72.6722 44.9946 70.1478 43.0718 68.8802 40.5688C67.5911 43.0503 65.056 44.9839 61.6722 45.6714L60.4905 43.394C64.8411 42.6206 67.387 39.5483 67.4085 36.7124V35.2944H70.3304V36.7124ZM60.0394 51.2788V49.0229H77.9359V51.2788H60.0394Z" fill="#F2F2F2"/>
</svg>
