<svg width="101" height="101" viewBox="0 0 101 101" fill="none" xmlns="http://www.w3.org/2000/svg">
<path d="M97.8218 50.5024C97.8218 76.7317 76.5588 97.9948 50.3295 97.9948C24.1003 97.9948 2.83722 76.7317 2.83722 50.5024C2.83722 24.2732 24.1003 3.01013 50.3295 3.01013C76.5588 3.01013 97.8218 24.2732 97.8218 50.5024Z" fill="#16FBC5" fill-opacity="0.2"/>
<path d="M97.8218 50.5024C97.8218 76.7317 76.5588 97.9948 50.3295 97.9948C24.1003 97.9948 2.83722 76.7317 2.83722 50.5024C2.83722 24.2732 24.1003 3.01013 50.3295 3.01013C76.5588 3.01013 97.8218 24.2732 97.8218 50.5024Z" stroke="#16FBC5" stroke-width="3.01538"/>
<path d="M97.8218 50.5024C97.8218 76.7317 76.5588 97.9948 50.3295 97.9948C24.1003 97.9948 2.83722 76.7317 2.83722 50.5024C2.83722 24.2732 24.1003 3.01013 50.3295 3.01013C76.5588 3.01013 97.8218 24.2732 97.8218 50.5024Z" stroke="url(#paint0_radial_6875_12945)" stroke-width="3.01538"/>
<path d="M47.0834 47.395C46.9545 46.1597 45.977 45.4399 44.3979 45.4399C42.7651 45.4399 41.852 46.1919 41.8412 47.2231C41.8305 48.3511 42.9907 48.856 44.3334 49.1567L45.7299 49.5005C48.394 50.1128 50.3813 51.4663 50.392 54.0552C50.3813 56.9019 48.1684 58.728 44.3764 58.7173C40.6166 58.728 38.2211 56.9878 38.1245 53.647H41.2612C41.3686 55.2153 42.6147 56.0103 44.3334 56.0103C46.0307 56.0103 47.1264 55.2153 47.1264 54.0552C47.1264 52.9917 46.1596 52.4976 44.4623 52.0786L42.7651 51.6704C40.144 51.0259 38.5327 49.7153 38.5327 47.438C38.5219 44.6128 41.0141 42.7329 44.4194 42.7329C47.8676 42.7329 50.1342 44.645 50.1772 47.395H47.0834ZM52.0575 58.5024V42.9478H62.3055V45.6118H55.2802V49.3931H61.6395V52.0571H55.2802V58.5024H52.0575Z" fill="#F2F2F2"/>
<defs>
<radialGradient id="paint0_radial_6875_12945" cx="0" cy="0" r="1" gradientUnits="userSpaceOnUse" gradientTransform="translate(1.32953 1.50244) rotate(47.959) scale(160.317 270.26)">
<stop stop-color="white" stop-opacity="0.7"/>
<stop offset="1" stop-color="white" stop-opacity="0"/>
</radialGradient>
</defs>
</svg>
