<svg width="111" height="111" viewBox="0 0 111 111" fill="none" xmlns="http://www.w3.org/2000/svg">
<path d="M17.55 21.8643L16.7762 20.531L17.55 21.8643C18.3036 21.427 18.6862 21.2687 19.5986 20.8928L47.5454 9.37991C50.7323 8.06701 52.0986 7.51477 53.4909 7.29517C54.7624 7.09464 56.0574 7.09438 57.3289 7.2944C58.7214 7.51344 60.0879 8.06514 63.2754 9.37676L91.2624 20.8931C92.1757 21.269 92.5588 21.4273 93.3116 21.8636C93.6701 22.0714 94.8959 22.9377 95.2114 23.2063C95.5843 23.5237 95.7705 23.682 95.8636 23.7612L95.8734 23.7694C96.5948 24.5928 97.1405 25.5217 97.7961 27.0229C98.2617 28.0891 98.5504 29.4396 98.7393 31.4925C98.9286 33.5499 99.0087 36.1848 99.1173 39.7919C99.5062 52.7015 99.548 64.6048 98.139 71.9955C97.7228 73.8837 96.4175 76.0804 94.3137 78.5126C92.2245 80.928 89.46 83.4491 86.3261 85.981C80.3553 90.8047 73.1967 95.5476 67.1363 99.5627C66.8319 99.7644 66.5302 99.9643 66.2316 100.162C62.341 102.741 60.6703 103.826 58.4305 104.359C56.6216 104.789 54.0709 104.789 52.2623 104.357C50.0228 103.822 48.3547 102.737 44.4699 100.158C44.2007 99.9795 43.929 99.7991 43.655 99.6173C37.5861 95.5898 30.4071 90.8257 24.4431 85.9805C21.3277 83.4497 18.5869 80.9307 16.526 78.5183C14.4438 76.0809 13.1713 73.8846 12.7932 72.0012L12.7922 71.9966C11.2614 64.4901 11.3079 52.5647 11.731 39.6657C11.8482 36.0916 11.9345 33.4815 12.1278 31.442C12.3207 29.4077 12.6108 28.0667 13.0765 27.0043C13.7293 25.5146 14.2727 24.5906 14.9883 23.7722L14.9965 23.7653C15.0897 23.6862 15.2755 23.5281 15.6489 23.2098C15.9642 22.941 17.1916 22.0723 17.55 21.8643ZM95.8067 23.6943C95.8071 23.6947 95.8075 23.6951 95.8079 23.6956C95.8063 23.6938 95.8055 23.6929 95.8058 23.6933L95.8067 23.6943ZM15.0527 23.6994C15.0535 23.6985 15.0544 23.6975 15.0552 23.6966L15.0527 23.6994Z" fill="#628CFF" fill-opacity="0.2" stroke="#628CFF" stroke-width="3.08333"/>
<path d="M37.7848 47.3516C37.774 50.2197 40.3199 53.2812 44.7457 54.0332L43.5426 56.3105C40.1266 55.6338 37.6022 53.7109 36.3346 51.208C35.0455 53.6895 32.5104 55.623 29.1266 56.3105L27.9449 54.0332C32.2955 53.2598 34.8414 50.1875 34.8629 47.3516V45.9336H37.7848V47.3516ZM27.4938 61.918V59.6621H45.3903V61.918H27.4938ZM56.2081 45.6758V50.9824H49.7628V52.4434C53.3829 52.4219 55.4991 52.3467 57.9913 51.9707L58.2491 54.0117C55.4883 54.4629 53.0821 54.5488 48.7315 54.5488H47.0557V49.0488H53.5225V47.7598H46.9913V45.6758H56.2081ZM49.3116 57.75V55.666H62.4385V60.8438H52.126V62.0898H62.9756V64.1953H49.3546V58.8672H59.6241V57.75H49.3116ZM59.6885 54.9785V44.7734H62.4385V54.9785H59.6885ZM81.1196 44.7734V64.3672H78.3911V54.0547H75.2329V51.8203H78.3911V44.7734H81.1196ZM65.2856 48.6191V46.4062H74.1372V53.7324H68.0571V57.5566C70.7534 57.5352 73.0308 57.4385 75.5552 56.998L75.77 59.2324C72.8696 59.7158 70.2163 59.8232 66.9399 59.8125H65.3286V51.5625H71.4731V48.6191H65.2856Z" fill="#F2F2F2"/>
</svg>
