<svg width="101" height="34" viewBox="0 0 101 34" fill="none" xmlns="http://www.w3.org/2000/svg">
<g style="mix-blend-mode:hard-light">
<g filter="url(#filter0_f_6165_6456)">
<rect x="24" y="14" width="53" height="10" rx="5" fill="#4C6D07"/>
</g>
<path d="M60.7779 13.8599C60.0442 14.028 58.1132 14.1248 58.1132 14.1248L57.8687 14.8891C57.8687 14.8891 58.8316 14.8075 59.5347 14.8789C59.5347 14.8789 59.764 14.8534 59.7895 15.1387C59.7942 15.3224 59.7874 15.5062 59.7691 15.689C59.7691 15.689 59.7538 15.8622 59.5093 15.903C59.2443 15.9488 57.4305 16.0151 57.4305 16.0151L57.135 17.0086C57.135 17.0086 57.028 17.2379 57.2725 17.1716C57.5018 17.1105 59.4023 16.7538 59.6519 16.8048C59.9169 16.871 60.2124 17.2226 60.1257 17.5486C60.0238 17.9461 58.1285 19.1587 56.9719 19.0721C56.9719 19.0721 56.3656 19.1128 55.851 18.2925C55.3721 17.513 56.0345 16.0303 56.0345 16.0303C56.0345 16.0303 55.7338 15.3374 55.9529 15.1081C55.9529 15.1081 56.0854 14.991 56.4624 14.9604L56.9261 13.9974C56.9261 13.9974 56.3962 14.0331 56.0803 13.6459C55.7848 13.2739 55.7644 13.1058 55.9886 13.0039C56.2281 12.8867 58.4342 12.4842 59.9525 12.5352C59.9525 12.5352 60.4824 12.4842 60.9359 13.4013C60.9308 13.4013 61.1549 13.7732 60.7779 13.8599ZM55.0664 17.5588C54.8728 18.0174 54.3582 18.5065 53.7213 18.2008C53.0844 17.8951 52.0858 15.8418 52.0858 15.8418C52.0858 15.8418 51.7037 15.0776 51.6324 15.0929C51.6324 15.0929 51.5508 14.9451 51.4999 15.7807C51.4489 16.6163 51.5101 18.2416 51.1789 18.4963C50.863 18.7511 50.4809 18.6492 50.2822 18.3486C50.1039 18.0531 50.0274 17.3499 50.1242 16.117C50.2414 14.884 50.5267 13.5694 50.8936 13.1568C51.2604 12.7441 51.5559 13.0447 51.668 13.1517C51.668 13.1517 52.1571 13.5949 52.9673 14.8992L53.1099 15.1387C53.1099 15.1387 53.8436 16.3717 53.92 16.3666C53.92 16.3666 53.9812 16.4227 54.0321 16.3819C54.1085 16.3615 54.078 15.9641 54.078 15.9641C54.078 15.9641 53.9251 14.6241 53.2577 12.3517C53.2577 12.3517 53.1558 12.0664 53.2271 11.8015C53.2984 11.5365 53.5634 11.6588 53.5634 11.6588C53.5634 11.6588 54.6028 12.1785 55.1021 13.8701C55.5963 15.5769 55.26 17.1003 55.0664 17.5588ZM49.9612 13.2128C49.8746 13.386 49.8236 13.6357 49.3855 13.7019C49.3855 13.7019 45.1923 13.9872 44.9936 14.2827C44.9936 14.2827 44.8458 14.456 45.0751 14.5069C45.3044 14.5579 46.252 14.6802 46.7106 14.7056C47.1997 14.7107 48.8505 14.726 49.4415 15.4648C49.4415 15.4648 49.7931 15.8163 49.7778 16.6112C49.7625 17.4264 49.6198 17.7117 49.3039 18.0072C48.9728 18.2823 46.1297 19.5561 44.2955 17.5996C44.2955 17.5996 43.4498 16.657 44.586 15.9437C44.586 15.9437 45.4063 15.4495 47.4901 16.0303C47.4901 16.0303 48.1219 16.2596 48.0913 16.4889C48.0557 16.7334 47.5716 16.9933 46.8685 16.978C46.1858 16.9576 45.6865 16.6315 45.7833 16.6825C45.875 16.7182 45.0496 16.2851 44.7949 16.5806C44.5401 16.8506 44.6012 17.0188 44.8509 17.1869C45.4878 17.5487 47.9487 17.4213 48.6823 16.6061C48.6823 16.6061 48.9728 16.2749 48.5295 16.0049C48.0862 15.7501 46.8176 15.5973 46.3234 15.5718C45.8495 15.5463 44.0866 15.5769 43.8319 15.1081C43.8319 15.1081 43.5771 14.7922 43.8574 13.8955C44.1529 12.958 46.2062 12.5963 47.0927 12.5148C47.0927 12.5148 49.5332 12.4282 49.9816 12.9275C50.0119 13.0216 50.0046 13.1239 49.9612 13.2128ZM43.032 18.7103C42.7365 18.9294 42.1098 18.8326 41.9315 18.588C41.7531 18.3689 41.692 17.4977 41.7277 16.1322C41.7633 14.7515 41.7939 13.0396 42.0894 12.7695C42.4053 12.4944 42.5989 12.7339 42.7212 12.9224C42.8537 13.1058 43.0116 13.3096 43.0473 13.7427C43.0829 14.1758 43.1797 16.4481 43.1797 16.4481C43.1797 16.4481 43.3122 18.4963 43.032 18.7103ZM43.6689 11.3837C42.8078 11.669 42.2168 11.5722 41.7175 11.3582C41.4984 11.7403 41.371 11.8575 41.2029 11.883C40.9583 11.9085 40.7392 11.5162 40.6985 11.3888C40.6577 11.292 40.5405 11.1289 40.6832 10.7417C40.1941 10.3035 40.1584 9.71252 40.2399 9.31511C40.3622 8.85656 41.1876 7.11407 43.6994 6.91026C43.6994 6.91026 44.9273 6.81855 45.1362 7.47581H45.1719C45.1719 7.47581 46.3641 7.48091 46.3386 8.54067C46.3234 9.60553 45.0139 10.9302 43.6689 11.3837ZM41.3252 9.02469C41.0704 9.4323 41.0602 9.67686 41.1774 9.84499C41.4678 9.40173 41.9977 8.70371 42.7772 8.17383C42.176 8.22478 41.6716 8.48462 41.3252 9.02469ZM44.7949 8.34196C44.0051 8.45915 42.7823 9.51891 42.2015 10.3851C43.0931 10.5481 44.6675 10.487 45.3655 9.06545C45.3604 9.06545 45.6967 8.18402 44.7949 8.34196ZM66.2347 16.55C65.7608 17.3754 64.431 19.0975 62.658 18.695C62.072 20.1165 61.5829 21.5482 61.3027 23.6983C61.3027 23.6983 61.2416 24.1161 60.8951 23.9684C60.5537 23.8461 59.9831 23.2754 59.871 22.4857C59.7487 21.4463 60.2124 19.6886 61.1549 17.676C60.8798 17.2277 60.6913 16.5857 60.8543 15.6737C60.8543 15.6737 61.0938 13.9821 62.7904 12.4536C62.7904 12.4536 62.9942 12.2753 63.1114 12.3314C63.2439 12.3874 63.1828 12.9377 63.0758 13.2026C62.9688 13.4675 62.2096 14.7821 62.2096 14.7821C62.2096 14.7821 61.7358 15.6686 61.8682 16.3666C62.7599 14.996 64.7877 12.2295 66.0462 13.1007C66.469 13.4013 66.6626 14.0586 66.6626 14.7668C66.6576 15.3935 66.5098 16.0558 66.2347 16.55ZM65.8678 14.3796C65.8678 14.3796 65.7965 13.8344 65.2666 14.4356C64.8081 14.94 63.9827 15.8928 63.3152 17.1818C64.0132 17.1054 64.6858 16.7233 64.8896 16.5296C65.2208 16.2341 65.9901 15.4393 65.8678 14.3796ZM41.1315 15.0725C41.0347 16.3055 40.5609 18.3791 37.2033 19.4032C34.987 20.0707 32.8929 19.7497 31.7516 19.4593C31.7261 19.9127 31.6752 20.1063 31.6039 20.1828C31.5071 20.2796 30.7836 20.6974 30.3862 20.1063C30.2078 19.8261 30.1161 19.3166 30.0652 18.8632C27.4973 17.6811 26.3152 15.9794 26.2694 15.903C26.2133 15.8469 25.6274 15.2355 26.2133 14.4865C26.7636 13.8089 28.5621 13.1313 30.1824 12.8561C30.2384 11.4703 30.4014 10.4258 30.5951 9.94689C30.8294 9.39154 31.1249 9.89085 31.3797 10.2679C31.5937 10.5481 31.7211 11.7556 31.7312 12.7186C32.791 12.6676 33.4177 12.7441 34.5997 12.958C36.1384 13.2383 37.1676 14.0229 37.0759 14.9145C37.0097 15.7909 36.2047 16.1526 35.899 16.1781C35.578 16.2036 35.0787 15.9743 35.0787 15.9743C34.7373 15.8113 35.0532 15.6686 35.4659 15.4903C35.9142 15.2712 35.8123 15.047 35.8123 15.047C35.6442 14.5579 33.647 14.2165 31.6599 14.2165C31.6497 15.3119 31.7058 17.1309 31.7312 18.1906C33.1222 18.4556 34.1616 18.4046 34.1616 18.4046C34.1616 18.4046 39.2362 18.262 39.389 15.0215C39.5419 11.7811 34.3297 8.66295 30.4728 7.67452C26.6209 6.6657 24.4403 7.36882 24.2518 7.46562C24.048 7.56752 24.2365 7.59809 24.2365 7.59809C24.4305 7.6335 24.6214 7.68462 24.8071 7.75094C25.1892 7.87322 24.8937 8.07193 24.8937 8.07193C24.2365 8.28082 23.4977 8.14835 23.355 7.84775C23.2124 7.54714 23.4519 7.27711 23.727 6.88988C24.0021 6.48228 24.3027 6.49757 24.3027 6.49757C29.0666 4.84678 34.8698 7.83246 34.8698 7.83246C40.3061 10.5889 41.2334 13.8191 41.1315 15.0725ZM26.7534 14.9043C26.2133 15.1693 26.5853 15.5514 26.5853 15.5514C27.5992 16.6417 28.8475 17.3245 30.0346 17.7474C30.1722 15.8673 30.1518 15.2049 30.1671 14.2573C28.3125 14.3846 27.2425 14.6802 26.7534 14.9043ZM76.3228 14.5171V15.1897C76.3231 15.2245 76.3164 15.2591 76.3032 15.2914C76.29 15.3236 76.2704 15.3529 76.2458 15.3776C76.2211 15.4023 76.1918 15.4218 76.1596 15.435C76.1273 15.4482 76.0927 15.4549 76.0578 15.4546H72.8531C72.8531 15.6227 72.8582 15.7705 72.8582 15.9081C72.8627 16.8151 72.8168 17.7217 72.7206 18.6237C72.7145 18.6886 72.6845 18.749 72.6366 18.7932C72.5886 18.8374 72.526 18.8623 72.4608 18.8632H71.7678C71.7333 18.8632 71.6991 18.856 71.6675 18.8419C71.6359 18.8279 71.6076 18.8073 71.5844 18.7816C71.5608 18.7557 71.5431 18.725 71.5326 18.6916C71.522 18.6581 71.5188 18.6228 71.5233 18.588C71.6208 17.6981 71.6685 16.8033 71.6659 15.9081C71.6659 15.7654 71.6659 15.6176 71.6609 15.4546H68.4918C68.4569 15.4549 68.4223 15.4482 68.39 15.435C68.3578 15.4218 68.3285 15.4023 68.3038 15.3776C68.2792 15.3529 68.2596 15.3236 68.2464 15.2914C68.2332 15.2591 68.2265 15.2245 68.2268 15.1897V14.5171C68.2265 14.4822 68.2332 14.4477 68.2464 14.4154C68.2596 14.3831 68.2792 14.3538 68.3038 14.3292C68.3285 14.3045 68.3578 14.285 68.39 14.2718C68.4223 14.2586 68.4569 14.2519 68.4918 14.2522H71.615C71.5519 13.1706 71.414 12.0947 71.2023 11.0321C71.1968 11 71.198 10.9672 71.2059 10.9356C71.2138 10.904 71.2282 10.8744 71.2482 10.8487C71.2682 10.8233 71.2938 10.8028 71.3229 10.7887C71.352 10.7746 71.3839 10.7673 71.4163 10.7672H72.1653C72.222 10.7675 72.2769 10.7874 72.3206 10.8237C72.3642 10.8599 72.394 10.9102 72.4047 10.9659C72.6107 12.0515 72.7468 13.1492 72.8123 14.2522H76.0578C76.1277 14.2534 76.1945 14.2816 76.2439 14.3311C76.2933 14.3805 76.3216 14.4472 76.3228 14.5171Z" fill="white"/>
</g>
<defs>
<filter id="filter0_f_6165_6456" x="14" y="4" width="73" height="30" filterUnits="userSpaceOnUse" color-interpolation-filters="sRGB">
<feFlood flood-opacity="0" result="BackgroundImageFix"/>
<feBlend mode="normal" in="SourceGraphic" in2="BackgroundImageFix" result="shape"/>
<feGaussianBlur stdDeviation="5" result="effect1_foregroundBlur_6165_6456"/>
</filter>
</defs>
</svg>
