<svg width="101" height="33" viewBox="0 0 101 33" fill="none" xmlns="http://www.w3.org/2000/svg">
<g id="Frame 626214" style="mix-blend-mode:hard-light">
<g id="Group 625958">
<g id="Group 625954">
<g id="Rectangle 5783" filter="url(#filter0_f_6165_6469)">
<rect x="16.6562" y="12.9446" width="66.7822" height="10" rx="5" fill="#405C0B"/>
</g>
</g>
<path id="Vector" d="M25.1965 22H27.3528C28.1075 22 28.7544 21.3738 28.7544 20.6433V20.3823C28.7544 19.6518 28.1075 19.0256 27.3528 19.0256H25.1965C24.4957 19.0256 23.9028 18.4516 23.9028 17.7732V9.37184C23.9028 8.64129 23.2559 8.0151 22.5012 8.0151H22.2317C21.477 8.0151 20.8301 8.64129 20.8301 9.37184V17.7732C20.8301 20.1214 22.8246 22 25.1965 22ZM52.2576 10.9895H53.7131V20.5911C53.7131 21.3216 54.36 21.9478 55.1147 21.9478H55.3842C56.1389 21.9478 56.7858 21.3216 56.7858 20.5911V10.9895H58.2413C58.996 10.9895 59.6428 10.3633 59.6428 9.63276V9.37184C59.6428 8.64129 58.996 8.0151 58.2413 8.0151H52.2037C51.449 8.0151 50.8022 8.64129 50.8022 9.37184V9.63276C50.8561 10.3633 51.5029 10.9895 52.2576 10.9895ZM62.2304 22H68.1601C68.9148 22 69.5617 21.3738 69.5617 20.6433V20.3823C69.5617 19.6518 68.9148 19.0256 68.1601 19.0256H64.171V16.5208H67.2437C67.9984 16.5208 68.6453 15.8947 68.6453 15.1641V14.9032C68.6453 14.1726 67.9984 13.5464 67.2437 13.5464H64.171V10.9895H68.1601C68.9148 10.9895 69.5617 10.3633 69.5617 9.63276V9.37184C69.5617 8.64129 68.9148 8.0151 68.1601 8.0151H62.4999C61.7452 8.0151 61.0983 8.64129 61.0983 9.37184V20.5911C61.0983 21.3216 61.5835 21.8435 62.2304 22ZM31.9887 22H32.2583C33.013 22 33.6599 21.3738 33.6599 20.6433V18.295H36.2474V20.6433C36.2474 21.3738 36.8943 22 37.6489 22H37.9185C38.6732 22 39.32 21.3738 39.32 20.6433V12.2419C39.32 9.7893 37.1638 7.80637 34.5763 8.0151C32.3122 8.17165 30.5333 10.1024 30.5333 12.2941V20.5911C30.5872 21.3738 31.1802 22 31.9887 22ZM33.6599 12.2941C33.6599 11.6679 34.0911 11.0939 34.738 11.0417C35.5466 10.9373 36.2474 11.5113 36.2474 12.2941V15.3206H33.6599V12.2941ZM45.8428 10.9895H47.999C48.7537 10.9895 49.4006 10.3633 49.4006 9.63276V9.37184C49.4006 8.64129 48.7537 8.0151 47.999 8.0151H45.8428C43.417 8.0151 41.4763 9.94585 41.4763 12.2419V20.6433C41.4763 21.3738 42.1232 22 42.8779 22H43.1474C43.9021 22 44.549 21.3738 44.549 20.6433V16.8861H48.0529C48.8076 16.8861 49.4545 16.2599 49.4545 15.5294V15.2685C49.4545 14.5379 48.8076 13.9117 48.0529 13.9117H44.549V12.2419C44.549 11.5635 45.142 10.9895 45.8428 10.9895ZM75.707 22H77.8633C78.618 22 79.2649 21.3738 79.2649 20.6433V20.3823C79.2649 19.6518 78.618 19.0256 77.8633 19.0256H75.707C75.0062 19.0256 74.4133 18.4516 74.4133 17.7732V9.37184C74.4133 8.64129 73.7664 8.0151 73.0117 8.0151H72.7422C71.9875 8.0151 71.3406 8.64129 71.3406 9.37184V17.7732C71.3406 20.1214 73.2812 22 75.707 22Z" fill="#816BFF"/>
</g>
</g>
<defs>
<filter id="filter0_f_6165_6469" x="6.65625" y="2.94458" width="86.7822" height="30" filterUnits="userSpaceOnUse" color-interpolation-filters="sRGB">
<feFlood flood-opacity="0" result="BackgroundImageFix"/>
<feBlend mode="normal" in="SourceGraphic" in2="BackgroundImageFix" result="shape"/>
<feGaussianBlur stdDeviation="5" result="effect1_foregroundBlur_6165_6469"/>
</filter>
</defs>
</svg>
