<svg width="44" height="12" viewBox="0 0 44 12" fill="none" xmlns="http://www.w3.org/2000/svg">
<g clip-path="url(#clip0_6664_18471)">
<path d="M29.2743 0V8.7133C30.3365 8.7633 31.3959 8.82374 32.4523 8.89504V10.7424C30.7768 10.6294 29.0996 10.5436 27.4213 10.4851V0H29.2743ZM43.9991 0.00104348L41.5862 5.66139L43.9985 11.9603L43.9958 11.9615C43.2925 11.8602 42.5885 11.7639 41.8838 11.6725L40.5292 8.13722L39.1617 11.3443C38.5135 11.2719 37.8646 11.2035 37.2142 11.1391L39.5664 5.62348L37.4122 0.00113043H39.4167L40.6228 3.14757L41.9639 0.00104348H43.9991ZM21.0618 10.3936V0.000956522H26.2344V1.86496H22.9148V4.28061H25.4265V6.128H22.9148V10.3932L21.0618 10.3936ZM14.1427 1.86504V0.000869565H19.8739V1.86496H17.9347V10.4441C17.3162 10.4606 16.6984 10.4799 16.0819 10.5035V1.86504H14.1427ZM7.80808 11.0405V0.00121739H12.9549V1.86513H9.6608V4.39C10.4176 4.38017 11.4936 4.36913 12.163 4.3707V6.21826C11.3251 6.20783 10.3792 6.22991 9.6608 6.23713V9.034C10.758 8.94651 11.8561 8.87057 12.9549 8.80617V10.6537C11.2373 10.754 9.52145 10.883 7.80808 11.0407V11.0405ZM4.17318 6.76991L4.17309 0.000869565H6.02608V11.2148C5.34872 11.2852 4.67256 11.3603 3.99769 11.4395L1.85192 5.20209V11.7066C1.23309 11.7882 0.615453 11.8731 -0.000976562 11.9619V0.00104348H1.75997L4.17309 6.76991H4.17318ZM33.9809 10.8538V0.00104348H35.834V11.0087C35.2171 10.953 34.5996 10.9017 33.9809 10.8539V10.8538Z" fill="#DE0505"/>
</g>
<defs>
<clipPath id="clip0_6664_18471">
<rect width="44" height="12" fill="white"/>
</clipPath>
</defs>
</svg>
