<svg width="59" height="16" viewBox="0 0 59 16" fill="none" xmlns="http://www.w3.org/2000/svg">
<g id="logos:netflix" clip-path="url(#clip0_6165_6438)">
<path id="Vector" d="M39.1997 -0.000610352V11.6171C40.616 11.6838 42.0285 11.7644 43.437 11.8594V14.3226C41.203 14.1719 38.9668 14.0575 36.7291 13.9796V-0.000610352H39.1997ZM58.8328 0.000780953L55.6156 7.54791L58.832 15.9465L58.8284 15.948C57.8907 15.813 56.952 15.6846 56.0124 15.5628L54.2063 10.849L52.3829 15.1252C51.5187 15.0286 50.6535 14.9374 49.7862 14.8516L52.9225 7.49736L50.0502 0.000896895H52.7229L54.331 4.19614L56.1192 0.000780953H58.8328ZM28.2497 13.8575V0.000665011H35.1465V2.486H30.7203V5.70687H34.0693V8.17006H30.7203V13.857L28.2497 13.8575ZM19.0243 2.48611V0.000549069H26.6658V2.486H24.0802V13.9248C23.2556 13.9469 22.4318 13.9726 21.6098 14.004V2.48611H19.0243ZM10.5781 14.7201V0.00101284H17.4405V2.48623H13.0484V5.85272C14.0574 5.83962 15.4921 5.8249 16.3847 5.82698V8.29041C15.2674 8.27649 14.0062 8.30594 13.0484 8.31556V12.0447C14.5113 11.9281 15.9755 11.8268 17.4405 11.741V14.2044C15.1504 14.3381 12.8626 14.5101 10.5781 14.7203V14.7201ZM5.73156 9.02594L5.73144 0.000549069H8.20209V14.9524C7.29894 15.0463 6.3974 15.1464 5.49758 15.252L2.63655 6.93551V15.6082C1.81143 15.717 0.987922 15.8302 0.166016 15.9486V0.000780953H2.51394L5.73144 9.02594H5.73156ZM45.4752 14.4712V0.000780953H47.946V14.6777C47.1234 14.6034 46.3001 14.535 45.4752 14.4713V14.4712Z" fill="#DB202C"/>
</g>
<defs>
<clipPath id="clip0_6165_6438">
<rect width="58.6667" height="16" fill="white" transform="translate(0.166992)"/>
</clipPath>
</defs>
</svg>
