<svg width="101" height="33" viewBox="0 0 101 33" fill="none" xmlns="http://www.w3.org/2000/svg">
<g style="mix-blend-mode:hard-light">
<g filter="url(#filter0_f_6165_6476)">
<rect x="17.5479" y="12.9998" width="65" height="10" rx="5" fill="#4C6D07"/>
</g>
<path d="M49.751 25.2053V25.1728C49.7835 25.1322 49.8403 25.1078 49.889 25.116C50.1246 25.1078 50.352 25.1078 50.5875 25.116C50.6363 25.116 50.6931 25.1322 50.7256 25.1728V25.2053H49.751Z" fill="#D1EFFA"/>
<path d="M50.7254 25.1726C50.4005 25.1645 50.0756 25.1645 49.7508 25.1726C49.3041 25.1483 48.8574 25.132 48.4107 25.0995C47.2249 25.0102 46.0472 24.8315 44.8939 24.5635C40.9061 23.6376 37.4056 21.7777 34.3518 19.0731C34.0676 18.8214 33.7996 18.5615 33.5234 18.3016C33.4584 18.2447 33.4016 18.1635 33.3691 18.0823C33.3204 17.9686 33.3447 17.8468 33.426 17.7574C33.5072 17.6681 33.6371 17.6356 33.7508 17.6843C33.8239 17.7168 33.897 17.7493 33.962 17.7899C36.8777 19.5929 40.0615 20.9087 43.3995 21.6884C44.5203 21.9483 45.6493 22.1513 46.7863 22.2975C48.4188 22.5005 50.0675 22.5736 51.7081 22.5168C52.5934 22.4924 53.4705 22.4112 54.3477 22.2975C56.3944 22.0376 58.4167 21.5747 60.3741 20.9249C61.4055 20.5838 62.4126 20.194 63.3954 19.7391C63.5416 19.6579 63.7202 19.6336 63.8827 19.6742C64.1507 19.7391 64.3131 20.0153 64.2482 20.2833C64.24 20.3158 64.2238 20.3564 64.2076 20.3889C64.1426 20.5107 64.0532 20.6163 63.9395 20.6975C63.0055 21.4285 61.9984 22.0701 60.9345 22.6061C58.9284 23.6214 56.7842 24.3442 54.5751 24.7584C53.3 24.9858 52.0167 25.1239 50.7254 25.1726ZM38.697 8.70974C38.9 8.58791 39.1112 8.45797 39.3305 8.34426C39.899 8.05188 40.5325 7.90568 41.1742 7.93817C41.6371 7.96254 42.0594 8.09248 42.3843 8.4336C42.6929 8.75035 42.8066 9.1402 42.8391 9.56253C42.8472 9.65187 42.8472 9.74121 42.8472 9.83867V14.0458C42.8472 14.4112 42.7985 14.46 42.433 14.46H41.4422C41.3772 14.46 41.3122 14.46 41.2472 14.4518C41.1498 14.4437 41.0686 14.3625 41.0523 14.265C41.0361 14.1757 41.0361 14.0864 41.0361 13.997V10.2366C41.0442 10.0823 41.028 9.93613 40.9874 9.78994C40.9224 9.53816 40.695 9.35948 40.4351 9.34324C39.9559 9.31075 39.4767 9.40822 39.0381 9.61126C38.9731 9.6275 38.9325 9.69248 38.9407 9.75745V14.0295C38.9407 14.1107 38.9407 14.1838 38.9244 14.265C38.9244 14.3788 38.8351 14.46 38.7214 14.46C38.5995 14.4681 38.4777 14.4681 38.3478 14.4681H37.4869C37.1864 14.4681 37.1214 14.395 37.1214 14.0945V10.2529C37.1214 10.1148 37.1133 9.96862 37.0808 9.83055C37.0239 9.55441 36.7884 9.35948 36.5122 9.34324C36.0249 9.31075 35.5295 9.40822 35.0909 9.61938C35.026 9.63563 34.9853 9.70872 35.0016 9.7737V14.1026C35.0016 14.4031 34.9366 14.4681 34.6361 14.4681H33.5478C33.2635 14.4681 33.1904 14.3869 33.1904 14.1107V8.47421C33.1904 8.40923 33.1986 8.34426 33.2148 8.27929C33.2473 8.18182 33.3447 8.12497 33.4422 8.12497H34.4574C34.6036 8.12497 34.693 8.21431 34.7417 8.35238C34.7823 8.46609 34.8067 8.57167 34.8473 8.6935C34.9285 8.6935 34.9772 8.63664 35.0341 8.60416C35.4808 8.32802 35.9518 8.09248 36.4798 7.99502C36.8858 7.91381 37.2919 7.91381 37.698 7.99502C38.0797 8.07624 38.4209 8.30365 38.6402 8.62852C38.6564 8.65289 38.6726 8.66913 38.6889 8.68538C38.6808 8.6935 38.6889 8.6935 38.697 8.70974Z" fill="#00A8E1"/>
<path d="M55.5332 12.7544C55.5819 12.592 55.6307 12.4377 55.6794 12.2752C56.053 11.0164 56.4266 9.76561 56.8002 8.50674L56.8489 8.36054C56.8895 8.21435 57.0276 8.12501 57.1738 8.12501H58.4083C58.7169 8.12501 58.7819 8.21435 58.6763 8.50674L58.189 9.7981C57.6449 11.2113 57.1007 12.6326 56.5566 14.0458C56.5403 14.0945 56.5159 14.1433 56.4997 14.192C56.4428 14.3625 56.2723 14.4763 56.0936 14.46C55.7363 14.4519 55.3789 14.4519 55.0215 14.46C54.7698 14.4681 54.6236 14.3544 54.5342 14.127C54.3312 13.591 54.12 13.0468 53.917 12.5108C53.4297 11.2357 52.9342 9.96054 52.4469 8.67729C52.3982 8.57983 52.3657 8.46613 52.3413 8.36054C52.317 8.19811 52.3738 8.11689 52.5363 8.11689C52.9992 8.10877 53.4621 8.11689 53.917 8.11689C54.1119 8.11689 54.2012 8.24684 54.25 8.4174C54.3393 8.72603 54.4286 9.04278 54.5261 9.3514C54.8591 10.4803 55.184 11.6174 55.517 12.7463C55.5088 12.7544 55.517 12.7544 55.5332 12.7544Z" fill="white"/>
<path d="M26.6932 9.01846C26.75 9.00222 26.7988 8.96973 26.8313 8.921C26.9775 8.77481 27.1318 8.63673 27.2942 8.50679C27.7165 8.18191 28.2445 8.01948 28.7724 8.06009C28.9835 8.06821 29.0566 8.13318 29.0729 8.33623C29.0891 8.61237 29.081 8.89663 29.081 9.17277C29.0891 9.28648 29.081 9.39206 29.0648 9.50577C29.0323 9.65196 28.9754 9.70881 28.8292 9.72506C28.7155 9.73318 28.6099 9.72505 28.4962 9.71693C27.9521 9.6682 27.4242 9.77379 26.9125 9.94434C26.7988 9.98495 26.7988 10.0662 26.7988 10.1555V14.054C26.7988 14.1271 26.7988 14.192 26.7907 14.2651C26.7825 14.3707 26.7013 14.4519 26.5957 14.4519C26.5389 14.4601 26.4739 14.4601 26.417 14.4601H25.3612C25.3044 14.4601 25.2394 14.4601 25.1825 14.4519C25.077 14.4438 24.9957 14.3545 24.9876 14.2489C24.9795 14.1839 24.9795 14.1189 24.9795 14.054V8.53115C24.9795 8.15755 25.0201 8.11694 25.3937 8.11694H26.1734C26.3846 8.11694 26.482 8.19004 26.5389 8.39308C26.5957 8.59613 26.6445 8.79917 26.6932 9.01846ZM64.6869 17.254C65.223 17.2702 65.7509 17.3027 66.2707 17.4408C66.4169 17.4814 66.5549 17.5301 66.693 17.5951C66.8798 17.6682 67.0016 17.8468 67.026 18.0418C67.0585 18.2692 67.0666 18.5047 67.0504 18.7402C66.9448 20.1291 66.5143 21.4692 65.7996 22.6631C65.5397 23.0935 65.223 23.4834 64.8575 23.8245C64.7844 23.8976 64.6951 23.9544 64.5976 23.9869C64.4433 24.0275 64.3458 23.9463 64.3377 23.792C64.3458 23.7108 64.3621 23.6296 64.3946 23.5483C64.6788 22.7849 64.955 22.0296 65.1742 21.2418C65.3042 20.8113 65.3935 20.3727 65.4504 19.926C65.4666 19.7636 65.4748 19.6012 65.4585 19.4387C65.4504 19.1626 65.2717 18.927 65.0037 18.8458C64.7519 18.7646 64.492 18.7159 64.224 18.6996C63.4768 18.6671 62.7296 18.6996 61.9905 18.7971L61.0078 18.9189C60.9022 18.927 60.8047 18.9189 60.7479 18.8215C60.691 18.724 60.7154 18.6265 60.7722 18.5291C60.8372 18.4397 60.9184 18.3585 61.0159 18.3017C61.6169 17.8712 62.291 17.6113 63.0057 17.4408C63.558 17.3271 64.1184 17.2702 64.6869 17.254Z" fill="#00A8E1"/>
<path d="M61.2832 11.2925V14.2163C61.2669 14.3788 61.1938 14.4519 61.0314 14.46C60.5928 14.4681 60.1623 14.4681 59.7238 14.46C59.5613 14.46 59.4882 14.3788 59.472 14.2245C59.4639 14.1757 59.4639 14.1189 59.4639 14.0702V8.44987C59.472 8.1981 59.537 8.125 59.7887 8.125H60.9583C61.2101 8.125 61.2832 8.1981 61.2832 8.44987V11.2925Z" fill="white"/>
<path d="M29.8599 11.2762V8.39294C29.8681 8.19802 29.9412 8.12492 30.1361 8.1168C30.5584 8.10868 30.9807 8.10868 31.4031 8.1168C31.5899 8.1168 31.6467 8.17365 31.663 8.36045C31.6711 8.43355 31.6711 8.49852 31.6711 8.57162V13.9807C31.6711 14.0701 31.663 14.1594 31.6549 14.2488C31.6467 14.3543 31.5655 14.4274 31.4599 14.4356C31.4112 14.4437 31.3706 14.4437 31.3219 14.4437H30.1929C30.1523 14.4437 30.1198 14.4437 30.0792 14.4356C29.9655 14.4274 29.8681 14.3381 29.8599 14.2244C29.8518 14.1594 29.8518 14.0944 29.8518 14.0295C29.8599 13.1279 29.8599 12.2021 29.8599 11.2762ZM30.8021 5.2092C30.932 5.20108 31.062 5.22544 31.1838 5.26605C31.6224 5.41224 31.8498 5.79397 31.8092 6.2894C31.7767 6.71173 31.4599 7.05285 31.0376 7.11782C30.8589 7.15031 30.6721 7.15031 30.4934 7.11782C30.0305 7.02848 29.6894 6.68736 29.7219 6.1026C29.7706 5.52595 30.1523 5.2092 30.8021 5.2092Z" fill="#00A8E1"/>
<path d="M60.3823 5.20934C60.5447 5.1931 60.7072 5.22558 60.8615 5.29056C61.1782 5.41238 61.3975 5.70477 61.4138 6.04588C61.4787 6.78497 60.9833 7.15857 60.3255 7.14233C60.2361 7.14233 60.1468 7.12608 60.0574 7.10984C59.5539 6.98801 59.294 6.59817 59.3427 6.03776C59.3833 5.59106 59.7326 5.25807 60.2117 5.21746C60.2686 5.20934 60.3255 5.20122 60.3823 5.20934Z" fill="white"/>
<path d="M23.7773 10.6103C23.7448 10.1879 23.6311 9.77374 23.4605 9.39201C23.1275 8.69354 22.6159 8.18187 21.8362 8.00319C20.9428 7.80826 20.1387 8.00319 19.4077 8.54735C19.359 8.59608 19.3022 8.63669 19.2372 8.66917C19.2209 8.66105 19.2047 8.65293 19.2047 8.64481C19.1803 8.56359 19.1641 8.48237 19.1397 8.40115C19.0747 8.19811 18.9935 8.12501 18.7742 8.12501C18.5306 8.12501 18.2788 8.13314 18.0352 8.12501C17.8484 8.11689 17.6778 8.14126 17.5479 8.28745C17.5479 11.1301 17.5479 13.9808 17.556 16.8153C17.6616 16.9859 17.824 17.0184 18.0108 17.0103C18.3032 17.0021 18.5956 17.0103 18.8879 17.0103C19.3996 17.0103 19.3996 17.0103 19.3996 16.5067V14.192C19.3996 14.1351 19.3753 14.0702 19.4321 14.0214C19.8382 14.3382 20.3336 14.5331 20.8453 14.5818C21.56 14.6549 22.2098 14.4763 22.7539 13.9889C23.1519 13.6235 23.4443 13.1524 23.5986 12.6326C23.8179 11.9666 23.8341 11.2925 23.7773 10.6103ZM21.8362 12.2915C21.7793 12.5433 21.6494 12.7707 21.4626 12.9412C21.2514 13.1199 20.9915 13.2255 20.7154 13.2255C20.3011 13.2499 19.895 13.1605 19.5296 12.9656C19.4402 12.925 19.3834 12.8357 19.3915 12.7382V11.2681C19.3915 10.7808 19.3996 10.2935 19.3915 9.80622C19.3834 9.69252 19.4484 9.59506 19.5539 9.55445C20.0006 9.34328 20.4636 9.24582 20.9509 9.34328C21.292 9.39201 21.5844 9.6113 21.7225 9.92805C21.8443 10.1879 21.9174 10.4722 21.9336 10.7565C21.9824 11.2763 21.9824 11.7961 21.8362 12.2915Z" fill="#00A8E1"/>
<path d="M82.5311 11.8774C82.5311 11.8693 82.5311 11.8693 82.5311 11.8774V11.8774ZM82.5392 10.7891V10.8215C82.5068 10.7891 82.4905 10.7403 82.5068 10.6997V10.6347C82.5068 10.6347 82.5068 10.6266 82.5149 10.6266H82.5068V10.5454H82.523C82.523 10.5373 82.5149 10.5373 82.5149 10.5292C82.4986 10.3748 82.4661 10.2205 82.4255 10.0743C82.125 9.00226 81.4509 8.29566 80.3545 8.01952C79.8428 7.8977 79.323 7.88145 78.8032 7.96267C77.7068 8.12511 76.919 8.70988 76.5372 9.74946C76.1636 10.7403 76.1718 11.8286 76.5454 12.8195C76.8702 13.721 77.52 14.2895 78.454 14.5251C78.9494 14.6469 79.4692 14.6794 79.9809 14.6063C81.6865 14.4033 82.3931 13.1119 82.5068 11.9911H82.4986V11.8774C82.4905 11.8286 82.4824 11.788 82.5311 11.7555V11.7718C82.5311 11.7637 82.5392 11.7474 82.5474 11.7393V10.8053C82.5474 10.7972 82.5392 10.7972 82.5392 10.7891ZM80.59 12.3322C80.5413 12.5028 80.4682 12.6571 80.3626 12.8033C80.1839 13.055 79.8997 13.2175 79.591 13.2418C79.4367 13.2581 79.2824 13.2581 79.1281 13.2256C78.787 13.1606 78.5027 12.9332 78.3646 12.6165C78.2428 12.3647 78.1697 12.0885 78.1454 11.8124C78.1047 11.3332 78.0966 10.854 78.2103 10.383C78.2509 10.1962 78.3322 10.0094 78.4296 9.84693C78.6083 9.55454 78.9169 9.36774 79.258 9.34338C79.4124 9.32713 79.5667 9.32713 79.721 9.35962C80.0459 9.42459 80.3139 9.63576 80.4601 9.93627C80.5981 10.2205 80.6794 10.5373 80.6956 10.854C80.7037 11.0002 80.7118 11.1464 80.7037 11.2926C80.7281 11.65 80.6875 11.9992 80.59 12.3322ZM68.3017 5.26624H67.1728C66.8642 5.26624 66.8073 5.32309 66.8073 5.63172V8.26318C66.8073 8.32003 66.8317 8.37688 66.7911 8.43373C66.718 8.42561 66.6774 8.37688 66.6205 8.34439C65.7759 7.84897 64.8906 7.75963 63.9972 8.17384C63.3718 8.46622 62.982 8.99414 62.7302 9.61952C62.4865 10.2205 62.4297 10.854 62.4459 11.4957C62.4459 12.0967 62.584 12.6896 62.852 13.2256C63.1606 13.8185 63.6073 14.2733 64.2571 14.4682C65.1424 14.7444 65.9708 14.6063 66.7261 14.0459C66.783 14.0134 66.8155 13.9566 66.8885 13.9403C66.9292 14.0296 66.9616 14.1271 66.9779 14.2246C67.0104 14.3545 67.1241 14.4439 67.2622 14.4439H67.4571C67.7495 14.4439 68.0337 14.452 68.318 14.4439C68.5454 14.4439 68.6104 14.3708 68.6185 14.1352V5.57486C68.6104 5.32309 68.5454 5.26624 68.3017 5.26624ZM66.8155 11.2439V12.722C66.8317 12.8195 66.7748 12.9088 66.6855 12.9495C66.2957 13.1687 65.849 13.2581 65.4104 13.1931C65.0368 13.1525 64.7119 12.9251 64.5413 12.5921C64.4114 12.3322 64.3383 12.0561 64.3139 11.7718C64.249 11.2601 64.2896 10.7403 64.4114 10.2449C64.452 10.1068 64.5007 9.97688 64.5738 9.84693C64.7444 9.53018 65.0693 9.32713 65.4266 9.30277C65.8571 9.26216 66.2875 9.34338 66.6774 9.52206C66.7748 9.55454 66.8317 9.652 66.8236 9.75759C66.8073 10.2611 66.8155 10.7484 66.8155 11.2439Z" fill="white"/>
<path d="M45.8125 11.8041C46.4216 11.9178 47.047 11.926 47.6561 11.8285C48.0135 11.7798 48.3546 11.6742 48.6713 11.5036C49.0368 11.2925 49.3048 11.0001 49.4185 10.594C49.7028 9.57064 49.2642 8.53917 48.2003 8.15745C47.6805 7.98689 47.1282 7.93004 46.584 8.00313C45.3008 8.14932 44.4642 8.85592 44.0825 10.0823C43.8145 10.9189 43.847 11.7716 44.0663 12.6163C44.3505 13.6965 45.0653 14.3381 46.1454 14.5655C46.7627 14.7036 47.3881 14.6792 48.0053 14.5818C48.3302 14.5249 48.6551 14.4437 48.9637 14.3219C49.1505 14.2488 49.248 14.1351 49.2399 13.9239C49.2317 13.729 49.2399 13.526 49.2399 13.3229C49.2399 13.0793 49.1424 13.0062 48.9069 13.063C48.6713 13.1199 48.4439 13.1686 48.2084 13.2173C47.7048 13.3229 47.185 13.3229 46.6815 13.2336C45.9911 13.0955 45.5444 12.5026 45.585 11.7716C45.6581 11.7798 45.7394 11.7879 45.8125 11.8041ZM45.6094 10.5615C45.6338 10.3666 45.6906 10.1798 45.7637 10.0011C46.0074 9.4082 46.5191 9.20516 47.0388 9.23765C47.185 9.24577 47.3312 9.27825 47.4693 9.33511C47.6805 9.42445 47.8185 9.61937 47.8429 9.84678C47.8673 9.98485 47.8591 10.131 47.8185 10.2691C47.7211 10.5615 47.4855 10.6833 47.2013 10.7402C47.0307 10.7808 46.852 10.797 46.6734 10.7808C46.3566 10.7808 46.0317 10.7564 45.715 10.7077C45.5932 10.6914 45.5932 10.6914 45.6094 10.5615Z" fill="#00A8E1"/>
<path d="M73.207 11.8854C73.678 11.8529 74.1491 11.7636 74.5714 11.5361C75.0019 11.325 75.3024 10.927 75.3917 10.4559C75.4486 10.1636 75.4486 9.85493 75.3836 9.56254C75.2131 8.83158 74.7501 8.37676 74.0516 8.14123C73.6618 8.0194 73.2476 7.97067 72.8415 7.98692C71.477 8.0194 70.4374 8.70976 70.0151 10.0742C69.7308 10.9757 69.7715 11.8935 70.0476 12.795C70.3319 13.7209 70.9816 14.2813 71.9075 14.5331C72.3055 14.6305 72.7197 14.6712 73.1258 14.6549C73.7186 14.6468 74.3115 14.5331 74.8719 14.3219C75.1075 14.2326 75.1643 14.1514 75.1643 13.8996V13.3148C75.1562 13.0793 75.0587 12.9981 74.8232 13.0549C74.6445 13.1036 74.474 13.1443 74.2953 13.1849C73.7511 13.3148 73.1826 13.3392 72.6303 13.2417C72.078 13.1361 71.7044 12.8194 71.5583 12.2671C71.5176 12.1047 71.4852 11.9422 71.4689 11.7717C71.5095 11.7717 71.5501 11.7717 71.5826 11.7879C72.1187 11.8854 72.6628 11.926 73.207 11.8854ZM71.5095 10.5859C71.5664 10.2691 71.6395 9.96051 71.8344 9.70062C72.1349 9.30265 72.5491 9.18894 73.0202 9.23767C73.0608 9.23767 73.0933 9.25392 73.1339 9.25392C73.7024 9.34326 73.8405 9.79808 73.7349 10.2367C73.6537 10.5615 73.3857 10.6834 73.0851 10.7402C72.9227 10.7727 72.7522 10.7889 72.5816 10.7808C72.2486 10.7727 71.9237 10.7483 71.5989 10.6996C71.5258 10.6915 71.4933 10.659 71.5095 10.5859Z" fill="white"/>
</g>
<defs>
<filter id="filter0_f_6165_6476" x="7.54785" y="2.99976" width="85" height="30" filterUnits="userSpaceOnUse" color-interpolation-filters="sRGB">
<feFlood flood-opacity="0" result="BackgroundImageFix"/>
<feBlend mode="normal" in="SourceGraphic" in2="BackgroundImageFix" result="shape"/>
<feGaussianBlur stdDeviation="5" result="effect1_foregroundBlur_6165_6476"/>
</filter>
</defs>
</svg>
