<svg width="24" height="24" viewBox="0 0 24 24" fill="none" xmlns="http://www.w3.org/2000/svg">
<rect width="24" height="24" fill="#0B0B0B"/>
<path d="M22.5948 13.5898C22.6166 13.3117 22.6278 13.0305 22.6278 12.7468C22.6278 6.87724 17.8695 2.11899 11.9999 2.11899C6.13029 2.11899 1.37204 6.87724 1.37204 12.7468C1.37204 18.6164 6.13029 23.3747 11.9999 23.3747C15.1665 23.3747 18.0098 21.9896 19.9567 19.7927C20.1147 19.6143 20.0472 19.3392 19.834 19.2463L10.8405 15.3238C10.8254 15.3173 10.8188 15.3091 10.8153 15.3021C10.8111 15.2939 10.8089 15.2827 10.8108 15.2703C10.8127 15.2579 10.818 15.2477 10.8244 15.2411C10.8298 15.2355 10.8385 15.2296 10.8548 15.2277L22.2878 13.9069C22.4514 13.888 22.5817 13.7568 22.5948 13.5898Z" fill="#8313FF" stroke="#5817A1" stroke-width="0.299376"/>
<circle cx="9.70255" cy="10.432" r="3.77819" transform="rotate(-5 9.70255 10.432)" fill="white" stroke="#5817A1" stroke-width="0.299376"/>
<circle cx="10.5641" cy="10.7768" r="1.99584" transform="rotate(-5 10.5641 10.7768)" fill="#202020"/>
<circle cx="17.2567" cy="9.21813" r="3.77819" transform="rotate(-5 17.2567 9.21813)" fill="white" stroke="#5817A1" stroke-width="0.299376"/>
<circle cx="18.202" cy="9.55563" r="1.99584" transform="rotate(-5 18.202 9.55563)" fill="#202020"/>
</svg>
