<svg width="13" height="13" viewBox="0 0 13 13" fill="none" xmlns="http://www.w3.org/2000/svg">
<path id="Exclude" fill-rule="evenodd" clip-rule="evenodd" d="M6.94126 12.4009C10.2549 12.4009 12.9411 9.71472 12.9411 6.4011C12.9411 3.08747 10.2549 0.401245 6.94126 0.401245C3.62763 0.401245 0.941406 3.08747 0.941406 6.4011C0.941406 9.71472 3.62763 12.4009 6.94126 12.4009ZM7.84101 3.70118C7.84101 4.19823 7.43807 4.60116 6.94103 4.60116C6.44399 4.60116 6.04105 4.19823 6.04105 3.70118C6.04105 3.20414 6.44399 2.8012 6.94103 2.8012C7.43807 2.8012 7.84101 3.20414 7.84101 3.70118ZM6.94103 5.80113C7.27239 5.80113 7.54102 6.06975 7.54102 6.40111V9.40104C7.54102 9.7324 7.27239 10.001 6.94103 10.001C6.60967 10.001 6.34105 9.7324 6.34105 9.40104V6.40111C6.34105 6.06975 6.60967 5.80113 6.94103 5.80113Z" fill="#0B0B0B"/>
</svg>
