<svg width="24" height="24" viewBox="0 0 24 24" fill="none" xmlns="http://www.w3.org/2000/svg">
<path d="M13.117 8.4458L14.8991 8.45543C15.8303 8.45543 16.6491 8.79257 17.3555 9.46685C18.0619 10.1347 18.4151 10.9599 18.4151 11.9424C18.4151 12.9185 18.0683 13.7565 17.3748 14.4565C16.6876 15.1564 15.8528 15.5064 14.8702 15.5064H13.1074C12.7157 15.5064 12.4716 15.4262 12.3753 15.2656C12.2982 15.1308 12.2597 14.9253 12.2597 14.6491V9.29346C12.2597 9.13934 12.2629 9.02696 12.2693 8.95632C12.2822 8.88568 12.3143 8.8022 12.3657 8.70588C12.4556 8.53249 12.706 8.4458 13.117 8.4458ZM14.8991 13.8015C15.3615 13.8015 15.7789 13.6313 16.1514 13.2909C16.5239 12.9442 16.7101 12.5107 16.7101 11.9906C16.7101 11.4704 16.5271 11.0369 16.161 10.6902C15.8014 10.337 15.3776 10.1604 14.8895 10.1604H13.9647V13.8015H14.8991Z" fill="#C1FF12"/>
<path d="M9.90016 11.7086C10.3818 11.7086 10.7816 11.894 11.0995 12.2649C11.4222 12.6309 11.5835 13.0788 11.5835 13.6086V14.8801C11.5835 14.9909 11.5787 15.0752 11.5691 15.133C11.5642 15.186 11.545 15.2462 11.5113 15.3136C11.4438 15.4436 11.256 15.5086 10.9477 15.5086C10.6058 15.5086 10.4083 15.4195 10.3553 15.2413C10.3264 15.1595 10.312 15.0366 10.312 14.8729V13.6014C10.312 13.4039 10.2542 13.2498 10.1386 13.139C10.0278 13.0283 9.87607 12.9729 9.68342 12.9729C9.49557 12.9729 9.34145 13.0307 9.22104 13.1463C9.10544 13.2619 9.04764 13.4136 9.04764 13.6014V14.8801C9.04764 14.9909 9.04283 15.0752 9.03319 15.133C9.02838 15.186 9.0067 15.2462 8.96817 15.3136C8.90556 15.4436 8.72013 15.5086 8.41187 15.5086C8.10844 15.5086 7.923 15.4436 7.85557 15.3136C7.82186 15.2413 7.80018 15.1787 7.79055 15.1257C7.78573 15.068 7.78333 14.9837 7.78333 14.8729V12.3155C7.78333 12.2095 7.78573 12.13 7.79055 12.0771C7.80018 12.0193 7.82427 11.9567 7.8628 11.8892C7.93023 11.7688 8.11566 11.7086 8.4191 11.7086C8.7129 11.7086 8.89352 11.764 8.96095 11.8748C9.00911 11.9567 9.03319 12.0554 9.03319 12.171C9.05246 12.1373 9.09581 12.0891 9.16324 12.0265C9.23067 11.9639 9.29569 11.9133 9.35831 11.8748C9.52206 11.764 9.70268 11.7086 9.90016 11.7086Z" fill="#C1FF12"/>
<path d="M3.72445 8.36853C4.67489 8.36853 5.50011 8.71209 6.2001 9.39921C6.9001 10.0863 7.25009 10.9404 7.25009 11.9615C7.25009 12.9761 6.91615 13.843 6.24827 14.5622C5.58039 15.275 4.75838 15.6314 3.78225 15.6314C2.80611 15.6314 1.97447 15.2782 1.28732 14.5719C0.606598 13.8655 0.266235 13.0242 0.266235 12.0481C0.266235 11.5151 0.362564 11.0175 0.555223 10.5551C0.747881 10.0863 1.00476 9.6946 1.32585 9.37994C1.64695 9.06528 2.01621 8.81805 2.43364 8.63824C2.85106 8.45843 3.28133 8.36853 3.72445 8.36853ZM1.97126 12C1.97126 12.5715 2.15428 13.0371 2.52034 13.3967C2.89281 13.7499 3.30702 13.9265 3.76298 13.9265C4.21894 13.9265 4.62994 13.7531 4.99599 13.4063C5.36204 13.0596 5.54507 12.594 5.54507 12.0096C5.54507 11.4252 5.35883 10.9565 4.98636 10.6033C4.62031 10.2501 4.2093 10.0735 3.75335 10.0735C3.29739 10.0735 2.88639 10.2533 2.52034 10.6129C2.15428 10.9661 1.97126 11.4285 1.97126 12Z" fill="#C1FF12"/>
<path d="M23.7628 13.3787C23.7679 13.3136 23.7705 13.2479 23.7705 13.1816C23.7705 11.8091 22.6579 10.6966 21.2854 10.6966C19.9129 10.6966 18.8003 11.8091 18.8003 13.1816C18.8003 14.554 19.9129 15.6666 21.2854 15.6666C22.0259 15.6666 22.6907 15.3427 23.146 14.829C23.1829 14.7873 23.1671 14.723 23.1173 14.7013L21.0143 13.7841C21.0108 13.7826 21.0093 13.7807 21.0084 13.779C21.0075 13.7771 21.007 13.7745 21.0074 13.7716C21.0078 13.7687 21.0091 13.7663 21.0106 13.7648C21.0118 13.7635 21.0139 13.7621 21.0177 13.7616L23.6911 13.4528C23.7293 13.4484 23.7598 13.4177 23.7628 13.3787Z" fill="#8313FF" stroke="#5817A1" stroke-width="0.0700015"/>
<path d="M20.8275 13.5203C21.3135 13.4778 21.6731 13.0493 21.6306 12.5633C21.588 12.0772 21.1595 11.7177 20.6735 11.7602C20.1874 11.8027 19.8279 12.2312 19.8704 12.7173C19.9129 13.2033 20.3414 13.5628 20.8275 13.5203Z" fill="white" stroke="#5817A1" stroke-width="0.0700015"/>
<ellipse cx="0.466686" cy="0.466667" rx="0.466686" ry="0.466667" transform="matrix(0.996195 -0.0871521 0.0871594 0.996194 20.4462 12.2968)" fill="#202020"/>
<path d="M22.5913 13.2366C23.0773 13.1941 23.4369 12.7656 23.3944 12.2796C23.3518 11.7935 22.9233 11.434 22.4373 11.4765C21.9512 11.519 21.5916 11.9475 21.6342 12.4336C21.6767 12.9196 22.1052 13.2791 22.5913 13.2366Z" fill="white" stroke="#5817A1" stroke-width="0.0700015"/>
<ellipse cx="0.466686" cy="0.466667" rx="0.466686" ry="0.466667" transform="matrix(0.996195 -0.0871521 0.0871594 0.996194 22.2297 12.0112)" fill="#202020"/>
</svg>
