<svg width="16" height="16" viewBox="0 0 16 16" fill="none" xmlns="http://www.w3.org/2000/svg">
<path fill-rule="evenodd" clip-rule="evenodd" d="M12.2708 2.75C12.7515 2.75 13.2126 2.94096 13.5525 3.28087C13.8924 3.62078 14.0833 4.08179 14.0833 4.5625V10.6042C14.0833 11.0849 13.8924 11.5459 13.5525 11.8858C13.2126 12.2257 12.7515 12.4167 12.2708 12.4167H5.22202L3.20833 13.9271C2.7105 14.3005 2 13.9452 2 13.3229V4.5625C2 4.08179 2.19096 3.62078 2.53087 3.28087C2.87078 2.94096 3.33179 2.75 3.8125 2.75H12.2708ZM7.4375 8.1875H5.625C5.46476 8.1875 5.31109 8.25115 5.19779 8.36446C5.08449 8.47776 5.02083 8.63143 5.02083 8.79167C5.02083 8.9519 5.08449 9.10557 5.19779 9.21888C5.31109 9.33218 5.46476 9.39583 5.625 9.39583H7.4375C7.59773 9.39583 7.75141 9.33218 7.86471 9.21888C7.97801 9.10557 8.04167 8.9519 8.04167 8.79167C8.04167 8.63143 7.97801 8.47776 7.86471 8.36446C7.75141 8.25115 7.59773 8.1875 7.4375 8.1875ZM10.4583 5.77083H5.625C5.47101 5.771 5.3229 5.82997 5.21092 5.93568C5.09895 6.04139 5.03157 6.18587 5.02254 6.33959C5.01352 6.49332 5.06353 6.64469 5.16237 6.76277C5.2612 6.88086 5.4014 6.95675 5.55431 6.97494L5.625 6.97917H10.4583C10.6123 6.979 10.7604 6.92003 10.8724 6.81432C10.9844 6.70861 11.0518 6.56413 11.0608 6.41041C11.0698 6.25668 11.0198 6.10531 10.921 5.98723C10.8221 5.86914 10.6819 5.79325 10.529 5.77506L10.4583 5.77083Z" fill="#6D6D6D"/>
</svg>
