<svg width="25" height="24" viewBox="0 0 25 24" fill="none" xmlns="http://www.w3.org/2000/svg">
<path d="M12.7675 10C11.6568 10 10.748 10.9 10.748 12C10.748 13.1 11.6568 14 12.7675 14C13.8781 14 14.7869 13.1 14.7869 12C14.7869 10.9 13.8781 10 12.7675 10ZM12.7675 4C11.6568 4 10.748 4.9 10.748 6C10.748 7.1 11.6568 8 12.7675 8C13.8781 8 14.7869 7.1 14.7869 6C14.7869 4.9 13.8781 4 12.7675 4ZM12.7675 16C11.6568 16 10.748 16.9 10.748 18C10.748 19.1 11.6568 20 12.7675 20C13.8781 20 14.7869 19.1 14.7869 18C14.7869 16.9 13.8781 16 12.7675 16Z" fill="#F2F2F2"/>
</svg>
