<svg width="18" height="14" viewBox="0 0 18 14" fill="none" xmlns="http://www.w3.org/2000/svg">
<path d="M12.9523 0.974121C15.5753 0.974121 17.9493 2.53467 17.9493 6.88428C17.9659 10.9185 15.9571 13.3257 12.8859 13.3257C10.3458 13.3257 8.63585 11.7319 8.40343 9.67334H11.2091C11.3751 10.4868 12.0226 10.9019 12.8859 10.9019C14.3966 10.9019 15.1437 9.52393 15.1603 7.29932H15.0773C14.546 8.37842 13.3507 9.00928 11.9894 9.00928C9.83116 9.00928 8.28722 7.39893 8.28722 5.19092C8.27062 2.70068 10.1632 0.974121 12.9523 0.974121ZM12.9689 3.14893C11.84 3.14893 11.0265 4.01221 11.0265 5.09131C11.0431 6.18701 11.8234 7.03369 12.9523 7.03369C14.048 7.03369 14.8946 6.15381 14.8946 5.09131C14.878 4.02881 14.0646 3.14893 12.9689 3.14893Z" fill="#EA3F80"/>
<path d="M5.9502 1.14014V13.1597H3.11133V3.79639H3.04492L0.338867 5.45654V2.99951L3.31055 1.14014H5.9502Z" fill="#EA3F80"/>
</svg>
