<svg width="19" height="14" viewBox="0 0 19 14" fill="none" xmlns="http://www.w3.org/2000/svg">
<g id="19">
<path id="Vector" d="M13.2941 0.974121C15.9171 0.974121 18.2911 2.53467 18.2911 6.88428C18.3077 10.9185 16.2989 13.3257 13.2276 13.3257C10.6876 13.3257 8.97765 11.7319 8.74523 9.67334H11.5509C11.7169 10.4868 12.3644 10.9019 13.2276 10.9019C14.7384 10.9019 15.4855 9.52393 15.5021 7.29932H15.4191C14.8878 8.37842 13.6925 9.00928 12.3312 9.00928C10.173 9.00928 8.62901 7.39893 8.62901 5.19092C8.61241 2.70068 10.505 0.974121 13.2941 0.974121ZM13.3107 3.14893C12.1817 3.14893 11.3683 4.01221 11.3683 5.09131C11.3849 6.18701 12.1651 7.03369 13.2941 7.03369C14.3898 7.03369 15.2364 6.15381 15.2364 5.09131C15.2198 4.02881 14.4064 3.14893 13.3107 3.14893Z" fill="#EA3F80"/>
<path id="Vector_2" d="M6.29199 1.14014V13.1597H3.45312V3.79639H3.38672L0.680664 5.45654V2.99951L3.65234 1.14014H6.29199Z" fill="#EA3F80"/>
</g>
</svg>
