<svg width="24" height="20" viewBox="0 0 24 20" fill="none" xmlns="http://www.w3.org/2000/svg">
<rect x="0.700012" width="22.6" height="20" rx="7" fill="#FBB920"/>
<path d="M15.7313 16.2368C13.1082 16.2368 11.199 14.7095 11.1658 12.5679H13.9217C13.9549 13.4644 14.7518 14.0454 15.7313 14.0454C16.8602 14.0454 17.6736 13.2485 17.657 12.0864C17.6736 10.9077 16.8436 10.1108 15.6981 10.1108C14.8348 10.1108 14.2703 10.4429 13.9383 11.0903H11.3983L11.9959 4.05127H19.6824V6.34229H14.3201L14.0379 9.21436H14.1209C14.5359 8.55029 15.4656 8.08545 16.5945 8.08545C18.7859 8.08545 20.3963 9.7124 20.3963 12.0034C20.3963 14.4771 18.5203 16.2368 15.7313 16.2368Z" fill="#313330"/>
<path d="M8.66296 4.05127V16.0708H5.8241V6.70752H5.75769L3.05164 8.36768V5.91064L6.02332 4.05127H8.66296Z" fill="#313330"/>
</svg>
