<svg width="24" height="20" viewBox="0 0 24 20" fill="none" xmlns="http://www.w3.org/2000/svg">
<rect x="0.700012" width="22.6" height="20" rx="7" fill="#EA3F80"/>
<path d="M15.6416 3.96826C18.2646 3.96826 20.6387 5.52881 20.6387 9.87842C20.6553 13.9126 18.6465 16.3198 15.5752 16.3198C13.0351 16.3198 11.3252 14.7261 11.0928 12.6675H13.8984C14.0644 13.481 14.7119 13.896 15.5752 13.896C17.0859 13.896 17.833 12.5181 17.8496 10.2935H17.7666C17.2353 11.3726 16.04 12.0034 14.6787 12.0034C12.5205 12.0034 10.9765 10.3931 10.9765 8.18506C10.9599 5.69482 12.8525 3.96826 15.6416 3.96826ZM15.6582 6.14307C14.5293 6.14307 13.7158 7.00635 13.7158 8.08545C13.7324 9.18115 14.5127 10.0278 15.6416 10.0278C16.7373 10.0278 17.584 9.14795 17.584 8.08545C17.5674 7.02295 16.7539 6.14307 15.6582 6.14307Z" fill="#313330"/>
<path d="M8.63971 4.13428V16.1538H5.80084V6.79053H5.73444L3.02838 8.45068V5.99365L6.00006 4.13428H8.63971Z" fill="#313330"/>
</svg>
