<svg width="24" height="20" viewBox="0 0 24 20" fill="none" xmlns="http://www.w3.org/2000/svg">
<rect x="0.700012" width="22.6" height="20" rx="7" fill="#F0F720"/>
<path d="M11.5145 16.0098V13.9678L15.8973 10.1162C16.91 9.18652 17.491 8.57227 17.5076 7.65918C17.491 6.66309 16.7606 6.03223 15.7479 6.03223C14.7186 6.03223 14.0379 6.67969 14.0379 7.77539H11.3484C11.3484 5.35156 13.1248 3.82422 15.7645 3.82422C18.4705 3.82422 20.2469 5.28516 20.2469 7.44336C20.2469 8.82129 19.5662 9.9668 16.9598 12.2412L15.449 13.6357V13.7188H20.3963V16.0098H11.5145Z" fill="#313330"/>
<path d="M8.70483 3.99023V16.0098H5.86597V6.64648H5.79956L3.09351 8.30664V5.84961L6.06519 3.99023H8.70483Z" fill="#313330"/>
</svg>
