<svg width="25" height="24" viewBox="0 0 25 24" fill="none" xmlns="http://www.w3.org/2000/svg">
<g opacity="0.6">
<path d="M16.3838 18.2427C13.7607 18.2427 11.8516 16.7153 11.8184 14.5737H14.5742C14.6074 15.4702 15.4043 16.0513 16.3838 16.0513C17.5127 16.0513 18.3262 15.2544 18.3096 14.0923C18.3262 12.9136 17.4961 12.1167 16.3506 12.1167C15.4873 12.1167 14.9229 12.4487 14.5908 13.0962H12.0508L12.6484 6.05713H20.335V8.34814H14.9727L14.6904 11.2202H14.7734C15.1885 10.5562 16.1182 10.0913 17.2471 10.0913C19.4385 10.0913 21.0488 11.7183 21.0488 14.0093C21.0488 16.4829 19.1729 18.2427 16.3838 18.2427Z" fill="#FBB920"/>
<path d="M9.31543 6.05713V18.0767H6.47656V8.71338H6.41016L3.7041 10.3735V7.9165L6.67578 6.05713H9.31543Z" fill="#FBB920"/>
</g>
</svg>
