<svg width="18" height="13" viewBox="0 0 18 13" fill="none" xmlns="http://www.w3.org/2000/svg">
<path d="M8.51447 13.0098V10.9678L12.8973 7.11621C13.91 6.18652 14.491 5.57227 14.5076 4.65918C14.491 3.66309 13.7606 3.03223 12.7479 3.03223C11.7186 3.03223 11.0379 3.67969 11.0379 4.77539H8.34845C8.34845 2.35156 10.1248 0.824219 12.7645 0.824219C15.4705 0.824219 17.2469 2.28516 17.2469 4.44336C17.2469 5.82129 16.5662 6.9668 13.9598 9.24121L12.449 10.6357V10.7188H17.3963V13.0098H8.51447Z" fill="#F0F720"/>
<path d="M5.70483 0.990234V13.0098H2.86597V3.64648H2.79956L0.0935059 5.30664V2.84961L3.06519 0.990234H5.70483Z" fill="#F0F720"/>
</svg>
