<svg width="18" height="13" viewBox="0 0 18 13" fill="none" xmlns="http://www.w3.org/2000/svg">
<path d="M13.042 12.2427C10.4189 12.2427 8.50977 10.7153 8.47656 8.57373H11.2324C11.2656 9.47021 12.0625 10.0513 13.042 10.0513C14.1709 10.0513 14.9844 9.25439 14.9678 8.09229C14.9844 6.91357 14.1543 6.1167 13.0088 6.1167C12.1455 6.1167 11.5811 6.44873 11.249 7.09619H8.70898L9.30664 0.0571289H16.9932V2.34814H11.6309L11.3486 5.22021H11.4316C11.8467 4.55615 12.7764 4.09131 13.9053 4.09131C16.0967 4.09131 17.707 5.71826 17.707 8.00928C17.707 10.4829 15.8311 12.2427 13.042 12.2427Z" fill="#FBB920"/>
<path d="M5.97363 0.0571289V12.0767H3.13477V2.71338H3.06836L0.362305 4.37354V1.9165L3.33398 0.0571289H5.97363Z" fill="#FBB920"/>
</svg>
