<svg width="25" height="24" viewBox="0 0 25 24" fill="none" xmlns="http://www.w3.org/2000/svg">
<g id="home">
<rect width="24" height="24" transform="translate(0.5)" fill="#0B0B0B"/>
<g id="Group 625983">
<path id="Subtract" d="M12.7661 2.19105C12.6142 2.05506 12.3843 2.05507 12.2324 2.19107L2.79431 10.6425C2.60591 10.8302 2.5 11.0851 2.5 11.351V21.5938C2.5 21.8147 2.67909 21.9938 2.9 21.9938H9.22912H15.7706H22.1C22.3209 21.9938 22.5 21.8147 22.5 21.5937L22.4999 11.351C22.4998 11.0851 22.3939 10.8302 22.2055 10.6425L12.7661 2.19105Z" fill="#6C6E68"/>
<path id="Polygon 2" d="M16.35 14.5886C16.75 14.8195 16.75 15.3969 16.35 15.6278L10.65 18.9187C10.25 19.1497 9.75 18.861 9.75 18.3991L9.75 11.8173C9.75 11.3554 10.25 11.0668 10.65 11.2977L16.35 14.5886Z" fill="#0B0B0B"/>
</g>
</g>
</svg>
