<svg width="21" height="21" viewBox="0 0 21 21" fill="none" xmlns="http://www.w3.org/2000/svg">
<g id="Group 625983">
<path id="Subtract" d="M10.7661 1.19105C10.6142 1.05506 10.3843 1.05507 10.2324 1.19107L0.794314 9.64252C0.605908 9.83017 0.5 10.0851 0.5 10.351V20.5938C0.5 20.8147 0.679086 20.9938 0.9 20.9938H7.22912H13.7706H20.1C20.3209 20.9938 20.5 20.8147 20.5 20.5937L20.4999 10.351C20.4998 10.0851 20.3939 9.83016 20.2055 9.64252L10.7661 1.19105Z" fill="#BFFF00"/>
<path id="Polygon 2" d="M14.35 13.5886C14.75 13.8195 14.75 14.3969 14.35 14.6278L8.65 17.9187C8.25 18.1497 7.75 17.861 7.75 17.3991L7.75 10.8173C7.75 10.3554 8.25 10.0668 8.65 10.2977L14.35 13.5886Z" fill="#0B0B0B"/>
</g>
</svg>
