<svg width="25" height="24" viewBox="0 0 25 24" fill="none" xmlns="http://www.w3.org/2000/svg">
<rect width="24" height="24" transform="translate(0.5)" fill="#0B0B0B"/>
<path d="M2.01351 11.8781C2.01351 17.5335 5.94416 22.1182 11.5996 22.1182C14.1855 22.1182 19.9826 22.0245 21.8345 21.9934C22.1596 21.9879 22.4174 21.7265 22.4204 21.4015C22.4382 19.4709 22.4937 13.2796 22.4937 11.1341C22.4937 5.47862 17.909 1.638 12.2536 1.638C6.59815 1.638 2.01351 6.22264 2.01351 11.8781Z" fill="#BFFF00"/>
<path fill-rule="evenodd" clip-rule="evenodd" d="M15.5371 11.0927C15.5371 11.3134 15.3583 11.4924 15.1376 11.4927L9.93764 11.4995C9.71652 11.4998 9.53711 11.3206 9.53711 11.0995V9.3074C9.53711 9.08669 9.71587 8.90769 9.93658 8.9074L15.1366 8.90055C15.3577 8.90026 15.5371 9.07943 15.5371 9.30055V11.0927Z" fill="#0B0B0B"/>
<path fill-rule="evenodd" clip-rule="evenodd" d="M9.93711 16.9001C9.7162 16.9001 9.53711 16.721 9.53711 16.5001V14.5001C9.53711 14.2792 9.7162 14.1001 9.93711 14.1001H17.1371C17.358 14.1001 17.5371 14.2792 17.5371 14.5001V16.5001C17.5371 16.721 17.358 16.9001 17.1371 16.9001H9.93711Z" fill="#0B0B0B"/>
</svg>
