<svg width="25" height="24" viewBox="0 0 25 24" fill="none" xmlns="http://www.w3.org/2000/svg">
<g id="icon">
<rect width="24" height="24" transform="translate(0.5)" fill="#0B0B0B"/>
<path id="Subtract" fill-rule="evenodd" clip-rule="evenodd" d="M21.8015 16.3737C22.0176 16.3737 22.1946 16.2021 22.2013 15.9861L22.4872 6.77722C22.4976 6.44227 22.1162 6.24378 21.8479 6.44448L17.7569 9.50404C17.5766 9.63889 17.3206 9.59841 17.1907 9.41452L12.8443 3.26235C12.6801 3.02994 12.3326 3.03846 12.18 3.27862L8.26649 9.43712C8.14561 9.62735 7.89151 9.68019 7.70481 9.55393L3.14098 6.46754C2.86952 6.28396 2.50459 6.48681 2.5172 6.81427L2.87046 15.9891C2.87872 16.2039 3.05523 16.3737 3.27016 16.3737H21.8015ZM22.0957 19.3861C22.1027 19.1605 21.9217 18.9737 21.6959 18.9737H3.40107C3.17412 18.9737 2.99263 19.1623 3.00136 19.3891L3.06863 21.1361C3.0769 21.3509 3.25341 21.5207 3.46833 21.5207H21.6417C21.8577 21.5207 22.0348 21.3491 22.0415 21.1331L22.0957 19.3861Z" fill="#BFFF00"/>
</g>
</svg>
