<svg width="25" height="24" viewBox="0 0 25 24" fill="none" xmlns="http://www.w3.org/2000/svg">
<rect width="24" height="24" transform="translate(0.5)" fill="#0B0B0B"/>
<path fill-rule="evenodd" clip-rule="evenodd" d="M12.5002 22.5C18.2992 22.5 23.0002 17.799 23.0002 12C23.0002 6.20101 18.2992 1.5 12.5002 1.5C6.70125 1.5 2.00024 6.20101 2.00024 12C2.00024 17.799 6.70125 22.5 12.5002 22.5ZM13.0737 10.0859C13.0737 11.1905 12.1783 12.0859 11.0737 12.0859C9.96916 12.0859 9.07373 11.1905 9.07373 10.0859C9.07373 8.98137 9.96916 8.08594 11.0737 8.08594C12.1783 8.08594 13.0737 8.98137 13.0737 10.0859ZM18.728 12.0859C19.8326 12.0859 20.728 11.1905 20.728 10.0859C20.728 8.98137 19.8326 8.08594 18.728 8.08594C17.6235 8.08594 16.728 8.98137 16.728 10.0859C16.728 11.1905 17.6235 12.0859 18.728 12.0859Z" fill="#6C6E68"/>
<path fill-rule="evenodd" clip-rule="evenodd" d="M13.88 9.66731C13.88 11.6755 12.2521 13.3034 10.244 13.3034C8.23583 13.3034 6.60791 11.6755 6.60791 9.66731C6.60791 7.65917 8.23583 6.03125 10.244 6.03125C12.2521 6.03125 13.88 7.65917 13.88 9.66731ZM21.4503 9.66731C21.4503 11.6755 19.8224 13.3034 17.8143 13.3034C15.8061 13.3034 14.1782 11.6755 14.1782 9.66731C14.1782 7.65917 15.8061 6.03125 17.8143 6.03125C19.8224 6.03125 21.4503 7.65917 21.4503 9.66731ZM13.0737 10.0859C13.0737 11.1905 12.1783 12.0859 11.0737 12.0859C9.96916 12.0859 9.07373 11.1905 9.07373 10.0859C9.07373 8.98137 9.96916 8.08594 11.0737 8.08594C12.1783 8.08594 13.0737 8.98137 13.0737 10.0859ZM18.728 12.0859C19.8326 12.0859 20.728 11.1905 20.728 10.0859C20.728 8.98137 19.8326 8.08594 18.728 8.08594C17.6235 8.08594 16.728 8.98137 16.728 10.0859C16.728 11.1905 17.6235 12.0859 18.728 12.0859Z" fill="#C2C4C0"/>
</svg>
